<svg xmlns="http://www.w3.org/2000/svg" viewBox="0 0 147.44 132.79"><defs><style>.cls-1{fill:#2f6e84;}</style></defs><g id="Layer_15" data-name="Layer 15"><path class="cls-1" d="M123.71,50.87l-6.58,2.94v46.81a6,6,0,0,1-12,0V59.16L92.19,64.93v35.69a6,6,0,0,1-12,0V70.29L67.25,76.06v24.56a6,6,0,0,1-12,0V81.42L42.31,87.19v13.43a6,6,0,1,1-12,0V92.55l-1.69.75a6.09,6.09,0,0,1-2.44.52,6,6,0,0,1-2.45-11.48l6.58-2.94V32.58a6,6,0,0,1,12,0V74.05l12.94-5.77V32.58a6,6,0,0,1,12,0V62.92l12.94-5.77V32.58a6,6,0,0,1,12,0V51.79L105.13,46V32.58a6,6,0,1,1,12,0v8.08l1.69-.75a6,6,0,0,1,4.89,11Z"/><line class="cls-1" x1="121.26" y1="45.39" x2="117.13" y2="47.23"/><line class="cls-1" x1="30.31" y1="85.97" x2="26.17" y2="87.82"/></g></svg>