<svg xmlns="http://www.w3.org/2000/svg" viewBox="0 0 147.44 132.79"><defs><style>.cls-1{fill:#2f6e84;}.cls-2{fill:#3e5768;}.cls-3{fill:#fff;}.cls-4{fill:#444;}.cls-5{fill:#a0a0a0;}.cls-6{fill:#eaa89b;}.cls-7{fill:#fca;}.cls-8{fill:#e0e0e0;}.cls-9{fill:#fcb03b;}</style></defs><g id="Layer_13" data-name="Layer 13"><path class="cls-1" d="M101,74.62a38.59,38.59,0,0,0-65.88,27.29V126c0,21.32,17.28,58.59,38.59,58.59s38.59-37.27,38.59-58.59V101.91A38.51,38.51,0,0,0,101,74.62ZM81.64,106.25l-.32,1.59-6.58,32.5-1,5-1-5-6.59-32.5-.32-1.59L58.54,70.34H72.75l1-5,1,5H88.91Z"/><polygon class="cls-2" points="73.72 65.34 74.69 70.34 72.75 70.34 73.72 65.34"/><polygon class="cls-3" points="72.75 70.34 66.47 102.84 65.81 106.25 58.53 70.34 72.75 70.34"/><polygon class="cls-3" points="88.91 70.34 81.64 106.25 80.97 102.84 74.69 70.34 88.91 70.34"/><polygon class="cls-4" points="81.64 106.25 81.31 107.84 74.73 140.34 72.72 140.34 66.13 107.84 65.81 106.25 66.47 102.84 72.75 70.34 74.69 70.34 80.97 102.84 81.64 106.25"/><polygon class="cls-3" points="74.69 70.34 72.75 70.34 73.72 65.34 74.69 70.34"/><path class="cls-5" d="M91.65,43.21H55.81c-7.33,0-12.47-6.59-11.53-14.26l.56-4.64a14.88,14.88,0,0,1,.43-2.13,7.54,7.54,0,0,0,7.21,5.31H95a7.55,7.55,0,0,0,7.21-5.29,13.37,13.37,0,0,1,.43,2.11l.56,4.64C104.11,36.62,99,43.21,91.65,43.21Z"/><rect class="cls-6" x="44.77" y="35.01" width="57.89" height="16.91" rx="8.46"/><path class="cls-7" d="M94.66,14.4V57.24a7.13,7.13,0,0,0-7.13-7.13H59.93a7.13,7.13,0,0,0-7.13,7.13V14.4Z"/><path class="cls-5" d="M94.66,57.24v.22a20.21,20.21,0,0,1-.1,2.07,20.93,20.93,0,0,1-41.66,0,20.21,20.21,0,0,1-.1-2.07v-.22a7.13,7.13,0,0,1,7.13-7.13h27.6A7.13,7.13,0,0,1,94.66,57.24Z"/><path class="cls-5" d="M52.8,57.46a20.21,20.21,0,0,0,.1,2.07,6.23,6.23,0,0,1-.1-1.15Z"/><path class="cls-5" d="M94.66,57.46v.92a6.23,6.23,0,0,1-.1,1.15A20.21,20.21,0,0,0,94.66,57.46Z"/><path class="cls-3" d="M64.28,57H83.17a3.14,3.14,0,0,1,3.14,3.14v0A11.35,11.35,0,0,1,75,71.5H72.49A11.35,11.35,0,0,1,61.14,60.15v0A3.14,3.14,0,0,1,64.28,57Z"/><circle class="cls-7" cx="73.72" cy="50.11" r="4.43"/><path class="cls-4" d="M102.67,20.44l-.4,1.48a2.29,2.29,0,0,1-.09.28A7.55,7.55,0,0,1,95,27.49H52.48a7.54,7.54,0,0,1-7.21-5.31,2,2,0,0,1-.08-.26l-.41-1.48Z"/><path class="cls-8" d="M103.73,16.56l-1.06,3.88H44.78l-1.06-3.87A10,10,0,0,1,53.33,4H94.12A10,10,0,0,1,103.73,16.56Z"/><circle class="cls-9" cx="73.72" cy="12.2" r="5.5"/><circle class="cls-4" cx="62.64" cy="35.01" r="3.43"/><circle class="cls-4" cx="84.81" cy="35.01" r="3.43"/><path class="cls-4" d="M84.61,61.16a2.61,2.61,0,0,1,1.36.38,4.11,4.11,0,0,1,.94.78A10.06,10.06,0,0,1,88.14,64c.68,1.17,1.24,2.33,1.81,3.48a28.4,28.4,0,0,0,3.65,6.22,3.24,3.24,0,0,0,2,1.28,4.63,4.63,0,0,0,1.12-.18,3.67,3.67,0,0,0,.53-.22c.14-.12.32-.16.43-.3a3.65,3.65,0,0,0,1.09-2,7.05,7.05,0,0,0,.19-1.4c0-.25,0-.49,0-.74a3.9,3.9,0,0,0-.06-.62,3,3,0,0,1,5.75-1.88,3.09,3.09,0,0,1,.15,1.12l0,.64a9.9,9.9,0,0,1-.16,1.28c-.07.39-.16.77-.26,1.15a14.29,14.29,0,0,1-.8,2.27,8.72,8.72,0,0,1-3.46,4,8,8,0,0,1-1.27.56,9.41,9.41,0,0,1-1.3.29,8.93,8.93,0,0,1-1.26.06,5.48,5.48,0,0,1-1.4-.15,5.68,5.68,0,0,1-2.44-1.27,9.09,9.09,0,0,1-1.56-1.78A19.56,19.56,0,0,1,89,72.1c-.49-1.23-.92-2.44-1.34-3.64s-.83-2.38-1.33-3.47a8.57,8.57,0,0,0-.84-1.47,1.58,1.58,0,0,0-.89-.7l-.14,0a.82.82,0,0,1-.68-.94A.83.83,0,0,1,84.61,61.16Z"/></g></svg>