<svg id="Layer_1" data-name="Layer 1" xmlns="http://www.w3.org/2000/svg" xmlns:xlink="http://www.w3.org/1999/xlink" viewBox="0 0 344.14 257.34"><defs><style>.cls-1{fill:none;}.cls-2{clip-path:url(#clip-path);}.cls-3{fill:#215d71;}.cls-4{fill:#93bd59;}.cls-5,.cls-6{isolation:isolate;}.cls-6{font-size:20.59px;fill:#b7d9e1;font-family:OpenSans, Open Sans;}</style><clipPath id="clip-path" transform="translate(-33.09 -63.44)"><rect class="cls-1" x="34.73" y="67.4" width="340.85" height="249.41" transform="translate(-6.6 7.3) rotate(-2.01)"/></clipPath></defs><g id="Group_67" data-name="Group 67"><g class="cls-2"><g id="Group_66" data-name="Group 66"><path id="Path_185" data-name="Path 185" class="cls-3" d="M109.51,106.81l-65.9,93.25-9.86-46.38A30.07,30.07,0,0,1,56.89,118Z" transform="translate(-33.09 -63.44)"/><path id="Path_186" data-name="Path 186" class="cls-3" d="M362.93,166.39,281.56,281.48,99.88,320.11A30.06,30.06,0,0,1,64.21,297h0L49.64,228.38l90.59-128.09L310.44,64.1a30.06,30.06,0,0,1,35.65,23.15Z" transform="translate(-33.09 -63.44)"/><path id="Path_187" data-name="Path 187" class="cls-3" d="M353.42,266.19,312.23,275,369,194.75l7.61,35.77a30.07,30.07,0,0,1-23.15,35.66" transform="translate(-33.09 -63.44)"/><path id="Path_188" data-name="Path 188" class="cls-4" d="M140.21,100.29,49.63,228.38l-6-28.32,65.9-93.25Z" transform="translate(-33.09 -63.44)"/><path id="Path_189" data-name="Path 189" class="cls-4" d="M369,194.75,312.23,275l-30.67,6.53L362.94,166.4Z" transform="translate(-33.09 -63.44)"/></g></g></g><g id="_" data-name=" " class="cls-5"><text class="cls-6" transform="translate(76.13 126.51) rotate(-11)">**** **** **** ****</text><text class="cls-6" transform="translate(86.61 180.41) rotate(-11)">**/**</text></g></svg>