<svg xmlns="http://www.w3.org/2000/svg" viewBox="0 0 147.44 132.79"><defs><style>.cls-1{fill:none;stroke:#93be59;stroke-linecap:round;stroke-width:14px;}.cls-1,.cls-2{stroke-miterlimit:10;}.cls-2{fill:#93bd59;stroke:#93bd59;stroke-width:6px;}.cls-3{fill:#93be59;}</style></defs><g id="Layer_13" data-name="Layer 13"><path class="cls-1" d="M21.16,66.4a51.67,51.67,0,1,1,9.18,29.42"/><path class="cls-2" d="M24,52.2h11.5a4.62,4.62,0,0,1,4,6.93l-5.75,10L28,79.05a4.62,4.62,0,0,1-8,0l-5.76-10-5.75-10a4.62,4.62,0,0,1,4-6.93Z"/><path class="cls-3" d="M72.85,73.4a7,7,0,0,1-7-7v-28a7,7,0,0,1,14,0v28A7,7,0,0,1,72.85,73.4Z"/><path class="cls-3" d="M93.83,73.4h-21a7,7,0,0,1,0-14h21a7,7,0,0,1,0,14Z"/></g></svg>