<svg xmlns="http://www.w3.org/2000/svg" viewBox="0 0 147.44 132.79"><defs><style>.cls-1{fill:#93be59;}</style></defs><g id="Layer_13" data-name="Layer 13"><path class="cls-1" d="M131.55,66.4a58.7,58.7,0,0,1-107,33.41,7,7,0,0,1,11.51-8A44.7,44.7,0,1,0,31.6,49.2h3.93a7.62,7.62,0,0,1,6.6,11.43L30.62,80.55a7.61,7.61,0,0,1-13.2,0L5.92,60.63a7.62,7.62,0,0,1,6.6-11.43h4.21A58.7,58.7,0,0,1,131.55,66.4Z"/><path class="cls-1" d="M100.83,66.4a7,7,0,0,1-7,7h-21a7,7,0,0,1-7-7v-28a7,7,0,0,1,14,0v21h14A7,7,0,0,1,100.83,66.4Z"/></g></svg>