<svg xmlns="http://www.w3.org/2000/svg" viewBox="0 0 147.44 132.79"><defs><style>.cls-1{fill:#2B6D85;}</style></defs><g id="Layer_13" data-name="Layer 13"><path class="cls-1" d="M74.53,7.16c-38.9,0-70.44,24-70.44,53.7A44.24,44.24,0,0,0,13.74,88L7.36,107.62c-2.19,6.76,2.91,11,9.19,7.72l18.68-9.9a86.22,86.22,0,0,0,39.3,9.13c38.9,0,70.44-24,70.44-53.71S113.43,7.16,74.53,7.16ZM33.84,75.55A14.69,14.69,0,1,1,48.52,60.86,14.69,14.69,0,0,1,33.84,75.55ZM82,73.5a14.69,14.69,0,1,1,7.19-12.64A14.65,14.65,0,0,1,82,73.5Zm33.21,2a14.69,14.69,0,1,1,14.68-14.69A14.69,14.69,0,0,1,115.23,75.55Z"/></g></svg>