<svg xmlns="http://www.w3.org/2000/svg" viewBox="0 0 147.44 132.79"><defs><style>.cls-1{fill:#93be59;}</style></defs><g id="Layer_13" data-name="Layer 13"><path class="cls-1" d="M64.21,88.41a4.93,4.93,0,0,1-4.94-4.93v-1c0-8.91,1.55-14.08,5.69-19.12,3.1-3.61,4.13-4.39,13.3-9.94,6.33-3.75,8.4-6.46,8.4-10.73,0-6.07-4.52-9.68-12.27-9.68-5.82,0-10.08,2.06-12.53,6.07a12.28,12.28,0,0,0-1.6,3.75,4.88,4.88,0,0,1-5.19,3.69L38.25,44.88a5,5,0,0,1-4.34-6,28.88,28.88,0,0,1,7.28-14.12c7.49-8.53,19-12.92,33.84-12.92,23.77,0,38.63,11.24,38.63,29.07,0,7.88-2.59,13.95-8,19-3.1,2.84-4.39,3.74-15.63,10.72-5.43,3.49-7.36,6.84-7.36,12.79v0a5,5,0,0,1-4.94,5Zm19.87,13.73v14.53a4.94,4.94,0,0,1-4.94,4.94H63.05a4.94,4.94,0,0,1-4.94-4.94V102.14a4.94,4.94,0,0,1,4.94-4.94H79.14A4.94,4.94,0,0,1,84.08,102.14Z"/></g></svg>