<svg xmlns="http://www.w3.org/2000/svg" viewBox="0 0 147.44 132.79"><defs><style>.cls-1{fill:#93be59;}</style></defs><g id="Layer_13" data-name="Layer 13"><path class="cls-1" d="M84.08,102.14v14.53a4.94,4.94,0,0,1-4.94,4.94H63.05a4.94,4.94,0,0,1-4.94-4.94V102.14a4.94,4.94,0,0,1,4.94-4.94H79.14A4.94,4.94,0,0,1,84.08,102.14Z"/><path class="cls-1" d="M113.66,40.88c0,7.88-2.58,13.95-8,19-3.1,2.84-4.39,3.74-15.63,10.72-5.42,3.49-7.36,6.84-7.36,12.79v0a5,5,0,0,1-4.94,5H64.22a4.92,4.92,0,0,1-4.94-4.93v-1c0-8.91,1.55-14.08,5.68-19.12,3.1-3.61,4.13-4.39,13.31-9.94,6.33-3.75,8.39-6.46,8.39-10.72,0-6.08-4.52-9.69-12.27-9.69-5.81,0-10.08,2.06-12.53,6.07a12.53,12.53,0,0,0-1.6,3.75,4.9,4.9,0,0,1-5.19,3.7L38.25,44.88a4.94,4.94,0,0,1-4.33-6,29,29,0,0,1,7.27-14.12c7.49-8.53,19-12.92,33.85-12.92C98.81,11.81,113.66,23.05,113.66,40.88Z"/></g></svg>