<svg id="Layer_1" data-name="Layer 1" xmlns="http://www.w3.org/2000/svg" viewBox="0 0 160.47 208.11"><defs><style>.cls-1{fill:#93be59;}.cls-2{isolation:isolate;}.cls-3{fill:#fff;}</style></defs><path id="Rectangle_241" data-name="Rectangle 241" class="cls-1" d="M102.66,45h98.17A31.15,31.15,0,0,1,232,76.11h0a31.15,31.15,0,0,1-31.15,31.15H102.66A31.15,31.15,0,0,1,71.51,76.11h0A31.15,31.15,0,0,1,102.66,45Z" transform="translate(-71.51 -44.96)"/><g id="_12345" data-name=" 12345" class="cls-2"><g class="cls-2"><path class="cls-3" d="M111.19,86.38h4.71V72.6c0-.67,0-1.33,0-1.33h-.06a5.39,5.39,0,0,1-1,1.24l-2,2L111,72.6l5.11-5h2.66V86.38h4.65V89H111.19Z" transform="translate(-71.51 -44.96)"/><path class="cls-3" d="M125.93,87.34c0-7.61,10.46-8.7,10.46-13.71a3.54,3.54,0,0,0-3.84-3.54c-2.81,0-4.32,2.72-4.32,2.72L126,71.33a7.67,7.67,0,0,1,6.74-4c3.93,0,6.74,2.45,6.74,6.13,0,7-10.18,8.1-10.25,13h10.58V89H126.08A10.51,10.51,0,0,1,125.93,87.34Z" transform="translate(-71.51 -44.96)"/><path class="cls-3" d="M144.39,84.17a7.58,7.58,0,0,0,5.16,2.33,4.06,4.06,0,0,0,4.35-3.9c0-2.63-2.32-3.93-5-3.93h-1.48l-.7-1.6,4.66-5.47a16.65,16.65,0,0,1,1.33-1.39v-.06a14.54,14.54,0,0,1-1.82.09h-7.22v-2.6h12.75v1.91l-5.8,6.67c2.81.31,6.26,2.12,6.26,6.26a6.92,6.92,0,0,1-7.26,6.86,9.76,9.76,0,0,1-6.91-2.9Z" transform="translate(-71.51 -44.96)"/><path class="cls-3" d="M159.61,81.39l9.85-13.75h3.41V80.73h2.9v2.53h-2.9V89h-2.93V83.26H159.61Zm10.33-.66V73c0-1,.12-2.11.12-2.11H170A12.51,12.51,0,0,1,169,72.6l-6,8.06v.07Z" transform="translate(-71.51 -44.96)"/><path class="cls-3" d="M180.09,84.2a6.11,6.11,0,0,0,4.68,2.3,4.43,4.43,0,0,0,4.69-4.32c0-2.57-2.12-4.39-4.87-4.39A6.81,6.81,0,0,0,181,78.85l-1.73-.63,1.06-10.58h10.76v2.6h-8.16l-.51,4.5a6.34,6.34,0,0,1-.15,1.12h.06a6.13,6.13,0,0,1,2.75-.66c4.5,0,7.43,3.11,7.43,7A7.2,7.2,0,0,1,185,89.34a8.28,8.28,0,0,1-6.53-3Z" transform="translate(-71.51 -44.96)"/></g></g><g id="Layer_11" data-name="Layer 11"><rect id="Rectangle_158" data-name="Rectangle 158" class="cls-3" x="15.07" y="77.79" width="130.32" height="130.32" rx="7.55"/><rect id="Rectangle_159" data-name="Rectangle 159" x="21.14" y="83.85" width="39.4" height="39.4" rx="5.66"/><rect id="Rectangle_160" data-name="Rectangle 160" x="21.14" y="162.63" width="39.4" height="39.4" rx="7.55"/><rect id="Rectangle_161" data-name="Rectangle 161" x="99.92" y="83.85" width="39.4" height="39.4" rx="7.55"/><rect id="Rectangle_162" data-name="Rectangle 162" class="cls-3" x="27.69" y="169.21" width="26.25" height="26.25" rx="3.78"/><rect id="Rectangle_163" data-name="Rectangle 163" class="cls-3" x="106.5" y="90.4" width="26.25" height="26.25" rx="3.78"/><rect id="Rectangle_164" data-name="Rectangle 164" x="29.02" y="146.88" width="7.87" height="7.87"/><rect id="Rectangle_165" data-name="Rectangle 165" x="36.89" y="139.01" width="7.87" height="7.87"/><rect id="Rectangle_166" data-name="Rectangle 166" x="36.89" y="131.1" width="7.87" height="7.87"/><rect id="Rectangle_167" data-name="Rectangle 167" x="29.02" y="131.1" width="7.87" height="7.87"/><rect id="Rectangle_168" data-name="Rectangle 168" x="52.64" y="131.1" width="7.87" height="7.87"/><rect id="Rectangle_169" data-name="Rectangle 169" x="44.77" y="139.01" width="7.87" height="7.87"/><rect id="Rectangle_170" data-name="Rectangle 170" x="60.52" y="139.01" width="7.87" height="7.87"/><rect id="Rectangle_171" data-name="Rectangle 171" x="52.64" y="146.88" width="7.87" height="7.87"/><rect id="Rectangle_172" data-name="Rectangle 172" x="44.77" y="146.88" width="7.87" height="7.87"/><rect id="Rectangle_173" data-name="Rectangle 173" x="92.05" y="131.1" width="7.87" height="7.87"/><rect id="Rectangle_174" data-name="Rectangle 174" x="84.17" y="139.01" width="7.87" height="7.87"/><rect id="Rectangle_175" data-name="Rectangle 175" x="99.92" y="139.01" width="7.87" height="7.87"/><rect id="Rectangle_176" data-name="Rectangle 176" x="92.05" y="146.88" width="7.87" height="7.87"/><rect id="Rectangle_177" data-name="Rectangle 177" x="107.8" y="131.1" width="7.87" height="7.87"/><rect id="Rectangle_178" data-name="Rectangle 178" x="84.17" y="146.88" width="7.87" height="7.87"/><rect id="Rectangle_179" data-name="Rectangle 179" x="36.89" y="154.76" width="7.87" height="7.87"/><rect id="Rectangle_180" data-name="Rectangle 180" x="84.17" y="123.23" width="7.87" height="7.87"/><rect id="Rectangle_181" data-name="Rectangle 181" x="99.95" y="186.26" width="7.87" height="7.87"/><rect id="Rectangle_182" data-name="Rectangle 182" x="99.95" y="194.13" width="7.87" height="7.87"/><rect id="Rectangle_183" data-name="Rectangle 183" x="92.08" y="194.13" width="7.87" height="7.87"/><rect id="Rectangle_184" data-name="Rectangle 184" x="76.3" y="107.48" width="7.87" height="7.87"/><rect id="Rectangle_185" data-name="Rectangle 185" x="84.17" y="115.35" width="7.87" height="7.87"/><rect id="Rectangle_186" data-name="Rectangle 186" x="76.3" y="99.6" width="7.87" height="7.87"/><rect id="Rectangle_187" data-name="Rectangle 187" x="84.17" y="99.6" width="7.87" height="7.87"/><rect id="Rectangle_188" data-name="Rectangle 188" x="76.3" y="123.26" width="7.87" height="7.87"/><rect id="Rectangle_189" data-name="Rectangle 189" x="68.42" y="115.38" width="7.87" height="7.87"/><rect id="Rectangle_190" data-name="Rectangle 190" x="68.42" y="131.13" width="7.87" height="7.87"/><rect id="Rectangle_191" data-name="Rectangle 191" x="68.39" y="146.88" width="7.87" height="7.87"/><rect id="Rectangle_192" data-name="Rectangle 192" x="76.3" y="154.76" width="7.87" height="7.87"/><rect id="Rectangle_193" data-name="Rectangle 193" x="76.3" y="131.13" width="7.87" height="7.87"/><rect id="Rectangle_194" data-name="Rectangle 194" x="123.58" y="131.1" width="7.87" height="7.87"/><rect id="Rectangle_195" data-name="Rectangle 195" x="123.55" y="138.98" width="7.87" height="7.87"/><rect id="Rectangle_196" data-name="Rectangle 196" x="68.42" y="91.73" width="7.87" height="7.87"/><rect id="Rectangle_197" data-name="Rectangle 197" x="84.17" y="186.26" width="7.87" height="7.87"/><rect id="Rectangle_198" data-name="Rectangle 198" x="76.3" y="178.38" width="7.87" height="7.87"/><rect id="Rectangle_199" data-name="Rectangle 199" x="68.39" y="178.38" width="7.87" height="7.87"/><rect id="Rectangle_200" data-name="Rectangle 200" x="68.39" y="186.26" width="7.87" height="7.87"/><rect id="Rectangle_201" data-name="Rectangle 201" x="68.42" y="162.63" width="7.87" height="7.87"/><rect id="Rectangle_202" data-name="Rectangle 202" x="76.3" y="170.51" width="7.87" height="7.87"/><rect id="Rectangle_203" data-name="Rectangle 203" x="84.17" y="162.63" width="7.87" height="7.87"/><rect id="Rectangle_204" data-name="Rectangle 204" x="84.17" y="170.51" width="7.87" height="7.87"/><rect id="Rectangle_205" data-name="Rectangle 205" x="92.05" y="178.38" width="7.87" height="7.87"/><rect id="Rectangle_206" data-name="Rectangle 206" x="123.55" y="154.76" width="7.87" height="7.87"/><rect id="Rectangle_207" data-name="Rectangle 207" x="107.8" y="162.63" width="7.87" height="7.87"/><rect id="Rectangle_208" data-name="Rectangle 208" x="115.67" y="154.76" width="7.87" height="7.87"/><rect id="Rectangle_209" data-name="Rectangle 209" x="115.67" y="178.38" width="7.87" height="7.87"/><rect id="Rectangle_210" data-name="Rectangle 210" x="99.92" y="162.63" width="7.87" height="7.87"/><rect id="Rectangle_211" data-name="Rectangle 211" x="99.92" y="170.51" width="7.87" height="7.87"/><rect id="Rectangle_212" data-name="Rectangle 212" x="99.92" y="154.76" width="7.87" height="7.87"/><rect id="Rectangle_213" data-name="Rectangle 213" x="123.55" y="162.63" width="7.87" height="7.87"/><rect id="Rectangle_214" data-name="Rectangle 214" x="123.55" y="186.26" width="7.87" height="7.87"/><rect id="Rectangle_215" data-name="Rectangle 215" x="115.67" y="170.51" width="7.87" height="7.87"/><rect id="Rectangle_216" data-name="Rectangle 216" x="92.05" y="170.51" width="7.87" height="7.87"/><rect id="Rectangle_217" data-name="Rectangle 217" x="113.55" y="97.49" width="12.14" height="12.14" rx="3.78"/><rect id="Rectangle_218" data-name="Rectangle 218" class="cls-3" x="27.69" y="90.4" width="26.25" height="26.25" rx="3.78"/><rect id="Rectangle_219" data-name="Rectangle 219" x="34.78" y="97.49" width="12.14" height="12.14" rx="3.78"/><rect id="Rectangle_220" data-name="Rectangle 220" x="34.78" y="176.27" width="12.14" height="12.14" rx="3.78"/></g></svg>