<svg xmlns="http://www.w3.org/2000/svg" viewBox="0 0 309.22 278.49"><defs><style>.cls-1{fill:#93bd59;}.cls-2{fill:#444;}.cls-3{fill:#2f6e83;}.cls-4{fill:#67a0b8;}</style></defs><g id="Layer_16" data-name="Layer 16"><path class="cls-1" d="M143.93,83.25h-7.1c0-31.31-30.92-42.87-51.7-43C57.59,40.11,37.65,47.5,32.24,54.9a2.63,2.63,0,0,0-.56,1.53l-7.1,0a9.72,9.72,0,0,1,1.93-5.75c7.71-10.54,30.84-17.56,57.74-17.56h.92c14.27.08,28.52,4.48,39.1,12.07C137.13,54.46,143.93,67.6,143.93,83.25Z"/><rect class="cls-2" x="195.42" y="120.68" width="82.42" height="134.62" rx="12.44" transform="translate(473.26 375.99) rotate(-180)"/><circle class="cls-2" cx="236.63" cy="87.95" r="32.74"/><path class="cls-3" d="M111.37,37.25C97.06,10,73.51-5.78,58.78,2c-8,4.2-11.73,14.44-11.21,27.28a.11.11,0,0,0,0,.08V253.94a4.78,4.78,0,0,0,0,.54c.91,13.37,17.18,24,37.1,24s36.2-10.62,37.14-24a8.45,8.45,0,0,0,.06-1.23V76.37C122.06,64.88,118.56,50.92,111.37,37.25Zm4.16,35.08c-.2,9.32-3.31,16.64-9.34,19.8C94,98.55,74.46,85.46,62.6,62.89c-5.39-10.24-8.27-20.67-8.67-29.61-.49-10.77,2.62-19.38,9.29-22.88C75.43,4,94.94,17.08,106.81,39.65,112.83,51.09,115.72,62.77,115.53,72.33Z"/><path class="cls-4" d="M115.53,72.33c-.2,9.32-3.31,16.64-9.34,19.8C94,98.55,74.46,85.46,62.6,62.89c-5.39-10.24-8.27-20.67-8.67-29.61-.49-10.77,2.62-19.38,9.29-22.88C75.43,4,94.94,17.08,106.81,39.65,112.83,51.09,115.72,62.77,115.53,72.33Z"/><path class="cls-2" d="M213.88,150.55a10.58,10.58,0,0,1-4.39-1L136,116.22a10.65,10.65,0,0,1,8.8-19.39l73.51,33.37a10.65,10.65,0,0,1-4.41,20.35Z"/><path class="cls-1" d="M232.19,258.86a3.55,3.55,0,0,1-3.55-3.55c0-22.29-15.7-36.93-33.88-53.88-25.7-24-57.65-53.77-57.93-117.35-3.92-2.46-23.68-4-38.25-5.18-43.33-3.43-74-7.05-74-22.45a3.55,3.55,0,1,1,7.1,0c0,1.77,2,6.3,20.53,10,13.47,2.71,31.25,4.11,46.93,5.35,31.86,2.53,44.79,3.85,44.79,11.43,0,61.07,29.58,88.65,55.68,113,19.38,18.08,36.13,33.7,36.13,59.07A3.55,3.55,0,0,1,232.19,258.86Z"/></g></svg>