<svg xmlns="http://www.w3.org/2000/svg" viewBox="0 0 309.22 278.49"><defs><style>.cls-1{fill:#444;}.cls-2{fill:#396eb5;}.cls-3{fill:#2f6e83;}.cls-4{fill:#67a0b8;}.cls-5{fill:#93bd59;}.cls-6{fill:#2f6e84;}</style></defs><g id="Layer_16" data-name="Layer 16"><path class="cls-1" d="M215.72,210.45H211c0-16.53-8.95-26.42-16.46-31.8-9.21-6.61-21.68-10.44-34.2-10.51h-.87c-26.37,0-45.46,7.25-50.75,14.48a3.47,3.47,0,0,0-.73,2.09l-4.77,0a8.23,8.23,0,0,1,1.65-4.92c7.1-9.72,29.5-16.44,54.65-16.44h.84c13.49.08,27,4.23,37,11.4C209.34,183.43,215.72,195.76,215.72,210.45Z"/><path class="cls-2" d="M173.82,207.13a3.26,3.26,0,0,1,0,.54l0,0Z"/><path class="cls-2" d="M99.5,206.47v1.23s0,0,.06,0A8.45,8.45,0,0,1,99.5,206.47Z"/><path class="cls-2" d="M173.82,206.47v.66a4.86,4.86,0,0,0,0-.66Z"/><path class="cls-3" d="M172.13,2c-14.73-7.74-38.27,8-52.59,35.27C112.29,51,108.8,65.12,109,76.67V253.28a8.45,8.45,0,0,0,.06,1.23c.93,13.36,17.18,24,37.13,24s36.2-10.65,37.1-24a3.26,3.26,0,0,0,0-.54V29.24C183.87,16.41,180.11,6.16,172.13,2ZM177,33.28c-.4,8.94-3.29,19.37-8.67,29.61-11.87,22.57-31.39,35.66-43.6,29.24-6-3.17-9.14-10.49-9.33-19.8-.2-9.57,2.7-21.25,8.71-32.68C136,17.08,155.49,4,167.7,10.4,174.37,13.91,177.48,22.51,177,33.28Z"/><path class="cls-4" d="M177,33.28c-.4,8.94-3.29,19.37-8.67,29.61-11.87,22.57-31.39,35.66-43.6,29.24-6-3.17-9.14-10.49-9.33-19.8-.2-9.57,2.7-21.25,8.71-32.68C136,17.08,155.49,4,167.7,10.4,174.37,13.91,177.48,22.51,177,33.28Z"/><path class="cls-1" d="M213.33,212.83a2.37,2.37,0,0,1-2.36-2.09c-.44-.42-2.5-1.73-11.7-3-7-1-16.23-1.71-26-2.48-34.46-2.73-70.1-5.55-70.1-20.54a2.39,2.39,0,1,1,4.77,0c0,3,3.56,7.22,20.52,10.62,13,2.62,30.1,4,45.19,5.16,10.71.85,20.83,1.65,28.19,2.79,8.33,1.29,13.88,3,13.88,7.17A2.39,2.39,0,0,1,213.33,212.83Z"/><rect class="cls-5" x="129.9" y="116.24" width="32.63" height="14.09" rx="5.33"/><path class="cls-1" d="M215.72,282.79H211V210.45c0-12.26-11.82-13.85-31.27-15-8.43-.5-17.13-1-23.76-3.44-8-2.93-12-8.44-12-16.37h4.77c0,12.29,11.83,13.89,31.32,15.05,8.41.5,17.11,1,23.72,3.44,8,2.92,12,8.41,12,16.33Z"/><rect class="cls-6" x="133.42" y="119.63" width="25.59" height="7.29" rx="2.52"/><path class="cls-5" d="M157.48,154.71v13.57a7.41,7.41,0,0,1-7.41,7.41h-7.72a7.41,7.41,0,0,1-7.41-7.41V154.71a1,1,0,0,1,1-1h20.54A1,1,0,0,1,157.48,154.71Z"/><path class="cls-1" d="M146.21,134.27l6.29,4.42a1.79,1.79,0,0,0,2.71-2.1l-.1-.2-3.6-6.24-3.6-6.24a2,2,0,0,0-3.4,0l-3.6,6.24-3.6,6.24a2,2,0,0,0-.11.2,1.79,1.79,0,0,0,2.72,2.1Z"/><path class="cls-1" d="M146.21,151.17a2.59,2.59,0,0,1-2.59-2.58V134.27a2.59,2.59,0,0,1,5.17,0v14.32A2.58,2.58,0,0,1,146.21,151.17Z"/><rect class="cls-6" x="136.95" y="156.47" width="18.53" height="8.55" rx="0.99"/></g></svg>