<svg xmlns="http://www.w3.org/2000/svg" viewBox="0 0 309.22 278.49"><defs><style>.cls-1,.cls-4,.cls-9{fill:none;stroke-miterlimit:10;}.cls-1,.cls-4,.cls-8,.cls-9{stroke:#444;}.cls-1,.cls-8,.cls-9{stroke-linecap:round;}.cls-1,.cls-4,.cls-8{stroke-width:5px;}.cls-2{fill:#fc3339;}.cls-3,.cls-8{fill:#888;}.cls-5{fill:#444;}.cls-6{fill:#2f6e83;}.cls-7{fill:#67a0b8;}.cls-8{stroke-linejoin:round;}.cls-9{stroke-width:24px;}</style></defs><g id="Layer_24" data-name="Layer 24"><path class="cls-1" d="M198.21,178.83c0,41.36,90.66-9.09,90.66,28.78"/><path class="cls-2" d="M260.43,204.45h208a20.43,20.43,0,0,1,20.43,20.43v0A80.86,80.86,0,0,1,408,305.75H320.86A80.86,80.86,0,0,1,240,224.88v0a20.43,20.43,0,0,1,20.43-20.43Z"/><polygon class="cls-3" points="-200.07 -1.5 397.15 341.04 -200.07 341.04 -200.07 -1.5"/><path class="cls-4" d="M198.21,178.83c0-20.54-19.43-30-35.7-30.08-16.78-.1-31.57,4.28-36,10.4a3.91,3.91,0,0,0-.8,2.36"/><rect class="cls-5" x="-17.18" y="72.46" width="82.67" height="180.03" rx="12.44"/><circle class="cls-5" cx="24.15" cy="39.63" r="32.83"/><path class="cls-6" d="M179,17.72c-11.88-6.25-30.87,6.49-42.42,28.45-5.8,11-8.61,22.29-8.47,31.55h0V255.41a6.57,6.57,0,0,0,0,1c.76,10.78,13.86,19.34,30,19.34s29.2-8.59,29.92-19.36a2.17,2.17,0,0,0,0-.44V39.72C188.48,29.36,185.45,21.1,179,17.72Zm-3.08,49.13c-9.57,18.21-25.31,28.77-35.16,23.59-4.85-2.56-7.37-8.46-7.52-16-.16-7.71,2.17-17.13,7-26.35,9.57-18.21,25.32-28.77,35.16-23.59,5.38,2.83,7.89,9.77,7.49,18.46C182.6,50.19,180.27,58.6,175.93,66.85Z"/><path class="cls-6" d="M182.92,43c-.32,7.21-2.65,15.62-7,23.87-9.57,18.21-25.31,28.77-35.16,23.59-4.85-2.56-7.37-8.46-7.52-16Z"/><path class="cls-6" d="M182.92,43c-.32,7.21-2.65,15.62-7,23.87-9.57,18.21-25.31,28.77-35.16,23.59-4.85-2.56-7.37-8.46-7.52-16-.16-7.71,2.17-17.13,7-26.35,9.57-18.21,25.32-28.77,35.16-23.59C180.81,27.35,183.32,34.29,182.92,43Z"/><path class="cls-7" d="M182.92,43c-.32,7.21-2.65,15.62-7,23.87-9.57,18.21-25.31,28.77-35.16,23.59-4.85-2.56-7.37-8.46-7.52-16-.16-7.71,2.17-17.13,7-26.35,9.57-18.21,25.32-28.77,35.16-23.59C180.81,27.35,183.32,34.29,182.92,43Z"/><polygon class="cls-8" points="123.53 71.84 132.27 29.95 155.7 29.95 146.97 71.84 123.53 71.84"/><line class="cls-9" x1="51.96" y1="86.73" x2="125.69" y2="53.26"/><path class="cls-1" d="M125.67,161.51c0,14.64,72.54,10.1,72.54,17.32"/></g></svg>