<svg xmlns="http://www.w3.org/2000/svg" viewBox="0 0 309.22 278.49"><defs><style>.cls-1{fill:#888;}.cls-2,.cls-8{fill:#444;}.cls-3{fill:#f1f1f1;}.cls-4,.cls-6{fill:none;}.cls-4,.cls-8{stroke:#444;}.cls-4,.cls-6,.cls-8{stroke-linecap:round;}.cls-4{stroke-linejoin:round;stroke-width:4px;}.cls-5{fill:#fff;}.cls-6{stroke:#93bd59;stroke-width:16px;}.cls-6,.cls-8{stroke-miterlimit:10;}.cls-7{fill:#93bd59;}.cls-8{stroke-width:13px;}</style></defs><g id="Layer_16" data-name="Layer 16"><rect class="cls-1" x="34.15" y="26.03" width="240.91" height="384.89" rx="17.6"/><path class="cls-2" d="M257.46,33.56a10.09,10.09,0,0,1,10.08,10.07V393.31a10.08,10.08,0,0,1-10.08,10.07H51.75a10.08,10.08,0,0,1-10.07-10.07V43.63A10.08,10.08,0,0,1,51.75,33.56H257.46m0-15.06H51.75A25.13,25.13,0,0,0,26.62,43.63V393.31a25.13,25.13,0,0,0,25.13,25.13H257.46a25.14,25.14,0,0,0,25.14-25.13V43.63A25.14,25.14,0,0,0,257.46,18.5Z"/></g><g id="Layer_21" data-name="Layer 21"><rect class="cls-3" x="41.68" y="155.54" width="225.86" height="103.08"/><path class="cls-4" d="M63.05,172c5.72,0,5.72,8,11.44,8s5.72-8,11.44-8,5.72,8,11.44,8,5.72-8,11.45-8,5.72,8,11.44,8,5.73-8,11.45-8,5.72,8,11.45,8,5.72-8,11.45-8,5.72,8,11.44,8,5.73-8,11.45-8,5.72,8,11.44,8,5.72-8,11.44-8,5.72,8,11.45,8,5.72-8,11.44-8,5.73,8,11.45,8,5.73-8,11.45-8"/><path class="cls-4" d="M63.05,192c5.72,0,5.72,8,11.44,8s5.72-8,11.44-8,5.72,8,11.44,8,5.72-8,11.45-8,5.72,8,11.44,8,5.73-8,11.45-8,5.72,8,11.45,8,5.72-8,11.45-8,5.72,8,11.44,8,5.73-8,11.45-8,5.72,8,11.44,8,5.72-8,11.44-8,5.72,8,11.45,8,5.72-8,11.44-8,5.73,8,11.45,8,5.73-8,11.45-8"/><circle class="cls-5" cx="154.61" cy="92.08" r="47.2"/><polyline class="cls-6" points="128.34 96.68 147.25 113.11 180.06 74.11"/><rect class="cls-7" x="174.92" y="222.02" width="71.25" height="21.15" rx="7.38" transform="translate(421.1 465.2) rotate(180)"/></g><g id="Layer_22" data-name="Layer 22"><path class="cls-2" d="M169.78,249l-19.05-3.33c-4.38-.76-5.23-6.95-1.09-8.56l.54-.17,17.5-4.69,17.51-4.69a4.93,4.93,0,0,1,6,6l-4.69,17.5-4.69,17.51a4.72,4.72,0,0,1-.18.53c-1.61,4.14-7.79,3.29-8.56-1.08Z"/><line class="cls-8" x1="106.47" y1="312.32" x2="169.78" y2="249"/></g></svg>