<svg xmlns="http://www.w3.org/2000/svg" viewBox="0 0 309.22 278.49"><defs><style>.cls-1{fill:#444;}.cls-2{fill:#fc3339;}.cls-3{fill:#2b6d84;}</style></defs><g id="Layer_16" data-name="Layer 16"><rect class="cls-1" x="28.2" y="120.72" width="27.43" height="44.8" rx="12.44"/><circle class="cls-1" cx="41.91" cy="109.83" r="10.9"/><rect class="cls-1" x="253.59" y="120.72" width="27.43" height="44.8" rx="12.44" transform="translate(534.62 286.25) rotate(-180)"/><circle class="cls-1" cx="267.31" cy="109.83" r="10.9"/><path class="cls-2" d="M19.89,153.76h90.5a7.32,7.32,0,0,1,7.32,7.32v0a35.47,35.47,0,0,1-35.47,35.47H48a35.47,35.47,0,0,1-35.47-35.47v0a7.32,7.32,0,0,1,7.32-7.32Z"/><path class="cls-2" d="M227,153.76h34.2a35.47,35.47,0,0,1,35.47,35.47v0a7.32,7.32,0,0,1-7.32,7.32h-90.5a7.32,7.32,0,0,1-7.32-7.32v0A35.47,35.47,0,0,1,227,153.76Z" transform="translate(488.16 350.31) rotate(180)"/><path class="cls-1" d="M160.44,169.25a3,3,0,0,1-3,3H142.76l3.05,4.35a2.1,2.1,0,0,1-2.46,3.18l-.23-.12-7.31-4.22-7.32-4.22a2.3,2.3,0,0,1,0-4l7.32-4.22,7.31-4.22a1.27,1.27,0,0,1,.23-.12,2.09,2.09,0,0,1,2.46,3.17l-3.05,4.35h14.65A3,3,0,0,1,160.44,169.25Z"/><path class="cls-1" d="M150.44,169.25a3,3,0,0,0,3,3h14.65l-3.05,4.35a2.1,2.1,0,0,0,2.46,3.18l.24-.12,7.31-4.22,7.31-4.22a2.3,2.3,0,0,0,0-4L175.07,163l-7.31-4.22-.24-.12a2.09,2.09,0,0,0-2.46,3.17l3.05,4.35H153.46A3,3,0,0,0,150.44,169.25Z"/></g><g id="Layer_17" data-name="Layer 17"><path class="cls-3" d="M331.23,180.52c-11,0-11,9.06-22.08,9.06s-11-9.06-22.08-9.06-11,9.06-22.08,9.06-11-9.06-22.08-9.06-11,9.06-22.08,9.06-11-9.06-22.07-9.06-11,9.06-22.08,9.06-11-9.06-22.07-9.06-11,9.06-22.08,9.06-11-9.06-22.08-9.06-11,9.06-22.08,9.06-11-9.06-22.08-9.06-11,9.06-22.07,9.06-11-9.06-22.08-9.06-11,9.06-22.08,9.06-11-9.06-22.07-9.06V286.07H331.23Z"/></g></svg>