<svg xmlns="http://www.w3.org/2000/svg" viewBox="0 0 309.22 278.49"><defs><style>.cls-1{fill:#444;}.cls-2{fill:#fc3339;}.cls-3{fill:#2b6d84;}</style></defs><g id="Layer_17" data-name="Layer 17"><rect class="cls-1" x="28.2" y="120.72" width="27.43" height="44.8" rx="12.44"/><circle class="cls-1" cx="41.91" cy="109.83" r="10.9"/><path class="cls-2" d="M19.89,153.76h90.5a7.32,7.32,0,0,1,7.32,7.32v0a35.47,35.47,0,0,1-35.47,35.47H48a35.47,35.47,0,0,1-35.47-35.47v0a7.32,7.32,0,0,1,7.32-7.32Z"/><path class="cls-3" d="M331.23,180.52c-11,0-11,9.06-22.08,9.06s-11-9.06-22.08-9.06-11,9.06-22.08,9.06-11-9.06-22.08-9.06-11,9.06-22.08,9.06-11-9.06-22.07-9.06-11,9.06-22.08,9.06-11-9.06-22.07-9.06-11,9.06-22.08,9.06-11-9.06-22.08-9.06-11,9.06-22.08,9.06-11-9.06-22.08-9.06-11,9.06-22.07,9.06-11-9.06-22.08-9.06-11,9.06-22.08,9.06-11-9.06-22.07-9.06V286.07H331.23Z"/></g></svg>