<svg xmlns="http://www.w3.org/2000/svg" viewBox="0 0 147.44 132.79"><defs><style>.cls-1{fill:#f9bc35;}.cls-2{fill:#fc3339;}.cls-3{fill:#fff;}.cls-4{fill:#444;}.cls-5{fill:#932431;}</style></defs><g id="Layer_13" data-name="Layer 13"><path class="cls-1" d="M137.9,113.26H9.54a7.86,7.86,0,0,1-7-11.4h0c7.12-14.12,31.42-24,59.19-24h24c27.77,0,52.07,9.83,59.19,24h0A7.86,7.86,0,0,1,137.9,113.26Z"/><path class="cls-2" d="M61.88,23.88a25.86,25.86,0,0,0,.14,4,36.8,36.8,0,0,0,.61,4.06,19.12,19.12,0,0,0,1.16,3.85c.51,1.17,1.27,2.31,2.17,2.4H66a.74.74,0,0,1,.67.81.75.75,0,0,1-.73.67,3.13,3.13,0,0,1-1.39-.29,4.61,4.61,0,0,1-1.1-.74A8.67,8.67,0,0,1,62,36.74a21.86,21.86,0,0,1-1.88-4.1,42.25,42.25,0,0,1-1.23-4.26,28.93,28.93,0,0,1-.75-4.5,1.89,1.89,0,0,1,3.76-.28,1,1,0,0,1,0,.25Z"/><path class="cls-2" d="M81.45,40.79a1.89,1.89,0,0,1,0-3.77c1.44,0,4.08-7.72,4.08-13.14a1.89,1.89,0,0,1,3.77,0C89.3,26.1,87.83,40.79,81.45,40.79Z"/><path class="cls-2" d="M91.52,74.08H55.2c-12.69,0-21.39-9.56-16.71-18.38l5.94-11.2C47.15,39.38,53.77,36,61.15,36H85.57c7.38,0,14,3.37,16.72,8.49l5.94,11.2C112.91,64.52,104.21,74.08,91.52,74.08Z"/><path class="cls-2" d="M34.54,40.1a9.8,9.8,0,0,0,.21,2.1,20.21,20.21,0,0,0,.54,2.27,22.3,22.3,0,0,0,1.77,4.35,12.43,12.43,0,0,0,2.75,3.58A6.29,6.29,0,0,0,43.64,54h0a1.09,1.09,0,0,1,1,1.15,1.11,1.11,0,0,1-1,1,8.66,8.66,0,0,1-5.44-1.8,15.23,15.23,0,0,1-3.7-4.08,26.21,26.21,0,0,1-2.41-4.79c-.31-.84-.59-1.69-.83-2.57a13.93,13.93,0,0,1-.48-2.89,1.88,1.88,0,1,1,3.76-.18Z"/><path class="cls-2" d="M43.19,23.63c5.72,0,3.47,23.51-8.35,23.51-21.55,0-15.68-29-8.35-29,3.51,0,8.35,15,8.35,15C34.84,28.89,39.1,23.63,43.19,23.63Z"/><circle class="cls-3" cx="59.8" cy="21.58" r="9.46"/><path class="cls-2" d="M59.8,32.54a11,11,0,1,1,11-11A11,11,0,0,1,59.8,32.54Zm0-18.92a8,8,0,1,0,8,8A8,8,0,0,0,59.8,13.62Z"/><circle class="cls-3" cx="87.35" cy="21.58" r="9.46"/><path class="cls-2" d="M87.35,32.54a11,11,0,1,1,11-11A11,11,0,0,1,87.35,32.54Zm0-18.92a8,8,0,1,0,8,8A8,8,0,0,0,87.35,13.62Z"/><circle class="cls-4" cx="59.8" cy="21.58" r="6.11"/><circle class="cls-4" cx="87.35" cy="21.58" r="6.11"/><path class="cls-5" d="M66.12,47.31h15.2a1.87,1.87,0,0,1,1.87,1.87v2.26a6.77,6.77,0,0,1-6.77,6.77H71a6.77,6.77,0,0,1-6.77-6.77V49.18A1.87,1.87,0,0,1,66.12,47.31Z"/><path class="cls-2" d="M110.34,81.42a2.61,2.61,0,0,1,0-.28l0-.4c0-.27-.1-.57-.17-.87a14,14,0,0,0-.59-1.8,14.77,14.77,0,0,0-1.9-3.35,9.58,9.58,0,0,0-2.8-2.55,8.61,8.61,0,0,0-3.6-1.14h0a.84.84,0,0,1,0-1.67,10.42,10.42,0,0,1,4.59.86,12.13,12.13,0,0,1,3.85,2.7,17.77,17.77,0,0,1,2.77,3.74,15.54,15.54,0,0,1,1,2.14,10.2,10.2,0,0,1,.39,1.18l.16.65.09.79a1.88,1.88,0,0,1-3.75.35s0-.08,0-.11Z"/><path class="cls-2" d="M102.76,81.34a1.31,1.31,0,0,1,0-.28l0-.4c0-.27-.1-.57-.17-.87A12.66,12.66,0,0,0,102,78a14.37,14.37,0,0,0-1.88-3.38A9.83,9.83,0,0,0,97.3,72a8.78,8.78,0,0,0-3.64-1.18h0a.73.73,0,0,1,0-1.45,10.45,10.45,0,0,1,4.56.82,12.11,12.11,0,0,1,3.84,2.67,17.77,17.77,0,0,1,2.79,3.71,17.38,17.38,0,0,1,1,2.13c.15.38.28.77.4,1.19l.16.65.09.78a1.88,1.88,0,0,1-3.75.37.76.76,0,0,1,0-.15Z"/><path class="cls-2" d="M95.78,80.72a2.72,2.72,0,0,1,0-.28l-.05-.39c0-.28-.1-.58-.16-.87a13.57,13.57,0,0,0-.6-1.8A14.43,14.43,0,0,0,93.09,74a9.71,9.71,0,0,0-2.8-2.55,8.61,8.61,0,0,0-3.61-1.15h0a.82.82,0,0,1,0-1.64,10.56,10.56,0,0,1,4.59.85,12.13,12.13,0,0,1,3.85,2.7,18.12,18.12,0,0,1,3.79,5.87c.14.39.27.77.39,1.19l.15.65q.06.39.09.78a1.88,1.88,0,0,1-3.75.36v-.36Z"/><path class="cls-2" d="M115.36,40.48a13.07,13.07,0,0,1-.49,2.88,23.38,23.38,0,0,1-.83,2.57,25.93,25.93,0,0,1-2.4,4.8,15.38,15.38,0,0,1-3.7,4.08,8.68,8.68,0,0,1-5.44,1.8,1.11,1.11,0,0,1,0-2.21h0a6.24,6.24,0,0,0,3.83-1.63,12.74,12.74,0,0,0,2.75-3.57,22.94,22.94,0,0,0,1.77-4.35,23.33,23.33,0,0,0,.54-2.27,10.48,10.48,0,0,0,.21-2.1,1.88,1.88,0,1,1,3.76-.18Z"/><path class="cls-2" d="M102.94,24c-5.71,0-3.46,23.52,8.35,23.52,21.56,0,15.69-29,8.35-29-3.5,0-8.35,14.94-8.35,14.94C111.29,29.27,107,24,102.94,24Z"/><path class="cls-2" d="M35.87,81.42a2.53,2.53,0,0,0,0-.28l0-.4c0-.27.1-.57.17-.87a15.75,15.75,0,0,1,.59-1.8,14.77,14.77,0,0,1,1.9-3.35,9.58,9.58,0,0,1,2.8-2.55A8.61,8.61,0,0,1,45,71h0a.84.84,0,0,0,0-1.67,10.42,10.42,0,0,0-4.59.86,12.13,12.13,0,0,0-3.85,2.7,17.77,17.77,0,0,0-2.77,3.74,15.54,15.54,0,0,0-1,2.14A10.2,10.2,0,0,0,32.35,80l-.16.65-.09.79a1.88,1.88,0,0,0,3.75.35s0-.08,0-.11Z"/><path class="cls-2" d="M43.44,81.34a1.31,1.31,0,0,0,0-.28l0-.4c0-.27.1-.57.17-.87A12.66,12.66,0,0,1,44.22,78,14.37,14.37,0,0,1,46.1,74.6,9.83,9.83,0,0,1,48.9,72a8.78,8.78,0,0,1,3.64-1.18h0a.73.73,0,0,0,0-1.45,10.45,10.45,0,0,0-4.56.82,12.11,12.11,0,0,0-3.84,2.67,17.77,17.77,0,0,0-2.79,3.71,17.38,17.38,0,0,0-1,2.13c-.15.38-.28.77-.4,1.19l-.15.65c0,.25-.07.52-.1.78a1.88,1.88,0,1,0,3.75.37.76.76,0,0,0,0-.15Z"/><path class="cls-2" d="M50.42,80.72a1.34,1.34,0,0,0,0-.28l.05-.39c0-.28.1-.58.16-.87a13.57,13.57,0,0,1,.6-1.8A14.43,14.43,0,0,1,53.11,74a9.71,9.71,0,0,1,2.8-2.55,8.61,8.61,0,0,1,3.61-1.15h0a.82.82,0,0,0,0-1.64,10.56,10.56,0,0,0-4.59.85,12,12,0,0,0-3.84,2.7A17.17,17.17,0,0,0,48.31,76a17.52,17.52,0,0,0-1,2.14c-.14.39-.27.77-.39,1.19l-.15.65q-.06.39-.09.78a1.88,1.88,0,0,0,3.75.36.49.49,0,0,1,0-.12Z"/></g></svg>