<?xml version="1.0" encoding="utf-8"?>
<!-- Generator: Adobe Illustrator 25.0.0, SVG Export Plug-In . SVG Version: 6.00 Build 0)  -->
<svg version="1.1" id="Layer_1" xmlns="http://www.w3.org/2000/svg" xmlns:xlink="http://www.w3.org/1999/xlink" x="0px" y="0px"
	 viewBox="0 0 41 34" style="enable-background:new 0 0 41 34;" xml:space="preserve">
<style type="text/css">
	.st0{fill:#2B6D85;}
</style>
<desc>Created with sketchtool.</desc>
<desc>Created with sketchtool.</desc>
<g id="Aafart---Desktop-HD">
	<g id="Aafart---forside" transform="translate(-1278.000000, -50.000000)">
		<g id="MENU" transform="translate(1234.000000, 50.000000)">
			<g id="menu-waves" transform="translate(44.000000, 0.000000)">
				<path id="Shape" class="st0" d="M3.7,8.6c4-3.4,7.1-6.2,15.7-1.3c4.1,2.3,7.4,3.2,10.2,3.2c4.8,0,7.9-2.7,10.6-5
					c1-0.8,1.1-2.3,0.3-3.3c-0.8-1-2.2-1.1-3.2-0.3c-4,3.4-7.1,6.2-15.7,1.3C10.3-3.2,5.1,1.4,0.8,5c-1,0.8-1.1,2.3-0.3,3.3
					C1.3,9.3,2.8,9.5,3.7,8.6z M37.3,13.6c-4,3.4-7.1,6.2-15.7,1.3C10.3,8.5,5.1,13.1,0.8,16.8c-1,0.8-1.1,2.3-0.3,3.3
					c0.8,1,2.2,1.1,3.2,0.3c4-3.4,7.1-6.2,15.7-1.3c4.1,2.3,7.4,3.2,10.2,3.2c4.8,0,7.9-2.7,10.6-5c1-0.8,1.1-2.3,0.3-3.3
					C39.7,12.9,38.2,12.8,37.3,13.6z M37.3,25.4c-4,3.4-7.1,6.2-15.7,1.3c-11.3-6.4-16.5-1.8-20.8,1.8c-1,0.8-1.1,2.3-0.3,3.3
					c0.8,1,2.2,1.1,3.2,0.3c4-3.4,7.1-6.2,15.7-1.3c4.1,2.3,7.4,3.2,10.2,3.2c4.8,0,7.9-2.7,10.6-5c1-0.8,1.1-2.3,0.3-3.3
					C39.7,24.7,38.2,24.5,37.3,25.4z"/>
			</g>
		</g>
	</g>
</g>
</svg>
