<svg xmlns="http://www.w3.org/2000/svg" viewBox="0 0 147.44 132.79"><defs><style>.cls-1{fill:#fff;}.cls-2{fill:#93bd59;}</style></defs><g id="Layer_13" data-name="Layer 13"><path class="cls-1" d="M68.1,62l.08.22,0,.17a2.33,2.33,0,0,1,.08.36,1.21,1.21,0,0,1,0,.25,1.91,1.91,0,0,1,0,.41,5.08,5.08,0,0,1-.39,2,6,6,0,0,1-.3.69,13.08,13.08,0,0,1-1.11,1.82c-.35.48-.79,1-1.24,1.5A31.39,31.39,0,0,1,62.66,72a71.42,71.42,0,0,1-15.34,9.67c-2.77,1.35-5.72,2.65-8.83,3.84C19.78,92.71,2.66,93.91.27,88.17S11.17,71.92,29.89,64.7,65.72,56.26,68.1,62Z"/><path class="cls-2" d="M68.23,62.37l3.9,11.45C74.09,79.62,61,90,42.44,97.1c-18.72,7.22-35.83,8.43-38.22,2.69l-.08-.21L.27,88.17c2.39,5.74,19.51,4.54,38.22-2.7,3.11-1.19,6.06-2.49,8.83-3.84A71.42,71.42,0,0,0,62.66,72a23.48,23.48,0,0,0,2.66-2.58c.45-.51.89-1,1.24-1.5a13.08,13.08,0,0,0,1.11-1.82,6,6,0,0,0,.3-.69,5.08,5.08,0,0,0,.39-2,1.91,1.91,0,0,0,0-.41,1.21,1.21,0,0,0,0-.25A2.33,2.33,0,0,0,68.23,62.37Z"/><path class="cls-2" d="M63.46,61.68a2,2,0,0,0,.07.19l0,.15a2,2,0,0,1,.08.33c0,.08,0,.16,0,.22a2.32,2.32,0,0,1,0,.37,4.57,4.57,0,0,1-.35,1.78,5.55,5.55,0,0,1-.27.62,11.47,11.47,0,0,1-1,1.64c-.31.43-.7.88-1.11,1.34a28,28,0,0,1-2.39,2.32A64.31,64.31,0,0,1,44.8,79.32c-2.49,1.21-5.14,2.38-7.93,3.45-16.8,6.5-32.18,7.58-34.32,2.42s9.79-14.59,26.6-21.07S61.32,56.54,63.46,61.68Z"/><path class="cls-1" d="M119.12,43.91c19.43,14.94,31.74,35.09,27.48,45s-23.46,5.84-42.89-9.1S72,44.7,76.21,34.79,99.67,29,119.12,43.91Z"/><path class="cls-2" d="M145.27,91.06l-7.64,8.87c-6.06,7-23.72,2.47-41.56-11.25-19.45-15-31.76-35.11-27.5-45a8.36,8.36,0,0,1,1.33-2.15l7.64-8.87a8.36,8.36,0,0,0-1.33,2.15c-4.26,9.91,8.05,30.06,27.5,45C121.55,93.53,139.21,98.09,145.27,91.06Z"/><path class="cls-2" d="M119.07,43.57c17.8,13.69,29.08,32.15,25.18,41.23s-21.5,5.35-39.31-8.34S75.85,44.29,79.75,35.21,101.25,29.87,119.07,43.57Z"/></g></svg>