<svg xmlns="http://www.w3.org/2000/svg" viewBox="0 0 323.06 180.2"><defs><style>.cls-1{fill:#2b6d85;}.cls-2{fill:none;stroke:#2c6d85;stroke-linejoin:round;}.cls-3{fill:#fff;}</style></defs><g id="Layer_4" data-name="Layer 4"><path class="cls-1" d="M124.82,100.59a66.54,66.54,0,0,1-23.59-4.1,8.51,8.51,0,0,1,3-16.46,8.72,8.72,0,0,1,1,.06,91.64,91.64,0,0,0,10.91.7c.84,0,1.67,0,2.51,0a81.06,81.06,0,0,0,13.06-1.56c6.22-1.21,12.32-2.91,18.79-4.72,3-.84,6.13-1.71,9.28-2.53,11.77-3.1,21.51-4.55,30.62-4.55l1.46,0a87.3,87.3,0,0,1,32.39,6.89A8.5,8.5,0,0,1,221,90.64a8.77,8.77,0,0,1-1.95-.22,97.27,97.27,0,0,0-22.39-2.86c-1.45,0-2.91,0-4.32.12a97.44,97.44,0,0,0-13.37,1.72c-4.54.89-9.19,2.14-13.56,3.34l-4.86,1.37c-8.1,2.3-16.47,4.68-25.42,5.8A79.23,79.23,0,0,1,124.82,100.59Z"/><path class="cls-2" d="M124.82,100.59a66.54,66.54,0,0,1-23.59-4.1,8.51,8.51,0,0,1,3-16.46,8.72,8.72,0,0,1,1,.06,91.64,91.64,0,0,0,10.91.7c.84,0,1.67,0,2.51,0a81.06,81.06,0,0,0,13.06-1.56c6.22-1.21,12.32-2.91,18.79-4.72,3-.84,6.13-1.71,9.28-2.53,11.77-3.1,21.51-4.55,30.62-4.55l1.46,0a87.3,87.3,0,0,1,32.39,6.89A8.5,8.5,0,0,1,221,90.64a8.77,8.77,0,0,1-1.95-.22,97.27,97.27,0,0,0-22.39-2.86c-1.45,0-2.91,0-4.32.12a97.44,97.44,0,0,0-13.37,1.72c-4.54.89-9.19,2.14-13.56,3.34l-4.86,1.37c-8.1,2.3-16.47,4.68-25.42,5.8A79.23,79.23,0,0,1,124.82,100.59Z"/><path class="cls-1" d="M115.87,94.92a48.64,48.64,0,0,1-17.05-2.87,8.5,8.5,0,0,1,3-16.47,7.87,7.87,0,0,1,.84,0c1.62.16,3.28.24,4.95.24a64.71,64.71,0,0,0,11.88-1.18c3.37-.67,6.13-1.31,8.63-2l.14,0c2.73-.72,5.43-1.5,8.3-2.34l2.07-.6A169.72,169.72,0,0,1,157.35,65a62,62,0,0,1,10.57-1h1a37.54,37.54,0,0,1,12.68,2.34,8.5,8.5,0,0,1-4.07,16.37,28.39,28.39,0,0,0-3.24-.18,51.81,51.81,0,0,0-12.69,2c-3.58,1-7.17,2.08-11,3.28-2.39.76-4.87,1.54-7.37,2.28a109.74,109.74,0,0,1-20.94,4.44C120.12,94.81,118,94.92,115.87,94.92Z"/><path class="cls-2" d="M115.87,94.92a48.64,48.64,0,0,1-17.05-2.87,8.5,8.5,0,0,1,3-16.47,7.87,7.87,0,0,1,.84,0c1.62.16,3.28.24,4.95.24a64.71,64.71,0,0,0,11.88-1.18c3.37-.67,6.13-1.31,8.63-2l.14,0c2.73-.72,5.43-1.5,8.3-2.34l2.07-.6A169.72,169.72,0,0,1,157.35,65a62,62,0,0,1,10.57-1h1a37.54,37.54,0,0,1,12.68,2.34,8.5,8.5,0,0,1-4.07,16.37,28.39,28.39,0,0,0-3.24-.18,51.81,51.81,0,0,0-12.69,2c-3.58,1-7.17,2.08-11,3.28-2.39.76-4.87,1.54-7.37,2.28a109.74,109.74,0,0,1-20.94,4.44C120.12,94.81,118,94.92,115.87,94.92Z"/><path class="cls-1" d="M151,76.58a8.44,8.44,0,0,1-5.6-2.12l-.85-.73c-5.2-4.5-16-13.88-16-30.14,0-11.52,7.64-20.22,12.2-25.41.73-.82,1.66-1.89,2.18-2.55A8.51,8.51,0,0,1,151,9.48h.3a8.51,8.51,0,0,1,8.21,8.5c0,.3,0,.62,0,.93-.09,1.4-.19,3.31-.2,4.4A18.75,18.75,0,0,0,160.86,29a40.78,40.78,0,0,1,3.23,15.52,28.36,28.36,0,0,1-3.42,14.11c-1,2.13-1.34,2.7-1.1,5a8.58,8.58,0,0,1-.22,3A8.52,8.52,0,0,1,151,76.58Z"/><path class="cls-2" d="M151,76.58a8.44,8.44,0,0,1-5.6-2.12l-.85-.73c-5.2-4.5-16-13.88-16-30.14,0-11.52,7.64-20.22,12.2-25.41.73-.82,1.66-1.89,2.18-2.55A8.51,8.51,0,0,1,151,9.48h.3a8.51,8.51,0,0,1,8.21,8.5c0,.3,0,.62,0,.93-.09,1.4-.19,3.31-.2,4.4A18.75,18.75,0,0,0,160.86,29a40.78,40.78,0,0,1,3.23,15.52,28.36,28.36,0,0,1-3.42,14.11c-1,2.13-1.34,2.7-1.1,5a8.58,8.58,0,0,1-.22,3A8.52,8.52,0,0,1,151,76.58Z"/><path class="cls-1" d="M137.81,81.45A33.94,33.94,0,0,1,119.07,76c-9.69-6.25-12.85-17.38-14.74-24-.3-1.06-.69-2.42-1-3.22a8.51,8.51,0,0,1,11-12.73q.39.26.75.54c1.14.84,2.68,2,3.59,2.56a18.68,18.68,0,0,0,5.64,1.76,40.9,40.9,0,0,1,14.79,5.7,28.46,28.46,0,0,1,10,10.53c1.21,2,1.54,2.59,3.63,3.65a8.66,8.66,0,0,1,2.37,1.79,8.51,8.51,0,0,1-1,16l-1.07.31A53.13,53.13,0,0,1,137.81,81.45Z"/><path class="cls-2" d="M137.81,81.45A33.94,33.94,0,0,1,119.07,76c-9.69-6.25-12.85-17.38-14.74-24-.3-1.06-.69-2.42-1-3.22a8.51,8.51,0,0,1,11-12.73q.39.26.75.54c1.14.84,2.68,2,3.59,2.56a18.68,18.68,0,0,0,5.64,1.76,40.9,40.9,0,0,1,14.79,5.7,28.46,28.46,0,0,1,10,10.53c1.21,2,1.54,2.59,3.63,3.65a8.66,8.66,0,0,1,2.37,1.79,8.51,8.51,0,0,1-1,16l-1.07.31A53.13,53.13,0,0,1,137.81,81.45Z"/><path class="cls-1" d="M26.52,131.46c-11.45,0-19.14-8.43-19.14-21,0-17.22,12.12-31.23,27-31.23,11.13,0,18.89,8.26,18.89,20.09a36.79,36.79,0,0,1-6.74,21.2C41.41,127.58,34.3,131.46,26.52,131.46Z"/><path class="cls-1" d="M63.8,131.46a12.7,12.7,0,0,1-6.65-2,13,13,0,0,1-6.7,2c-7.82,0-13.27-7.31-13.27-13.87a32.65,32.65,0,0,1,4.15-16C45,95.44,50.63,91.8,57,91.54c.24-1.36,1.23-6.87,1.23-6.87a8.5,8.5,0,0,1,8.37-7c1.78,0,7.19,0,10.9,4.12a11.46,11.46,0,0,1,2.77,9c0,.06,0,.13,0,.2a70.57,70.57,0,0,1-2.1,8.84l-.12.44a10,10,0,0,1,5.25,6.36,8.47,8.47,0,0,1-.38,5.55C79.86,119.38,73.31,131.46,63.8,131.46Z"/><path class="cls-1" d="M79.3,131.46c-9.25,0-16.23-7.19-16.23-16.73a25,25,0,0,1,5.15-14.79,20.19,20.19,0,0,1,16.25-8.41c7.46,0,11.81,3.87,13.43,8.43a10,10,0,0,1,4.33,3.29,9.09,9.09,0,0,1,1.43,8.07C101.8,117.67,93.13,131.46,79.3,131.46Z"/><path class="cls-1" d="M96.81,131.51c-7.61,0-13.57-5.19-13.57-11.81,0-5.36,4.38-21.77,4.42-21.93a8.5,8.5,0,0,1,8.2-6.24,15.45,15.45,0,0,1,7.59,1.86,15.3,15.3,0,0,1,7.31-1.91,12.55,12.55,0,0,1,11.66,8.11,9.82,9.82,0,0,1,7.33,8.37,8.5,8.5,0,0,1-.73,4.5c-8.71,19-16.2,19-18.66,19a13.31,13.31,0,0,1-7.66-2.31A8.51,8.51,0,0,1,96.81,131.51Z"/><path class="cls-1" d="M121.75,131.46h-.46c-8-.43-12.16-6.18-12.16-11.65a11.52,11.52,0,0,1,.4-3,9.71,9.71,0,0,1-.9-4.09,8.45,8.45,0,0,1,1.61-5,32,32,0,0,0,3.3-6.89c0-.17,0-.35.07-.53a8,8,0,0,1,.19-.85,12.21,12.21,0,0,1,12.11-9.36,9.82,9.82,0,0,1,10,9.51,8.63,8.63,0,0,1,2.33-.33A9.72,9.72,0,0,1,148,109a8.87,8.87,0,0,1-.23,2c-1.39,5.8-9.24,18.91-23.52,20.36a15.7,15.7,0,0,1-2,.1Z"/><path class="cls-1" d="M143.82,131.46c-9.25,0-16.23-7.19-16.23-16.73a25,25,0,0,1,5.16-14.79A20.16,20.16,0,0,1,149,91.53c7.46,0,11.81,3.87,13.44,8.43a10,10,0,0,1,4.33,3.29,9.11,9.11,0,0,1,1.42,8.07C166.33,117.67,157.66,131.46,143.82,131.46Z"/><path class="cls-1" d="M190.64,131.46a12.8,12.8,0,0,1-9.52-4.58,12.65,12.65,0,0,1-9.55,4.58c-6.29,0-11.2-5.18-11.41-12.05a8.52,8.52,0,0,1,4.23-7.62,11.38,11.38,0,0,1-.57-3.58,12.16,12.16,0,0,1,1-4.67,8.53,8.53,0,0,1,7.14-5.31c3.43-12.6,9.62-19,18.42-19,9.4,0,15,6.08,15,12,0,1.29-.24,3.1-1.35,9.15a9.51,9.51,0,0,1,8,9.26,9.38,9.38,0,0,1-.35,2.52,8.78,8.78,0,0,1-.37,1.13C209.75,117.11,201.67,131.46,190.64,131.46Z"/><path class="cls-1" d="M218.23,131.51a12.89,12.89,0,0,1-6.67-1.95,13.08,13.08,0,0,1-6.67,1.95c-7.82,0-13.27-7.36-13.27-14a33.8,33.8,0,0,1,3.61-14.88c3.67-7,9.84-11.08,16.93-11.08a19.94,19.94,0,0,1,5.23.68,10.94,10.94,0,0,1,1.39-.08c5.06,0,10.4,2.93,12.43,7.61a10.05,10.05,0,0,1,6.66,7.83,8.42,8.42,0,0,1-.66,4.82C228.51,131.51,220.77,131.51,218.23,131.51Z"/><path class="cls-1" d="M229.67,146.11c-3.15,0-13.42-1.19-13.42-16.58,0-4.71.83-11,2.54-19.28,3.42-16.74,6.65-32.57,19.61-32.57,7.71,0,13.52,6.37,13.52,14.83a28.13,28.13,0,0,1-1.46,8.68A8.51,8.51,0,0,1,252,103a11.39,11.39,0,0,1,2,6.31,10.9,10.9,0,0,1-1.67,5.73q-2.09,3.36-7.24,5.13a32.68,32.68,0,0,1,.53,5.9C245.6,137.5,238.75,146.11,229.67,146.11Z"/><path class="cls-1" d="M260.58,131.51a12.93,12.93,0,0,1-6.68-1.95,13.06,13.06,0,0,1-6.67,1.95c-7.82,0-13.27-7.36-13.27-14a33.67,33.67,0,0,1,3.62-14.88c3.67-7,9.84-11.08,16.93-11.08a20,20,0,0,1,5.23.68,10.85,10.85,0,0,1,1.39-.08c5.06,0,10.39,2.93,12.42,7.61a10,10,0,0,1,6.67,7.83,8.51,8.51,0,0,1-.67,4.82C270.86,131.51,263.12,131.51,260.58,131.51Z"/><path class="cls-1" d="M280.35,131.46a13.4,13.4,0,0,1-12.92-9.64c-4.38-1-7.58-5.1-7.58-10.2a8.47,8.47,0,0,1,1.19-4.33c.46-.77.92-1.64,1.36-2.57a12.31,12.31,0,0,1,11.32-17.26,13.18,13.18,0,0,1,8.18,3,8.41,8.41,0,0,1,2.2,2.6,12,12,0,0,1,7.58,6.36,9.86,9.86,0,0,1,8,9.75c0,.91,0,3.67-5.07,11.65C291.71,125.38,287.07,131.46,280.35,131.46Z"/><path class="cls-1" d="M292.74,131.51A13.32,13.32,0,0,1,279.37,118c0-2.25.35-3.78,1.67-9.47.09-.42.2-.87.31-1.35a8.47,8.47,0,0,1-2.09-4.83,11.06,11.06,0,0,1,2.66-8.66,9.59,9.59,0,0,1,3-2.24c.34-1.52.71-3.21,1.1-5a8.51,8.51,0,0,1,8.31-6.72c9.08,0,13.19,5.84,13.27,11.68a8.48,8.48,0,0,1,4,6.21,17,17,0,0,1,.17,2.2,13,13,0,0,1-.09,1.55,9.53,9.53,0,0,1,1.56,1.67,9.73,9.73,0,0,1,1.52,8.38C313.18,117.09,304.23,131.51,292.74,131.51Z"/><path class="cls-1" d="M108.48,151.56c-3,0-6.71,0-9.4-3.38l-.16-.21a9.22,9.22,0,0,1-1.8-5.66,10.53,10.53,0,0,1,3.28-7.7,8.5,8.5,0,0,1,5.85-2.33h.38l3.73.12,2.62.07a8.91,8.91,0,0,1,8.6,9.15,9.67,9.67,0,0,1-5.91,9.17C114.47,151.28,113.33,151.56,108.48,151.56Z"/><path class="cls-1" d="M123.82,156.48c-6.51,0-11.34-4.73-11.85-11.4a12.34,12.34,0,0,1-4.3-9.45c0-7.81,7-13.7,16.18-13.7a11.72,11.72,0,0,1,4.34.77,10.5,10.5,0,0,1,3.86-.72c3.81,0,10.25,2.43,10.25,11.55C142.3,143.12,135.27,156.48,123.82,156.48Z"/><path class="cls-1" d="M142.37,156.48a10.29,10.29,0,0,1-3.3-.55,10.44,10.44,0,0,1-3.34.55c-6.51,0-10.88-5.78-10.88-11.17,0-9.06,4.87-14.74,10.45-16.59l.11-.58a8.49,8.49,0,0,1,8.36-7,11,11,0,0,1,8.61,3.46,9.9,9.9,0,0,1,2.45,7.78c0,.07,0,.13,0,.19a21.27,21.27,0,0,1-.51,2.55,9.22,9.22,0,0,1,1.9,3.58,8.44,8.44,0,0,1-.38,5.56C151.54,154.37,146.14,156.48,142.37,156.48Z"/><path class="cls-1" d="M148.5,156.48a10.74,10.74,0,0,1-10.7-10.75c0-2.23,1.85-11,3.4-17.93a8.51,8.51,0,0,1,8.3-6.64c8.71,0,11,6.35,11,10.1a17,17,0,0,1-.45,3.55,9.16,9.16,0,0,1,2.43,6.81,8.68,8.68,0,0,1-.55,2.47C160.84,147,156.56,156.48,148.5,156.48Z"/><path class="cls-1" d="M156.15,156.48a12.2,12.2,0,0,1-12.35-12.6c0-7.64,6-15.83,14.92-15.83a11.55,11.55,0,0,1,10,5.4,9.29,9.29,0,0,1,2.29,2.18,8.87,8.87,0,0,1,1.37,7.75C170.79,148.83,164.71,156.48,156.15,156.48ZM155,138.3Z"/><path class="cls-1" d="M158.83,163.78c-6.25,0-11-4.51-11-10.5a10,10,0,0,1,6.27-9.52c.59-2.78,1.35-6.28,2-9.18a8.43,8.43,0,0,1,.6-1.73c.26-5.79,4.76-10.42,10.25-10.42a10.1,10.1,0,0,1,9.23,5.75,7.68,7.68,0,0,1,.32.79,10,10,0,0,1-.93,8.14c-.05.1-.1.21-.17.33s0,.46,0,.69a11.65,11.65,0,0,1-.27,2.49l-.06.25c-.31,1.23-.87,3.36-1.42,5.47l-.94,3.62C171.91,153.4,169.19,163.78,158.83,163.78Z"/><path class="cls-1" d="M170.4,156.51c-6.18,0-11-4.46-11-10.15,0-3.42,2.33-12,2.36-12.06a8.51,8.51,0,0,1,8.2-6.25,12.64,12.64,0,0,1,3.75.56,11.94,11.94,0,0,1,3.67-.58,10.46,10.46,0,0,1,8.93,5,9.11,9.11,0,0,1,4.77,7,8.61,8.61,0,0,1-.72,4.5c-3.75,8.16-7.93,11.95-13.18,11.95a11.09,11.09,0,0,1-3.57-.58A8.65,8.65,0,0,1,170.4,156.51Z"/><path class="cls-1" d="M183.15,156.48a10.82,10.82,0,0,1-10.9-10.72,10.13,10.13,0,0,1,.17-1.92c.11-.61.32-1.53.78-3.58.41-1.79,1-4.24,1.12-5.17a8.83,8.83,0,0,1,.91-2.6c.43-5.62,4.85-10.06,10.22-10.06a10.09,10.09,0,0,1,9.23,5.75c0,.11.09.21.14.31a9.08,9.08,0,0,1,.14,6.61,9.11,9.11,0,0,1,2,4,8.52,8.52,0,0,1-.43,5C192.16,154.88,186.27,156.48,183.15,156.48Z"/><path class="cls-1" d="M189.25,156.51c-6.18,0-11-4.46-11-10.15,0-3.42,2.33-12,2.36-12.06a8.5,8.5,0,0,1,8.2-6.25,12.64,12.64,0,0,1,3.75.56,11.94,11.94,0,0,1,3.67-.58,10.47,10.47,0,0,1,8.93,5,9.11,9.11,0,0,1,4.77,7,8.61,8.61,0,0,1-.72,4.5c-3.75,8.16-7.93,11.95-13.18,11.95a11.09,11.09,0,0,1-3.57-.58A8.65,8.65,0,0,1,189.25,156.51Z"/><path class="cls-1" d="M203.37,163.78c-6.56,0-11.7-4.82-11.7-11a10.85,10.85,0,0,1,.39-2.92,11.79,11.79,0,0,1-1-4.8c0-8.37,5.44-17,14.55-17a14.16,14.16,0,0,1,2.61.25c.28,0,.52,0,.74,0a10.68,10.68,0,0,1,9.76,5.54A8.84,8.84,0,0,1,222.3,141a8.56,8.56,0,0,1-.62,3.2,22.4,22.4,0,0,1-5.25,7.71C214.94,156.92,211.83,163.78,203.37,163.78Z"/></g><g id="Layer_5" data-name="Layer 5"><ellipse class="cls-1" cx="180.55" cy="110.78" rx="65.32" ry="34.12"/><path class="cls-3" d="M104.24,88.53a93.65,93.65,0,0,0,14.73.71,88.66,88.66,0,0,0,14.44-1.71c9.53-1.85,18.88-4.85,28.53-7.37s19.67-4.43,29.8-4.25A78.29,78.29,0,0,1,221,82.14,101.07,101.07,0,0,0,191.8,79.2a104.63,104.63,0,0,0-14.44,1.85c-4.78.93-9.5,2.19-14.24,3.49-9.46,2.62-19,5.67-29.08,6.94S113.59,92.06,104.24,88.53Z"/><path class="cls-3" d="M101.79,84.08A67.39,67.39,0,0,0,121,83c3.14-.61,6.27-1.3,9.37-2.17s6.2-1.72,9.32-2.63a173.38,173.38,0,0,1,19.08-4.8,52.56,52.56,0,0,1,9.95-.83,29.46,29.46,0,0,1,9.75,1.77c-6.54-.77-12.86.39-19.06,2S147.09,80.15,140.81,82a102.28,102.28,0,0,1-19.36,4.13A43.88,43.88,0,0,1,101.79,84.08Z"/><path class="cls-3" d="M137,43.59C137,30.79,151,21.7,151,18c0,0-.24,3.51-.24,5.45.18,7,4.8,11.31,4.8,21.09,0,10.61-5.43,10.61-4.48,20-3.24-3.24-4.82-12.09-4.82-19.13a116,116,0,0,1,1.12-14.62s-3.08,10-3.08,16c0,8.33,1.67,15.19,6.63,21.26C146.29,64,137,56.75,137,43.59Z"/><path class="cls-3" d="M123.68,68.82c-10.76-6.94-10.78-23.68-13.9-25.69,0,0,2.81,2.11,4.44,3.16,6,3.65,12.12,2.1,20.34,7.4,8.91,5.75,6,10.31,14.38,14.61-4.47,1-12.78-2.5-18.7-6.32a116.75,116.75,0,0,1-11.67-8.87s6.72,8,11.8,11.28c7,4.51,13.67,6.83,21.46,6C145.84,72,134.73,76,123.68,68.82Z"/><path class="cls-3" d="M15.88,110.47c0-11.59,7.73-22.73,18.51-22.73,5.82,0,10.39,3.66,10.39,11.59C44.78,111,37.2,123,26.52,123,19.09,123,15.88,117.44,15.88,110.47ZM38.81,98.68c0-6.73-2.86-8.33-5.37-8.33-7,0-11.59,11.19-11.59,20,0,5.82,2.06,9.88,5.77,9.88C34.34,120.25,38.81,107.56,38.81,98.68Z"/><path class="cls-3" d="M45.69,117.59c0-7.72,4-17.56,12-17.56a10.19,10.19,0,0,1,5.92,1.76c1-4.42,2.1-10.89,3-15.61,3.26,0,5.52.86,5.21,3.72-.4,3.11-2.55,9.63-3.76,15-1.45,6.87-3.41,13.65-2.81,13.65,2.11,0,6.42-6.53,8.43-10.79a1.48,1.48,0,0,1,1.41,1.1C73.53,112.52,68.16,123,63.8,123c-2.11,0-4.57-2.46-4.42-3.86.35-2,2.41-6.68,3.16-9.44l-.15,0C59.43,116,54.11,123,50.45,123,47.79,123,45.69,119.85,45.69,117.59ZM62.74,105.3a9,9,0,0,0-5.36-1.91c-2.86,0-5.87,8-5.87,12.35,0,1.5.45,2.35,1.15,2.35C54.16,118.09,58.88,112.93,62.74,105.3Z"/><path class="cls-3" d="M95.51,108.91c-1.11,3.81-7.33,14-16.21,14-5.22,0-7.73-4.06-7.73-8.23,0-6.12,4.82-14.7,12.9-14.7,4.21,0,5.67,2,5.67,4.22,0,5.41-7.13,8.58-12.59,9.23a6.7,6.7,0,0,0,0,1c0,3.26,1.4,4.67,3.76,4.67,5.42,0,9.58-4.52,13-11.39C94.85,107.76,95.71,108.26,95.51,108.91Zm-17.66,2.71c4.86-1.2,7.22-4.06,7.22-6.82,0-1.56-.35-2.36-1.55-2.36C81.21,102.44,78.75,107.81,77.85,111.62Z"/><path class="cls-3" d="M91.74,119.7c0-3.31,3.16-16.21,4.12-19.67,2,0,4.91.65,4.91,3.11,0,1.76-2.4,7.08-3.21,10l.2.15c2.61-5.77,7.58-13.35,13-13.35a3.85,3.85,0,0,1,3.86,3.56c0,3.06-3.31,12.55-3.31,14.65,0,.25,0,.46.15.46,2.26,0,5.82-5.77,8.43-10.89a1.44,1.44,0,0,1,1.41,1.15c-3.07,6.68-7.68,14-10.94,14a4.73,4.73,0,0,1-4.87-4.47c0-2.4,3.11-11.48,3.11-13.64,0-.45-.1-.7-.35-.7-2.36,0-8.78,7.82-10.94,14.9-.25,1.2-.4,3.21-.5,4C94.05,123,91.74,121.61,91.74,119.7Z"/><path class="cls-3" d="M123.2,122.91a6.05,6.05,0,0,1-1,0h-.5c-2.81-.15-4.12-1.56-4.12-3.16,0-1.1.66-2.36,2.31-3.46,1.21,2,2.56,2.61,4.07,2.61,2.3,0,3.61-1.36,3.61-3.32,0-1.8-1.21-3.41-2.46-5.21a18.26,18.26,0,0,1-2.56-4.27,54.87,54.87,0,0,1-4.11,8,1.6,1.6,0,0,1-1.36-1.46c2-2.7,3.66-6.92,4.82-10.08a5.14,5.14,0,0,1,0-.9,3.72,3.72,0,0,1,3.91-3.11,1.35,1.35,0,0,1,1.51,1.3A7,7,0,0,1,127,102c.6,1.1,1.4,2.26,2.15,3.41,1.81,2.66,3.67,5.42,3.67,8.13a7.73,7.73,0,0,1-.76,3.11,30.6,30.6,0,0,0,6.22-8.83,1.21,1.21,0,0,1,1.21,1.2C138.86,111.52,133.59,122,123.2,122.91Z"/><path class="cls-3" d="M160,108.91c-1.1,3.81-7.33,14-16.21,14-5.21,0-7.72-4.06-7.72-8.23,0-6.12,4.81-14.7,12.89-14.7,4.22,0,5.67,2,5.67,4.22,0,5.41-7.12,8.58-12.59,9.23a6.7,6.7,0,0,0,0,1c0,3.26,1.4,4.67,3.76,4.67,5.42,0,9.58-4.52,13-11.39C159.38,107.76,160.23,108.26,160,108.91Zm-17.66,2.71c4.87-1.2,7.22-4.06,7.22-6.82,0-1.56-.35-2.36-1.55-2.36C145.73,102.44,143.27,107.81,142.37,111.62Z"/><path class="cls-3" d="M203.53,109.61a2.6,2.6,0,0,1-.1.46c-1.51,3.71-7.73,12.89-12.79,12.89a4.59,4.59,0,0,1-4.07-3.91,97.86,97.86,0,0,1,1.71-10.54,53.43,53.43,0,0,1-8,2c-2.16,6.27-5.32,12.49-8.68,12.49-2.06,0-2.86-2.21-2.91-3.81,3.11-.71,5.82-4.07,7.88-8.23a3.8,3.8,0,0,1-.7,0c-2.41,0-3.52-1.31-3.52-2.76a3.8,3.8,0,0,1,.36-1.51,15.71,15.71,0,0,0,5.31.91,50.35,50.35,0,0,0,1.76-5.67c2.36-9.73,5.72-14.2,10.59-14.2,4.56,0,6.52,2.31,6.52,3.46,0,2.46-5.17,27.6-4.72,27.6,2.21,0,8.23-6.23,9.88-10,0-.05.16-.05.31-.05C202.83,108.71,203.53,109,203.53,109.61Zm-14.75-3.86c1.05-5.37,2.26-11.19,3.06-15.45a9,9,0,0,0-1.1-.1c-4.17,0-6.53,5.27-8.33,12.79-.3,1.36-.75,2.91-1.21,4.47A24.81,24.81,0,0,0,188.78,105.75Z"/><path class="cls-3" d="M200.12,117.54c0-5.92,3.06-17.46,12-17.46a10.5,10.5,0,0,1,5.92,1.71l.15-1.06a2.24,2.24,0,0,1,.55,0c1.81,0,4.77,1.31,4.77,3.21a2.51,2.51,0,0,1-.1.61c-1.2,4.21-4.52,14.15-3.81,14.15,2.25,0,6.32-6.58,8.37-10.84a1.42,1.42,0,0,1,1.46,1.1c-1.55,3.41-7,14.1-11.24,14.1-2.46,0-4.41-2.46-4.41-3.46,0-1.91,2.3-7.08,3.16-9.84l-.2-.1c-3.26,7.28-8.53,13.4-11.89,13.4C202.13,123,200.12,119.85,200.12,117.54Zm17.06-12.19a8.75,8.75,0,0,0-5.37-1.91c-2.71,0-5.92,6.78-5.92,12.45,0,1.4.3,2.25,1.1,2.25C208.85,118.14,213.31,113,217.18,105.35Z"/><path class="cls-3" d="M245.48,109.31a2.41,2.41,0,0,1-.41,1.26c-.85,1.4-6.22,2.71-11.64,3a22.39,22.39,0,0,1,3.67,12.54c0,6.07-3,11.54-7.43,11.54-3.36,0-4.91-2.41-4.91-8.08,0-4.06.75-9.78,2.35-17.56,3.67-17.91,6.22-25.79,11.29-25.79,2.91,0,5,2.66,5,6.33,0,6.52-4.32,14.19-8.63,18.16a29.48,29.48,0,0,0,10.08-3.06A3,3,0,0,1,245.48,109.31Zm-12.1,15a26.86,26.86,0,0,0-1.6-9.53c-1.86,8.83-2.66,14.15-2.66,17,0,1.86.35,2.61.95,2.61C232.23,134.45,233.38,128.83,233.38,124.36Zm-.5-14.24c3.77-4.92,6.83-13.15,6.83-18.77,0-1.35-.3-2-.86-2C238,89.35,236.85,93.26,232.88,110.12Z"/><path class="cls-3" d="M242.47,117.54c0-5.92,3.06-17.46,12-17.46a10.55,10.55,0,0,1,5.92,1.71l.15-1.06a2.24,2.24,0,0,1,.55,0c1.81,0,4.77,1.31,4.77,3.21a3.11,3.11,0,0,1-.1.61c-1.21,4.21-4.52,14.15-3.82,14.15,2.26,0,6.32-6.58,8.38-10.84a1.43,1.43,0,0,1,1.46,1.1c-1.56,3.41-7,14.1-11.24,14.1-2.46,0-4.42-2.46-4.42-3.46,0-1.91,2.31-7.08,3.16-9.84l-.2-.1c-3.26,7.28-8.53,13.4-11.89,13.4C244.47,123,242.47,119.85,242.47,117.54Zm17-12.19a8.72,8.72,0,0,0-5.36-1.91c-2.71,0-5.92,6.78-5.92,12.45,0,1.4.3,2.25,1.1,2.25C251.2,118.14,255.66,113,259.52,105.35Z"/><path class="cls-3" d="M291.18,109.16c0,.5-6.37,13.8-10.83,13.8a4.76,4.76,0,0,1-4.87-4.31c0-2.71,2.46-9,3.66-14.3a37.31,37.31,0,0,1-5.07-.71,48,48,0,0,1-4.66,9.89c-.65,0-1.06-1.21-1.06-1.91a51.4,51.4,0,0,0,3.92-8.43,3.58,3.58,0,0,1-2.41-3.51A3.83,3.83,0,0,1,273.72,96a4.77,4.77,0,0,1,2.91,1.15,31.46,31.46,0,0,1-.45,3.61,46.65,46.65,0,0,0,5.52.51c1.41.1,2.86,2,2.86,4,0,1.71-4.06,13.4-3.16,13.4,2.81,0,7.27-8.23,8.58-10.89A1.33,1.33,0,0,1,291.18,109.16Z"/><path class="cls-3" d="M306.59,109.06c-1.11,4.22-8.08,14-13.85,14a4.88,4.88,0,0,1-4.87-5c0-1.8.56-3.46,3.36-15.9a11,11,0,0,1-3.51-.55c-.1-1.06.15-2.51,1.36-2.51h2.86c.7-3.06,1.5-6.62,2.4-10.84,2.61,0,4.77.65,4.77,3.36a3.54,3.54,0,0,1-.05.7c-.1.91-.75,3.52-1.5,6.68,2.1-.05,4.21-.15,5.62-.3,0,.4.09.8.09,1.15,0,1-.25,1.86-.95,2.16a31.15,31.15,0,0,1-5.57.35c-1.25,5.52-2.61,11.69-2.61,14.6,0,1,.15,1.66.56,1.66,2.56,0,7.52-4.12,10.78-10.94C306.09,107.46,306.84,108.26,306.59,109.06Z"/><path class="cls-3" d="M105.63,142.31a2.08,2.08,0,0,1,.62-1.53c2.25.1,4.38.13,6.5.2.25,0,.32.3.32.65,0,.5-.19,1.15-.5,1.25a30.51,30.51,0,0,1-4.09.18,10.4,10.4,0,0,1-2.75-.18A1.05,1.05,0,0,1,105.63,142.31Z"/><path class="cls-3" d="M117.53,135.58c0,1.23,1.8,1.68,3,1.73a1.53,1.53,0,0,1-1.58,1.87c-1.67,0-2.82-1.75-2.82-3.55,0-3.4,4.1-5.2,7.67-5.2,1.25,0,1.65.15,1.65,1,0,1.25-.4,2.8-1.45,7.23a24.72,24.72,0,0,0-1,5.4c0,1.57.53,2.07,1.35,2.07,3.57,0,6.27-7.2,6.27-12.47a14.35,14.35,0,0,0-.2-2.63,2.22,2.22,0,0,1,1.53-.6c1.65,0,1.75,1.73,1.75,3.05,0,6.1-4.55,14.45-10,14.45-2.34,0-3.39-1.62-3.39-4.1a14,14,0,0,1,.17-1.95c.25-1.52,1.3-6.27,1.87-9.12C120.35,132.81,117.53,134.13,117.53,135.58Z"/><path class="cls-3" d="M133.35,145.31c0-3.85,2-8.75,6-8.75a5.09,5.09,0,0,1,3,.87c.5-2.2,1-5.42,1.47-7.77,1.63,0,2.75.43,2.6,1.85s-1.27,4.8-1.87,7.47c-.73,3.43-1.7,6.8-1.4,6.8,1.05,0,3.2-3.25,4.2-5.37a.74.74,0,0,1,.7.55c-.78,1.82-3.45,7-5.63,7-1.05,0-2.27-1.22-2.19-1.92.17-1,1.2-3.33,1.57-4.7l-.07,0c-1.48,3.2-4.13,6.65-6,6.65A2.78,2.78,0,0,1,133.35,145.31Zm8.5-6.13a4.53,4.53,0,0,0-2.67-1c-1.43,0-2.93,4-2.93,6.15,0,.75.23,1.18.58,1.18C137.58,145.56,139.93,143,141.85,139.18Z"/><path class="cls-3" d="M146.3,145.73c0-1,1.78-9.7,3.2-16.07,1.45,0,2.52.15,2.52,1.6s-1.42,6.1-2.62,11.75a14.94,14.94,0,0,0-.4,2.4c0,.25.05.42.18.42,1.2,0,3.17-3.3,4.19-5.42.25-.08.68.27.65.62-.62,1.63-3.39,6.95-5.52,6.95A2.24,2.24,0,0,1,146.3,145.73Z"/><path class="cls-3" d="M164.22,141c-.55,1.9-3.65,7-8.07,7a3.8,3.8,0,0,1-3.85-4.1c0-3,2.4-7.32,6.42-7.32,2.1,0,2.83,1,2.83,2.1,0,2.7-3.55,4.27-6.27,4.6a2.74,2.74,0,0,0,0,.5c0,1.62.7,2.32,1.88,2.32,2.69,0,4.77-2.25,6.47-5.67C163.9,140.41,164.32,140.66,164.22,141Zm-8.79,1.35c2.42-.6,3.59-2,3.59-3.4,0-.77-.17-1.17-.77-1.17C157.1,137.76,155.88,140.43,155.43,142.33Z"/><path class="cls-3" d="M156.38,153.28a1.63,1.63,0,0,1,1.8-1.78c0,1.4.35,2.35,1,2.35,1.27,0,2.15-3.12,2.9-6.72.67-3.27,1.57-7.42,2.32-10.6,1.55,0,2.55.45,2.55,1.6a3.14,3.14,0,0,1-.07.65c-.5,2-1.63,6.25-2.35,9.05-.83,3.15-2,7.45-5.75,7.45C157.13,155.28,156.38,154.35,156.38,153.28Zm10.1-18.52a1.14,1.14,0,0,1-1.08-.63,1.79,1.79,0,0,1-.12-.75c0-1.12.77-2.45,1.75-2.45a1.66,1.66,0,0,1,1.55.9c.12.35-1.05,2.7-1.58,2.85A1.62,1.62,0,0,1,166.48,134.76Z"/><path class="cls-3" d="M167.88,146.36c0-1.65,1.57-8.08,2.05-9.8,1,0,2.45.32,2.45,1.55,0,.87-1.2,3.52-1.6,5l.1.07c1.3-2.87,3.77-6.65,6.47-6.65a1.92,1.92,0,0,1,1.92,1.78c0,1.52-1.65,6.25-1.65,7.3,0,.12,0,.22.08.22,1.12,0,2.9-2.87,4.2-5.42a.71.71,0,0,1,.7.57c-1.53,3.33-3.83,7-5.45,7a2.35,2.35,0,0,1-2.43-2.22c0-1.2,1.55-5.73,1.55-6.8,0-.23-.05-.35-.17-.35-1.18,0-4.38,3.9-5.45,7.42-.12.6-.2,1.6-.25,2C169,148,167.88,147.31,167.88,146.36Z"/><path class="cls-3" d="M180.75,145.76a1.23,1.23,0,0,1,0-.33c.15-.92,1.57-6.87,1.92-8.87,1.35,0,2.62.32,2.62,1.57,0,1-1.8,5.45-1.8,7.28,0,.25,0,.42.18.42,1.22,0,3.15-3.25,4.22-5.42a.69.69,0,0,1,.73.52c-.7,1.73-3.45,7-5.5,7A2.27,2.27,0,0,1,180.75,145.76Zm4.15-11a1.16,1.16,0,0,1-1.08-.63,1.79,1.79,0,0,1-.12-.75c0-1.12.8-2.45,1.75-2.45a1.66,1.66,0,0,1,1.55.9,5.24,5.24,0,0,1-1.58,2.85A1.62,1.62,0,0,1,184.9,134.76Z"/><path class="cls-3" d="M186.73,146.36c0-1.65,1.57-8.08,2.05-9.8,1,0,2.44.32,2.44,1.55,0,.87-1.2,3.52-1.59,5l.09.07c1.3-2.87,3.78-6.65,6.48-6.65a1.92,1.92,0,0,1,1.92,1.78c0,1.52-1.65,6.25-1.65,7.3,0,.12,0,.22.08.22,1.12,0,2.9-2.87,4.2-5.42a.71.71,0,0,1,.7.57c-1.53,3.33-3.83,7-5.45,7a2.35,2.35,0,0,1-2.43-2.22c0-1.2,1.55-5.73,1.55-6.8,0-.23-.05-.35-.17-.35-1.18,0-4.38,3.9-5.45,7.42-.12.6-.2,1.6-.25,2C187.88,148,186.73,147.31,186.73,146.36Z"/><path class="cls-3" d="M208.9,147.11c-1.1,4.42-2.05,8.17-5.53,8.17-2,0-3.19-1.13-3.19-2.48,0-2.37,3.79-4.12,6.32-5.54.5-2.18,1.17-4.5,1.45-5.95l-.1,0c-1.7,3.73-4.25,6.7-5.93,6.7a2.72,2.72,0,0,1-2.37-2.9c0-2.62,1.45-8.52,6-8.52a5.28,5.28,0,0,1,2.92.87l0-.62a1.63,1.63,0,0,1,.38,0c.9,0,2.37.53,2.37,1.45a1,1,0,0,1,0,.25c-.9,3.13-1.5,5.1-2,7a14.76,14.76,0,0,0,3.73-4.9c.45,0,.75.1.75.45A14.13,14.13,0,0,1,208.9,147.11Zm-2.73,1.67c-2,1.22-4.45,2.8-4.45,4.2a1,1,0,0,0,1,1C204.42,154,205.52,151.93,206.17,148.78Zm1.88-9.57a4.38,4.38,0,0,0-2.68-1c-1.42,0-2.7,3.2-2.92,5.68a3.33,3.33,0,0,0,0,.52c0,.78.2,1.13.55,1.13C203.92,145.56,206.1,143,208.05,139.21Z"/></g></svg>