<svg id="Layer_1" data-name="Layer 1" xmlns="http://www.w3.org/2000/svg" viewBox="0 0 662.76 315.85"><defs><style>.cls-1{fill:#fff;}.cls-2{fill:#2b6d85;}.cls-3{fill:none;stroke:#2c6d85;stroke-linejoin:round;}</style></defs><ellipse class="cls-1" cx="331.38" cy="157.92" rx="331.38" ry="157.92"/><g id="Layer_4" data-name="Layer 4"><path class="cls-2" d="M383.87,257.57a90.85,90.85,0,0,1-32.19-5.6,11.61,11.61,0,0,1,4.1-22.45,12.4,12.4,0,0,1,1.36.08,125.57,125.57,0,0,0,14.88,1h3.43a111.17,111.17,0,0,0,17.81-2.13c8.49-1.65,16.81-4,25.64-6.44,4.09-1.15,8.36-2.33,12.66-3.45,16.05-4.23,29.34-6.21,41.77-6.21h2a119.31,119.31,0,0,1,44.19,9.4A11.59,11.59,0,0,1,515.07,244a12,12,0,0,1-2.66-.3,132.64,132.64,0,0,0-30.54-3.9c-2,0-4,0-5.9.17a133.08,133.08,0,0,0-18.23,2.34c-6.2,1.22-12.54,2.92-18.5,4.56l-6.63,1.87c-11.05,3.14-22.47,6.38-34.68,7.91A110.17,110.17,0,0,1,383.87,257.57Z" transform="translate(-102.46 -91.91)"/><path class="cls-3" d="M383.87,257.57a90.85,90.85,0,0,1-32.19-5.6,11.61,11.61,0,0,1,4.1-22.45,12.4,12.4,0,0,1,1.36.08,125.57,125.57,0,0,0,14.88,1h3.43a111.17,111.17,0,0,0,17.81-2.13c8.49-1.65,16.81-4,25.64-6.44,4.09-1.15,8.36-2.33,12.66-3.45,16.05-4.23,29.34-6.21,41.77-6.21h2a119.31,119.31,0,0,1,44.19,9.4A11.59,11.59,0,0,1,515.07,244a12,12,0,0,1-2.66-.3,132.64,132.64,0,0,0-30.54-3.9c-2,0-4,0-5.9.17a133.08,133.08,0,0,0-18.23,2.34c-6.2,1.22-12.54,2.92-18.5,4.56l-6.63,1.87c-11.05,3.14-22.47,6.38-34.68,7.91A110.17,110.17,0,0,1,383.87,257.57Z" transform="translate(-102.46 -91.91)"/><path class="cls-2" d="M371.66,249.83a66.26,66.26,0,0,1-23.26-3.91,11.59,11.59,0,0,1,4.09-22.47,10.84,10.84,0,0,1,1.14,0c2.21.22,4.48.33,6.76.33a89,89,0,0,0,16.2-1.61c4.6-.92,8.37-1.79,11.78-2.73h.19c3.72-1,7.41-2.05,11.32-3.19l2.82-.82A231.49,231.49,0,0,1,428.24,209a84,84,0,0,1,14.42-1.37H444a51.33,51.33,0,0,1,17.29,3.19,11.6,11.6,0,0,1-5.55,22.34,38.39,38.39,0,0,0-4.42-.25A70.47,70.47,0,0,0,434,235.66c-4.88,1.36-9.78,2.84-15,4.47-3.26,1-6.64,2.1-10,3.11a149,149,0,0,1-28.57,6.06A68.25,68.25,0,0,1,371.66,249.83Z" transform="translate(-102.46 -91.91)"/><path class="cls-3" d="M371.66,249.83a66.26,66.26,0,0,1-23.26-3.91,11.59,11.59,0,0,1,4.09-22.47,10.84,10.84,0,0,1,1.14,0c2.21.22,4.48.33,6.76.33a89,89,0,0,0,16.2-1.61c4.6-.92,8.37-1.79,11.78-2.73h.19c3.72-1,7.41-2.05,11.32-3.19l2.82-.82A231.49,231.49,0,0,1,428.24,209a84,84,0,0,1,14.42-1.37H444a51.33,51.33,0,0,1,17.29,3.19,11.6,11.6,0,0,1-5.55,22.34,38.39,38.39,0,0,0-4.42-.25A70.47,70.47,0,0,0,434,235.66c-4.88,1.36-9.78,2.84-15,4.47-3.26,1-6.64,2.1-10,3.11a149,149,0,0,1-28.57,6.06A68.25,68.25,0,0,1,371.66,249.83Z" transform="translate(-102.46 -91.91)"/><path class="cls-2" d="M419.58,224.81a11.46,11.46,0,0,1-7.64-2.89l-1.16-1C403.69,214.79,389,202,389,179.81c0-15.72,10.43-27.58,16.65-34.66,1-1.12,2.26-2.58,3-3.48a11.6,11.6,0,0,1,11-8.39H420a11.61,11.61,0,0,1,11.2,11.59v1.27c-.12,1.91-.26,4.52-.27,6a25.53,25.53,0,0,0,2.11,7.77,55.61,55.61,0,0,1,4.41,21.17,38.73,38.73,0,0,1-4.67,19.25c-1.36,2.9-1.83,3.68-1.5,6.82a11.75,11.75,0,0,1-.3,4.09,11.62,11.62,0,0,1-9.51,13.41A11.83,11.83,0,0,1,419.58,224.81Z" transform="translate(-102.46 -91.91)"/><path class="cls-3" d="M419.58,224.81a11.46,11.46,0,0,1-7.64-2.89l-1.16-1C403.69,214.79,389,202,389,179.81c0-15.72,10.43-27.58,16.65-34.66,1-1.12,2.26-2.58,3-3.48a11.6,11.6,0,0,1,11-8.39H420a11.61,11.61,0,0,1,11.2,11.59v1.27c-.12,1.91-.26,4.52-.27,6a25.53,25.53,0,0,0,2.11,7.77,55.61,55.61,0,0,1,4.41,21.17,38.73,38.73,0,0,1-4.67,19.25c-1.36,2.9-1.83,3.68-1.5,6.82a11.75,11.75,0,0,1-.3,4.09,11.62,11.62,0,0,1-9.51,13.41A11.83,11.83,0,0,1,419.58,224.81Z" transform="translate(-102.46 -91.91)"/><path class="cls-2" d="M401.59,231.46A46.28,46.28,0,0,1,376,224c-13.22-8.52-17.53-23.71-20.11-32.74-.41-1.44-.94-3.3-1.36-4.39a11.61,11.61,0,0,1,15-17.37c.36.24.7.49,1,.74,1.55,1.15,3.65,2.73,4.9,3.49a25,25,0,0,0,7.69,2.4,55.87,55.87,0,0,1,20.18,7.78A38.91,38.91,0,0,1,417,198.29c1.65,2.73,2.1,3.54,4.95,5a11.86,11.86,0,0,1,3.23,2.44,11.61,11.61,0,0,1-1.36,21.83l-1.46.42A72.57,72.57,0,0,1,401.59,231.46Z" transform="translate(-102.46 -91.91)"/><path class="cls-3" d="M401.59,231.46A46.28,46.28,0,0,1,376,224c-13.22-8.52-17.53-23.71-20.11-32.74-.41-1.44-.94-3.3-1.36-4.39a11.61,11.61,0,0,1,15-17.37c.36.24.7.49,1,.74,1.55,1.15,3.65,2.73,4.9,3.49a25,25,0,0,0,7.69,2.4,55.87,55.87,0,0,1,20.18,7.78A38.91,38.91,0,0,1,417,198.29c1.65,2.73,2.1,3.54,4.95,5a11.86,11.86,0,0,1,3.23,2.44,11.61,11.61,0,0,1-1.36,21.83l-1.46.42A72.57,72.57,0,0,1,401.59,231.46Z" transform="translate(-102.46 -91.91)"/><path class="cls-2" d="M249.77,299.68c-15.62,0-26.12-11.5-26.12-28.65,0-23.49,16.54-42.6,36.84-42.6,15.18,0,25.77,11.27,25.77,27.41a50.2,50.2,0,0,1-9.2,28.92C270.08,294.39,260.38,299.68,249.77,299.68Z" transform="translate(-102.46 -91.91)"/><path class="cls-2" d="M300.62,299.68a17.27,17.27,0,0,1-9.07-2.73,17.73,17.73,0,0,1-9.14,2.73c-10.67,0-18.1-10-18.1-18.92A44.49,44.49,0,0,1,270,258.93c5-8.39,12.69-13.35,21.38-13.71.32-1.85,1.67-9.37,1.67-9.37a11.6,11.6,0,0,1,11.42-9.55c2.43,0,9.81,0,14.87,5.62a15.62,15.62,0,0,1,3.78,12.28v.27a95.64,95.64,0,0,1-2.86,12.06l-.17.6a13.61,13.61,0,0,1,7.16,8.68,11.52,11.52,0,0,1-.51,7.57C322.53,283.2,313.6,299.68,300.62,299.68Z" transform="translate(-102.46 -91.91)"/><path class="cls-2" d="M321.77,299.68c-12.62,0-22.14-9.81-22.14-22.82a34.11,34.11,0,0,1,7-20.18,27.54,27.54,0,0,1,22.17-11.47c10.18,0,16.11,5.28,18.32,11.5a13.58,13.58,0,0,1,5.91,4.49,12.42,12.42,0,0,1,1.95,11C352.46,280.87,340.63,299.68,321.77,299.68Z" transform="translate(-102.46 -91.91)"/><path class="cls-2" d="M345.65,299.75c-10.38,0-18.51-7.08-18.51-16.11,0-7.31,6-29.7,6-29.92a11.59,11.59,0,0,1,11.19-8.51,21,21,0,0,1,10.35,2.54,20.85,20.85,0,0,1,10-2.61,17.11,17.11,0,0,1,15.91,11.06,13.4,13.4,0,0,1,10,11.42,11.58,11.58,0,0,1-1,6.14c-11.88,25.92-22.1,25.92-25.45,25.92a18.1,18.1,0,0,1-10.45-3.15A11.61,11.61,0,0,1,345.65,299.75Z" transform="translate(-102.46 -91.91)"/><path class="cls-2" d="M379.68,299.68h-.63c-10.91-.59-16.59-8.43-16.59-15.89a15.82,15.82,0,0,1,.55-4.1,13.23,13.23,0,0,1-1.23-5.57,11.57,11.57,0,0,1,2.2-6.83,43.6,43.6,0,0,0,4.5-9.39,2.06,2.06,0,0,1,.09-.73,11.44,11.44,0,0,1,.26-1.16,16.66,16.66,0,0,1,16.52-12.77,13.41,13.41,0,0,1,13.64,13,11.47,11.47,0,0,1,3.18-.45A13.26,13.26,0,0,1,415.49,269V269a12,12,0,0,1-.32,2.73c-1.89,7.91-12.6,25.8-32.08,27.77a20.81,20.81,0,0,1-2.73.14Z" transform="translate(-102.46 -91.91)"/><path class="cls-2" d="M409.78,299.68c-12.61,0-22.14-9.81-22.14-22.82a34.2,34.2,0,0,1,7-20.18,27.51,27.51,0,0,1,22.17-11.47c10.18,0,16.11,5.28,18.34,11.5a13.56,13.56,0,0,1,5.9,4.49,12.42,12.42,0,0,1,1.94,11C440.49,280.87,428.66,299.68,409.78,299.68Z" transform="translate(-102.46 -91.91)"/><path class="cls-2" d="M473.66,299.68a17.47,17.47,0,0,1-13-6.25,17.26,17.26,0,0,1-13,6.25c-8.58,0-15.28-7.07-15.56-16.44a11.6,11.6,0,0,1,5.77-10.39,15.35,15.35,0,0,1-.78-4.89,16.62,16.62,0,0,1,1.36-6.37,11.62,11.62,0,0,1,9.74-7.24c4.68-17.19,13.13-25.92,25.13-25.92,12.82,0,20.46,8.29,20.46,16.37,0,1.76-.32,4.23-1.84,12.48a13,13,0,0,1,10.92,12.63,13.28,13.28,0,0,1-.48,3.44,10.29,10.29,0,0,1-.51,1.54C499.73,280.1,488.7,299.68,473.66,299.68Z" transform="translate(-102.46 -91.91)"/><path class="cls-2" d="M511.29,299.75a17.66,17.66,0,0,1-9.1-2.66,17.82,17.82,0,0,1-9.09,2.66c-10.67,0-18.11-10-18.11-19.1a46.07,46.07,0,0,1,4.93-20.3c5-9.55,13.42-15.11,23.09-15.11a27.32,27.32,0,0,1,7.14.92,17.11,17.11,0,0,1,1.89-.11c6.91,0,14.19,4,17,10.39a13.7,13.7,0,0,1,9.09,10.68,11.5,11.5,0,0,1-.9,6.57C525.32,299.75,514.76,299.75,511.29,299.75Z" transform="translate(-102.46 -91.91)"/><path class="cls-2" d="M526.9,319.67c-4.3,0-18.31-1.63-18.31-22.62,0-6.43,1.13-15,3.47-26.3,4.66-22.84,9.07-44.44,26.75-44.44,10.52,0,18.44,8.69,18.44,20.24a38.49,38.49,0,0,1-2,11.84,11.55,11.55,0,0,1,2.1,2.47,15.55,15.55,0,0,1,2.73,8.6,14.91,14.91,0,0,1-2.28,7.82q-2.85,4.59-9.87,7a45.21,45.21,0,0,1,.72,8.05C548.63,307.92,539.29,319.67,526.9,319.67Z" transform="translate(-102.46 -91.91)"/><path class="cls-2" d="M569.07,299.75a17.71,17.71,0,0,1-9.12-2.66,17.82,17.82,0,0,1-9.09,2.66c-10.67,0-18.11-10-18.11-19.1a46,46,0,0,1,4.94-20.3c5-9.55,13.42-15.11,23.1-15.11a27.25,27.25,0,0,1,7.13.92,17.15,17.15,0,0,1,1.9-.11c6.9,0,14.17,4,16.94,10.39a13.63,13.63,0,0,1,9.1,10.68,11.67,11.67,0,0,1-.91,6.57C583.09,299.75,572.53,299.75,569.07,299.75Z" transform="translate(-102.46 -91.91)"/><path class="cls-2" d="M596,299.68a18.29,18.29,0,0,1-17.63-13.15c-6-1.36-10.34-7-10.34-13.92a11.56,11.56,0,0,1,1.62-5.9c.63-1,1.26-2.24,1.86-3.51A16.78,16.78,0,0,1,587,239.66a18,18,0,0,1,11.16,4.09,11.41,11.41,0,0,1,3,3.55A16.36,16.36,0,0,1,611.49,256a13.46,13.46,0,0,1,10.92,13.3c0,1.24,0,5-6.92,15.9C611.53,291.39,605.2,299.68,596,299.68Z" transform="translate(-102.46 -91.91)"/><path class="cls-2" d="M612.94,299.75a18.17,18.17,0,0,1-18.24-18.1v-.33c0-3.07.48-5.16,2.28-12.92.12-.57.27-1.19.42-1.84a11.63,11.63,0,0,1-2.85-6.59,15.11,15.11,0,0,1,3.63-11.82,13.19,13.19,0,0,1,4.09-3.05c.47-2.07,1-4.38,1.5-6.82a11.61,11.61,0,0,1,11.34-9.17c12.39,0,18,8,18.1,15.93a11.6,11.6,0,0,1,5.46,8.48,23,23,0,0,1,.23,3,18.66,18.66,0,0,1-.12,2.11,13.24,13.24,0,0,1,4.2,13.71C640.82,280.08,628.61,299.75,612.94,299.75Z" transform="translate(-102.46 -91.91)"/><path class="cls-2" d="M361.57,327.1c-4.09,0-9.15,0-12.82-4.61l-.22-.29a12.51,12.51,0,0,1-2.45-7.72,14.32,14.32,0,0,1,4.47-10.5,11.62,11.62,0,0,1,8-3.18h.52l5.09.16,3.57.1a12.16,12.16,0,0,1,11.74,12.48,13.21,13.21,0,0,1-8.07,12.51C369.75,326.72,368.19,327.1,361.57,327.1Z" transform="translate(-102.46 -91.91)"/><path class="cls-2" d="M382.5,333.81c-8.88,0-15.47-6.45-16.16-15.55a16.81,16.81,0,0,1-5.87-12.89c0-10.66,9.55-18.69,22.07-18.69a16,16,0,0,1,5.92,1.05,14.2,14.2,0,0,1,5.27-1c5.2,0,14,3.31,14,15.75C407.71,315.59,398.12,333.81,382.5,333.81Z" transform="translate(-102.46 -91.91)"/><path class="cls-2" d="M407.81,333.81a13.86,13.86,0,0,1-4.51-.75,14,14,0,0,1-4.55.75c-8.88,0-14.84-7.88-14.84-15.24,0-12.36,6.64-20.1,14.25-22.63l.15-.79a11.58,11.58,0,0,1,11.41-9.55,15,15,0,0,1,11.74,4.72,13.47,13.47,0,0,1,3.34,10.62v.25a28.94,28.94,0,0,1-.69,3.48,12.69,12.69,0,0,1,2.59,4.89,11.48,11.48,0,0,1-.52,7.58C420.32,330.93,413,333.81,407.81,333.81Z" transform="translate(-102.46 -91.91)"/><path class="cls-2" d="M416.17,333.81a14.65,14.65,0,0,1-14.6-14.66c0-3,2.53-15,4.64-24.46a11.61,11.61,0,0,1,11.32-9.06c11.89,0,15,8.66,15,13.78a23.24,23.24,0,0,1-.61,4.84,12.48,12.48,0,0,1,3.31,9.29,11.84,11.84,0,0,1-.75,3.37C433,320.88,427.16,333.81,416.17,333.81Z" transform="translate(-102.46 -91.91)"/><path class="cls-2" d="M426.61,333.81a16.64,16.64,0,0,1-16.86-16.43c0-.25,0-.5,0-.76,0-10.42,8.18-21.59,20.35-21.59a15.75,15.75,0,0,1,13.64,7.36,12.85,12.85,0,0,1,3.13,3,12.12,12.12,0,0,1,1.87,10.57C446.58,323.38,438.28,333.81,426.61,333.81Z" transform="translate(-102.46 -91.91)"/><path class="cls-2" d="M430.26,343.77c-8.53,0-15-6.15-15-14.32a13.66,13.66,0,0,1,8.56-13c.8-3.79,1.84-8.57,2.73-12.52a10.82,10.82,0,0,1,.82-2.36c.35-7.9,6.49-14.22,14-14.22a13.78,13.78,0,0,1,12.59,7.85,10.94,10.94,0,0,1,.44,1.07,13.66,13.66,0,0,1-1.27,11.11l-.23.45c-.1.16,0,.63,0,.94a16.24,16.24,0,0,1-.37,3.4l-.08.34c-.43,1.68-1.19,4.58-1.94,7.46l-1.28,4.94C448.1,329.61,444.39,343.77,430.26,343.77Z" transform="translate(-102.46 -91.91)"/><path class="cls-2" d="M446,333.85c-8.43,0-15-6.08-15-13.84,0-4.67,3.18-16.37,3.22-16.46A11.59,11.59,0,0,1,445.44,295a17.07,17.07,0,0,1,5.12.76,16.4,16.4,0,0,1,5-.79,14.28,14.28,0,0,1,12.18,6.82,12.43,12.43,0,0,1,6.51,9.55,11.68,11.68,0,0,1-1,6.14c-5.11,11.13-10.81,16.3-18,16.3a15,15,0,0,1-4.87-.79A11.71,11.71,0,0,1,446,333.85Z" transform="translate(-102.46 -91.91)"/><path class="cls-2" d="M463.44,333.81a14.76,14.76,0,0,1-14.87-14.62,13.51,13.51,0,0,1,.23-2.62c.15-.83.44-2.09,1.06-4.89.56-2.44,1.37-5.78,1.53-7.05a12.32,12.32,0,0,1,1.24-3.54c.59-7.67,6.62-13.73,13.95-13.73a13.78,13.78,0,0,1,12.59,7.85c0,.15.12.28.19.42a12.43,12.43,0,0,1,.19,9,12.39,12.39,0,0,1,2.73,5.45,11.62,11.62,0,0,1-.59,6.82C475.73,331.63,467.69,333.81,463.44,333.81Z" transform="translate(-102.46 -91.91)"/><path class="cls-2" d="M471.76,333.85c-8.43,0-15-6.08-15-13.84,0-4.67,3.18-16.37,3.22-16.46A11.61,11.61,0,0,1,471.16,295a17.12,17.12,0,0,1,5.12.76,16.29,16.29,0,0,1,5-.79,14.27,14.27,0,0,1,12.18,6.82,12.43,12.43,0,0,1,6.51,9.55,11.77,11.77,0,0,1-1,6.14c-5.12,11.13-10.82,16.3-18,16.3a14.92,14.92,0,0,1-4.87-.79A11.71,11.71,0,0,1,471.76,333.85Z" transform="translate(-102.46 -91.91)"/><path class="cls-2" d="M491,343.77c-8.95,0-16-6.57-16-15a15.32,15.32,0,0,1,.53-4,16,16,0,0,1-1.36-6.55c0-11.42,7.42-23.19,19.85-23.19a20.34,20.34,0,0,1,3.56.34h1A14.56,14.56,0,0,1,512,302.94a12.06,12.06,0,0,1,4.89,9.75,11.68,11.68,0,0,1-.85,4.37,30.56,30.56,0,0,1-7.16,10.52C506.81,334.41,502.56,343.77,491,343.77Z" transform="translate(-102.46 -91.91)"/></g><g id="Layer_5" data-name="Layer 5"><ellipse class="cls-2" cx="357.43" cy="179.55" rx="89.11" ry="46.55"/><path class="cls-1" d="M355.79,241.12a127.27,127.27,0,0,0,20.09,1,119.7,119.7,0,0,0,19.7-2.33c13-2.52,25.76-6.61,38.92-10.05s26.84-6,40.66-5.8a106.81,106.81,0,0,1,39.91,8.5,137.71,137.71,0,0,0-39.83-4,141.89,141.89,0,0,0-19.7,2.52c-6.52,1.27-13,3-19.43,4.76-12.9,3.58-25.92,7.74-39.67,9.47S368.55,245.93,355.79,241.12Z" transform="translate(-102.46 -91.91)"/><path class="cls-1" d="M352.45,235a91.78,91.78,0,0,0,26.2-1.47c4.29-.83,8.56-1.77,12.79-3s8.45-2.35,12.71-3.59a235.91,235.91,0,0,1,26-6.54,71.8,71.8,0,0,1,13.57-1.14,40.21,40.21,0,0,1,13.3,2.42c-8.92-1-17.54.53-26,2.73s-16.8,5.19-25.37,7.72a140.2,140.2,0,0,1-26.41,5.63A59.85,59.85,0,0,1,352.45,235Z" transform="translate(-102.46 -91.91)"/><path class="cls-1" d="M400.48,179.81c0-17.46,19.1-29.86,19.1-34.91,0,0-.33,4.79-.33,7.43.25,9.55,6.55,15.43,6.55,28.77,0,14.48-7.41,14.48-6.11,27.29-4.42-4.42-6.58-16.49-6.58-26.1a158.46,158.46,0,0,1,1.53-19.94s-4.2,13.64-4.2,21.82c0,11.37,2.28,20.73,9,29C413.15,207.65,400.48,197.76,400.48,179.81Z" transform="translate(-102.46 -91.91)"/><path class="cls-1" d="M382.31,214.23c-14.68-9.47-14.71-32.31-19-35,0,0,3.83,2.88,6,4.31,8.19,5,16.54,2.87,27.75,10.1,12.16,7.84,8.19,14.06,19.62,19.93-6.1,1.36-17.44-3.41-25.51-8.62a160,160,0,0,1-15.92-12.1s9.17,10.91,16.1,15.38c9.55,6.16,18.64,9.32,29.27,8.19C412.54,218.57,397.38,224,382.31,214.23Z" transform="translate(-102.46 -91.91)"/><path class="cls-1" d="M235.25,271.05c0-15.82,10.55-31,25.25-31,7.94,0,14.18,5,14.18,15.81,0,15.92-10.35,32.29-24.91,32.29C239.63,288.14,235.25,280.55,235.25,271.05ZM266.53,255c0-9.18-3.9-11.36-7.32-11.36-9.55,0-15.82,15.26-15.82,27.28,0,7.94,2.81,13.48,7.88,13.48C260.43,284.39,266.53,267.08,266.53,255Z" transform="translate(-102.46 -91.91)"/><path class="cls-1" d="M275.92,280.76c0-10.53,5.45-24,16.37-24a14,14,0,0,1,8.07,2.4c1.37-6,2.87-14.85,4.1-21.29,4.44,0,7.53,1.17,7.1,5.07-.54,4.25-3.48,13.14-5.13,20.47-2,9.37-4.65,18.62-3.83,18.62,2.88,0,8.76-8.91,11.5-14.72a2,2,0,0,1,1.92,1.5c-2.12,5-9.45,19.29-15.4,19.29-2.88,0-6.23-3.36-6-5.27.48-2.73,3.29-9.11,4.31-12.87h-.2c-4,8.59-11.3,18.14-16.29,18.14C278.78,288.14,275.92,283.84,275.92,280.76ZM299.18,264a12.31,12.31,0,0,0-7.32-2.6c-3.9,0-8,10.91-8,16.85,0,2,.61,3.2,1.57,3.2C287.47,281.44,293.91,274.4,299.18,264Z" transform="translate(-102.46 -91.91)"/><path class="cls-1" d="M343.88,268.92c-1.51,5.2-10,19.1-22.11,19.1-7.12,0-10.55-5.54-10.55-11.23,0-8.35,6.58-20.05,17.6-20.05,5.74,0,7.74,2.72,7.74,5.75,0,7.38-9.73,11.71-17.18,12.59a10.44,10.44,0,0,0,0,1.37c0,4.45,1.91,6.37,5.13,6.37,7.39,0,13.07-6.17,17.73-15.54C343,267.35,344.15,268,343.88,268.92Zm-24.09,3.69c6.63-1.63,9.85-5.53,9.85-9.3,0-2.13-.48-3.22-2.12-3.22C324.37,260.09,321,267.42,319.79,272.61Z" transform="translate(-102.46 -91.91)"/><path class="cls-1" d="M338.74,283.64c0-4.52,4.31-22.12,5.62-26.84,2.73,0,6.7.89,6.7,4.25,0,2.4-3.28,9.65-4.38,13.64l.27.2c3.56-7.87,10.34-18.21,17.73-18.21a5.26,5.26,0,0,1,5.27,4.86c0,4.17-4.52,17.12-4.52,20,0,.34,0,.63.21.63,3.08,0,7.94-7.87,11.5-14.86a2,2,0,0,1,1.92,1.57C374.88,278,368.59,288,364.14,288a6.45,6.45,0,0,1-6.64-6.1c0-3.27,4.24-15.66,4.24-18.6,0-.62-.14-1-.48-1-3.22,0-12,10.67-14.92,20.33-.34,1.63-.55,4.38-.69,5.45C341.89,288.14,338.74,286.24,338.74,283.64Z" transform="translate(-102.46 -91.91)"/><path class="cls-1" d="M381.66,288a10.44,10.44,0,0,1-1.37,0h-.68c-3.83-.21-5.62-2.13-5.62-4.31,0-1.51.9-3.22,3.15-4.72,1.65,2.72,3.49,3.56,5.55,3.56,3.14,0,4.93-1.86,4.93-4.53,0-2.46-1.65-4.66-3.36-7.11a24.77,24.77,0,0,1-3.49-5.83A74.52,74.52,0,0,1,375.16,276a2.17,2.17,0,0,1-1.85-2c2.72-3.69,5-9.44,6.57-13.75a8.42,8.42,0,0,1,0-1.23,5.08,5.08,0,0,1,5.34-4.25,1.83,1.83,0,0,1,2,1.61c0,.06,0,.11,0,.17a9.73,9.73,0,0,1-.44,2.93c.82,1.5,1.91,3.08,2.93,4.65,2.47,3.63,5,7.4,5,11.09a10.64,10.64,0,0,1-1,4.25,41.7,41.7,0,0,0,8.49-12.05,1.66,1.66,0,0,1,1.65,1.64C403,272.48,395.83,286.77,381.66,288Z" transform="translate(-102.46 -91.91)"/><path class="cls-1" d="M431.86,268.92c-1.5,5.2-10,19.1-22.12,19.1-7.1,0-10.53-5.54-10.53-11.23,0-8.35,6.56-20.05,17.59-20.05,5.75,0,7.73,2.72,7.73,5.75,0,7.38-9.71,11.71-17.17,12.59a7.84,7.84,0,0,0,0,1.37c0,4.45,1.91,6.37,5.13,6.37,7.39,0,13.06-6.17,17.73-15.54C431,267.35,432.17,268,431.86,268.92Zm-24.09,3.69c6.64-1.63,9.85-5.53,9.85-9.3,0-2.13-.48-3.22-2.12-3.22-3.11,0-6.47,7.33-7.69,12.52Z" transform="translate(-102.46 -91.91)"/><path class="cls-1" d="M491.24,269.87a3.21,3.21,0,0,1-.14.63c-2.06,5.06-10.54,17.58-17.44,17.58a6.25,6.25,0,0,1-5.56-5.33,134.59,134.59,0,0,1,2.34-14.38,73.27,73.27,0,0,1-10.92,2.73c-2.94,8.55-7.25,17-11.84,17-2.81,0-3.9-3-4-5.2,4.24-1,7.94-5.55,10.75-11.23a5,5,0,0,1-.95,0c-3.29,0-4.81-1.78-4.81-3.76a5.24,5.24,0,0,1,.5-2.06,21.24,21.24,0,0,0,7.24,1.24,69.78,69.78,0,0,0,2.4-7.73c3.22-13.28,7.8-19.38,14.45-19.38,6.22,0,8.89,3.16,8.89,4.72,0,3.36-7.05,37.66-6.44,37.66,3,0,11.23-8.5,13.48-13.65,0-.06.22-.06.42-.06C490.29,268.64,491.24,269,491.24,269.87Zm-20.12-5.26c1.43-7.33,3.08-15.27,4.17-21.08a12.48,12.48,0,0,0-1.5-.14c-5.69,0-8.91,7.19-11.36,17.45-.41,1.86-1,4-1.65,6.1A34,34,0,0,0,471.12,264.61Z" transform="translate(-102.46 -91.91)"/><path class="cls-1" d="M486.59,280.69c0-8.08,4.17-23.82,16.37-23.82A14.34,14.34,0,0,1,511,259.2l.21-1.44a3.14,3.14,0,0,1,.75,0c2.47,0,6.51,1.79,6.51,4.38a3.35,3.35,0,0,1-.14.83c-1.64,5.74-6.17,19.3-5.2,19.3,3.07,0,8.62-9,11.42-14.78a1.92,1.92,0,0,1,2,1.5c-2.11,4.65-9.55,19.23-15.33,19.23-3.36,0-6-3.35-6-4.72,0-2.6,3.14-9.66,4.31-13.42l-.27-.14c-4.45,9.93-11.64,18.28-16.22,18.28C489.33,288.14,486.59,283.84,486.59,280.69Zm23.27-16.63a11.89,11.89,0,0,0-7.32-2.6c-3.7,0-8.08,9.24-8.08,17,0,1.91.41,3.07,1.5,3.07C498.5,281.51,504.58,274.5,509.86,264.06Z" transform="translate(-102.46 -91.91)"/><path class="cls-1" d="M548.47,269.46a3.29,3.29,0,0,1-.56,1.72c-1.16,1.91-8.49,3.7-15.88,4.09a30.58,30.58,0,0,1,5,17.11c0,8.28-4.1,15.74-10.14,15.74-4.58,0-6.7-3.28-6.7-11,0-5.54,1-13.34,3.21-24,5-24.44,8.48-35.19,15.4-35.19,4,0,6.82,3.63,6.82,8.64,0,8.89-5.89,19.36-11.77,24.77a40.3,40.3,0,0,0,13.75-4.17A4.07,4.07,0,0,1,548.47,269.46ZM532,289.93a36.43,36.43,0,0,0-2.18-13c-2.54,12-3.63,19.3-3.63,23.19,0,2.53.48,3.56,1.3,3.56,2.94.08,4.51-7.59,4.51-13.69Zm-.68-19.43c5.14-6.71,9.32-17.94,9.32-25.61,0-1.84-.41-2.72-1.18-2.72-1.16.06-2.73,5.4-8.14,28.4Z" transform="translate(-102.46 -91.91)"/><path class="cls-1" d="M544.36,280.69c0-8.08,4.18-23.82,16.37-23.82a14.45,14.45,0,0,1,8.08,2.33l.2-1.44a3.14,3.14,0,0,1,.75,0c2.47,0,6.51,1.79,6.51,4.38a3.89,3.89,0,0,1-.14.83c-1.65,5.74-6.16,19.3-5.21,19.3,3.09,0,8.62-9,11.43-14.78a2,2,0,0,1,2,1.5c-2.13,4.65-9.55,19.23-15.34,19.23-3.35,0-6-3.35-6-4.72,0-2.6,3.15-9.66,4.31-13.42l-.27-.14c-4.45,9.93-11.64,18.28-16.22,18.28C547.09,288.14,544.36,283.84,544.36,280.69Zm23.19-16.63a11.84,11.84,0,0,0-7.31-2.6c-3.7,0-8.08,9.24-8.08,17,0,1.91.41,3.07,1.51,3.07,2.6,0,8.69-7,14-17.45Z" transform="translate(-102.46 -91.91)"/><path class="cls-1" d="M610.81,269.26c0,.68-8.69,18.82-14.77,18.82a6.49,6.49,0,0,1-6.65-5.88c0-3.69,3.36-12.27,5-19.5a51.9,51.9,0,0,1-6.92-1,65.46,65.46,0,0,1-6.36,13.49c-.88,0-1.44-1.65-1.44-2.61a70.21,70.21,0,0,0,5.34-11.5,4.88,4.88,0,0,1-3.28-4.78,5.21,5.21,0,0,1,5.26-5,6.52,6.52,0,0,1,4,1.56,42.82,42.82,0,0,1-.61,4.93,65.45,65.45,0,0,0,7.53.7c1.92.13,3.9,2.72,3.9,5.45,0,2.33-5.54,18.28-4.31,18.28,3.83,0,9.92-11.23,11.7-14.85A1.81,1.81,0,0,1,610.81,269.26Z" transform="translate(-102.46 -91.91)"/><path class="cls-1" d="M631.83,269.12c-1.51,5.76-11,19.1-18.89,19.1a6.66,6.66,0,0,1-6.65-6.67.76.76,0,0,1,0-.15c0-2.46.76-4.72,4.58-21.69a15,15,0,0,1-4.79-.75c-.14-1.45.21-3.42,1.86-3.42h3.9c.95-4.18,2-9,3.27-14.79,3.56,0,6.51.88,6.51,4.58a4.44,4.44,0,0,1-.07,1c-.14,1.24-1,4.8-2,9.11,2.87-.07,5.75-.21,7.67-.41,0,.55.12,1.09.12,1.57,0,1.36-.34,2.54-1.29,2.94a42.08,42.08,0,0,1-7.6.48c-1.71,7.53-3.56,15.95-3.56,19.92,0,1.36.2,2.26.76,2.26,3.5,0,10.26-5.62,14.71-14.92C631.15,266.94,632.17,268,631.83,269.12Z" transform="translate(-102.46 -91.91)"/><path class="cls-1" d="M357.69,314.48a2.83,2.83,0,0,1,.84-2.09c3.07.14,6,.18,8.87.28.34,0,.44.41.44.88,0,.69-.26,1.57-.69,1.71a40,40,0,0,1-5.58.24,13.91,13.91,0,0,1-3.75-.24A1.48,1.48,0,0,1,357.69,314.48Z" transform="translate(-102.46 -91.91)"/><path class="cls-1" d="M373.92,305.3c0,1.68,2.46,2.29,4.09,2.36a2.08,2.08,0,0,1-1.56,2.5,2,2,0,0,1-.59,0c-2.28,0-3.85-2.39-3.85-4.84,0-4.64,5.59-7.1,10.46-7.1,1.71,0,2.25.21,2.25,1.37,0,1.7-.54,3.82-2,9.86a33.61,33.61,0,0,0-1.37,7.37c0,2.14.73,2.82,1.84,2.82,4.87,0,8.56-9.82,8.56-17a18.83,18.83,0,0,0-.28-3.59,3.07,3.07,0,0,1,2.09-.82c2.25,0,2.39,2.37,2.39,4.17,0,8.32-6.21,19.71-13.64,19.71-3.2,0-4.63-2.21-4.63-5.59a21.69,21.69,0,0,1,.23-2.67c.35-2.07,1.78-8.55,2.56-12.44C377.77,301.52,373.92,303.32,373.92,305.3Z" transform="translate(-102.46 -91.91)"/><path class="cls-1" d="M395.5,318.57c0-5.25,2.73-11.93,8.19-11.93a6.93,6.93,0,0,1,4.09,1.18c.68-3,1.36-7.39,2-10.6,2.23,0,3.76.59,3.55,2.53s-1.73,6.55-2.55,10.19c-1,4.68-2.32,9.28-1.91,9.28,1.43,0,4.37-4.44,5.73-7.33a1,1,0,0,1,1,.75c-1.07,2.48-4.71,9.55-7.69,9.55-1.43,0-3.09-1.67-3-2.62.23-1.36,1.63-4.54,2.14-6.41h-.1c-2,4.36-5.63,9.07-8.18,9.07A3.8,3.8,0,0,1,395.5,318.57Zm11.6-8.36a6.23,6.23,0,0,0-3.65-1.36c-1.95,0-4,5.45-4,8.39,0,1,.31,1.61.79,1.61C401.27,318.92,404.48,315.42,407.1,310.21Z" transform="translate(-102.46 -91.91)"/><path class="cls-1" d="M413.17,319.15c0-1.37,2.43-13.24,4.36-21.93,2,0,3.44.21,3.44,2.19s-1.94,8.32-3.57,16a20.12,20.12,0,0,0-.55,3.27c0,.34.07.57.25.57,1.63,0,4.32-4.5,5.71-7.39.34-.11.93.37.89.85-.85,2.22-4.63,9.48-7.53,9.48A3.06,3.06,0,0,1,413.17,319.15Z" transform="translate(-102.46 -91.91)"/><path class="cls-1" d="M437.61,312.69c-.75,2.6-5,9.55-11,9.55a5.17,5.17,0,0,1-5.27-5.1,4,4,0,0,1,0-.49c0-4.09,3.28-10,8.76-10,2.87,0,3.86,1.37,3.86,2.87,0,3.68-4.84,5.82-8.55,6.27a4,4,0,0,0,0,.69c0,2.21.95,3.16,2.56,3.16,3.67,0,6.51-3.07,8.83-7.73C437.18,311.89,437.75,312.23,437.61,312.69Zm-12,1.85c3.3-.82,4.9-2.73,4.9-4.64,0-1-.23-1.6-1-1.6-1.57,0-3.23,3.62-3.85,6.21Z" transform="translate(-102.46 -91.91)"/><path class="cls-1" d="M426.92,329.45a2.22,2.22,0,0,1,2-2.43,1.77,1.77,0,0,1,.46,0c0,1.91.48,3.2,1.37,3.2,1.73,0,2.93-4.25,3.95-9.16.92-4.46,2.15-10.13,3.17-14.46,2.11,0,3.48.61,3.48,2.18a3.86,3.86,0,0,1-.1.89c-.68,2.72-2.22,8.52-3.2,12.34-1.14,4.3-2.73,10.17-7.85,10.17C427.94,332.18,426.92,330.91,426.92,329.45Zm13.78-25.27a1.56,1.56,0,0,1-1.48-.86,2.51,2.51,0,0,1-.16-1c0-1.53,1.05-3.34,2.39-3.34a2.26,2.26,0,0,1,2.11,1.22c.17.48-1.43,3.69-2.15,3.89a2.15,2.15,0,0,1-.71.11Z" transform="translate(-102.46 -91.91)"/><path class="cls-1" d="M442.61,320c0-2.25,2.14-11,2.79-13.37,1.37,0,3.35.43,3.35,2.11,0,1.19-1.64,4.8-2.19,6.82l.14.1c1.77-3.92,5.14-9.07,8.83-9.07a2.62,2.62,0,0,1,2.62,2.42c0,2.08-2.26,8.53-2.26,10,0,.17,0,.3.11.3,1.53,0,4-3.91,5.73-7.39a1,1,0,0,1,1,.78c-2.09,4.54-5.23,9.55-7.44,9.55a3.21,3.21,0,0,1-3.31-3c0-1.64,2.11-7.82,2.11-9.28,0-.31-.07-.48-.23-.48-1.61,0-6,5.32-7.43,10.13-.17.81-.28,2.18-.35,2.72C444.13,322.24,442.61,321.3,442.61,320Z" transform="translate(-102.46 -91.91)"/><path class="cls-1" d="M460.16,319.19a1.69,1.69,0,0,1,0-.45c.21-1.26,2.15-9.37,2.62-12.1,1.84,0,3.58.43,3.58,2.14,0,1.36-2.46,7.43-2.46,9.93,0,.34,0,.57.25.57,1.66,0,4.29-4.43,5.75-7.39a.94.94,0,0,1,1,.71c-.95,2.36-4.71,9.55-7.5,9.55a3.11,3.11,0,0,1-3.24-3Zm5.67-15a1.58,1.58,0,0,1-1.48-.86,2.35,2.35,0,0,1-.16-1c0-1.53,1.09-3.34,2.39-3.34a2.26,2.26,0,0,1,2.11,1.22,7.1,7.1,0,0,1-2.16,3.89A2.05,2.05,0,0,1,465.83,304.18Z" transform="translate(-102.46 -91.91)"/><path class="cls-1" d="M468.32,320c0-2.25,2.14-11,2.8-13.37,1.36,0,3.33.43,3.33,2.11,0,1.19-1.64,4.8-2.17,6.82l.12.1c1.77-3.92,5.16-9.07,8.84-9.07a2.61,2.61,0,0,1,2.62,2.42c0,2.08-2.25,8.53-2.25,10,0,.17,0,.3.11.3,1.53,0,3.95-3.91,5.73-7.39a1,1,0,0,1,.95.78c-2.08,4.54-5.22,9.55-7.43,9.55a3.22,3.22,0,0,1-3.32-3c0-1.64,2.12-7.82,2.12-9.28,0-.31-.07-.48-.23-.48-1.61,0-6,5.32-7.44,10.13-.16.81-.27,2.18-.34,2.72C469.89,322.24,468.32,321.3,468.32,320Z" transform="translate(-102.46 -91.91)"/><path class="cls-1" d="M498.57,321c-1.5,6-2.8,11.15-7.55,11.15-2.73,0-4.35-1.55-4.35-3.39,0-3.23,5.17-5.62,8.62-7.56.68-3,1.6-6.13,2-8.11h-.14c-2.32,5.09-5.79,9.14-8.09,9.14a3.72,3.72,0,0,1-3.23-4c0-3.57,2-11.62,8.19-11.62a7.15,7.15,0,0,1,4,1.19V307a2.26,2.26,0,0,1,.52,0c1.23,0,3.23.72,3.23,2a1,1,0,0,1,0,.34c-1.23,4.27-2.05,7-2.73,9.55a20.22,20.22,0,0,0,5.09-6.69c.61,0,1,.14,1,.62A19.27,19.27,0,0,1,498.57,321Zm-3.73,2.28c-2.73,1.66-6.07,3.82-6.07,5.73a1.36,1.36,0,0,0,1.37,1.36C492.45,330.43,494,327.61,494.84,323.31Zm2.57-13.06a6,6,0,0,0-3.66-1.36c-1.94,0-3.68,4.36-4,7.75a4.21,4.21,0,0,0,0,.71c0,1.06.27,1.54.75,1.54,1.25,0,4.23-3.47,6.89-8.64Z" transform="translate(-102.46 -91.91)"/></g></svg>