<svg xmlns="http://www.w3.org/2000/svg" viewBox="0 0 147.44 132.79"><defs><style>.cls-1{fill:#2f6e83;}.cls-2{fill:#396eb5;}.cls-3{fill:#93bd59;}.cls-4{fill:#67a0b8;}.cls-5{fill:#fff;}</style></defs><g id="Layer_9" data-name="Layer 9"><path class="cls-1" d="M67.75,48.05V92a4,4,0,0,1,0,.49c-.38,5.35-6.88,9.61-14.88,9.61S38.35,97.8,38,92.45a1.55,1.55,0,0,1,0-.22V29.17Z"/><path class="cls-2" d="M38,92.23a1.55,1.55,0,0,0,0,.22h0Z"/><path class="cls-2" d="M67.75,92v.49h0A4,4,0,0,0,67.75,92Z"/><path class="cls-1" d="M67.75,100.63v19.66c0,5.58-6.66,10.1-14.9,10.1S38,125.87,38,120.29h0V100.65c3,3.65,8.47,6,14.87,6S64.76,104.29,67.75,100.63Z"/><path class="cls-3" d="M69.75,96.45a3,3,0,0,1-.13.89,10.92,10.92,0,0,1-1.87,3.29c-3,3.66-8.48,6.05-14.9,6.05S41,104.3,38,100.65a11,11,0,0,1-1.89-3.31c-.5-1.41.47-4.38,1.89-4.88h0c.36,5.35,6.88,9.62,14.86,9.62s14.5-4.26,14.88-9.61h0C68.9,92.9,69.75,94.94,69.75,96.45Z"/><rect class="cls-3" x="31.27" y="92.88" width="4.69" height="4.69" rx="1.95"/><path class="cls-3" d="M15.44,127.81h0a2.37,2.37,0,0,1,2-2.37,8.66,8.66,0,0,0,4.43-1.79,4.68,4.68,0,0,0,1.82-3.6c0-2.6-2.58-5.4-8.26-5.4-8.79,0-13.4-5.55-13.4-11A9.94,9.94,0,0,1,5.6,96a14.77,14.77,0,0,1,9.84-3.2H28.86a2.41,2.41,0,0,1,2.41,2.41h0a2.41,2.41,0,0,1-2.41,2.41H15.44a10.12,10.12,0,0,0-6.69,2,5.18,5.18,0,0,0-1.89,4c0,3,2.69,6.22,8.58,6.22,9,0,13.08,5.3,13.08,10.22a9.54,9.54,0,0,1-3.55,7.3,13.51,13.51,0,0,1-6.77,2.85A2.42,2.42,0,0,1,15.44,127.81Z"/><ellipse class="cls-1" cx="52.86" cy="37.99" rx="12.07" ry="22.31" transform="translate(-11.61 28.96) rotate(-27.73)"/><path class="cls-2" d="M38,92v.26A2.26,2.26,0,0,1,38,92Z"/><ellipse class="cls-4" cx="52.86" cy="37.99" rx="10" ry="18.5" transform="translate(-11.61 28.96) rotate(-27.73)"/></g><g id="Layer_12" data-name="Layer 12"><path class="cls-3" d="M145.4,35.5a33.37,33.37,0,0,1-32.32,32.62,32.91,32.91,0,0,1-17.45-4.47L95,63.28h0C93.43,62.37,55.5,40.67,53.8,40.06a5.41,5.41,0,0,1,0-10.17C55.5,29.29,93.41,7.6,95,6.69h0A33.15,33.15,0,0,1,145.4,35.5Z"/></g><g id="Layer_11" data-name="Layer 11"><rect class="cls-5" x="88.57" y="11.57" width="46.17" height="46.17" rx="2.12"/><rect x="90.72" y="13.72" width="13.96" height="13.96"/><rect x="90.72" y="41.63" width="13.96" height="13.96"/><rect x="118.63" y="13.72" width="13.96" height="13.96"/><rect class="cls-5" x="93.04" y="43.96" width="9.3" height="9.3"/><rect class="cls-5" x="120.96" y="16.04" width="9.3" height="9.3"/><rect x="93.51" y="36.05" width="2.79" height="2.79"/><rect x="96.3" y="33.26" width="2.79" height="2.79"/><rect x="96.3" y="30.46" width="2.79" height="2.79"/><rect x="93.51" y="30.46" width="2.79" height="2.79"/><rect x="101.88" y="30.46" width="2.79" height="2.79"/><rect x="99.09" y="33.26" width="2.79" height="2.79"/><rect x="104.67" y="33.26" width="2.79" height="2.79"/><rect x="101.88" y="36.05" width="2.79" height="2.79"/><rect x="99.09" y="36.05" width="2.79" height="2.79"/><rect x="115.84" y="30.46" width="2.79" height="2.79"/><rect x="113.05" y="33.26" width="2.79" height="2.79"/><rect x="118.63" y="33.26" width="2.79" height="2.79"/><rect x="115.84" y="36.05" width="2.79" height="2.79"/><rect x="121.42" y="30.46" width="2.79" height="2.79"/><rect x="113.05" y="36.05" width="2.79" height="2.79"/><rect x="96.3" y="38.84" width="2.79" height="2.79"/><rect x="113.05" y="27.67" width="2.79" height="2.79" transform="translate(143.51 -85.38) rotate(90)"/><rect x="118.63" y="50" width="2.79" height="2.79" transform="translate(171.43 -68.63) rotate(90)"/><rect x="118.63" y="52.79" width="2.79" height="2.79" transform="translate(174.22 -65.84) rotate(90)"/><rect x="115.84" y="52.79" width="2.79" height="2.79" transform="translate(171.43 -63.05) rotate(90)"/><rect x="110.26" y="22.09" width="2.79" height="2.79" transform="translate(135.14 -88.17) rotate(90)"/><rect x="113.05" y="24.88" width="2.79" height="2.79" transform="translate(140.72 -88.17) rotate(90)"/><rect x="110.26" y="19.3" width="2.79" height="2.79" transform="translate(132.35 -90.96) rotate(90)"/><rect x="113.05" y="19.3" width="2.79" height="2.79" transform="translate(135.14 -93.75) rotate(90)"/><rect x="110.26" y="27.67" width="2.79" height="2.79" transform="translate(140.72 -82.58) rotate(90)"/><rect x="107.47" y="24.88" width="2.79" height="2.79" transform="translate(135.14 -82.58) rotate(90)"/><rect x="107.47" y="30.46" width="2.79" height="2.79" transform="translate(140.72 -77) rotate(90)"/><rect x="107.47" y="36.05" width="2.79" height="2.79" transform="translate(146.3 -71.42) rotate(90)"/><rect x="110.26" y="38.84" width="2.79" height="2.79" transform="translate(151.89 -71.42) rotate(90)"/><rect x="110.26" y="30.46" width="2.79" height="2.79" transform="translate(143.51 -79.79) rotate(90)"/><rect x="127" y="30.46" width="2.79" height="2.79" transform="translate(160.26 -96.54) rotate(90)"/><rect x="127" y="33.26" width="2.79" height="2.79" transform="translate(163.05 -93.75) rotate(90)"/><rect x="107.47" y="16.51" width="2.79" height="2.79" transform="translate(126.77 -90.96) rotate(90)"/><rect x="113.05" y="50" width="2.79" height="2.79" transform="translate(63.05 165.84) rotate(-90)"/><rect x="110.26" y="47.21" width="2.79" height="2.79" transform="translate(63.05 160.26) rotate(-90)"/><rect x="107.47" y="47.21" width="2.79" height="2.79" transform="translate(60.25 157.47) rotate(-90)"/><rect x="107.47" y="50" width="2.79" height="2.79" transform="translate(57.46 160.26) rotate(-90)"/><rect x="107.47" y="41.63" width="2.79" height="2.79" transform="translate(65.84 151.89) rotate(-90)"/><rect x="110.26" y="44.42" width="2.79" height="2.79" transform="translate(65.84 157.47) rotate(-90)"/><rect x="113.05" y="41.63" width="2.79" height="2.79" transform="translate(71.42 157.47) rotate(-90)"/><rect x="113.05" y="44.42" width="2.79" height="2.79" transform="translate(68.63 160.26) rotate(-90)"/><rect x="115.84" y="47.21" width="2.79" height="2.79" transform="translate(68.63 165.84) rotate(-90)"/><rect x="127" y="38.84" width="2.79" height="2.79"/><rect x="121.42" y="41.63" width="2.79" height="2.79"/><rect x="124.21" y="38.84" width="2.79" height="2.79"/><rect x="124.21" y="47.21" width="2.79" height="2.79"/><rect x="118.63" y="41.63" width="2.79" height="2.79"/><rect x="118.63" y="44.42" width="2.79" height="2.79"/><rect x="118.63" y="38.84" width="2.79" height="2.79"/><rect x="127" y="41.63" width="2.79" height="2.79"/><rect x="127" y="50" width="2.79" height="2.79"/><rect x="124.21" y="44.42" width="2.79" height="2.79"/><rect x="115.84" y="44.42" width="2.79" height="2.79"/><rect x="123.46" y="18.55" width="4.3" height="4.3"/><rect class="cls-5" x="93.04" y="16.04" width="9.3" height="9.3"/><rect x="95.55" y="18.55" width="4.3" height="4.3"/><rect x="95.55" y="46.46" width="4.3" height="4.3"/></g></svg>