<svg xmlns="http://www.w3.org/2000/svg" viewBox="0 0 147.44 132.79"><defs><style>.cls-1{fill:#2f6e84;}.cls-2{fill:#fff;}</style></defs><g id="Layer_15" data-name="Layer 15"><path class="cls-1" d="M46.3,24.87l-5.2,15a4.36,4.36,0,0,0,4.13,5.8H55.64a4.37,4.37,0,0,0,4.13-5.8l-5.21-15A4.37,4.37,0,0,0,46.3,24.87Z"/><path class="cls-2" d="M55.64,46.66H45.23a5.36,5.36,0,0,1-5.07-7.13l5.2-15a5.37,5.37,0,0,1,10.15,0l5.2,15a5.36,5.36,0,0,1-5.07,7.13ZM50.43,22.93a3.3,3.3,0,0,0-3.18,2.27L42,40.19a3.37,3.37,0,0,0,3.19,4.47H55.64a3.35,3.35,0,0,0,3.18-4.47l-5.2-15A3.31,3.31,0,0,0,50.43,22.93Z"/><path class="cls-1" d="M34.22,29.25l4.11,15.33A4.37,4.37,0,0,0,45,47.06l8.61-5.84a4.37,4.37,0,0,0,.16-7.12L41.06,24.61A4.38,4.38,0,0,0,34.22,29.25Z"/><path class="cls-2" d="M42.57,48.82a5.43,5.43,0,0,1-1.89-.34,5.28,5.28,0,0,1-3.31-3.64L33.26,29.51a5.37,5.37,0,0,1,8.4-5.7l12.72,9.48A5.37,5.37,0,0,1,54.19,42l-8.62,5.85A5.31,5.31,0,0,1,42.57,48.82ZM35.19,29,39.3,44.32a3.37,3.37,0,0,0,5.15,1.92l8.61-5.85a3.36,3.36,0,0,0,.12-5.49L40.46,25.41A3.37,3.37,0,0,0,35.19,29Z"/><ellipse class="cls-1" cx="73.72" cy="66.4" rx="45.42" ry="36.35"/><rect class="cls-1" x="14.75" y="50.93" width="28.65" height="28.65" rx="7.52"/><rect class="cls-1" x="38.4" y="84.59" width="28.65" height="28.65" rx="7.52" transform="translate(42.49 -12.71) rotate(22.82)"/><rect class="cls-1" x="80.89" y="84.6" width="28.65" height="28.65" rx="7.52" transform="translate(-32.85 49.4) rotate(-24.95)"/><path class="cls-1" d="M112.62,56.06a4,4,0,0,1-2.13-7.39,21.26,21.26,0,0,0,6.16-7,19.62,19.62,0,0,1-5.39-2.28c-4-2.46-6.12-6.13-6.12-10.31a14.91,14.91,0,0,1,4.17-10.88,12.94,12.94,0,0,1,9.09-3.86,10.11,10.11,0,0,1,10.42,10.49,45.89,45.89,0,0,1-.83,8.9c3.74-1.09,8.17-3.77,8.17-10.39a4,4,0,0,1,8,0c0,8.72-5.94,18.07-18.9,19-4.05,8.94-10.16,12.82-10.54,13.05A4,4,0,0,1,112.62,56.06Zm5.78-33.69a5,5,0,0,0-3.42,1.5,7.21,7.21,0,0,0-1.84,5.24c0,.5,0,2.05,2.36,3.53a12.49,12.49,0,0,0,4.2,1.55,37.32,37.32,0,0,0,1.12-9.33A2.18,2.18,0,0,0,118.4,22.37Z"/><path class="cls-1" d="M63.74,40h0a52.74,52.74,0,0,1,28.44,1.81h0"/><path class="cls-2" d="M92.18,44.26a2.73,2.73,0,0,1-.83-.14A50.15,50.15,0,0,0,64.26,42.4a2.5,2.5,0,0,1-1.05-4.89A55.25,55.25,0,0,1,93,39.4a2.5,2.5,0,0,1-.83,4.86Z"/><circle class="cls-2" cx="45.43" cy="52.46" r="4.53"/></g></svg>