<svg xmlns="http://www.w3.org/2000/svg" viewBox="0 0 147.44 132.79"><defs><style>.cls-1{fill:#67a0b8;}.cls-2{fill:#93bd59;}.cls-3{fill:#2f6e83;}.cls-4{fill:#fff;}</style></defs><g id="Layer_13" data-name="Layer 13"><path class="cls-1" d="M14.46,90.93l6.12-28.28a5,5,0,0,1,4.87-3.94H85a5,5,0,0,1,4.88,3.94L96,90.93"/><path class="cls-1" d="M96,95A4,4,0,0,1,92,91.78L85.93,63.5a1,1,0,0,0-.94-.76H25.45a1,1,0,0,0-.94.76L18.4,91.78a4,4,0,1,1-7.87-1.7L16.64,61.8a9.07,9.07,0,0,1,8.81-7.11H85A9.06,9.06,0,0,1,93.8,61.8l6.12,28.28a4,4,0,0,1-3.09,4.79A4.09,4.09,0,0,1,96,95Z"/><path class="cls-2" d="M96,90.93l4.57,21.16a9.12,9.12,0,0,1-8.91,11H18.81a9.12,9.12,0,0,1-8.92-11l4.57-21.16"/><path class="cls-3" d="M25.45,58.71H85a5,5,0,0,1,4.88,3.94l10.68,49.44a9.12,9.12,0,0,1-8.91,11H18.81a9.12,9.12,0,0,1-8.92-11L20.58,62.65A5,5,0,0,1,25.45,58.71Z"/><path class="cls-1" d="M42.34,56H30.25a2.24,2.24,0,1,1,0-4.47H42.16a11.85,11.85,0,0,0,1.58-2.23C45,47.27,46.41,45,49,45a2.23,2.23,0,0,1,.19,4.46,11.86,11.86,0,0,0-1.59,2.25C46.31,53.71,44.89,56,42.34,56Z"/><circle class="cls-1" cx="51.64" cy="46.16" r="3.94"/><path class="cls-1" d="M80.92,56H68.83c-2.55,0-4-2.32-5.22-4.37A11.43,11.43,0,0,0,62,49.41a2.23,2.23,0,0,1,.2-4.46c2.54,0,4,2.32,5.21,4.38A11.85,11.85,0,0,0,69,51.56H80.92a2.24,2.24,0,1,1,0,4.47Z"/><circle class="cls-1" cx="59.53" cy="46.16" r="3.94"/><path class="cls-4" d="M88.33,32l.11,0,.08,0a.8.8,0,0,1,.16.08l.11.07.16.13a2.58,2.58,0,0,1,.61.78,3.54,3.54,0,0,1,.16.34,5.86,5.86,0,0,1,.33,1c.06.28.12.61.16,1a14.59,14.59,0,0,1,.11,1.82A35.05,35.05,0,0,1,89,46.06c-.38,1.47-.85,3-1.4,4.55C84.28,60,79.22,66.75,76.3,65.79s-2.58-9.31.75-18.65S85.43,31,88.33,32Z"/><path class="cls-2" d="M88.52,32l5.55,2.22c2.8,1.14,2.44,9.39-.85,18.62S84.85,69,81.93,68.05l-.11,0L76.3,65.79c2.92,1,8-5.84,11.3-15.18.55-1.55,1-3.08,1.4-4.55a35.05,35.05,0,0,0,1.32-8.86,11.48,11.48,0,0,0-.11-1.82c0-.34-.1-.67-.16-1a5.86,5.86,0,0,0-.33-1,3.54,3.54,0,0,0-.16-.34,2.58,2.58,0,0,0-.61-.78l-.16-.13-.11-.07A.8.8,0,0,0,88.52,32Z"/><path class="cls-2" d="M86.72,33.59l.1,0,.07,0,.15.08.09.06.14.11a2.29,2.29,0,0,1,.56.71,2.09,2.09,0,0,1,.14.3,5.61,5.61,0,0,1,.29.9c.06.25.11.55.15.85a16.23,16.23,0,0,1,.1,1.64,31.77,31.77,0,0,1-1.18,7.95c-.35,1.32-.77,2.69-1.27,4.08-3,8.39-7.52,14.5-10.14,13.64s-2.32-8.37.67-16.75S84.11,32.74,86.72,33.59Z"/><path class="cls-4" d="M98,7c11.86-2.47,23.37-.59,25.71,4.19s-5.37,10.67-17.22,13.14-23.38.59-25.72-4.2S86.13,9.49,98,7Z"/><path class="cls-2" d="M124.08,12.4l.86,5.72c.68,4.54-6.71,9.68-17.6,12-11.87,2.47-23.38.59-25.72-4.2a4.39,4.39,0,0,1-.38-1.18L80.38,19a4.06,4.06,0,0,0,.38,1.18c2.34,4.79,13.85,6.67,25.72,4.2C117.36,22.09,124.76,16.94,124.08,12.4Z"/><path class="cls-2" d="M97.85,6.93c10.86-2.26,21.41-.54,23.55,3.84s-4.92,9.78-15.78,12S84.2,23.35,82.05,19,87,9.19,97.85,6.93Z"/></g></svg>