<svg id="Lag_1" data-name="Lag 1" xmlns="http://www.w3.org/2000/svg" viewBox="0 0 375 812"><defs><style>.cls-1{opacity:0.5;}.cls-2{fill:#fff;}</style></defs><g id="Group_61" data-name="Group 61" class="cls-1"><rect id="Rectangle_125" data-name="Rectangle 125" width="75" height="812"/><rect id="Rectangle_126" data-name="Rectangle 126" x="300" width="75" height="812"/><rect id="Rectangle_127" data-name="Rectangle 127" x="75" width="225" height="260"/><rect id="Rectangle_129" data-name="Rectangle 129" x="75" y="485" width="225" height="327"/><rect id="Rectangle_130" data-name="Rectangle 130" x="75" y="475" width="10" height="10"/><rect id="Rectangle_131" data-name="Rectangle 131" x="290" y="475" width="10" height="10"/><rect id="Rectangle_132" data-name="Rectangle 132" x="290" y="260" width="10" height="10"/><rect id="Rectangle_133" data-name="Rectangle 133" x="75" y="260" width="10" height="10"/></g><g id="Icon_ionic-ios-qr-scanner" data-name="Icon ionic-ios-qr-scanner"><path id="Path_18" data-name="Path 18" class="cls-2" d="M135.81,252H103.47c-20.41,0-37,15.37-37,34.31v30a7.72,7.72,0,0,0,15.4,0V285.8c0-4.65,2.36-9.55,6.44-13.38a21.78,21.78,0,0,1,14.58-6.12h32.89a7.17,7.17,0,1,0,0-14.3Z"/><path id="Path_19" data-name="Path 19" class="cls-2" d="M271.08,252H238.19a7.17,7.17,0,1,0,0,14.3h32.89a21.74,21.74,0,0,1,14.58,6.13c4.07,3.83,6.44,8.73,6.44,13.38v30.53a7.72,7.72,0,0,0,15.4,0V285.8C307.5,267.17,291.16,252,271.08,252Z"/><path id="Path_20" data-name="Path 20" class="cls-2" d="M135.81,478.7H102.92a21.74,21.74,0,0,1-14.58-6.13c-4.07-3.83-6.44-8.73-6.44-13.38V428.66a7.72,7.72,0,0,0-15.4,0V459.2c0,18.63,16.34,33.8,36.42,33.8h32.89a7.17,7.17,0,0,0,1-14.3,6,6,0,0,0-1,0Z"/><path id="Path_21" data-name="Path 21" class="cls-2" d="M299.8,421.51a7.47,7.47,0,0,0-7.7,7.15V459.2c0,4.64-2.37,9.54-6.44,13.37a21.74,21.74,0,0,1-14.57,6.13h-32.9a7.17,7.17,0,1,0-1,14.3,6,6,0,0,0,1,0h32.34c20.36,0,37-15.37,37-34.31v-30A7.47,7.47,0,0,0,299.8,421.51Z"/></g></svg>