<svg xmlns="http://www.w3.org/2000/svg" viewBox="0 0 2126.23 4604"><defs><style>.cls-1{opacity:0.5;}.cls-2{fill:#2b6d85;}</style></defs><g id="cutout"><path class="cls-1" d="M-.13-.27v4604H2126.11V-.27ZM1439.49,2610.56a66.17,66.17,0,0,1-66.17,66.17H752.66a66.17,66.17,0,0,1-66.17-66.17V1989.89a66.16,66.16,0,0,1,66.17-66.16h620.66a66.16,66.16,0,0,1,66.17,66.16Z" transform="translate(0.13 0.27)"/></g><g id="Layer_3" data-name="Layer 3"><path class="cls-2" d="M722.58,2109.31V1998.54a38.73,38.73,0,0,1,38.73-38.72h111v-18.09H767.49a63,63,0,0,0-63,63v104.58Z" transform="translate(0.13 0.27)"/><path class="cls-2" d="M1253.18,1959.82h111.49a38.73,38.73,0,0,1,38.73,38.72v110.77h18.09V2004.73a63,63,0,0,0-63-63H1253.18Z" transform="translate(0.13 0.27)"/><path class="cls-2" d="M872.31,2640.63h-111a38.72,38.72,0,0,1-38.73-38.72V2490.19H704.49v105.53a63,63,0,0,0,63,63H872.31Z" transform="translate(0.13 0.27)"/><path class="cls-2" d="M1403.4,2490.19v111.72a38.72,38.72,0,0,1-38.73,38.72H1253.18v18.1h105.31a63,63,0,0,0,63-63V2490.19Z" transform="translate(0.13 0.27)"/></g></svg>