<svg id="Layer_1" data-name="Layer 1" xmlns="http://www.w3.org/2000/svg" viewBox="0 0 150 150"><defs><style>.cls-1{fill:#fff;}.cls-2{fill:#eaa89b;}.cls-3,.cls-5{fill:#cbcbcb;}.cls-4{fill:#3e5768;}.cls-5,.cls-6,.cls-9{stroke:#784711;}.cls-5,.cls-6{stroke-miterlimit:10;}.cls-6{fill:none;stroke-width:6px;}.cls-6,.cls-9{stroke-linecap:round;}.cls-7{fill:#fca;}.cls-8{fill:#444;}.cls-9{fill:#784812;stroke-linejoin:round;stroke-width:0.5px;}.cls-10{fill:#784600;}.cls-11{fill:#cccbcb;}</style></defs><path class="cls-1" d="M150,75a74.78,74.78,0,0,1-19.2,50.1,72.94,72.94,0,0,1-7.3,7.09,75.23,75.23,0,0,1-9.28,6.74,74.41,74.41,0,0,1-28.66,10.33l-.5.07a75.63,75.63,0,0,1-20.09,0l-.47-.06h0a73.57,73.57,0,0,1-10.86-2.36A74.56,74.56,0,0,1,37,139.69h0c-1.5-.88-3-1.82-4.41-2.81a73,73,0,0,1-6.11-4.67A75,75,0,1,1,150,75Z"/><path class="cls-2" d="M67,95.36c-1.91,7.37-7.84,12.21-13.26,10.84A38.55,38.55,0,0,1,64.47,81.8C67.24,84.81,68.35,90,67,95.36Z"/><path class="cls-3" d="M130.8,108.64V125.1a72.94,72.94,0,0,1-7.3,7.09,75.23,75.23,0,0,1-9.28,6.74,74.41,74.41,0,0,1-28.66,10.33l-.5.07a75.63,75.63,0,0,1-20.09,0l-.47-.06h0a73.57,73.57,0,0,1-10.86-2.36V108.64c0-.82,0-1.63.08-2.44,5.42,1.37,11.35-3.47,13.26-10.84,1.39-5.34.28-10.55-2.49-13.56a39.11,39.11,0,0,1,7.34-5.92,38.48,38.48,0,0,1,7.82-3.73l.77-.26h0a40.36,40.36,0,0,1,4.13-1.08,39.08,39.08,0,0,1,15.34,0A40.54,40.54,0,0,1,104,71.89h0l.77.26a37.83,37.83,0,0,1,7.83,3.74,39,39,0,0,1,6.87,5.46l.47.48c.39.4.76.81,1.13,1.23s.73.84,1.08,1.27.64.81,1,1.22a.36.36,0,0,0,.07.1c.33.45.65.91,1,1.37,0,0,0,0,0,0,.3.45.59.9.88,1.37s.57,1,.85,1.45.53,1,.78,1.48.46.93.67,1.4q.06.12.12.27c.21.47.41.94.6,1.42,0,0,0,0,0,0,.15.4.3.8.44,1.2.07.19.14.38.2.58a1.13,1.13,0,0,1,.08.24c.13.36.24.72.35,1.09a.83.83,0,0,1,0,.15c.13.41.24.83.35,1.25,0,0,0,0,0,0l.21.89c.19.76.34,1.53.46,2.31l.09.53c0,.32.1.64.13,1,.08.64.15,1.29.2,1.94l0,.56C130.77,107,130.8,107.83,130.8,108.64Z"/><polygon class="cls-4" points="92.22 72.08 93.19 77.08 91.25 77.08 92.22 72.08"/><path class="cls-2" d="M72.41,84c0,7.19,8.87,13,19.81,13S112,91.14,112,84s-19.8-23.9-19.8-23.9S72.41,76.76,72.41,84Z"/><rect class="cls-2" x="63.27" y="48.81" width="57.89" height="16.91" rx="8.46"/><circle class="cls-5" cx="76.98" cy="45.81" r="5.57"/><path class="cls-6" d="M74.19,43.89c-3.39-3.39-5.57,0-5.57,0"/><path class="cls-6" d="M75.74,42.84C77.89,38.55,74,37.55,74,37.55"/><path class="cls-6" d="M78.71,38.87c-3.56,3.22-.27,5.56-.27,5.56"/><path class="cls-6" d="M76.82,40.55c4.27,2.19,5.3-1.71,5.3-1.71"/><path class="cls-6" d="M78.55,36.81c-2.49,4.1,1.33,5.41,1.33,5.41"/><path class="cls-6" d="M85.33,44.24c-3.39-3.39-5.57,0-5.57,0"/><path class="cls-6" d="M83.94,40.55c-4.77.56-3.45,4.37-3.45,4.37"/><path class="cls-6" d="M82.1,49.19c-4.76.57-3.45,4.38-3.45,4.38"/><path class="cls-6" d="M84.65,48.35c-2.13-4.3-5.28-1.78-5.28-1.78"/><path class="cls-6" d="M75.45,51.76c-.32-4.79-4.19-3.67-4.19-3.67"/><path class="cls-6" d="M70.68,45.5c4.7-1,3-4.66,3-4.66"/><path class="cls-6" d="M71.53,50.84c4.69-1,3-4.66,3-4.66"/><path class="cls-6" d="M79.34,47.67c-.84,4.72,3.19,4.56,3.19,4.56"/><path class="cls-6" d="M71.46,39.49c2.9,3.82,5.52.75,5.52.75"/><circle class="cls-5" cx="105.73" cy="44.31" r="5.57"/><path class="cls-6" d="M103,42.39c-3.39-3.39-5.57,0-5.57,0"/><path class="cls-6" d="M104.5,41.34c2.15-4.29-1.76-5.29-1.76-5.29"/><path class="cls-6" d="M107.46,37.37c-3.55,3.22-.27,5.56-.27,5.56"/><path class="cls-6" d="M105.57,39.05c4.28,2.19,5.3-1.71,5.3-1.71"/><path class="cls-6" d="M107.3,35.31c-2.48,4.1,1.33,5.41,1.33,5.41"/><path class="cls-6" d="M114.09,42.74c-3.4-3.39-5.57,0-5.57,0"/><path class="cls-6" d="M112.7,39.05c-4.77.56-3.45,4.37-3.45,4.37"/><path class="cls-6" d="M110.86,47.69c-4.77.57-3.45,4.38-3.45,4.38"/><path class="cls-6" d="M113.41,46.85c-2.14-4.3-5.28-1.78-5.28-1.78"/><path class="cls-6" d="M104.2,50.26c-.31-4.79-4.19-3.67-4.19-3.67"/><path class="cls-6" d="M99.44,44c4.69-1,3-4.66,3-4.66"/><path class="cls-6" d="M100.28,49.34c4.7-1,3-4.66,3-4.66"/><path class="cls-6" d="M108.1,46.17c-.84,4.72,3.18,4.56,3.18,4.56"/><path class="cls-6" d="M100.22,38c2.9,3.82,5.51.75,5.51.75"/><path class="cls-7" d="M95.19,28.21a18,18,0,0,1,18,18V71.05A7.13,7.13,0,0,0,106,63.92H78.42a7.13,7.13,0,0,0-7.13,7.13V46.17a18,18,0,0,1,18-18Z"/><path class="cls-7" d="M113.15,71.05v.22a20.21,20.21,0,0,1-.1,2.07,20.93,20.93,0,0,1-41.66,0,20.21,20.21,0,0,1-.1-2.07v-.22a7.13,7.13,0,0,1,7.13-7.13H106A7.13,7.13,0,0,1,113.15,71.05Z"/><path class="cls-1" d="M82.77,70.81h18.89A3.14,3.14,0,0,1,104.8,74v0A11.35,11.35,0,0,1,93.45,85.3H91A11.35,11.35,0,0,1,79.63,74v0A3.14,3.14,0,0,1,82.77,70.81Z"/><circle class="cls-2" cx="92.22" cy="63.92" r="4.43"/><circle class="cls-8" cx="81.13" cy="48.81" r="3.43"/><circle class="cls-8" cx="103.3" cy="48.81" r="3.43"/><path class="cls-9" d="M71.3,36.45c0,11.13,47.08,8.93,47.08-.14-6.36,0-14.3-15.14-24.88-15.14S71.3,27.49,71.3,36.45Z"/><path class="cls-2" d="M117.48,95.39c1.91,7.37,7.84,12.21,13.26,10.84A38.55,38.55,0,0,0,120,81.83C117.2,84.84,116.09,90.05,117.48,95.39Z"/><path class="cls-10" d="M37,69.7v70c-1.5-.88-3-1.82-4.41-2.81V69.7Z"/><circle class="cls-3" cx="34.76" cy="74.31" r="11.24"/><path class="cls-3" d="M17.9,74.31a3.85,3.85,0,0,1-3.23-5.94,10.91,10.91,0,0,1,7.52-4.76c3.32-.36,6.57,1,9.66,4.12a3.83,3.83,0,0,1-5.42,5.42c-1.32-1.31-2.54-2-3.39-1.91a3.18,3.18,0,0,0-1.94,1.32A3.8,3.8,0,0,1,17.9,74.31Z"/><path class="cls-3" d="M32.27,72.15a3.9,3.9,0,0,1-1.72-.4,3.84,3.84,0,0,1-1.71-5.15c.84-1.68,1.1-3,.74-3.85a3.4,3.4,0,0,0-1.8-1.38,3.84,3.84,0,0,1,1.89-7.44,10.92,10.92,0,0,1,6.88,5.64c1.39,3,1.11,6.56-.85,10.46A3.82,3.82,0,0,1,32.27,72.15Z"/><path class="cls-3" d="M37.73,75.37a3.88,3.88,0,0,1-2.25-.72,10.9,10.9,0,0,1-4.38-7.74c-.2-3.34,1.34-6.52,4.58-9.45a3.83,3.83,0,1,1,5.15,5.68c-1.38,1.25-2.11,2.42-2.08,3.29a3.27,3.27,0,0,0,1.23,2,3.83,3.83,0,0,1-2.25,6.93Z"/><path class="cls-3" d="M39.21,68.89a14.44,14.44,0,0,1-6.52-1.78,3.84,3.84,0,0,1,3.49-6.83c1.66.85,3,1.13,3.82.78a3.21,3.21,0,0,0,1.44-1.85,3.81,3.81,0,0,1,4.68-2.71,3.86,3.86,0,0,1,2.72,4.72,10.88,10.88,0,0,1-5.69,6.83A9.45,9.45,0,0,1,39.21,68.89Z"/><path class="cls-3" d="M40.62,70.9a3.86,3.86,0,0,1-1.25-.21A10.92,10.92,0,0,1,33,64.52c-1.14-3.14-.58-6.63,1.69-10.36a3.83,3.83,0,1,1,6.56,4c-1,1.59-1.34,2.92-1.05,3.75a3.26,3.26,0,0,0,1.75,1.57,3.82,3.82,0,0,1,2.36,4.86A3.86,3.86,0,0,1,40.62,70.9Z"/><path class="cls-3" d="M40.38,75a3.85,3.85,0,0,1-3.23-5.94,10.91,10.91,0,0,1,7.52-4.75c3.32-.37,6.58,1,9.66,4.11a3.83,3.83,0,1,1-5.42,5.42c-1.31-1.31-2.53-2-3.39-1.91a3.25,3.25,0,0,0-1.94,1.32A3.78,3.78,0,0,1,40.38,75Z"/><path class="cls-3" d="M41.88,76.38a3.87,3.87,0,0,1-3.65-2.61,10.85,10.85,0,0,1,.92-8.84c1.77-2.83,4.87-4.53,9.21-5a3.84,3.84,0,1,1,.9,7.62c-1.84.21-3.12.74-3.6,1.47a3.29,3.29,0,0,0-.17,2.35,3.81,3.81,0,0,1-3.61,5Z"/><path class="cls-3" d="M38.17,93.83a3.88,3.88,0,0,1-3.65-2.61,10.87,10.87,0,0,1,.92-8.85c1.77-2.83,4.87-4.52,9.21-5a3.84,3.84,0,0,1,.9,7.62c-1.84.22-3.12.74-3.6,1.48a3.27,3.27,0,0,0-.17,2.34,3.83,3.83,0,0,1-3.61,5.06Z"/><path class="cls-3" d="M50.25,83.28a3.85,3.85,0,0,1-3.44-2.14c-.82-1.66-1.75-2.69-2.6-2.89a3.23,3.23,0,0,0-2.26.63,3.8,3.8,0,0,1-5.37-.61,3.86,3.86,0,0,1,.61-5.41,10.94,10.94,0,0,1,8.65-2.11c3.26.72,5.9,3.07,7.84,7a3.84,3.84,0,0,1-3.43,5.55Z"/><path class="cls-3" d="M31.66,90.16a3.84,3.84,0,0,1-3.82-3.58c-.12-1.86-.58-3.16-1.29-3.68a3.26,3.26,0,0,0-2.33-.29A3.8,3.8,0,0,1,19.5,80a3.86,3.86,0,0,1,2.66-4.75,10.84,10.84,0,0,1,8.78,1.38c2.74,1.92,4.27,5.11,4.55,9.47a3.83,3.83,0,0,1-3.57,4.07Z"/><path class="cls-3" d="M22.05,77.53a3.84,3.84,0,0,1-.79-7.59c1.82-.38,3-1,3.45-1.79a3.24,3.24,0,0,0,0-2.35,3.82,3.82,0,0,1,1.93-5,3.86,3.86,0,0,1,5.08,2,10.88,10.88,0,0,1-.11,8.9c-1.52,3-4.45,4.94-8.73,5.85A4.23,4.23,0,0,1,22.05,77.53Z"/><path class="cls-3" d="M23.75,88.31A3.84,3.84,0,0,1,23,80.72c1.82-.38,3.05-1,3.46-1.8a3.24,3.24,0,0,0-.05-2.35,3.8,3.8,0,0,1,1.93-5,3.87,3.87,0,0,1,5.09,2,10.92,10.92,0,0,1-.12,8.89c-1.51,3-4.45,4.95-8.72,5.85A3.7,3.7,0,0,1,23.75,88.31Z"/><path class="cls-3" d="M45.88,91.12a10.86,10.86,0,0,1-8-3.45c-2.19-2.52-2.92-6-2.16-10.28a3.84,3.84,0,0,1,7.56,1.34c-.33,1.85-.19,3.24.38,3.9a3.43,3.43,0,0,0,2.12.82h0a3.83,3.83,0,1,1,.3,7.66Z"/><path class="cls-3" d="M29.85,69.26h-.26c-3.34-.09-6.38-1.9-9-5.38a3.84,3.84,0,1,1,6.11-4.64c1.13,1.49,2.24,2.33,3.12,2.35a3.69,3.69,0,0,0,2-1,3.83,3.83,0,1,1,5.84,5A11,11,0,0,1,29.85,69.26Z"/><path class="cls-11" d="M39.05,82.33H30.63c-8.13,0-12.44-9-10.26-17.45l3.72-14.36a8.57,8.57,0,0,1,5.51-5.67,5.85,5.85,0,0,1,5.16.71h0l.25-.15a5.85,5.85,0,0,1,5-.59,8.55,8.55,0,0,1,5.61,5.7l3.72,14.36C51.49,73.29,47.18,82.33,39.05,82.33Z"/></svg>