<svg id="Layer_1" data-name="Layer 1" xmlns="http://www.w3.org/2000/svg" viewBox="0 0 150 150"><defs><style>.cls-1{fill:#fff;}.cls-2{fill:#f9bc35;}.cls-3{fill:#fc3339;}.cls-4{fill:#444;}.cls-5{fill:#932431;}</style></defs><path class="cls-1" d="M150,75a74.53632,74.53632,0,0,1-8.14,34q-1.03511,2.04-2.19007,4a70.78057,70.78057,0,0,1-5.63989,8.26,75.22152,75.22152,0,0,1-48.47,28c-.16.02-.33008.05-.5.07a75.63105,75.63105,0,0,1-20.09009,0c-.15991-.02-.32-.04-.47-.06h-.02a75.23509,75.23509,0,0,1-48.33-27.78A72.736,72.736,0,0,1,10.34009,113Q9.17,111.035,8.14,109A75.00358,75.00358,0,1,1,150,75Z"/><g id="Layer_13" data-name="Layer 13"><path class="cls-2" d="M134.03,121.26a75.22152,75.22152,0,0,1-48.47,28c-.16.02-.33008.05-.5.07a75.63105,75.63105,0,0,1-20.09009,0c-.15991-.02-.32-.04-.47-.06h-.02a75.23509,75.23509,0,0,1-48.33-27.78,57.79431,57.79431,0,0,1,9.71-7.14c.79-.47,1.6-.92,2.42-1.35a67.44163,67.44163,0,0,1,6.31006-2.95c.84985-.34,1.71-.67,2.58984-.98,1.32007-.49,2.67005-.93,4.04-1.33,1.25-.37,2.52-.71,3.81006-1.01,1.11-.27,2.25-.52,3.38989-.73,1.26-.24,2.55005-.46,3.84009-.63A78.70959,78.70959,0,0,1,63.2,104.61h24a80.16889,80.16889,0,0,1,9.62012.58q1.9499.24,3.86987.57c1.12012.19,2.23.41,3.33008.65,1.3.28,2.6.6,3.87.95,1.34.37,2.67.77,3.97,1.21q1.5899.54,3.15,1.13995a65.94311,65.94311,0,0,1,7.16992,3.29A58.22262,58.22262,0,0,1,134.03,121.26Z"/><path class="cls-3" d="M63.34652,50.63336a25.86058,25.86058,0,0,0,.14,4,36.79805,36.79805,0,0,0,.61,4.06,19.11964,19.11964,0,0,0,1.16,3.85c.51,1.17,1.27,2.31,2.17,2.4h.04a.74.74,0,0,1,.67062.80341l-.00062.00659a.75.75,0,0,1-.73.67,3.13011,3.13011,0,0,1-1.39-.29,4.61,4.61,0,0,1-1.1-.74,8.67047,8.67047,0,0,1-1.45-1.9,21.86059,21.86059,0,0,1-1.88-4.1,42.24923,42.24923,0,0,1-1.23-4.26,28.92879,28.92879,0,0,1-.75-4.5,1.89,1.89,0,0,1,3.76-.28,1.00073,1.00073,0,0,1,0,.25Z"/><path class="cls-3" d="M82.91651,67.54336a1.89,1.89,0,0,1,0-3.77c1.44,0,4.08-7.72,4.08-13.14a1.89,1.89,0,0,1,3.77,0C90.76652,52.85336,89.29652,67.54336,82.91651,67.54336Z"/><path class="cls-3" d="M92.98651,100.83337h-36.32c-12.69,0-21.39-9.56-16.71-18.38l5.94-11.2c2.72-5.12,9.34-8.5,16.72-8.5h24.42c7.38,0,14,3.37,16.72,8.49l5.94,11.2C114.37652,91.27336,105.67652,100.83337,92.98651,100.83337Z"/><path class="cls-3" d="M36.00652,66.85336a9.79984,9.79984,0,0,0,.21,2.1,20.20914,20.20914,0,0,0,.54,2.27,22.29979,22.29979,0,0,0,1.77,4.35,12.43,12.43,0,0,0,2.75,3.58,6.29,6.29,0,0,0,3.83,1.6h0a1.09,1.09,0,0,1,1,1.15,1.11,1.11,0,0,1-1,1,8.66,8.66,0,0,1-5.44-1.8,15.23,15.23,0,0,1-3.7-4.08,26.20963,26.20963,0,0,1-2.41-4.79c-.31-.84-.59-1.69-.83-2.57a13.92936,13.92936,0,0,1-.48-2.89,1.88215,1.88215,0,0,1,3.76-.18h0Z"/><path class="cls-3" d="M44.65652,50.38336c5.72,0,3.47,23.51-8.35,23.51-21.55,0-15.68-29-8.35-29,3.51,0,8.35,15,8.35,15C36.30652,55.64336,40.56652,50.38336,44.65652,50.38336Z"/><circle class="cls-1" cx="61.26652" cy="48.33336" r="9.46"/><path class="cls-3" d="M61.26652,59.29336a11,11,0,1,1,11-11,11,11,0,0,1-11,11Zm0-18.92a8,8,0,1,0,8,8,8,8,0,0,0-8-8Z"/><circle class="cls-1" cx="88.81652" cy="48.33336" r="9.46"/><path class="cls-3" d="M88.81652,59.29336a11,11,0,1,1,11-11,11,11,0,0,1-11,11Zm0-18.92a8,8,0,1,0,8,8,8,8,0,0,0-8-8Z"/><circle class="cls-4" cx="61.26652" cy="48.33336" r="6.11"/><circle class="cls-4" cx="88.81652" cy="48.33336" r="6.11"/><path class="cls-5" d="M67.58652,74.06336h15.2a1.87,1.87,0,0,1,1.87,1.87h0v2.26a6.77,6.77,0,0,1-6.77,6.77h-5.42a6.77,6.77,0,0,1-6.77-6.77v-2.26a1.87,1.87,0,0,1,1.8699-1.8701Z"/><path class="cls-3" d="M111.80651,108.17336a2.61,2.61,0,0,1,0-.28v-.4a4.16745,4.16745,0,0,0-.17-.87,13.99911,13.99911,0,0,0-.59-1.8,14.76981,14.76981,0,0,0-1.9-3.35,9.58,9.58,0,0,0-2.8-2.55,8.61015,8.61015,0,0,0-3.6-1.14h0a.84.84,0,0,1,0-1.67,10.41987,10.41987,0,0,1,4.59.86,12.13,12.13,0,0,1,3.85,2.7,17.77016,17.77016,0,0,1,2.77,3.74,15.54068,15.54068,0,0,1,1,2.14,10.20192,10.20192,0,0,1,.39,1.18l.16.65.09.79a1.88315,1.88315,0,1,1-3.75.35v-.11Z"/><path class="cls-3" d="M104.22652,108.09336a1.31042,1.31042,0,0,1,0-.28v-.4a4.1675,4.1675,0,0,0-.17-.87,12.65877,12.65877,0,0,0-.59-1.79,14.36973,14.36973,0,0,0-1.88-3.38,9.83,9.83,0,0,0-2.82-2.62,8.78,8.78,0,0,0-3.64-1.18h0a.73.73,0,0,1,0-1.45,10.44973,10.44973,0,0,1,4.56.82,12.11,12.11,0,0,1,3.84,2.67,17.77052,17.77052,0,0,1,2.79,3.71,17.38325,17.38325,0,0,1,1,2.13c.15.38.28.77.4,1.19l.16.65.09.78a1.88411,1.88411,0,1,1-3.75.37h0a.75953.75953,0,0,1,0-.15Z"/><path class="cls-3" d="M97.24652,107.47336a2.71817,2.71817,0,0,1,0-.28l-.05-.39a4.56932,4.56932,0,0,0-.16-.87,13.57115,13.57115,0,0,0-.6-1.8,14.43,14.43,0,0,0-1.88-3.38,9.71024,9.71024,0,0,0-2.8-2.55,8.60988,8.60988,0,0,0-3.61-1.15h0a.82.82,0,0,1,0-1.64,10.56007,10.56007,0,0,1,4.59.85,12.13021,12.13021,0,0,1,3.85,2.7,18.12025,18.12025,0,0,1,3.79,5.87c.14.39.27.77.39,1.19l.15.65q.06.39.09.78a1.88362,1.88362,0,1,1-3.75.36v-.36Z"/><path class="cls-3" d="M116.82652,67.23336a13.06946,13.06946,0,0,1-.49,2.88,23.37668,23.37668,0,0,1-.83,2.57,25.92976,25.92976,0,0,1-2.4,4.8,15.38008,15.38008,0,0,1-3.7,4.08,8.68,8.68,0,0,1-5.44,1.8,1.11,1.11,0,0,1,0-2.21h0a6.24,6.24,0,0,0,3.83-1.63,12.74,12.74,0,0,0,2.75-3.57,22.94,22.94,0,0,0,1.77-4.35,23.32819,23.32819,0,0,0,.54-2.27,10.48038,10.48038,0,0,0,.21-2.1,1.88215,1.88215,0,0,1,3.76-.18h0Z"/><path class="cls-3" d="M104.40652,50.75336c-5.71,0-3.46,23.52,8.35,23.52,21.56,0,15.69-29,8.35-29-3.5,0-8.35,14.94-8.35,14.94C112.75652,56.02336,108.46652,50.75336,104.40652,50.75336Z"/><path class="cls-3" d="M37.33652,108.17336a2.52934,2.52934,0,0,0,0-.28v-.4a4.1681,4.1681,0,0,1,.17-.87,15.75089,15.75089,0,0,1,.59-1.8,14.76984,14.76984,0,0,1,1.9-3.35,9.58,9.58,0,0,1,2.8-2.55,8.61,8.61,0,0,1,3.67-1.17h0a.84.84,0,0,0,0-1.67,10.41988,10.41988,0,0,0-4.59.86,12.1301,12.1301,0,0,0-3.85,2.7,17.77016,17.77016,0,0,0-2.77,3.74,15.54068,15.54068,0,0,0-1,2.14,10.199,10.199,0,0,0-.44,1.23l-.16.65-.09.79a1.88315,1.88315,0,1,0,3.75.35v-.11Z"/><path class="cls-3" d="M44.90652,108.09336a1.31042,1.31042,0,0,0,0-.28v-.4a4.16745,4.16745,0,0,1,.17-.87,12.66,12.66,0,0,1,.61-1.79,14.37009,14.37009,0,0,1,1.88-3.4,9.83,9.83,0,0,1,2.8-2.6,8.78,8.78,0,0,1,3.64-1.18h0a.73.73,0,0,0,0-1.45,10.4497,10.4497,0,0,0-4.56.82,12.10985,12.10985,0,0,0-3.84,2.67,17.76983,17.76983,0,0,0-2.79,3.71,17.3803,17.3803,0,0,0-1,2.13c-.15.38-.28.77-.4,1.19l-.15.65a7.24071,7.24071,0,0,1-.1.78,1.88411,1.88411,0,1,0,3.75.37.75953.75953,0,0,0,0-.15Z"/><path class="cls-3" d="M51.88652,107.47336a1.341,1.341,0,0,0,0-.28l.05-.39a4.56928,4.56928,0,0,1,.16-.87,13.57115,13.57115,0,0,1,.6-1.8,14.43043,14.43043,0,0,1,1.88-3.38,9.71011,9.71011,0,0,1,2.8-2.55,8.60988,8.60988,0,0,1,3.61-1.15h0a.82.82,0,0,0,0-1.64,10.56007,10.56007,0,0,0-4.59.85,11.99993,11.99993,0,0,0-3.84,2.7,17.1704,17.1704,0,0,0-2.78,3.79,17.52,17.52,0,0,0-1,2.14c-.14.39-.27.77-.39,1.19l-.15.65q-.06.39-.09.78a1.88362,1.88362,0,0,0,3.75.36.48973.48973,0,0,1,0-.12Z"/></g></svg>