<svg id="Layer_1" data-name="Layer 1" xmlns="http://www.w3.org/2000/svg" viewBox="0 0 150 150"><defs><style>.cls-1{fill:#fff;}.cls-2{fill:#2f6e84;}.cls-3{fill:#3e5768;}.cls-4{fill:#444;}.cls-5{fill:#a0a0a0;}.cls-6{fill:#eaa89b;}.cls-7{fill:#fca;}.cls-8{fill:#e0e0e0;}.cls-9{fill:#fcb03b;}</style></defs><path class="cls-1" d="M150,75a75.06213,75.06213,0,0,1-64.43994,74.26c-.16.02-.33008.05-.5.07a75.63776,75.63776,0,0,1-20.09009,0c-.15991-.02-.32-.04-.47-.06h-.02A75.00534,75.00534,0,1,1,150,75Z"/><g id="Mask_Group_4" data-name="Mask Group 4"><g id="Layer_13" data-name="Layer 13"><path id="Path_120" data-name="Path 120" class="cls-2" d="M94.22,106.43v.01L93.7,109l-8.13989,40.26A74.57441,74.57441,0,0,0,123.5,132.19a49.945,49.945,0,0,0-11.25-20.85c-.58008-.65-1.17993-1.28-1.8-1.9-.1499-.15-.29993-.29-.45-.44-.81006-.8-1.65-1.56-2.51-2.29a49.32751,49.32751,0,0,0-8.85-6.04c-1-.54-2.01-1.04-3.04-1.5-1.28992-.57995-2.59-1.1-3.92005-1.56-.57995-.21-1.16992-.41-1.76-.59A49.99755,49.99755,0,0,0,40.01,109c-.15.15-.3.29-.45.44A50.07147,50.07147,0,0,0,26.51,132.2a74.63482,74.63482,0,0,0,37.97,17.07h.02L56.34009,109l-.52-2.57-.52-2.55H73.75l1.28-6.39.02-.1L76.35,103.88H94.74l-.27,1.31Z"/><path id="Path_121" data-name="Path 121" class="cls-3" d="M75.013,97.389l1.26,6.495h-2.52Z"/><path class="cls-1" d="M73.75,103.88v.01l-.29,1.5-.7,3.61-1,5.17L65.6,146.1l-.63,3.23c-.15991-.02-.32-.04-.47-.06h-.02L56.32007,109l-.53-2.6-.51-2.52Z"/><path class="cls-1" d="M94.74,103.88l-.27,1.31-.25,1.24v.01L93.7,109l-8.13989,40.26c-.16.02-.33008.05-.5.07l-.63013-3.23L78.26,114.18l-1-5.18-.7-3.61-.29-1.5v-.01Z"/><path class="cls-4" d="M85.06006,149.33a75.63776,75.63776,0,0,1-20.09009,0l.63-3.23,6.16-31.93h.01l.99-5.17.7-3.61.29-1.5h2.53l.29,1.5.7,3.61,1,5.17,6.15991,31.93Z"/><path id="Path_125" data-name="Path 125" class="cls-1" d="M76.273,103.884h-2.52l1.26-6.495Z"/><path id="Path_126" data-name="Path 126" class="cls-5" d="M98.303,68.644H51.749c-9.521,0-16.2-8.56-14.977-18.523l.727-6.027a19.33078,19.33078,0,0,1,.559-2.767,9.794,9.794,0,0,0,9.365,6.9h55.231a9.807,9.807,0,0,0,9.365-6.871,17.36593,17.36593,0,0,1,.559,2.741l.727,6.027C114.488,60.084,107.85,68.644,98.303,68.644Z"/><rect id="Rectangle_237" data-name="Rectangle 237" class="cls-6" x="37.409" y="57.99202" width="75.195" height="21.965" rx="7.027"/><path id="Path_127" data-name="Path 127" class="cls-7" d="M102.213,31.222V86.868a9.261,9.261,0,0,0-9.261-9.261H57.101a9.261,9.261,0,0,0-9.261,9.261h0V31.222Z"/><path id="Path_128" data-name="Path 128" class="cls-5" d="M102.213,86.868v.286a26.25748,26.25748,0,0,1-.13,2.689,27.187,27.187,0,0,1-54.114,0,26.24894,26.24894,0,0,1-.13-2.689v-.286A9.261,9.261,0,0,1,57.1,77.607H92.951a9.261,9.261,0,0,1,9.262,9.26Z"/><path id="Path_129" data-name="Path 129" class="cls-5" d="M47.839,87.154a26.25477,26.25477,0,0,0,.13,2.689,8.093,8.093,0,0,1-.13-1.494Z"/><path id="Path_130" data-name="Path 130" class="cls-5" d="M102.212,87.154v1.2a8.093,8.093,0,0,1-.13,1.494,26.25477,26.25477,0,0,0,.13-2.689Z"/><path id="Path_131" data-name="Path 131" class="cls-1" d="M62.751,86.556H87.289a4.079,4.079,0,0,1,4.079,4.079h0A14.743,14.743,0,0,1,76.676,105.39h-3.26A14.743,14.743,0,0,1,58.673,90.647h0a4.079,4.079,0,0,1,4.066-4.092l.013,0Z"/><circle id="Ellipse_56" data-name="Ellipse 56" class="cls-7" cx="75.013" cy="77.60602" r="5.754"/><path id="Path_132" data-name="Path 132" class="cls-4" d="M112.617,39.067l-.52,1.922a2.97363,2.97363,0,0,1-.117.364,9.807,9.807,0,0,1-9.326,6.871H47.427a9.794,9.794,0,0,1-9.365-6.9,2.60048,2.60048,0,0,1-.1-.338l-.533-1.922Z"/><path id="Path_133" data-name="Path 133" class="cls-8" d="M113.994,34.027l-1.377,5.04h-75.2L36.045,34.04A12.989,12.989,0,0,1,48.527,17.712h52.984a12.989,12.989,0,0,1,12.483,16.315Z"/><circle id="Ellipse_57" data-name="Ellipse 57" class="cls-9" cx="75.013" cy="28.36401" r="7.144"/><circle id="Ellipse_58" data-name="Ellipse 58" class="cls-4" cx="60.62" cy="57.99201" r="4.455"/><circle id="Ellipse_59" data-name="Ellipse 59" class="cls-4" cx="89.418" cy="57.99201" r="4.455"/><path id="Path_134" data-name="Path 134" class="cls-4" d="M89.159,91.96a3.39013,3.39013,0,0,1,1.767.494,5.33843,5.33843,0,0,1,1.221,1.013,13.06734,13.06734,0,0,1,1.6,2.182c.883,1.52,1.611,3.027,2.351,4.52a36.89,36.89,0,0,0,4.741,8.079,4.208,4.208,0,0,0,2.6,1.663,6.01328,6.01328,0,0,0,1.455-.234,4.7706,4.7706,0,0,0,.688-.286c.182-.156.416-.208.559-.39a4.74106,4.74106,0,0,0,1.416-2.6,9.15744,9.15744,0,0,0,.247-1.819v-.961a5.06458,5.06458,0,0,0-.078-.805,3.929,3.929,0,0,1,7.34777-2.78542q.06462.17049.11324.34642a4.01414,4.01414,0,0,1,.195,1.455v.828a12.85986,12.85986,0,0,1-.208,1.663c-.091.507-.208,1-.338,1.494a18.56269,18.56269,0,0,1-1.039,2.949,11.327,11.327,0,0,1-4.494,5.2,10.39106,10.39106,0,0,1-1.65.727,12.2249,12.2249,0,0,1-1.689.377,11.60128,11.60128,0,0,1-1.637.078,7.11908,7.11908,0,0,1-1.819-.195,7.3781,7.3781,0,0,1-3.169-1.65,11.80737,11.80737,0,0,1-2.026-2.312,25.407,25.407,0,0,1-2.455-4.819c-.636-1.6-1.2-3.169-1.741-4.728s-1.078-3.091-1.728-4.507a11.1295,11.1295,0,0,0-1.091-1.909,2.05189,2.05189,0,0,0-1.156-.909H88.96a1.065,1.065,0,0,1-.88316-1.22l.00015-.001a1.078,1.078,0,0,1,1.078-.935Z"/></g></g></svg>