<svg id="Layer_1" data-name="Layer 1" xmlns="http://www.w3.org/2000/svg" viewBox="0 0 150 150"><defs><style>.cls-1{fill:#cbcbcb;}.cls-2{fill:#fff;}.cls-3{fill:#e5e5e5;}.cls-4{fill:#3e5768;}.cls-5{fill:#eaa89b;}.cls-6{fill:#784711;}.cls-7{fill:#fca;}.cls-8{fill:#444;}.cls-9{fill:none;}.cls-10{fill:#f9bc35;}</style></defs><path class="cls-1" d="M113,99.08v40.61c-1.06.63-2.14,1.22-3.23,1.79a73.86,73.86,0,0,1-23.46,7.67l-.7.11-.5.07c-1.36.18-2.72.33-4.1.44-.66,0-1.33.09-2,.12h-.12l-1.65.07q-1,0-2,0H73.62c-.65,0-1.3,0-1.94-.07s-1.22,0-1.82-.1h0l-1.73-.14c-1-.09-2.08-.21-3.11-.35l-.47-.06h0c-.5-.07-1-.14-1.49-.23a74,74,0,0,1-23.85-8.17c-.71-.38-1.41-.77-2.1-1.18-.43-.25-.85-.5-1.27-.77V99.08c0-.82,0-1.63.08-2.44A38.39,38.39,0,0,1,40.64,80.3,39.11,39.11,0,0,1,43.41,76c.4-.54.81-1.06,1.24-1.57s1.07-1.26,1.64-1.86l.33-.35c.36-.37.73-.73,1.1-1.07a38.05,38.05,0,0,1,4.15-3.46c.68-.48,1.38-.95,2.09-1.39L55,65.68c.49-.28,1-.55,1.48-.81a37.53,37.53,0,0,1,5.28-2.28l.77-.26h0a40.17,40.17,0,0,1,4.12-1.08,39.08,39.08,0,0,1,15.34,0,40.36,40.36,0,0,1,4.13,1.08h0l.77.26a38.69,38.69,0,0,1,5.28,2.27l1.48.82,1.06.64a0,0,0,0,0,0,0c.59.37,1.18.76,1.75,1.16a37.28,37.28,0,0,1,4.3,3.52c.28.25.55.51.82.78l.47.48.14.15q.51.52,1,1.08.34.39.66.78c.15.16.28.32.42.49.29.35.56.71.84,1.07l.12.15a.36.36,0,0,0,.07.1c.33.45.65.91,1,1.37,0,0,0,0,0,0,.3.45.59.9.88,1.37s.54.9.8,1.36l0,.09c.27.48.53,1,.78,1.48s.46.93.67,1.4q.06.12.12.27c.21.47.41.94.6,1.42,0,0,0,0,0,0,.15.4.3.8.44,1.2.07.19.14.38.2.58A1.13,1.13,0,0,1,111,87c.13.36.24.72.35,1.09a.83.83,0,0,1,0,.15c.13.41.24.83.35,1.25,0,0,0,0,0,0l.21.89c.19.76.34,1.53.46,2.31l.09.53c0,.32.1.64.13,1,.08.64.15,1.29.2,1.94l0,.56C112.92,97.47,113,98.27,113,99.08Z"/><path class="cls-2" d="M150,75a74.87,74.87,0,0,1-17.27,47.88q-1.92,2.31-4,4.46-2.49,2.55-5.21,4.85a74.78,74.78,0,0,1-8.2,6.06l-1.08.68-1.27.76c-1.06.63-2.14,1.22-3.23,1.79a73.86,73.86,0,0,1-23.46,7.67l-.7.11-.5.07c-1.36.18-2.72.33-4.1.44-.66,0-1.33.09-2,.12h-.12l-1.65.07q-1,0-2,0H73.62c-.65,0-1.3,0-1.94-.07s-1.22,0-1.82-.1h0l-1.73-.14c-1-.09-2.08-.21-3.11-.35l-.47-.06h0c-.5-.07-1-.14-1.49-.23a74,74,0,0,1-23.85-8.17c-.71-.38-1.41-.77-2.1-1.18-.43-.25-.85-.5-1.27-.77-.72-.44-1.44-.9-2.15-1.37a74.2,74.2,0,0,1-7.11-5.35q-2.42-2-4.64-4.29a70.67,70.67,0,0,1-5.54-6.2A74.73,74.73,0,0,1,0,75a75,75,0,0,1,150,0Z"/><path class="cls-3" d="M74.37,87.41c8.17,0,13.51,5.82,13.51,8.7s6.89-19.64,6.89-29.79S74.37,87.41,74.37,87.41Z"/><path class="cls-3" d="M74.37,87.41c-8.17,0-13.51,5.82-13.51,8.7S54,76.47,54,66.32,74.37,87.41,74.37,87.41Z"/><polygon class="cls-4" points="74.37 62.52 75.34 67.52 73.4 67.52 74.37 62.52"/><path class="cls-5" d="M94.17,63.51c0-7.19-8.87-13-19.8-13s-19.81,5.83-19.81,13,19.81,23.9,19.81,23.9S94.17,70.7,94.17,63.51Z"/><rect class="cls-5" x="45.42" y="39.26" width="57.89" height="16.91" rx="8.46"/><circle class="cls-1" cx="59.13" cy="36.25" r="5.57"/><path class="cls-6" d="M59.13,42.32a6.07,6.07,0,1,1,6.07-6.07A6.07,6.07,0,0,1,59.13,42.32Zm0-11.14a5.07,5.07,0,1,0,5.07,5.07A5.08,5.08,0,0,0,59.13,31.18Z"/><path class="cls-6" d="M50.77,37.33a3,3,0,0,1-2.52-4.62,6.45,6.45,0,0,1,4.53-2.85,6.87,6.87,0,0,1,5.68,2.35,3,3,0,0,1-4.24,4.24,2.91,2.91,0,0,0-.79-.6l-.13.1A3,3,0,0,1,50.77,37.33Z"/><path class="cls-6" d="M57.89,36.28A2.93,2.93,0,0,1,56.55,36a3,3,0,0,1-1.34-4,2.86,2.86,0,0,0,.33-1l-.14-.09a3,3,0,1,1,1.48-5.81A6.43,6.43,0,0,1,61,28.49a6.9,6.9,0,0,1-.44,6.14A3,3,0,0,1,57.89,36.28Z"/><path class="cls-6" d="M58.85,37.32a6.5,6.5,0,0,1-2.64-4.67,6.87,6.87,0,0,1,2.63-5.56,3,3,0,1,1,4,4.44,2.7,2.7,0,0,0-.64.76.77.77,0,0,0,.17.19l-1.81,2.39Z"/><path class="cls-6" d="M61.34,34.66a8.25,8.25,0,0,1-3.74-1,3,3,0,0,1,2.73-5.35,3.06,3.06,0,0,0,1,.34,1.5,1.5,0,0,0,.11-.22l2.88.84,2.9.76a6.48,6.48,0,0,1-3.43,4.12A5.91,5.91,0,0,1,61.34,34.66Z"/><path class="cls-6" d="M61.06,35.5a6.47,6.47,0,0,1-3.86-3.72,6.88,6.88,0,0,1,.93-6.08,3,3,0,1,1,5.13,3.1,3,3,0,0,0-.4.92,1,1,0,0,0,.22.13l-1,2.81Zm1.8-5.71h0Z"/><path class="cls-6" d="M67.48,37.69a3,3,0,0,1-2.12-.88,3,3,0,0,0-.79-.61,1,1,0,0,0-.18.18l-2.48-1.69-2.52-1.62a6.42,6.42,0,0,1,4.53-2.86,6.85,6.85,0,0,1,5.68,2.36,3,3,0,0,1-2.12,5.12Z"/><path class="cls-6" d="M59.81,36.35A6.4,6.4,0,0,1,60.37,31a6.88,6.88,0,0,1,5.37-3,3,3,0,0,1,.7,6,3.09,3.09,0,0,0-1,.25,1.07,1.07,0,0,0,0,.25l-2.86.9Z"/><path class="cls-6" d="M60.8,47A3,3,0,0,1,58,45a6.44,6.44,0,0,1,.56-5.33,6.85,6.85,0,0,1,5.37-3,3,3,0,1,1,.7,6,2.82,2.82,0,0,0-1,.24.85.85,0,0,0,0,.17,3,3,0,0,1-2.84,4Z"/><path class="cls-6" d="M66.8,41.79a3,3,0,0,1-2.69-1.66,2.64,2.64,0,0,0-.55-.83,1,1,0,0,0-.23.11L61.52,37l-1.87-2.34a6.41,6.41,0,0,1,5.2-1.26,6.83,6.83,0,0,1,4.64,4,3,3,0,0,1-1.35,4A3.05,3.05,0,0,1,66.8,41.79Z"/><path class="cls-6" d="M57.59,45.21a3,3,0,0,1-3-2.81,2.84,2.84,0,0,0-.19-1,1,1,0,0,0-.25,0l-.75-2.91-.83-2.88a6.43,6.43,0,0,1,5.29.84A6.87,6.87,0,0,1,60.59,42a3,3,0,0,1-2.8,3.19Z"/><path class="cls-6" d="M52.83,39A3,3,0,0,1,52.21,33a2.83,2.83,0,0,0,.94-.33c0-.07,0-.17,0-.17a3,3,0,1,1,5.47-2.46,6.49,6.49,0,0,1-.08,5.35,6.89,6.89,0,0,1-5.08,3.48A2.68,2.68,0,0,1,52.83,39Z"/><path class="cls-6" d="M53.67,44.29a3,3,0,0,1-.61-5.94A2.93,2.93,0,0,0,54,38a1.84,1.84,0,0,0,0-.25l2.77-1.15,2.73-1.23a6.41,6.41,0,0,1-.08,5.35,6.85,6.85,0,0,1-5.08,3.48A2.56,2.56,0,0,1,53.67,44.29Z"/><path class="cls-6" d="M64.62,45.68a6.4,6.4,0,0,1-4.76-2.09,6.89,6.89,0,0,1-1.32-6,3,3,0,0,1,5.91,1.06,2.73,2.73,0,0,0,0,1,.7.7,0,0,0,.25,0l0,3,.12,3Zm-.2-6h0Z"/><path class="cls-6" d="M56.7,34.85h-.16a6.9,6.9,0,0,1-5.32-3.1A3,3,0,1,1,56,28.12a3,3,0,0,0,.7.71l.14-.09a3,3,0,0,1,4.57,3.89A6.45,6.45,0,0,1,56.7,34.85Z"/><circle class="cls-1" cx="87.88" cy="34.75" r="5.57"/><path class="cls-6" d="M87.88,40.82A6.07,6.07,0,1,1,94,34.75,6.08,6.08,0,0,1,87.88,40.82Zm0-11.14A5.07,5.07,0,1,0,93,34.75,5.08,5.08,0,0,0,87.88,29.68Z"/><path class="cls-6" d="M79.53,35.83A3,3,0,0,1,77,31.21a6.48,6.48,0,0,1,4.54-2.85,6.88,6.88,0,0,1,5.68,2.35A3,3,0,0,1,83,35a2.91,2.91,0,0,0-.79-.6l-.13.1A3,3,0,0,1,79.53,35.83Z"/><path class="cls-6" d="M86.65,34.78a2.93,2.93,0,0,1-1.34-.32,3,3,0,0,1-1.34-4,2.75,2.75,0,0,0,.32-1l-.14-.09a3,3,0,0,1,1.48-5.81A6.4,6.4,0,0,1,89.77,27a6.84,6.84,0,0,1-.44,6.14A3,3,0,0,1,86.65,34.78Z"/><path class="cls-6" d="M87.6,35.81A6.42,6.42,0,0,1,85,31.15a6.87,6.87,0,0,1,2.63-5.56,3,3,0,1,1,4,4.44,3,3,0,0,0-.65.76,1,1,0,0,0,.17.19l-1.81,2.39Z"/><path class="cls-6" d="M90.09,33.16a8.22,8.22,0,0,1-3.73-1,3,3,0,0,1,2.73-5.35,3,3,0,0,0,.94.34,1.64,1.64,0,0,0,.12-.22l2.87.84,2.91.76a6.47,6.47,0,0,1-3.44,4.12A5.87,5.87,0,0,1,90.09,33.16Z"/><path class="cls-6" d="M89.81,34A6.46,6.46,0,0,1,86,30.28a6.88,6.88,0,0,1,.93-6.08A3,3,0,1,1,92,27.3a2.78,2.78,0,0,0-.4.92,1.2,1.2,0,0,0,.21.13l-1,2.81Zm1.8-5.71h0Z"/><path class="cls-6" d="M90.67,36.19a3,3,0,0,1-2.53-4.62,6.45,6.45,0,0,1,4.54-2.86,6.88,6.88,0,0,1,5.68,2.36,3,3,0,1,1-4.24,4.24,2.87,2.87,0,0,0-.8-.61l-.13.11A3,3,0,0,1,90.67,36.19Z"/><path class="cls-6" d="M91.4,36.87a3,3,0,0,1-2.84-2,6.46,6.46,0,0,1,.57-5.33,6.86,6.86,0,0,1,5.36-3,3,3,0,1,1,.71,6,3,3,0,0,0-1,.25v.17a3,3,0,0,1-1.85,3.81A3.11,3.11,0,0,1,91.4,36.87Z"/><path class="cls-6" d="M86.72,43.49a6.46,6.46,0,0,1,.57-5.33,6.85,6.85,0,0,1,5.37-3,3,3,0,1,1,.7,6,2.83,2.83,0,0,0-1,.24,1,1,0,0,0,0,.25l-2.86.9Z"/><path class="cls-6" d="M95.56,40.29a3,3,0,0,1-2.69-1.66,2.79,2.79,0,0,0-.56-.83.91.91,0,0,0-.22.11l-1.81-2.39L88.4,33.18a6.43,6.43,0,0,1,5.21-1.26c1.35.29,3.24,1.23,4.64,4a3,3,0,0,1-2.69,4.33Z"/><path class="cls-6" d="M86.35,43.71a3,3,0,0,1-3-2.81,3,3,0,0,0-.2-1,1.06,1.06,0,0,0-.25,0L82.17,37l-.84-2.88a6.45,6.45,0,0,1,5.3.84,6.89,6.89,0,0,1,2.71,5.52,3,3,0,0,1-2.79,3.19Z"/><path class="cls-6" d="M81.58,37.45A3,3,0,0,1,81,31.51a2.83,2.83,0,0,0,.94-.33,1.44,1.44,0,0,0,0-.24l2.77-1.16,2.73-1.23a6.41,6.41,0,0,1-.08,5.35,6.85,6.85,0,0,1-5.07,3.48A2.7,2.7,0,0,1,81.58,37.45Z"/><path class="cls-6" d="M82.43,42.79a3,3,0,0,1-.62-5.94,2.83,2.83,0,0,0,.94-.33.7.7,0,0,0,0-.25l2.77-1.15,2.74-1.23a6.49,6.49,0,0,1-.08,5.35,6.87,6.87,0,0,1-5.08,3.48A2.68,2.68,0,0,1,82.43,42.79Z"/><path class="cls-6" d="M93.38,44.18a6.4,6.4,0,0,1-4.76-2.09c-.91-1-1.87-2.92-1.33-6a3,3,0,0,1,5.91,1.06,2.88,2.88,0,0,0,0,1,.69.69,0,0,0,.24,0l0,3,.11,3Zm-.2-6h0Z"/><path class="cls-6" d="M85.46,33.35h-.17A6.87,6.87,0,0,1,80,30.25a3,3,0,1,1,4.77-3.63,2.92,2.92,0,0,0,.71.71,1.49,1.49,0,0,0,.2-.15l2.22,2,2.29,1.95A6.45,6.45,0,0,1,85.46,33.35Z"/><path class="cls-7" d="M77.34,18.65a18,18,0,0,1,18,18V61.49a7.13,7.13,0,0,0-7.13-7.13H60.57a7.13,7.13,0,0,0-7.13,7.13V36.61a18,18,0,0,1,18-18Z"/><path class="cls-7" d="M95.3,61.49v.22a20.21,20.21,0,0,1-.1,2.07,20.93,20.93,0,0,1-41.66,0,20.21,20.21,0,0,1-.1-2.07v-.22a7.13,7.13,0,0,1,7.13-7.13h27.6A7.13,7.13,0,0,1,95.3,61.49Z"/><path class="cls-2" d="M64.92,61.25H83.81a3.14,3.14,0,0,1,3.14,3.14v0A11.35,11.35,0,0,1,75.6,75.75H73.13A11.35,11.35,0,0,1,61.78,64.39v0a3.14,3.14,0,0,1,3.14-3.14Z"/><circle class="cls-5" cx="74.37" cy="54.36" r="4.43"/><circle class="cls-8" cx="63.28" cy="39.26" r="3.43"/><circle class="cls-8" cx="85.45" cy="39.26" r="3.43"/><path class="cls-1" d="M112.89,96.67h0l0-.56C112.86,96.29,112.88,96.48,112.89,96.67Z"/><path class="cls-1" d="M99.82,16.33A16.76,16.76,0,0,1,95,26.75c-4.74,4.23-14.4,4.77-20.63,4.1s-15-2.34-19-5.35a15.53,15.53,0,0,1-4.68-7.28.77.77,0,0,1,0-.34c.12-1.31,2.91-2.46,6.91-3.46,1.42-.35,3-.69,4.65-1s3.1-.56,4.75-.8l.45-.07h0l2.45-.35c1.46-.19,3-.36,4.52-.51s3.07-.27,4.56-.35c.85-.05,1.7-.09,2.53-.11h0l.48,0c1.72,0,3.38,0,5,.06a46.51,46.51,0,0,1,4.65.44l.33,0,.79.14.77.16.69.15.06,0,.7.19h0l.65.2.63.22.58.23.5.23.09,0a4.92,4.92,0,0,1,.45.24h0l.33.21a1,1,0,0,1,.15.11l.06,0a3.16,3.16,0,0,1,.27.2l0,0,.26.23h0l.16.16a2.66,2.66,0,0,1,.34.45.36.36,0,0,0,.07.1,1.76,1.76,0,0,1,.09.2,1.64,1.64,0,0,1,.14.39l0,.11A2.11,2.11,0,0,1,99.82,16.33Z"/><line class="cls-9" x1="20.54" y1="123.5" x2="30.25" y2="127.51"/><line class="cls-9" x1="96.65" y1="91.99" x2="92.63" y2="101.7"/><circle class="cls-1" cx="74.36" cy="145.76" r="4.11"/><path class="cls-6" d="M75,145.82a.63.63,0,0,1-.14.4l0,0a.31.31,0,0,1-.14.11h0a.8.8,0,0,1-.16.08l-.1.05-.3.15-1.08.54-.13.07h0l-1.8.9,0,0-1.76.89h0l-1.17.59c-1-.09-2.08-.21-3.11-.35l-.47-.06h0c-.5-.07-1-.14-1.49-.23l5.45-1.82.07,0,1.82-.61.08,0,1.85-.62.09,0,.19-.06,1-.33.35-.11h0l.05,0,.08,0,.23-.08a.51.51,0,0,1,.3,0,.17.17,0,0,1,.1,0,.34.34,0,0,1,.12.06.08.08,0,0,1,0,0s0,0,0,0a.43.43,0,0,1,.17.24A.45.45,0,0,1,75,145.82Z"/><path class="cls-6" d="M74.2,146.41,42,135.71a3,3,0,0,1,1.9-5.71,2.66,2.66,0,0,1,.39.16l30.36,15.17a.58.58,0,0,1-.44,1.08Z"/><path class="cls-6" d="M73.82,146.16l-15.2-30.35A3,3,0,0,1,64,113.12a3.2,3.2,0,0,1,.16.39l10.74,32.2a.58.58,0,0,1-.37.74A.6.6,0,0,1,73.82,146.16Z"/><path class="cls-6" d="M73.78,145.67l10.71-32.21a3,3,0,1,1,5.7,1.9,2.66,2.66,0,0,1-.16.39L74.86,146.11a.59.59,0,0,1-1.08-.44Z"/><path class="cls-6" d="M74,145.29l30.34-15.2a3,3,0,1,1,2.7,5.38,3.33,3.33,0,0,1-.4.16L74.49,146.37a.58.58,0,0,1-.74-.37A.58.58,0,0,1,74,145.29Z"/><path class="cls-6" d="M80.37,147.19l5.89,2-.7.11-.5.07c-1.36.18-2.72.33-4.1.44l-1.37-.69-.09,0-1.71-.86L76,147.26l-.08,0-.08,0-1.07-.53-.29-.15-.06,0-.1-.06h0l-.08,0-.1,0-.08-.05a.57.57,0,0,1-.24-.47.09.09,0,0,1,0-.05s0,0,0,0a.46.46,0,0,1,0-.2.91.91,0,0,1,.11-.16.56.56,0,0,1,.46-.16h.06a.11.11,0,0,1,.08,0l.12,0,.12,0,.41.14,1,.33.27.09.07,0,1.87.63.08,0,1.81.61Z"/><line class="cls-9" x1="128.2" y1="123.4" x2="118.5" y2="127.42"/><path class="cls-6" d="M132.73,122.88q-1.92,2.31-4,4.46l-9.25,2.39a2.53,2.53,0,0,1-3.08-1.81,2.41,2.41,0,0,1,.05-1.41,2.52,2.52,0,0,1,1.11-1.4l9.14-5.39a4,4,0,0,1,5.51,1.41A3.76,3.76,0,0,1,132.73,122.88Z"/><circle class="cls-6" cx="114.61" cy="129.03" r="3.12"/><line class="cls-9" x1="52.06" y1="91.97" x2="56.09" y2="101.68"/><path class="cls-6" d="M55.74,90.44l2.66,10.28a2.53,2.53,0,0,1-4.62,1.91l-5.4-9.13a4,4,0,1,1,7.36-3.06Z"/><circle class="cls-6" cx="57.7" cy="105.56" r="3.12"/><circle class="cls-1" cx="74.44" cy="145.8" r="4.11"/><path class="cls-8" d="M49.9,66.23c-3.72-.47-5.63,5.16-8.32,7.25s-3.94,6.45-.85,6.84S56.87,67.1,49.9,66.23Z"/><path class="cls-10" d="M46,77.86a1,1,0,0,1-.63-.22l-4.32-3.52a1,1,0,1,1,1.26-1.55l4.33,3.51a1,1,0,0,1,.14,1.41A1,1,0,0,1,46,77.86Z"/><path class="cls-10" d="M48.94,74.45a1,1,0,0,1-.63-.22L44,70.71a1,1,0,1,1,1.26-1.55l4.33,3.51a1,1,0,0,1,.14,1.41A1,1,0,0,1,48.94,74.45Z"/><path class="cls-8" d="M98.45,66.23c3.72-.47,5.63,5.16,8.32,7.25s3.94,6.45.85,6.84S91.48,67.1,98.45,66.23Z"/><path class="cls-10" d="M102.33,77.86a1,1,0,0,1-.78-.37,1,1,0,0,1,.14-1.41L106,72.57a1,1,0,0,1,1.41.15,1,1,0,0,1-.15,1.4L103,77.64A1,1,0,0,1,102.33,77.86Z"/><path class="cls-10" d="M99.42,74.45a1,1,0,0,1-.64-1.78l4.33-3.51a1,1,0,1,1,1.26,1.55L100,74.23A1,1,0,0,1,99.42,74.45Z"/><path class="cls-6" d="M113.62,132c-.2-.59-.42-1.18-.67-1.76-.34-.87-.72-1.73-1.13-2.57a41.37,41.37,0,0,0-19.33-19.33q-1.06-.52-2.19-1c-.75-.31-1.5-.6-2.26-.86a41.28,41.28,0,0,0-27.38,0q-1.11.39-2.19.84c-.74.31-1.47.63-2.18,1a41.16,41.16,0,0,0-19.36,19.39c-.34.7-.66,1.42-1,2.15-.07.16-.13.33-.2.49-.22.56-.44,1.13-.64,1.7a42.4,42.4,0,0,0-1.51,5.48c.71.47,1.43.93,2.15,1.37.42.27.84.52,1.27.77.69.41,1.39.8,2.1,1.18a35.15,35.15,0,0,1,1.44-6.17c.28-.85.59-1.69.94-2.53s.67-1.54,1-2.29A35,35,0,0,1,58.34,114a26.79,26.79,0,0,1,2.43-1.13c.76-.32,1.53-.6,2.3-.86A35.16,35.16,0,0,1,85.58,112q1.23.4,2.43.9c.78.32,1.55.67,2.3,1.05a35.66,35.66,0,0,1,19.41,27.55c1.09-.57,2.17-1.16,3.23-1.79l1.27-.76,1.08-.68A39.88,39.88,0,0,0,113.62,132Z"/><line class="cls-9" x1="20.54" y1="123.5" x2="30.25" y2="127.51"/><path class="cls-6" d="M32.1,128.66a2.53,2.53,0,0,1-2.81,1.16l-7.42-1.91a70.67,70.67,0,0,1-5.54-6.2A4,4,0,0,1,21,119.39a3.68,3.68,0,0,1,1,.43l9.14,5.38a2.54,2.54,0,0,1,.9,3.46Z"/><circle class="cls-6" cx="34.14" cy="129.12" r="3.12"/><line class="cls-9" x1="96.65" y1="91.99" x2="92.63" y2="101.7"/><path class="cls-6" d="M100.33,93.51l-5.39,9.14a2.52,2.52,0,0,1-4.62-1.91L93,90.47a4,4,0,1,1,7.79,2A4.38,4.38,0,0,1,100.33,93.51Z"/><circle class="cls-6" cx="91.02" cy="105.59" r="3.12"/><path class="cls-6" d="M80.38,144.41a5.87,5.87,0,0,0-.8-1.9,5.71,5.71,0,0,0-.82-1,6.1,6.1,0,0,0-1.14-.9,5.49,5.49,0,0,0-1.33-.6s-.05,0-.07,0a4.05,4.05,0,0,0-.5-.12,5.46,5.46,0,0,0-1.28-.14,5.61,5.61,0,0,0-1.48.19,5.71,5.71,0,0,0-1.88.81,6.5,6.5,0,0,0-1,.79,5.72,5.72,0,0,0-.89,1.15,5.53,5.53,0,0,0-.75,1.88,6.22,6.22,0,0,0,.81,4.57,4.88,4.88,0,0,0,.57.74c.6.05,1.21.08,1.82.1s1.29.06,1.94.07h1.62q1,0,2,0l1.65-.07H79a5.21,5.21,0,0,0,.63-.81,5.65,5.65,0,0,0,.78-1.89A5.81,5.81,0,0,0,80.38,144.41ZM73,147.29l0,0a2,2,0,0,1-.57-1.34.29.29,0,0,1,0-.13,2.06,2.06,0,0,1,.51-1.36.24.24,0,0,1,.06-.08l0,0a2.11,2.11,0,0,1,1.28-.61h.21a2.08,2.08,0,0,1,.6.09l.14.05a1.84,1.84,0,0,1,.63.37l.12.11,0,0a2,2,0,0,1,.58,1.36.41.41,0,0,1,0,.22,2,2,0,0,1-.58,1.35s0,0,0,0l-.06.05a2,2,0,0,1-1.33.55.45.45,0,0,1-.23,0,1.15,1.15,0,0,1-.37-.06s0,0,0,0a1,1,0,0,1-.25-.07,2,2,0,0,1-.66-.43Z"/></svg>