<svg id="Layer_1" data-name="Layer 1" xmlns="http://www.w3.org/2000/svg" viewBox="0 0 150 150"><defs><style>.cls-1{fill:#fff;}.cls-2{fill:#2f6e84;}.cls-3{fill:#3e5768;}.cls-4{fill:#eaa89b;}.cls-5{fill:#784600;}.cls-6{fill:#fca;}.cls-7{fill:#a0a0a0;}.cls-8{fill:#444;}</style></defs><path class="cls-1" d="M150,75a75,75,0,0,1-64.44,74.26l-.5.07a75.63,75.63,0,0,1-20.09,0l-.47-.06h0A75,75,0,1,1,150,75Z"/><path class="cls-2" d="M114.22,113.09v25.84a74.41,74.41,0,0,1-28.66,10.33l-.5.07a75.63,75.63,0,0,1-20.09,0l-.47-.06h0A74.37,74.37,0,0,1,37,139.69v-26.6A38.56,38.56,0,0,1,55.22,80.34,38.73,38.73,0,0,1,68,75.26a39.08,39.08,0,0,1,15.34,0,35.77,35.77,0,0,1,4.13,1.08,38.53,38.53,0,0,1,15.49,9.46c.6.6,1.18,1.22,1.73,1.86A38.42,38.42,0,0,1,114.22,113.09Z"/><polygon class="cls-3" points="75.63 76.52 76.6 81.52 74.66 81.52 75.63 76.52"/><path class="cls-2" d="M105.42,85.67c0-6.22-13.34-11.26-29.79-11.26s-29.79,5-29.79,11.26,29.79,20.69,29.79,20.69S105.42,91.9,105.42,85.67Z"/><path class="cls-1" d="M81.18,143.54a7.87,7.87,0,0,1-.36-1.77,1.72,1.72,0,0,1,.19-1,7.77,7.77,0,0,0,.55-1.92,17.18,17.18,0,0,0,0-4.42,62.8,62.8,0,0,0-2-9.39c-.87-3.16-1.85-6.34-2.8-9.54-.47-1.61-1-3.21-1.33-4.87l-1.16-5.13h0l0-.73.73-.44c4-2.52,8.11-5.13,12-7.92,1.94-1.38,3.84-2.81,5.61-4.32.88-.76,1.74-1.54,2.51-2.35A11,11,0,0,0,96.9,87.3a2.23,2.23,0,0,0,.17-.46.35.35,0,0,0,0-.12s0-.08,0-.18a3,3,0,0,0-.27-1.06,6.39,6.39,0,0,0-1.75-2.08,18.82,18.82,0,0,0-5.79-3,45.46,45.46,0,0,0-13.64-2A44.06,44.06,0,0,0,62,80.36a19.1,19.1,0,0,0-5.84,3,6.63,6.63,0,0,0-1.81,2.11A3.09,3.09,0,0,0,54,86.53a.77.77,0,0,0,0,.2.53.53,0,0,0,0,.16,2.52,2.52,0,0,0,.18.49,11.57,11.57,0,0,0,1.87,2.47,33.54,33.54,0,0,0,2.52,2.36c1.77,1.53,3.69,3,5.61,4.36,3.86,2.8,7.92,5.41,12,7.92h0l.66.66-.09.32c-.44,1.66-.58,3.29-.85,4.93s-.72,3.18-1,4.74a60.65,60.65,0,0,0-1.28,9.37c-.23,3.15-.26,6.32-.37,9.49,0,1.58-.07,3.17-.12,4.76l0,2.38c0,.8-.23,1.59-1.85,2.39-1.6-.81-1.85-1.62-1.79-2.42v-2.43c0-1.61.09-3.23.18-4.85a88,88,0,0,1,1.18-9.67,78.21,78.21,0,0,1,2.33-9.49c.48-1.54,1-3.06,1.31-4.58a9.38,9.38,0,0,0,.11-4.62l.57,1h0c-4.32-2.27-8.48-4.76-12.58-7.43-2.05-1.34-4-2.77-6-4.33a36.59,36.59,0,0,1-2.83-2.51A13.83,13.83,0,0,1,51.11,89a5.68,5.68,0,0,1-.48-1.19A4,4,0,0,1,50.5,87a4.19,4.19,0,0,1,0-.7,6.6,6.6,0,0,1,.57-2.39,9.71,9.71,0,0,1,2.73-3.46,22.48,22.48,0,0,1,7-3.68,47.68,47.68,0,0,1,14.88-2.32,46.14,46.14,0,0,1,14.9,2.24,22.36,22.36,0,0,1,7,3.68,10,10,0,0,1,2.8,3.48,6.84,6.84,0,0,1,.6,2.44,4.56,4.56,0,0,1,0,.73,3.54,3.54,0,0,1-.14.76A5.75,5.75,0,0,1,100.3,89a14.08,14.08,0,0,1-2.59,3.29,37.14,37.14,0,0,1-2.85,2.53c-1.94,1.57-4,3-6,4.36-4.1,2.68-8.27,5.16-12.6,7.44l.69-1.17h0a9.15,9.15,0,0,0,.29,4.68c.43,1.56.92,3.12,1.49,4.66,1.13,3.09,2.45,6.14,3.64,9.28A45.42,45.42,0,0,1,85.17,134a17.17,17.17,0,0,1,0,5.49,11.28,11.28,0,0,1-.92,2.81,2.3,2.3,0,0,1-1.07,1.13A2.6,2.6,0,0,1,81.18,143.54Z"/><path class="cls-4" d="M86.82,89.88c0-4.06-5-7.36-11.19-7.36s-11.2,3.3-11.2,7.36,11.2,13.51,11.2,13.51S86.82,93.94,86.82,89.88Z"/><path class="cls-5" d="M93.55,61.46H57.71c-7.33,0-12.47-6.59-11.53-14.26l.56-4.64a14.88,14.88,0,0,1,.43-2.13,7.54,7.54,0,0,0,7.21,5.31H96.87a7.55,7.55,0,0,0,7.21-5.29,13.37,13.37,0,0,1,.43,2.11l.56,4.64C106,54.87,100.87,61.46,93.55,61.46Z"/><rect class="cls-4" x="46.68" y="53.26" width="57.89" height="16.91" rx="8.46"/><path class="cls-6" d="M96.56,32.65V75.49a7.13,7.13,0,0,0-7.13-7.13H61.83a7.13,7.13,0,0,0-7.13,7.13V32.65Z"/><path class="cls-6" d="M96.56,75.49v.22a20.21,20.21,0,0,1-.1,2.07,20.93,20.93,0,0,1-41.66,0,20.21,20.21,0,0,1-.1-2.07v-.22a7.13,7.13,0,0,1,7.13-7.13h27.6A7.13,7.13,0,0,1,96.56,75.49Z"/><path class="cls-7" d="M54.7,75.71a20.21,20.21,0,0,0,.1,2.07,6.23,6.23,0,0,1-.1-1.15Z"/><path class="cls-7" d="M96.56,75.71v.92a6.23,6.23,0,0,1-.1,1.15A20.21,20.21,0,0,0,96.56,75.71Z"/><path class="cls-1" d="M66.18,75.26H85.07a3.14,3.14,0,0,1,3.14,3.14v0A11.35,11.35,0,0,1,76.86,89.75H74.39A11.35,11.35,0,0,1,63,78.4v0A3.14,3.14,0,0,1,66.18,75.26Z"/><circle class="cls-4" cx="75.63" cy="68.36" r="4.43"/><path class="cls-8" d="M104.57,38.69l-.4,1.48a2.29,2.29,0,0,1-.09.28,7.55,7.55,0,0,1-7.21,5.29H54.38a7.54,7.54,0,0,1-7.21-5.31,2,2,0,0,1-.08-.26l-.41-1.48Z"/><path class="cls-2" d="M105.63,34.81l-1.06,3.88H46.68l-1.06-3.87a10,10,0,0,1,9.61-12.6H96A10,10,0,0,1,105.63,34.81Z"/><circle class="cls-8" cx="64.54" cy="53.26" r="3.43"/><circle class="cls-8" cx="86.71" cy="53.26" r="3.43"/></svg>