<svg id="Layer_1" data-name="Layer 1" xmlns="http://www.w3.org/2000/svg" xmlns:xlink="http://www.w3.org/1999/xlink" viewBox="0 0 218.60544 115.00301"><defs><style>.cls-1,.cls-3,.cls-7,.cls-8{fill:none;}.cls-2{clip-path:url(#clip-path);}.cls-3,.cls-8{stroke:#93bd59;stroke-width:2.443px;}.cls-3,.cls-7,.cls-8{stroke-miterlimit:10;}.cls-4{fill:#444;}.cls-5{fill:#2f6e83;}.cls-6{fill:#67a0b8;}.cls-7{stroke:#444;stroke-width:7.33px;}.cls-7,.cls-8{stroke-linecap:round;}.cls-9{isolation:isolate;}.cls-10{fill:#2b6d85;}.cls-11{clip-path:url(#clip-path-2);}.cls-12{fill:#396eb5;}.cls-13{fill:#93bd59;}.cls-14{fill:#2f6e84;}</style><clipPath id="clip-path" transform="translate(-569.45955 -327.85734)"><rect class="cls-1" x="560.5" y="320.85992" width="122" height="100"/></clipPath><clipPath id="clip-path-2" transform="translate(-569.45955 -327.85734)"><rect class="cls-1" x="683.5" y="320.85992" width="122" height="100"/></clipPath></defs><g class="cls-2"><g id="Mask_Group_13" data-name="Mask Group 13"><g id="Layer_16" data-name="Layer 16"><path id="Path_236" data-name="Path 236" class="cls-3" d="M614.671,362.28393c0-12.455-11.784-18.183-21.646-18.242-10.181-.063-19.125,2.6-21.854,6.308a2.392,2.392,0,0,0-.49,1.429" transform="translate(-569.45955 -327.85734)"/><rect id="Rectangle_267" data-name="Rectangle 267" class="cls-4" x="66.78145" y="49.09459" width="32.3" height="52.757" rx="3.799"/><circle id="Ellipse_98" data-name="Ellipse 98" class="cls-4" cx="82.92945" cy="36.26759" r="12.828"/><path id="Path_237" data-name="Path 237" class="cls-5" d="M607.424,359.58693v69.329a3.7731,3.7731,0,0,1-.021.483c-.369,5.233-6.735,9.389-14.552,9.389s-14.187-4.173-14.538-9.409a1.08819,1.08819,0,0,1,0-.212v-88.048Z" transform="translate(-569.45955 -327.85734)"/><ellipse id="Ellipse_99" data-name="Ellipse 99" class="cls-5" cx="592.85637" cy="349.74771" rx="11.809" ry="21.827" transform="translate(-664.11549 -11.70948) rotate(-27.74)"/><ellipse id="Ellipse_100" data-name="Ellipse 100" class="cls-6" cx="592.85615" cy="349.74767" rx="9.788" ry="18.092" transform="translate(-664.1155 -11.70959) rotate(-27.74)"/><line id="Line_131" data-name="Line 131" class="cls-7" x1="74.02045" y1="56.62259" x2="45.21545" y2="43.54459"/><path id="Path_238" data-name="Path 238" class="cls-8" d="M570.684,351.77993c0,8.881,43.987,6.127,43.987,10.5,0,42.311,35.976,45.2,35.976,67.424" transform="translate(-569.45955 -327.85734)"/></g></g></g><g id="_1" data-name=" 1" class="cls-9"><g class="cls-9"><path class="cls-10" d="M619.00977,441.80078a.58343.58343,0,0,1,.66015-.66015h2.46v-9.72071a1.55011,1.55011,0,0,1,.02-.25976h-.04q-.06006.10107-.14013.21972a4.75391,4.75391,0,0,1-.48.54l-.89991.88086a.56688.56688,0,0,1-.91992-.02051l-.28027-.28027a.57982.57982,0,0,1,0-.93945l2.56006-2.5a1.131,1.131,0,0,1,.80029-.32032h.63965a.58324.58324,0,0,1,.66015.66016v11.74024h2.43995a.58343.58343,0,0,1,.66015.66015v.39942a.58343.58343,0,0,1-.66015.66015h-6.81983a.58343.58343,0,0,1-.66015-.66015Z" transform="translate(-569.45955 -327.85734)"/></g></g><g id="_2" data-name=" 2" class="cls-9"><g class="cls-9"><path class="cls-10" d="M755.24023,441.78027a4.4833,4.4833,0,0,1,.50977-2.18945,6.72014,6.72014,0,0,1,1.28027-1.66016,12.324,12.324,0,0,1,1.66993-1.33007q.8994-.60059,1.66992-1.19043a7.32255,7.32255,0,0,0,1.28027-1.2295,2.30794,2.30794,0,0,0,.50977-1.48046,2.18114,2.18114,0,0,0-.71-1.7002,2.90784,2.90784,0,0,0-2.71-.5,3.73663,3.73663,0,0,0-.71.33008,2.94994,2.94994,0,0,0-.54.41992,4.44866,4.44866,0,0,0-.37011.41016,1.09494,1.09494,0,0,1-.4502.29.51746.51746,0,0,1-.49023-.14942l-.35938-.28027a.59606.59606,0,0,1-.18066-.90039,6.40293,6.40293,0,0,1,.55078-.64942,4.60692,4.60692,0,0,1,.85937-.70019,5.07373,5.07373,0,0,1,1.18067-.54981,4.89711,4.89711,0,0,1,1.5293-.2207,5.32652,5.32652,0,0,1,1.78027.29,4.267,4.267,0,0,1,1.41992.82031,3.63641,3.63641,0,0,1,.92969,1.28028,4.09125,4.09125,0,0,1,.33008,1.66992,3.94863,3.94863,0,0,1-.5,2.01953,6.60868,6.60868,0,0,1-1.25,1.5498,11.48941,11.48941,0,0,1-1.62989,1.25q-.88036.561-1.63964,1.13086a7.1271,7.1271,0,0,0-1.27051,1.19922,2.30579,2.30579,0,0,0-.5293,1.43067h6.37988a.58363.58363,0,0,1,.66016.66015v.39942a.58363.58363,0,0,1-.66016.66015h-7.83984a.7695.7695,0,0,1-.5-.16015.60053.60053,0,0,1-.2002-.5Z" transform="translate(-569.45955 -327.85734)"/></g></g><g class="cls-11"><g id="Mask_Group_19" data-name="Mask Group 19"><g id="Layer_16-2" data-name="Layer 16-2"><path id="Path_287" data-name="Path 287" class="cls-4" d="M788.038,412.69492h-1.9a15.265,15.265,0,0,0-6.636-12.821,24.34492,24.34492,0,0,0-13.792-4.238h-.351c-10.631,0-18.328,2.923-20.461,5.838a1.39991,1.39991,0,0,0-.294.843h-1.927a3.318,3.318,0,0,1,.67-1.981c2.862-3.921,11.893-6.63,22.03-6.63h.339a26.391,26.391,0,0,1,14.917,4.6A17.173,17.173,0,0,1,788.038,412.69492Z" transform="translate(-569.45955 -327.85734)"/><path id="Path_288" data-name="Path 288" class="cls-12" d="M771.145,411.35691a1.31363,1.31363,0,0,1,0,.218h0Z" transform="translate(-569.45955 -327.85734)"/><path id="Path_289" data-name="Path 289" class="cls-12" d="M741.182,411.08991v.5h.024A3.40708,3.40708,0,0,1,741.182,411.08991Z" transform="translate(-569.45955 -327.85734)"/><path id="Path_290" data-name="Path 290" class="cls-12" d="M771.145,411.08991v.266A1.96117,1.96117,0,0,0,771.145,411.08991Z" transform="translate(-569.45955 -327.85734)"/><path id="Path_291" data-name="Path 291" class="cls-5" d="M770.463,328.64991c-5.938-3.116-15.428,3.23-21.2,14.225a34.021,34.021,0,0,0-4.249,15.885v71.2a3.40715,3.40715,0,0,0,.024.5c.375,5.386,6.926,9.676,14.97,9.676s14.595-4.294,14.957-9.676a1.31593,1.31593,0,0,0,0-.218v-90.6C775.197,334.46491,773.681,330.33191,770.463,328.64991Zm1.963,12.611a29.19988,29.19988,0,0,1-3.5,11.938c-4.786,9.1-12.655,14.377-17.578,11.789-2.419-1.278-3.685-4.229-3.762-7.983a28.10009,28.10009,0,0,1,3.512-13.175c4.794-9.1,12.651-14.373,17.574-11.793,2.691,1.42,3.949,4.887,3.755,9.229Z" transform="translate(-569.45955 -327.85734)"/><path id="Path_292" data-name="Path 292" class="cls-6" d="M772.427,341.26591a29.19988,29.19988,0,0,1-3.5,11.938c-4.781,9.099-12.647,14.379-17.573,11.788-2.419-1.278-3.685-4.229-3.762-7.983a28.1,28.1,0,0,1,3.512-13.175c4.794-9.099,12.651-14.373,17.576-11.793C771.367,333.45691,772.621,336.92391,772.427,341.26591Z" transform="translate(-569.45955 -327.85734)"/><path id="Path_293" data-name="Path 293" class="cls-4" d="M787.075,413.65392a.956.956,0,0,1-.951-.843c-.177-.169-1.008-.7-4.717-1.209-2.822-.4-6.543-.689-10.482-1-13.893-1.1-28.262-2.238-28.262-8.281a.964.964,0,1,1,1.923,0c0,1.209,1.435,2.911,8.273,4.282a164.7,164.7,0,0,0,18.216,2.08c4.318.343,8.4.665,11.365,1.125,3.358.52,5.6,1.21,5.6,2.891A.964.964,0,0,1,787.075,413.65392Z" transform="translate(-569.45955 -327.85734)"/><rect id="Rectangle_290" data-name="Rectangle 290" class="cls-13" x="183.97845" y="46.85558" width="13.155" height="5.681" rx="1.885"/><path id="Path_294" data-name="Path 294" class="cls-4" d="M788.038,441.85992h-1.9v-29.165c0-4.943-4.765-5.584-12.607-6.047-3.4-.2-6.906-.4-9.579-1.387-3.225-1.181-4.838-3.4-4.838-6.6h1.923c0,4.955,4.769,5.6,12.627,6.068,3.391.2,6.9.4,9.563,1.387,3.225,1.177,4.838,3.391,4.838,6.584Z" transform="translate(-569.45955 -327.85734)"/><rect id="Rectangle_291" data-name="Rectangle 291" class="cls-14" x="185.39745" y="48.22158" width="10.317" height="2.939" rx="0.891"/><path id="Path_295" data-name="Path 295" class="cls-13" d="M764.558,390.22291v5.471a2.987,2.987,0,0,1-2.987,2.987h-3.113a2.987,2.987,0,0,1-2.987-2.987v-5.471a.4.4,0,0,1,.4-.4h8.281a.4.4,0,0,1,.4.4h.006Z" transform="translate(-569.45955 -327.85734)"/><path id="Path_296" data-name="Path 296" class="cls-4" d="M760.014,381.98191l2.54,1.782a.722.722,0,0,0,1.093-.847l-.04-.081-1.453-2.515-1.451-2.516a.806.806,0,0,0-1.371,0l-1.451,2.516-1.455,2.516a.79773.79773,0,0,0-.044.081.722.722,0,0,0,1.1.847Z" transform="translate(-569.45955 -327.85734)"/><path id="Path_297" data-name="Path 297" class="cls-4" d="M760.014,388.79491a1.044,1.044,0,0,1-1.044-1.04v-5.773a1.044,1.044,0,0,1,2.084,0v5.773a1.04,1.04,0,0,1-1.04,1.04Z" transform="translate(-569.45955 -327.85734)"/><rect id="Rectangle_292" data-name="Rectangle 292" class="cls-14" x="186.82045" y="63.07458" width="7.471" height="3.447" rx="0.35"/></g></g></g></svg>