<svg xmlns="http://www.w3.org/2000/svg" viewBox="0 0 147.44 132.79"><defs><style>.cls-1{fill:#93be59;}</style></defs><g id="Layer_13" data-name="Layer 13"><path class="cls-1" d="M29.67,14.56V118.23a6.14,6.14,0,0,1-6.14,6.15h-8a6.15,6.15,0,0,1-6.15-6.15V14.56a6.14,6.14,0,0,1,6.15-6.14h8A6.14,6.14,0,0,1,29.67,14.56Z"/><path class="cls-1" d="M83.89,54.06v64.17a6.14,6.14,0,0,1-6.14,6.15h-8a6.15,6.15,0,0,1-6.15-6.15V54.06a6.14,6.14,0,0,1,6.15-6.14h8A6.14,6.14,0,0,1,83.89,54.06Z"/><path class="cls-1" d="M56.78,72.54v45.69a6.14,6.14,0,0,1-6.14,6.15h-8a6.14,6.14,0,0,1-6.14-6.15V72.54a6.14,6.14,0,0,1,6.14-6.14h8A6.14,6.14,0,0,1,56.78,72.54Z"/><path class="cls-1" d="M111,101.53v16.7a6.14,6.14,0,0,1-6.14,6.15h-8a6.14,6.14,0,0,1-6.14-6.15v-16.7a6.14,6.14,0,0,1,6.14-6.14h8A6.14,6.14,0,0,1,111,101.53Z"/><path class="cls-1" d="M138.1,35.52v82.71a6.15,6.15,0,0,1-6.15,6.15h-8a6.14,6.14,0,0,1-6.14-6.15V35.52a6.14,6.14,0,0,1,6.14-6.14h8A6.14,6.14,0,0,1,138.1,35.52Z"/></g></svg>