<svg xmlns="http://www.w3.org/2000/svg" viewBox="0 0 147.44 132.79"><defs><style>.cls-1{fill:#2f6e84;}.cls-2{fill:#fff;}</style></defs><g id="Layer_15" data-name="Layer 15"><path class="cls-1" d="M97,54.85c-1,2.27-1.8,4.53-2.66,6.8l-2.46,6.79C90.31,73,88.8,77.5,87.41,82s-2.81,9.06-4.08,13.59-2.55,9-3.64,13.58a6.13,6.13,0,0,1-11.92,0c-1.08-4.53-2.33-9-3.65-13.58S61.47,86.56,60.05,82,57.15,73,55.58,68.44l-2.45-6.79c-.87-2.27-1.72-4.53-2.67-6.8a25.24,25.24,0,1,1,46.54,0Z"/><circle class="cls-2" cx="73.72" cy="43.64" r="9.84"/></g></svg>