<svg id="Layer_1" data-name="Layer 1" xmlns="http://www.w3.org/2000/svg" viewBox="0 0 385.79 131.3"><defs><style>.cls-1{fill:#96bcce;}.cls-2{fill:#64a0ba;}.cls-3,.cls-4{fill:#97bcce;}.cls-3{fill-rule:evenodd;}</style></defs><g id="Aafart---forside"><g id="Footer"><g id="Footer-graphic"><g id="Wave---hero"><g id="bølgen"><path id="Shape" class="cls-1" d="M-305.57,101.42l2.1,23.78c262,18.92,572.18-28.39,693.66,6.1l-2.1-23.78c-129.18-22.58-522,28.46-693.66-6.1"/></g><g id="bølgen-copy"><path id="Shape-2" class="cls-2" d="M-306,116.19l2.09,23.72c262,18.82,572.17-28.44,693.65,5.94l-2.1-23.72c-129.18-22.49-522,28.5-693.64-5.94"/></g></g><g id="Svane"><path id="Path-167" class="cls-3" d="M222.72,83.57A4.26,4.26,0,0,1,227,87.34c.39,4.46-4.11,4.13-5.6,6.77a6.32,6.32,0,0,0-.34,5.14,7.32,7.32,0,0,1,4.74-4.78c6.9-2.15,8.36,4.42,12.36,4.26a2.6,2.6,0,0,1-1.27,1.09,2.67,2.67,0,0,0,3.14-.5,2.62,2.62,0,0,1-2.38,2.2,2,2,0,0,0,2.15.31,4.19,4.19,0,0,0,1.65-1.17c.06,2.72-3.65,5.65-8.17,5.93-2.78.17-9.72.82-12-.5A7.77,7.77,0,0,1,217.65,99c.16-6.9,4.09-6.85,6.79-9.9,1-1.17,0-3.58-1.74-2.93A4.7,4.7,0,0,0,221,87.58c-1.27.8-1.9-.68-1.34-1.91A3.45,3.45,0,0,1,222.72,83.57Z"/><path id="Path-168" class="cls-3" d="M221.46,86a1.88,1.88,0,0,0-.24.25c0,.72-.72.12-.57,1.25.08.24.46.45.14.64-.68.58-1.22,0-1.54-.51s-.31-1.15.15-1.42c.1,0,.26.11.4.15a1.43,1.43,0,0,0,.58.16c.4,0,.1-.6.75-.39a.47.47,0,0,0,.34-.13Z"/><path id="Path-169" class="cls-3" d="M221,86.36s-.13.15,0,.15S221.05,86.35,221,86.36Z"/><path id="Path-170" class="cls-3" d="M219.35,86.93a3.4,3.4,0,0,1-.38.85c-.75,1.12-1.52,1.33-1.27,1.88.41.47,2.32-.77,2.77-1.72.05-.1,0,0,0-.11,0-.29-.3-.13-.56-.21s-.49-.87-.59-.69Z"/></g><g id="graes"><path id="Path-171" class="cls-4" d="M253.22,111.55s-.39-12.08-3.09-15c0,0,2.63,1.81,3.52,6.61,0,0-1.24-5.44,2.13-8.86,0,0-3,4.77.14,11,0,0-1.2-3.51.15-5.68,0,0-.43,4.1,1.3,5.48,0,0,.71-5.69-.71-8a12.54,12.54,0,0,1,2.18,6.91s-.3-3.31.87-4c0,0-.94,1.36.23,4.36,0,0-.48-6.09,2.21-6.68a6.53,6.53,0,0,0-.56,6.59s2.11-6.45.37-10.26a14.57,14.57,0,0,1,2.05,9.18s.42-5.37,2.05-7.11c0,0-1.49,4.35-.65,7,0,0,2.69-5.56,1.37-9,0,0,2.39,6.45.84,11,0,0,2.34-3.63,1.22-6.82a9.9,9.9,0,0,1,.55,6.35s.51-3.14,1.6-3a2,2,0,0,0,.22,2.82,1.66,1.66,0,0,0,.21.16s1.28-3.64-.32-6a5.73,5.73,0,0,1,1.68,5.59s1.83-5-.18-8.2a10,10,0,0,1,1.55,7.55s.8-5.33,2.4-6.37c0,0-1.81,3.09-.52,5.83,0,0,.92-.57.7-2.44a5.35,5.35,0,0,1,.51,3.78s1.65-3.73.46-5.9c0,0,1.81,3,1.1,5.37,0,0,1.73-5.9-1.07-9.51a12.71,12.71,0,0,1,2.58,9s.11-4.09,1.23-4.57c0,0-.76,3.84.24,4.75,0,0,2.17-4.45.89-8.66,0,0,1.49,2.92.8,8.06,0,0,0-4.15,2.09-4.83a4.22,4.22,0,0,0-.43,5.06s3.06-4.83.22-9.26a12.15,12.15,0,0,1,1.9,9.53s2.83-4.3,1.48-7a10.22,10.22,0,0,1,.88,6.59s.49-3.33,1.6-4.16a4.4,4.4,0,0,0,.93,4.42,3.73,3.73,0,0,0,.24-3.08,3.69,3.69,0,0,1,.87,3.53s1.45-5.75-2-9.53c0,0,4,2.86,3,9.09,0,0,.53-5.7,3.67-4.14,0,0-3-.74-1.94,4.24,0,0,1.67-1.11.93-2.72a1.67,1.67,0,0,1,1.13,2.07,1.86,1.86,0,0,1-.2.43s2.36-4.19-.75-7.7c0,0,3,2,2.08,7,0,0,.68-4,2.25-4.45,0,0-1.15,1.08-.64,3.6a5.15,5.15,0,0,0,.85-5.46s1.69,2,.68,6.27c0,0,.93-4.77,3.17-4.5,0,0-2.48,2.26-2.21,10.83l-50.1,2.62Z"/><path id="Path-172" class="cls-4" d="M304.66,99.8a11.43,11.43,0,0,1-2,1.92,6.87,6.87,0,0,0-.19.68c.05-.22.09-.43.13-.64-7.62,5.9-25.91,8.26-37.93,9.19l38.71-2C303.28,104.12,304,101.33,304.66,99.8Z"/></g><g id="graes-copy-3"><path id="Path-173" class="cls-4" d="M285.23,111.64s-.39-12.08-3.08-15c0,0,2.62,1.82,3.51,6.62,0,0-1.24-5.45,2.14-8.86,0,0-3,4.76.13,11,0,0-1.2-3.51.15-5.68,0,0-.42,4.1,1.31,5.48,0,0,.71-5.69-.71-8a12.73,12.73,0,0,1,2.18,6.91s-.3-3.31.87-4c0,0-1,1.36.23,4.36,0,0-.49-6.09,2.2-6.68a6.57,6.57,0,0,0-.55,6.6s2.1-6.46.36-10.27a14.52,14.52,0,0,1,2.06,9.18s.42-5.37,2-7.11c0,0-1.49,4.35-.65,7,0,0,2.7-5.56,1.38-9,0,0,2.38,6.45.83,11,0,0,2.35-3.62,1.23-6.82a9.9,9.9,0,0,1,.55,6.35s.51-3.14,1.6-3a2,2,0,0,0,.22,2.82l.2.15s1.29-3.64-.31-6a5.76,5.76,0,0,1,1.68,5.59s1.83-5-.18-8.2a10,10,0,0,1,1.54,7.55s.81-5.32,2.41-6.37c0,0-1.81,3.09-.53,5.83,0,0,.93-.57.7-2.44a5.35,5.35,0,0,1,.51,3.78s1.66-3.73.46-5.89c0,0,1.81,3,1.11,5.36,0,0,1.73-5.9-1.07-9.51a12.77,12.77,0,0,1,2.58,9s.1-4.1,1.22-4.57c0,0-.75,3.83.25,4.74,0,0,2.17-4.45.88-8.66,0,0,1.49,2.92.81,8.06,0,0,0-4.15,2.08-4.83a4.21,4.21,0,0,0-.42,5.06s3.05-4.82.22-9.26a12.24,12.24,0,0,1,1.9,9.53s2.83-4.29,1.48-7a10.22,10.22,0,0,1,.88,6.59s.49-3.33,1.59-4.16a4.4,4.4,0,0,0,.93,4.42,3.63,3.63,0,0,0,.24-3.07,3.61,3.61,0,0,1,.87,3.52s1.45-5.75-2-9.52c0,0,4,2.85,3,9.08,0,0,.53-5.7,3.66-4.14,0,0-3-.74-1.94,4.24,0,0,1.67-1.11.93-2.72A1.66,1.66,0,0,1,330.1,103a1.82,1.82,0,0,1-.19.43s2.35-4.19-.76-7.7c0,0,3,2,2.09,7,0,0,.68-4,2.24-4.45,0,0-1.15,1.08-.64,3.6a5.15,5.15,0,0,0,.86-5.46s1.68,2,.67,6.27c0,0,.94-4.77,3.17-4.5,0,0-2.47,2.26-2.2,10.83l-50.11,2.62Z"/><path id="Path-174" class="cls-4" d="M336.68,99.89a11.13,11.13,0,0,1-2,1.92c-.08.27-.14.51-.18.68,0-.22.09-.43.12-.64-7.62,5.9-25.9,8.26-37.93,9.19l38.72-2C335.3,104.22,336,101.42,336.68,99.89Z"/></g><g id="graes-copy-4"><path id="Path-175" class="cls-4" d="M335.28,111.89s1.29-12-1-15.33c0,0,2.35,2.16,2.56,7,0,0-.47-5.56,3.35-8.47,0,0-3.63,4.3-1.4,10.94,0,0-.71-3.64.93-5.6,0,0-1,4,.53,5.6,0,0,1.5-5.53.41-8a12.62,12.62,0,0,1,1.19,7.15s.17-3.32,1.42-3.81c0,0-1.13,1.22-.38,4.35,0,0,.37-6.1,3.12-6.31a6.53,6.53,0,0,0-1.47,6.46s3-6.1,1.79-10.12a14.54,14.54,0,0,1,.75,9.38s1.17-5.27,3-6.76c0,0-2.08,4.1-1.62,6.82,0,0,3.45-5.13,2.61-8.72,0,0,1.47,6.72-.7,11.06,0,0,2.83-3.26,2.16-6.58a9.91,9.91,0,0,1-.34,6.36s.94-3,2-2.7a2,2,0,0,0-.18,2.82,1.53,1.53,0,0,0,.18.18s1.78-3.42.52-6a5.77,5.77,0,0,1,.89,5.77s2.51-4.73,1-8.15a10,10,0,0,1,.48,7.69s1.54-5.16,3.27-6c0,0-2.23,2.81-1.33,5.7,0,0,1-.44,1-2.31a5.35,5.35,0,0,1,0,3.8s2.16-3.45,1.28-5.77c0,0,1.37,3.19.35,5.47,0,0,2.52-5.6.26-9.57a12.78,12.78,0,0,1,1.29,9.32s.67-4,1.85-4.36c0,0-1.28,3.7-.41,4.74,0,0,2.76-4.11,2.07-8.46,0,0,1.07,3.1-.32,8.09,0,0,.59-4.1,2.74-4.49a4.2,4.2,0,0,0-1.12,5s3.69-4.35,1.5-9.14a12.21,12.21,0,0,1,.55,9.71s3.4-3.86,2.44-6.69a10.14,10.14,0,0,1,0,6.64s1-3.23,2.16-3.89a4.37,4.37,0,0,0,.31,4.5,3.68,3.68,0,0,0,.66-3,3.63,3.63,0,0,1,.37,3.61s2.24-5.49-.63-9.71c0,0,3.54,3.38,1.74,9.42,0,0,1.32-5.57,4.2-3.59,0,0-2.83-1.14-2.51,3.93,0,0,1.81-.87,1.3-2.57a1.68,1.68,0,0,1,.84,2.21,2.11,2.11,0,0,1-.26.4s2.91-3.81.32-7.73c0,0,2.66,2.43,1.1,7.22,0,0,1.23-3.86,2.84-4.1,0,0-1.29.91-1.13,3.48a5.17,5.17,0,0,0,1.6-5.3s1.39,2.23-.2,6.31c0,0,1.58-4.59,3.76-4,0,0-2.76,1.9-3.68,10.42l-50-4.37Z"/><path id="Path-176" class="cls-4" d="M387.86,107.41a11.4,11.4,0,0,1-2.2,1.63c-.12.26-.21.48-.28.64.08-.2.15-.41.21-.61-8.36,4.78-26.8,4.57-38.84,3.82l38.62,3.38C385.89,111.5,387,108.83,387.86,107.41Z"/></g><g id="trae1"><g id="Group-8"><path id="Path-177" class="cls-4" d="M285.44,71.77s-6.89,5-11.46-1.71c0,0-7.63,1.9-9.34-5.14,0,0-9.16-.76-8.78-7.81,0,0-11.05-5.33-3.81-15.42,0,0-7.05-6.28.95-13.33,0,0-6.1-9.14,4.58-11.8,0,0,1-10.85,11.63-8.38,0,0,2.86-9.13,13.16-5.71,0,0,9.25-6.86,14.49,2.29,0,0,10.1-1.33,12,7,0,0,9.72,1.34,8.77,11.05,0,0,7.46,6.85,2.7,15,0,0,4.75,13.63-5.56,14.85a9.37,9.37,0,0,1-5.77,8.7s-1.09,7.29-7.57,6.14c0,0-5,5.53-8.58,2.48Z"/><path id="Path-178" class="cls-4" d="M317.64,22.84c.95-9.71-8.77-11-8.77-11,4.84,20.93-7,47.72-25.36,50.1s-27.65-4.79-27.65-4.79c-.38,7,8.78,7.8,8.78,7.8,1.71,7,9.34,5.14,9.34,5.14,4.57,6.67,11.46,1.72,11.46,1.72l7.41-1.72c3.63,3,8.58-2.47,8.58-2.47,6.48,1.14,7.57-6.15,7.57-6.15a9.37,9.37,0,0,0,5.78-8.7c10.31-1.22,5.55-14.85,5.55-14.85C325.1,29.69,317.64,22.84,317.64,22.84Z"/></g><path id="Path-179" class="cls-4" d="M273.84,54s10.86,1.1,11.64,6.64-1.16,50.18-1.16,50.18H296s-5-50.18-3.3-53.82S300,51.29,300,51.29s-6.4-.16-8.54,1.74a9,9,0,0,1-7.76,1.9C280.82,54.45,277.91,53.66,273.84,54Z"/></g><g id="trae1-copy-2"><g id="Group-9"><path id="Path-180" class="cls-4" d="M370.34,84s-4,2.88-6.67-1c0,0-4.44,1.1-5.44-3,0,0-5.32-.44-5.1-4.53,0,0-6.43-3.1-2.21-9,0,0-4.1-3.65.55-7.74,0,0-3.55-5.31,2.66-6.86,0,0,.56-6.3,6.77-4.86,0,0,1.66-5.31,7.65-3.32,0,0,5.38-4,8.43,1.33,0,0,5.88-.77,7,4.09,0,0,5.65.77,5.1,6.41,0,0,4.34,4,1.57,8.74,0,0,2.76,7.91-3.24,8.62A5.41,5.41,0,0,1,384,78s-.63,4.23-4.4,3.57c0,0-2.88,3.21-5,1.44Z"/><path id="Path-181" class="cls-4" d="M389.07,55.58c.55-5.64-5.1-6.41-5.1-6.41,2.81,12.15-4.07,27.71-14.75,29.09s-16.09-2.78-16.09-2.78c-.22,4.09,5.1,4.53,5.1,4.53,1,4.09,5.44,3,5.44,3,2.66,3.86,6.67,1,6.67,1l4.31-1c2.11,1.76,5-1.44,5-1.44,3.77.66,4.4-3.57,4.4-3.57a5.45,5.45,0,0,0,3.36-5.06c6-.7,3.23-8.62,3.23-8.62C393.41,59.56,389.07,55.58,389.07,55.58Z"/></g><path id="Path-182" class="cls-4" d="M363.47,73.79s6.32.63,6.77,3.82-.67,28.91-.67,28.91h6.77s-2.94-28.91-1.92-31,4.29-3.28,4.29-3.28-3.73-.09-5,1a5.28,5.28,0,0,1-4.51,1.09A21.45,21.45,0,0,0,363.47,73.79Z"/></g><g id="trae2"><g id="Group-10"><path id="Path-183" class="cls-4" d="M360.8,34.67c-2.55-9.06-11-13.27-18.62-13.3-3.07-7.87-13.27-12.16-21.55-9-9.6,3.67-12.2,14.36-9.76,21.87h0A15.8,15.8,0,0,0,303.53,41c-4.32,7.5,1.25,17.51,9.62,19.35,7.65,1.68,13.93-3.39,16.3-9.11a20.35,20.35,0,0,0,14.82,6.52C355.66,58.12,363.85,45.48,360.8,34.67Z"/><path id="Path-184" class="cls-4" d="M341.18,48.42a15.42,15.42,0,0,1-11.28-3s-4.88,5.28-14.65,6c-9.05.68-12.67-5-13.15-5.9-.66,6.54,4.28,13.38,11.06,14.87,7.64,1.69,13.92-3.38,16.3-9.11a20.32,20.32,0,0,0,14.81,6.52c11.4.34,19.58-12.3,16.53-23.11-2.55-9.06-11-13.27-18.62-13.3C356,31.29,348.32,47.74,341.18,48.42Z"/></g><path id="Path-185" class="cls-4" d="M326.82,106.52s1.4-48.48,1-50.15-5.41-9.31-5.41-9.31,6.41,6.92,7,4.06,1.8-24.6,1.8-24.6.4,22,2,21.73,8.22-8.84,8.22-8.84-7.62,11.47-7.62,15.77.6,51.33.6,51.33h-7.61Z"/></g><g id="trae2-copy"><g id="Group-11"><path id="Path-186" class="cls-4" d="M335.09,34.67c-2.55-9.06-11-13.27-18.62-13.3-3.07-7.87-13.28-12.16-21.55-9-9.6,3.67-12.2,14.36-9.76,21.87h0A15.75,15.75,0,0,0,277.82,41c-4.32,7.5,1.25,17.51,9.62,19.35,7.65,1.68,13.93-3.39,16.3-9.11a20.33,20.33,0,0,0,14.81,6.52C330,58.12,338.13,45.48,335.09,34.67Z"/><path id="Path-187" class="cls-4" d="M315.47,48.42a15.42,15.42,0,0,1-11.28-3s-4.89,5.28-14.65,6c-9.05.68-12.67-5-13.16-5.9-.66,6.54,4.28,13.38,11.06,14.87,7.65,1.69,13.93-3.38,16.3-9.11a20.35,20.35,0,0,0,14.81,6.52c11.4.34,19.58-12.3,16.54-23.11-2.55-9.06-11-13.27-18.62-13.3C330.24,31.29,322.61,47.74,315.47,48.42Z"/></g><path id="Path-188" class="cls-4" d="M301.11,106.52s1.4-48.48,1-50.15-5.42-9.31-5.42-9.31,6.42,6.92,7,4.06,1.8-24.6,1.8-24.6.4,22,2,21.73,8.22-8.84,8.22-8.84-7.62,11.47-7.62,15.77.6,51.33.6,51.33h-7.61Z"/></g><g id="Group-82"><path id="Fill-1" class="cls-3" d="M182,87.09c2.43,6.76-6.74,20.76-13.82,20.76H112.4c-7.08,0-14.31-14-11.88-20.76l5.09-5a12,12,0,0,0,11.88,12.11H165a12,12,0,0,0,11.88-12.11Z"/><path id="Fill-3" class="cls-3" d="M186.52,87.61a14,14,0,0,1,0,19.53,13.46,13.46,0,0,1-9.63,4H105.54a13.71,13.71,0,0,1-13.6-13.81h0a13.7,13.7,0,0,1,13.59-13.81h0l-1.82,5.09a10.4,10.4,0,0,0,6.1,13.27,9.93,9.93,0,0,0,3.49.63h55.83a10.28,10.28,0,0,0,10.2-10.36h0a10.71,10.71,0,0,0-.61-3.54l-1.82-5.09a13.52,13.52,0,0,1,9.61,4"/><path id="Fill-5" class="cls-3" d="M131.94,112.62a4.07,4.07,0,0,1,5.74-.46,3.92,3.92,0,0,1,.45.46"/><path id="Fill-7" class="cls-3" d="M176.65,109.65h-31.8l5.09-5.15h19a12.06,12.06,0,0,0,11.17-16.16l-.89-2.48a12,12,0,0,1-2.53,23.79Zm-52.41-5.15h20.9l-5.1,5.15h-20.9Zm-30.8-6.88a12,12,0,0,1,9.36-11.76l-.89,2.48A12.07,12.07,0,0,0,109,103.77a11.75,11.75,0,0,0,4.06.73h6.36l-5.1,5.15h-9A12,12,0,0,1,93.44,97.62Zm23.78,0h9l-3.4,3.44h-9.75a8.53,8.53,0,0,1-8.48-8.58h0a8.29,8.29,0,0,1,.4-2.62,13.56,13.56,0,0,0,12.21,7.76Zm34.72,0-3.4,3.44h-20.9l3.4-3.44Zm12.83,0A13.56,13.56,0,0,0,177,89.86a8.61,8.61,0,0,1-5.49,10.79,8.4,8.4,0,0,1-2.59.41H153.34l3.4-3.44Zm-9.44-3.44Zm-25.7,0H117.21A10.27,10.27,0,0,1,107,83.86a1.71,1.71,0,0,0-1.7-1.72h0a15.48,15.48,0,0,0,0,31Zm-13.89,18.91Zm25.7,0h35.21a15.48,15.48,0,0,0,0-30.95,1.72,1.72,0,0,0-1.7,1.72h0a10.27,10.27,0,0,1-10.19,10.32h-4.63Z"/><path id="Fill-9" class="cls-3" d="M142.44,90.09c2.26-4,1.15-4.48,1.64-5s0-2,0-2c-1.43.13-2.54-.36-3,1.12,0,0-.82,6.61-.82,6.7s-2.6,4-2.6,4,1.2-.64,1.42,1l2.82-3.15Z"/><path id="Fill-11" class="cls-3" d="M149.87,82.67s1.61.28,1.93.78c.23.35,1.57,9.61,1.57,9.61l-.77,1.46L150.78,94s-.77-7.83-1.37-8.5c-.42-.47-.59-3.26.46-2.8"/><path id="Fill-13" class="cls-3" d="M149.15,93.88c.28-1.71,1.52-10.87,1.35-11a14.34,14.34,0,0,0-4.55-.72,14.87,14.87,0,0,0-4,1.27c.17,1,1,8.66,1.22,10.35,1.82,1.64,3.91,1.6,6,.1"/><path id="Fill-15" class="cls-3" d="M144.28,82.63s-.19,4.75,0,6c.34,2.68-.63,8.77-.43,9.5s-2.35-.6-2.82-1c-.11-.1,1-4.68,1.14-5.08,0,0-.74-3.06-.73-3.25.11-1.18.12-5.13.12-5.13.5-.24,2.94-1.09,2.75-1"/><path id="Fill-17" class="cls-3" d="M144.73,82.14a6,6,0,0,0-1.31.39,6,6,0,0,0-.59,1.46,7.94,7.94,0,0,0,1.14.45s-1.43.64-1.55,1.08,1.93,6.14,1.93,6.14a73.79,73.79,0,0,0,.38-9.52"/><path id="Fill-19" class="cls-3" d="M143.37,82a12.48,12.48,0,0,1,2.42-.34,14.69,14.69,0,0,1,2.81.18,22.31,22.31,0,0,1-2.66,1.71s-2.3-1.37-2.57-1.56"/><path id="Fill-21" class="cls-3" d="M144.38,81.84l-.06,1.73,1.44-.4.94.36-1.35-1.59.31-.18,0-.57s-1.21.36-1.24.65"/><path id="Fill-23" class="cls-3" d="M145.28,82A2.66,2.66,0,0,0,147,82l.63-.16-.16-4.48-2.16.22-.06,4.34v0"/><path id="Fill-25" class="cls-3" d="M141.48,76.15c.14,2.77,2.18,6,4.34,6,2.72-.06,4.35-3.63,4.21-6.4a4.77,4.77,0,0,0-5-4.55H145c-2.59.1-3.67,2.19-3.53,5"/><path id="Fill-27" class="cls-3" d="M144.47,77.38s.07,0,.1,0c-.3.33-.6.82-.54,1s.39.23.77.15l0,.05c-.15.12-.79.38-.9,0s.62-1.21.6-1.21"/><path id="Fill-29" class="cls-3" d="M147.18,77.35a.45.45,0,0,1-.39.5h0a.51.51,0,0,1-.53-.45.44.44,0,0,1,.39-.49h0a.52.52,0,0,1,.53.45"/><path id="Fill-31" class="cls-3" d="M143.84,77.81a.43.43,0,0,1-.33.51h-.06a.53.53,0,0,1-.55-.43.43.43,0,0,1,.33-.51h.05a.52.52,0,0,1,.55.44"/><path id="Fill-33" class="cls-3" d="M145.75,75.32A4,4,0,0,1,146.8,75a4.11,4.11,0,0,1,.86.08l-.09.37a2.09,2.09,0,0,1-.65.13,3.37,3.37,0,0,0-1,.37Z"/><path id="Fill-35" class="cls-3" d="M143.85,76a7.73,7.73,0,0,0-1.08.07,7.84,7.84,0,0,0-.83.23l.16.18a3.72,3.72,0,0,0,.66-.08,6.26,6.26,0,0,1,1.06,0Z"/><path id="Fill-37" class="cls-3" d="M149.38,73.29h0l-.08.09Z"/><path id="Fill-39" class="cls-3" d="M149.56,73.14l-.48.39a2.28,2.28,0,0,0,.48-.39"/><path id="Fill-41" class="cls-3" d="M148.69,76.51c-.16.67-.1,1.16.33,1.31a1.27,1.27,0,0,0,1.44-.84c.16-.67-.05-1.33-.48-1.48s-1.13.35-1.29,1"/><path id="Fill-43" class="cls-3" d="M146.53,79.76a2.6,2.6,0,0,1-1.16.43,3.11,3.11,0,0,1-1,0c0,.11,0,.2,0,.31a.81.81,0,0,1,0,.15,3.1,3.1,0,0,0,1.05.06l.11,0a2.54,2.54,0,0,0,1.22-.5Z"/><path id="Fill-45" class="cls-3" d="M150.45,74.31s.19,1.64-.09,1.8a2.27,2.27,0,0,0-.64.8A8.59,8.59,0,0,0,148.14,74c-.92-.88-.56-.59-.8-.93a2.38,2.38,0,0,1,0-1.6c.12-.23,1.1-.57,2.17.37a3.89,3.89,0,0,1,1,2.5"/><g id="Group-49"><path id="Fill-47" class="cls-3" d="M146.69,72.83a7.82,7.82,0,0,0-4.16,1.83,6.58,6.58,0,0,0-1.54,2,4.07,4.07,0,0,1-.7-3.22c.64-1.46,1.11-2.75,2.83-3.25s3.49-.47,4.37.39c.15.14-.74,2.05-.8,2.2"/></g><path id="Fill-50" class="cls-3" d="M147.66,71.19l-.49,1.9L146.7,73Z"/><path id="Fill-52" class="cls-3" d="M144.8,98.61a4.28,4.28,0,0,0,1,1.63,64.68,64.68,0,0,0,6-5,5.2,5.2,0,0,0,1.06-2.64l-1.57.55s-1.45,1-2.83,1.94c-.23.17-.79.83-3.69,3.5"/><path id="Fill-54" class="cls-3" d="M148.84,74.52s-.65,5.44-1.66,6.67a1.21,1.21,0,0,0,.65-.32,33.31,33.31,0,0,0,1.73-6.25Z"/><path id="Fill-56" class="cls-3" d="M115.75,86.81c2.86,1.21,3.33.3.39-1s-3.9-5-8.15-6.82l-6.67-2.83a1.88,1.88,0,0,0-2.42.45,8.49,8.49,0,0,0-1.71,4.14,1.82,1.82,0,0,0,1.38,2.07s2.27,1,6.63,2.82,7.69-.1,10.55,1.12"/><path id="Fill-58" class="cls-3" d="M115.81,86.34c2.8,1.18,3.25.33.37-.88s-3.86-4.77-8-6.51l-6.53-2.75a1.86,1.86,0,0,0-2.35.4,7.7,7.7,0,0,0-1.62,3.87c0,1.14.38,1.55,1.38,2,0,0,2.22,1,6.49,2.72s7.48,0,10.28,1.18"/><path id="Fill-60" class="cls-3" d="M112.57,83a13.19,13.19,0,0,0-4.81-3.89l-6-2.49A1.72,1.72,0,0,0,99.6,77a6.79,6.79,0,0,0-1.46,3.48c0,1,.34,1.39,1.26,1.77,0,0,2,.93,6,2.48a13.91,13.91,0,0,0,6.07.7,1.51,1.51,0,0,0,1.44-1.57,1.47,1.47,0,0,0-.3-.83"/><path id="Fill-62" class="cls-3" d="M112.16,83.46c-1.28-1.31-2.6-3-5-4l-5.61-2.33a1.6,1.6,0,0,0-2,.32,6.36,6.36,0,0,0-1.37,3.26c0,1,.32,1.3,1.18,1.66,0,0,1.91.87,5.58,2.32a15.54,15.54,0,0,0,6.46.77,1.25,1.25,0,0,0,1-1.44,1.23,1.23,0,0,0-.23-.54"/><path id="Fill-64" class="cls-3" d="M99.17,79.09a.15.15,0,0,1-.07-.19.14.14,0,0,1,.18-.08h0l12.58,5.43a.14.14,0,0,1-.11.26h0Z"/><path id="Fill-66" class="cls-3" d="M99.16,80.5a.13.13,0,0,1-.06-.17h0a.13.13,0,0,1,.17-.07l11.17,4.49a.12.12,0,0,1,.06.17h0a.13.13,0,0,1-.17.08Z"/><path id="Fill-68" class="cls-3" d="M99.61,81.47s-.06-.1,0-.17.09-.13.14-.1l7.9,3.52s0,.1,0,.17-.09.13-.14.1Z"/><path id="Fill-70" class="cls-3" d="M99.63,78.59a.12.12,0,0,1,0-.16.12.12,0,0,1,.16-.08l11.18,4.49A.12.12,0,0,1,111,83h0a.15.15,0,0,1-.17.08Z"/><path id="Fill-72" class="cls-3" d="M101.51,77.66a.13.13,0,0,1,0-.17c0-.08.09-.13.13-.1l7.9,3.52s.06.1,0,.17-.09.13-.14.1Z"/><path id="Fill-74" class="cls-3" d="M112.9,85.12c.17-.5,2.83.65,2.83.65L141,96.47l-.37.9L115.41,86.7s-2.68-1.08-2.51-1.58"/><path id="Fill-76" class="cls-3" d="M139.24,98.29c-.38-.18-.15-1.76-1.11-2.21,0-.15.93.1,1,0s-.72-.72-.65-.87c.95.46,1.77-.8,2.14-.62s.5,1.23.13,2.26-1.05,1.7-1.5,1.49"/><path id="Fill-78" class="cls-3" d="M140.51,94.89c.4.2.47,1.08.17,2a1.22,1.22,0,0,0,.07-.17c.36-1,.31-2-.11-2.19s-1.13,1-2,.6c0,.07.16.26.34.45.7,0,1.27-.84,1.56-.7"/><path id="Fill-80" class="cls-3" d="M140.93,96.75l.06-.17c-.42,1-1.09,1.58-1.54,1.37s-.23-1.31-.77-2c-.26,0-.53-.06-.55,0,1,.47.78,2.1,1.19,2.29s1.2-.47,1.61-1.54"/></g></g></g></g></svg>