<svg xmlns="http://www.w3.org/2000/svg" width="697.582" height="206.563" viewBox="0 0 697.582 206.563">
   <g id="Aafart---forside" transform="translate(1.833 -866.033)">
      <g id="Footer" transform="translate(-3.407 866.033)">
         <g id="Footer-graphic" transform="translate(0 0)">
            <g id="Wave---hero" transform="matrix(1, 0.017, -0.017, 1, 3.091, 29.298)">
               <g id="bølgen" transform="matrix(0.995, -0.105, 0.105, 0.995, 0.161, 72.122)">
                  <path id="Shape" d="M0,0V23.854C259.152,65.737,572.07,45.931,689.965,90.948V67.094C563.357,33.257,167.868,49.509,0,0" transform="translate(0 0)" fill="#96bcce"/>
               </g>
               <g id="bølgen-copy" transform="matrix(0.995, -0.105, 0.105, 0.995, 0, 86.894)">
                  <path id="Shape-2" data-name="Shape" d="M0,0V23.8C259.151,65.58,572.068,45.821,689.963,90.731v-23.8C563.35,33.178,167.867,49.391,0,0" transform="translate(0 0)" fill="#64a0ba"/>
               </g>
            </g>
            <g id="Turbaad_TEGNET" transform="translate(12.967 50.793)">
               <g id="Båd_under" transform="translate(6.199 6.593)">
                  <path id="Path" d="M13.511,4.747c0,.083,1.053,14.2,1.053,14.2h-.388L13.1,4.553Z" transform="translate(11.181 3.917)" fill="#97bcce"/>
                  <path id="Path-2" data-name="Path" d="M30.181,4.4c.028.111.859,14.559.859,14.559s-.887.249-.887.138-.582-14.725-.582-14.725Z" transform="translate(25.355 3.763)" fill="#97bcce"/>
                  <path id="Path-3" data-name="Path" d="M51.91,4.028c-.028.166.444,15.749.444,15.749l-.693.028-.25-15.832Z" transform="translate(44.142 3.417)" fill="#97bcce"/>
                  <path id="Path-4" data-name="Path" d="M57.349,3.526c-.028.083,1.081,16.552,1.081,16.552h-1l-.97-16.192Z" transform="translate(48.487 3.033)" fill="#97bcce"/>
                  <path id="Path-5" data-name="Path" d="M63.731,3.05l.333,17.41h-.749L63.121,3.078Z" transform="translate(54.215 2.624)" fill="#97bcce"/>
                  <path id="Path-6" data-name="Path" d="M76.738,2.738c-.055.166.721,17.991.721,17.991h-.5L76.351,3.153Z" transform="translate(65.595 2.355)" fill="#97bcce"/>
                  <path id="Path-7" data-name="Path" d="M90.235,2.847l1,17.714.471.028L90.928,2.515Z" transform="translate(77.539 2.163)" fill="#97bcce"/>
                  <path id="Path-8" data-name="Path" d="M105.46,1.722s.72,19.4.859,19.375a3.577,3.577,0,0,1,.554,0l-.859-19.624Z" transform="translate(90.636 1.267)" fill="#97bcce"/>
                  <path id="Path-9" data-name="Path" d="M120.1,1.273l1.884,19.6.776-.055L120.853,1.19Z" transform="translate(103.233 1.024)" fill="#97bcce"/>
                  <path id="Path-10" data-name="Path" d="M138.606,21.977,136.667.083,135.419,0l2.273,21.921Z" transform="translate(116.407)" fill="#97bcce"/>
                  <path id="Path-11" data-name="Path" d="M3.733,30.827C3.733,30.163.171,16.78.171,16.78l20.717-3.731,221.618-1.264,11.75,2.436L242.95,36.806,212.577,43.67Z" transform="translate(0.064 10.137)" fill="#97bcce"/>
                  <path id="Path-12" data-name="Path" d="M3.121,16.071c-.139.055-3.076.775-3.076.775l.028.415,24.14,3.091,5.332.6,12.264.819,14.937.8,10.836.249,10.707.2,14.317,0,16.567-.216,31.958-1.362,21.586-.891,16.021-1.074,36.83-2.214s13.608-.716,13.719-.744,4.073-.751,4.073-.751l9.044-1.248,13.625-2.212s.111-.332-.055-.471-10.551,1.735-10.551,1.735-16.414,2.306-16.58,2.334-3.258.2-3.258.2l-32.852,1.52-16.25.8L136,19.808l-34.669.083-31.287-.277L44.3,18.867,15.093,17.538l-12.72-.581-.693-.221L20.192,13.58,21.8,13.5l3.326-.277,73.107.664,70.446-1.052,36.636-.332,50.453-.525-.213-.317s-42.037.121-42.2.176-27.436.5-27.436.5l-83.3.5-55.2-.664S25.18,12.5,24.9,12.5s-3.88.277-4.157.277S3.121,16.071,3.121,16.071Z" transform="translate(-0.045 10.03)" fill="#97bcce"/>
               </g>
               <g id="Layer_12" transform="translate(200.937 12.89)">
                  <path id="Path-13" data-name="Path" d="M10.142,2.983C9.959,2.264,9.432.92,8.576.942l.074.126C8.36.685,6.517.771,5.992.812A5.156,5.156,0,0,0,2.421,2.131c-1.107,1.2-.872,2.152-.6,3.329-.3.319-.949-.084-.941.225.051,2.115.567,7.777.283,9.259s1.741-.658,3.722-.373,5.985.748,6.914-.059C13.421,13.109,10.37,3.877,10.142,2.983Z" transform="translate(0.691 0.559)" fill="#97bcce"/>
                  <path id="Path-14" data-name="Path" d="M4.661,29.614c.465-.2,2.673-1.215,3.4-1.5a3.924,3.924,0,0,0,.565-.161c.373-.1.495-.154.607-.175a8.743,8.743,0,0,1,.1,1.757,15.867,15.867,0,0,1-2.106.7,10.9,10.9,0,0,1-2.6-.087A2.069,2.069,0,0,1,4.661,29.614Z" transform="translate(3.912 23.789)" fill="#97bcce"/>
                  <path id="Path-15" data-name="Path" d="M3.259,28.623c.766-.227,2.546-.514,3.658-.784.033,0,.062-.01.088-.015a8.908,8.908,0,0,0,1.372.014c.041,0,.165-.034.2-.041a4.8,4.8,0,0,1,.087,1.391s-1.154.129-2.138.17a24.974,24.974,0,0,1-3.888.092S2.289,28.848,3.259,28.623Z" transform="translate(2.147 23.805)" fill="#97bcce"/>
                  <path id="Path-16" data-name="Path" d="M10.418,14.018c-.423-.362-5.6-1.453-6.128,0-1,2.781-2.339,13.57-2.339,14.126s2.005,1.223,2.562.445,4.234-9.233,4.234-9.233S11.2,14.685,10.418,14.018Z" transform="translate(1.609 11.321)" fill="#97bcce"/>
                  <path id="Path-17" data-name="Path" d="M10.751,30.551s.668-9.566.668-10.789-.888-6.8-2.685-7.769c-4.1-2.22-6.02,2.239-5.866,4.842.011.191,2.865,1.454,3.117,2.222C7.3,23.077,7.8,29.6,8.078,30.217,8.633,31.44,10.64,31.329,10.751,30.551Z" transform="translate(2.39 9.693)" fill="#97bcce"/>
                  <path id="Path-18" data-name="Path" d="M5.635,28.639c-.112.013-.224.026-.337.032l-.4-1a.543.543,0,0,1,.238-.737l.4-.149a.579.579,0,0,1,.691.391l.5,1.173A2.015,2.015,0,0,1,5.635,28.639Z" transform="translate(4.099 22.916)" fill="#97bcce"/>
                  <path id="Path-19" data-name="Path" d="M3.578,28.467c.766-.227,2.349-.554,3.462-.823.033,0,.062-.01.088-.015a8.848,8.848,0,0,0,1.372.014c.041,0,.165-.034.2-.041a4.8,4.8,0,0,1,.087,1.391s-1.154.129-2.138.17a27.954,27.954,0,0,1-4.066.051S2.609,28.693,3.578,28.467Z" transform="translate(2.153 23.637)" fill="#97bcce"/>
                  <path id="Path-20" data-name="Path" d="M5.459,29.058c.465-.2,1.875-.854,2.6-1.139a4.113,4.113,0,0,0,.565-.16c.373-.1.495-.154.607-.175a8.747,8.747,0,0,1,.1,1.757,16.374,16.374,0,0,1-2.1.68,11.374,11.374,0,0,1-2.6-.068S4.462,29.548,5.459,29.058Z" transform="translate(3.912 23.621)" fill="#97bcce"/>
                  <path id="Path-21" data-name="Path" d="M6.635,28.554c-.1-.024-.21-.052-.314-.083l-.049-1.148c-.016-.359.184-.655.445-.663l.407-.012c.261-.008.485.277.5.636l.028,1.2A1.544,1.544,0,0,1,6.635,28.554Z" transform="translate(5.326 22.816)" fill="#97bcce"/>
                  <path id="Path-22" data-name="Path" d="M9,33.03S5.657,23.193,5.059,22.053s-.932-1.862-1.92-1.615c-.82.2-1.539.8-1.075,2.189.611,1.826,5.458,10.8,5.458,10.8A3.221,3.221,0,0,0,9,33.03Z" transform="translate(1.581 17.433)" fill="#97bcce"/>
                  <path id="Path-23" data-name="Path" d="M8.422,33.393s.138-8,.15-10.278c.008-1.356.1-2.627-.98-2.762-.9-.112-2.223-.238-2.063,1.292.205,1.963,1.223,11.97,1.223,11.97S8.1,34,8.422,33.393Z" transform="translate(4.676 17.349)" fill="#97bcce"/>
                  <path id="Path-24" data-name="Path" d="M1.856,16.276c1.237-1.171,4.079-4.692,4.04-4.266-.057.617.063-5.653-.912-5.495A8.829,8.829,0,0,0,3.212,8.578C2.736,9.4,1.205,12.661.271,14.643.118,15.639.932,15.906,1.856,16.276Z" transform="translate(0.148 5.496)" fill="#97bcce"/>
                  <path id="Path-25" data-name="Path" d="M12.061,23.643a26.55,26.55,0,0,1-5.2.808,12.291,12.291,0,0,1-4.1-.288c-.34-3.1-.525-11.228-.562-11.953-.038-.762.4-4.459.775-4.827A6.292,6.292,0,0,1,6.417,5.8c1.633-.269,4.346.9,4.346.9.059.49.3,7.05.39,8.848C11.219,16.9,11.872,20.891,12.061,23.643Z" transform="translate(1.822 4.85)" fill="#97bcce"/>
                  <path id="Path-26" data-name="Path" d="M12.315,13.362,6.429,11.027a12.713,12.713,0,0,1-.4-4.853s1.046-.583,3.3,1.525l4.944,4.935C13.525,12.67,12.689,12.689,12.315,13.362Z" transform="translate(5.078 5.141)" fill="#97bcce"/>
                  <path id="Path-27" data-name="Path" d="M7.094,28.357c.042-.032.25-.726.146-.772a9.466,9.466,0,0,0-1.1-.041,1.2,1.2,0,0,0,.094.727A1.8,1.8,0,0,0,7.094,28.357Z" transform="translate(5.193 23.588)" fill="#97bcce"/>
                  <path id="Path-28" data-name="Path" d="M5.712,28.095c.042-.032.315-.6.212-.648a9.857,9.857,0,0,0-1.066-.079,4.348,4.348,0,0,0-.01.64C4.874,27.965,5.6,28.183,5.712,28.095Z" transform="translate(4.09 23.436)" fill="#97bcce"/>
                  <g id="Group" transform="translate(7.807 51.348)">
                     <path id="Path-29" data-name="Path" d="M.375.079a1.252,1.252,0,0,1,.362.63.134.134,0,0,1,0,.037A1.413,1.413,0,0,1,.556.782,1.887,1.887,0,0,0,.445.566.864.864,0,0,0,.131.194.906.906,0,0,0,.058.138Z" transform="translate(-0.058 0.016)" fill="#97bcce"/>
                     <path id="Path-30" data-name="Path" d="M.67.028a1.236,1.236,0,0,1,.374.643.134.134,0,0,1,0,.037A1.634,1.634,0,0,1,.863.744,1.887,1.887,0,0,0,.752.528.864.864,0,0,0,.438.155C.408.13.376.107.342.083Z" transform="translate(0.187 -0.028)" fill="#97bcce"/>
                  </g>
                  <g id="Group-2" data-name="Group" transform="translate(10.306 51.651)">
                     <path id="Path-31" data-name="Path" d="M.93.688a2.183,2.183,0,0,1,.19.164A1.511,1.511,0,0,0,1.274.746.2.2,0,0,0,1.26.711a1.169,1.169,0,0,0-.9-.517H.352C.242.256.136.322.029.389A1.293,1.293,0,0,1,.489.453.883.883,0,0,1,.93.688Z" transform="translate(-0.029 0.144)" fill="#97bcce"/>
                     <path id="Path-32" data-name="Path" d="M1.226.5a2.183,2.183,0,0,1,.191.163A1.466,1.466,0,0,0,1.571.56.112.112,0,0,0,1.556.525a1.172,1.172,0,0,0-.9-.513H.646C.536.073.43.14.324.208A1.265,1.265,0,0,1,.783.27.913.913,0,0,1,1.226.5Z" transform="translate(0.224 -0.012)" fill="#97bcce"/>
                  </g>
                  <path id="Path-33" data-name="Path" d="M.818,15.872c-.925-.191-.848-2.225-.669-2.35L3.211,7.868l.719.59-1.2,5.818S1.728,16.059.818,15.872Z" transform="translate(-0.037 6.661)" fill="#97bcce"/>
                  <g id="Group-3" data-name="Group" transform="translate(10.549 17.238)">
                     <path id="Path-34" data-name="Path" d="M4.026,2.676a20.2,20.2,0,0,0-2.2.168c-.058,0-1.387.3-1.742.408-.119.034.059.184.122.216a4.693,4.693,0,0,0,1.54,0A4.491,4.491,0,0,0,4.026,2.676Z" transform="translate(-0.041 2.212)" fill="#97bcce"/>
                     <path id="Path-35" data-name="Path" d="M1.41,5.029c-.3.163-.8-.36-.58-.4-.212.249-.536-.276-.508-.4a7.617,7.617,0,0,0,.948-.739l.97-.712A6.7,6.7,0,0,1,3.59,2.7c.365.15,1.1.266.712.643-.231.224-1.1,1.1-1.382,1.308-.387.3-.786.547-.9.637A.369.369,0,0,1,1.41,5.029Z" transform="translate(0.2 2.251)" fill="#97bcce"/>
                     <path id="Path-36" data-name="Path" d="M2.615,6.259c2.117-1.8,5.242-4.946,5.235-5.242C7.82-.117,5.732-.309,5.024.646,4.684,1.1,2,5.1,1.564,5.558,1.155,5.984,1.841,6.916,2.615,6.259Z" transform="translate(1.165 -0.034)" fill="#97bcce" fill-rule="evenodd"/>
                  </g>
                  <path id="Path-37" data-name="Path" d="M6.7,7.8,4.868,3.33,3.017,4.377,4.342,8.84A1.9,1.9,0,0,0,6.7,7.8Z" transform="translate(2.526 2.758)" fill="#97bcce"/>
                  <path id="Path-38" data-name="Path" d="M7.737,1.646c-.077.039-.291-.547-.387-.538C4.661,1.353,1.834,2.355.675,5.152c-.059.142.159.209.062.28,0,.019-.019.347-.019.366.017,3.069,2.53,5.495,4.175,5.242,2.822-.433,4.644-3.619,4.642-6.3A3.4,3.4,0,0,0,7.737,1.646Z" transform="translate(0.503 0.846)" fill="#97bcce"/>
                  <path id="Path-39" data-name="Path" d="M2.651,3.431A5.111,5.111,0,0,0,1.6,3.509a5.6,5.6,0,0,0-.807.28l.158.219a3.024,3.024,0,0,0,.638-.091,4.351,4.351,0,0,1,1.042-.031Z" transform="translate(0.609 2.843)" fill="#97bcce"/>
                  <path id="Path-40" data-name="Path" d="M3.006,3.4a5.12,5.12,0,0,1,1.056-.08,5.612,5.612,0,0,1,.84.156l-.122.24a2.97,2.97,0,0,1-.646.006A4.306,4.306,0,0,0,3.1,3.849Z" transform="translate(2.517 2.746)" fill="#97bcce"/>
                  <path id="Path-41" data-name="Path" d="M10.207,6.858s-.356.716-.66.214A19.183,19.183,0,0,0,6.133,3.038C5.666,2.714.756,7.5.756,7.5S-.977,1.194,4.5.189C8.6-.564,11.185,1.948,10.207,6.858Z" transform="translate(0.357 -0.057)" fill="#97bcce"/>
                  <path id="Path-42" data-name="Path" d="M2.723,4.374c-.043.019.08-.009.113.022-.336.3-.65.757-.574.932.118.267.446.2.881.107a.11.11,0,0,1-.034.048c-.163.112-.886.369-1.034,0C1.9,5.068,2.737,4.368,2.723,4.374Z" transform="translate(1.696 3.656)" fill="#97bcce"/>
                  <path id="Path-43" data-name="Path" d="M4.042,4.485c.022.329-.151.614-.386.634s-.443-.229-.464-.559.15-.614.385-.635S4.021,4.156,4.042,4.485Z" transform="translate(2.675 3.268)" fill="#97bcce"/>
                  <path id="Path-44" data-name="Path" d="M2.163,4.554c.022.329-.151.614-.385.635s-.443-.229-.465-.559.151-.614.386-.635S2.142,4.224,2.163,4.554Z" transform="translate(1.058 3.328)" fill="#97bcce"/>
                  <path id="Path-45" data-name="Path" d="M4.88,4.448c0,.579.143.957.5.959a1.155,1.155,0,0,0,.944-1.07c0-.578-.29-1.049-.647-1.051S4.878,3.869,4.88,4.448Z" transform="translate(4.129 2.72)" fill="#97bcce"/>
                  <g id="Group-4" data-name="Group" transform="translate(3.63 9.444)">
                     <path id="Path-46" data-name="Path" d="M1.182.395a4.141,4.141,0,0,1-1.111,0L.053.4C.418.9.643,1.458,1.4,1.4,2.279,1.336,2.458.013,2.458.013l-.023,0A4.1,4.1,0,0,1,1.182.395Z" transform="translate(0.009 -0.013)" fill="#97bcce"/>
                     <path id="Path-47" data-name="Path" d="M1.21.394A4.088,4.088,0,0,1,.041.383L.02.386C.255.682.6.815,1.382.714a1.7,1.7,0,0,0,1.083-.6.967.967,0,0,0,.016-.1l-.024,0A4.061,4.061,0,0,1,1.21.394Z" transform="translate(-0.02 -0.012)" fill="#97bcce"/>
                  </g>
                  <path id="Path-48" data-name="Path" d="M4.5.764C4.5.838,3.834,2.87,3.834,2.87L3.288,2.8A14.11,14.11,0,0,1,4.5.764Z" transform="translate(2.759 0.528)" fill="#97bcce"/>
                  <path id="Path-49" data-name="Path" d="M1.575,10.821c-.012-.4.392-2.513.392-2.513l.5-1.127.647-1,.22.131L2.954,7.2,2.6,8.116,3.742,7.086,5.27,5.948l.144.327-.974.953.219-.058.131.34-.139.4.12-.088.082.335-.182.17c.052-.012.094-.008.1.032.023.122.051.081.061.224s-.9.911-.963.942c-.042.019-.633.316-1.062.532l-.234.217Z" transform="translate(1.286 5.01)" fill="#97bcce"/>
               </g>
               <g id="Layer_8" transform="translate(223.249 7.636)">
                  <g id="Group-5" data-name="Group" transform="translate(0 1.628)">
                     <path id="Path-50" data-name="Path" d="M.76,13.567c-.414.191-.685.749-.054,2.792l3.2,5.6,1.281-.043L3.613,15.308C2.628,12.178.986,13.462.76,13.567Z" transform="translate(0.284 11.317)" fill="#97bcce"/>
                     <path id="Path-51" data-name="Path" d="M7.463,9C7.4,8.819,6.81,5.962,7.9,6.2a6.379,6.379,0,0,1,3.387,2.892c1.239,2.008,4.632,6.438,4.735,6.561.238.289.133,3.55-1.076,3.291C12.245,18.371,7.782,9.908,7.463,9Z" transform="translate(6.232 5.269)" fill="#97bcce"/>
                     <path id="Rectangle" d="M0,0,3.276.018l.01,1.9L.01,1.9Z" transform="translate(0 59.769) rotate(-61.262)" fill="#97bcce"/>
                     <path id="Path-52" data-name="Path" d="M8.982,23.371c1.052-.153,2.724.456,2.43,1.433-.48,1.593-2.231,3.855-3.528,6C5.574,34.628,3,38.638,2.634,38.826,2.118,39.1.288,38.124.5,37.593a52.6,52.6,0,0,1,4.394-8.344C6.243,27.219,7.769,23.546,8.982,23.371Z" transform="translate(0.411 20.031)" fill="#97bcce"/>
                     <path id="Path-53" data-name="Path" d="M9.418,15.444c.81.068,2.837,1.379,2.675,5.033-.272,6.1-4.576,12.694-5.345,13.922-.851,1.36-2.855,1.036-2.713-.7.078-.942,1.386-8,1.2-11.88C4.98,16.49,7.059,15.247,9.418,15.444Z" transform="translate(3.464 13.215)" fill="#97bcce"/>
                     <path id="Path-54" data-name="Path" d="M7.141,22.228s-2.551-8.819-.613-9.093,3.581,1.965,3.986,3.671c1.141,4.821-.975,12.742-.975,12.742S7.829,23.8,7.141,22.228Z" transform="translate(4.989 11.225)" fill="#97bcce"/>
                     <path id="Path-55" data-name="Path" d="M5.154,14.885a3.708,3.708,0,0,1,2.93-2.424c2.121-.5,1.525,2.528,2.057,6.287.892,6.288,1.762,16.25,1.733,18-.029,1.7-2.527,1.753-3.462.214-.614-1.012-2.4-9.209-3.521-13.245C4.131,20.979,4.023,17.226,5.154,14.885Z" transform="translate(3.708 10.62)" fill="#97bcce"/>
                     <path id="Path-56" data-name="Path" d="M13.977,7.553A3.722,3.722,0,0,0,12.128,6.3,14.7,14.7,0,0,0,8.7,5.807C7.29,5.686,2.7,8.09,2.22,9.158s.224,3.113.812,6.752c.857,5.3,1.905,13.014,1.905,13.014.49-.064,1.148-.975,1.267-.917,1.514.727,3.1,1.449,4.6,1.252,1.6-.211,6.534-1.181,6.542-1.467A165.7,165.7,0,0,0,13.977,7.553Z" transform="translate(1.774 4.938)" fill="#97bcce"/>
                     <g id="Path-57" data-name="Path" transform="translate(9.609 11.135)">
                        <path id="Path_1" data-name="Path 1" d="M4.56,1.186A11.569,11.569,0,0,0,1.319.049,3.319,3.319,0,0,0,.028.381,29.564,29.564,0,0,1,1.851,3.114c.182.331.357.667.526,1.006.366.6.721,1.212,1.052,1.834.22.412,1.554,12.679,1.757,13.1C5.394,17.052,4.053,3.456,4.56,1.186Z" transform="translate(-0.028 -0.048)" fill="#97bcce"/>
                        <path id="Path_2" data-name="Path 2" d="M1.729,3.116c.5-.044.993-.092,1.489-.14q.034-.485.069-.969c-.679.085-1.355.2-2.032.293l.069.133Q1.529,2.773,1.729,3.116Z" transform="translate(1.027 1.638)" fill="#97bcce"/>
                        <path id="Path_3" data-name="Path 3" d="M2.244,4.007c.119-.01.237-.021.355-.036.028-.3.055-.6.078-.907L1.8,3.149c.037.069.076.138.112.208C2.024,3.572,2.134,3.79,2.244,4.007Z" transform="translate(1.493 2.548)" fill="#97bcce"/>
                     </g>
                     <path id="Path-58" data-name="Path" d="M.721,30.793a6.016,6.016,0,0,0-.581,1.129,9,9,0,0,0,1.388.72c.33.109,1.447.529,1.447.529a11.934,11.934,0,0,0,.906-1.33C3.558,31.8,2.029,31.178.721,30.793Z" transform="translate(0.115 26.435)" fill="#97bcce"/>
                     <path id="Path-59" data-name="Path" d="M4.1,7.558c-.787.781-2.7,7.085-3.184,8.4C.45,17.231-.241,19.61.609,18.7l2.724.576c.323-.532,3.4-6.44,3.482-6.8A9.968,9.968,0,0,0,6.682,8.59C6.561,7.852,5.322,6.347,4.1,7.558Z" transform="translate(0.177 6.056)" fill="#97bcce"/>
                     <path id="Path-60" data-name="Path" d="M7.622,6.077l-.215.507a4.761,4.761,0,0,1,.12.821C7.5,7.571,7.6,9.394,7.6,9.394L8.23,8.27l1.1.457S8.537,7.116,8.5,7.013A10.558,10.558,0,0,0,7.622,6.077Z" transform="translate(6.37 5.174)" fill="#97bcce"/>
                     <path id="Path-61" data-name="Path" d="M5.278,8.19c.07-.212.413-2.277.857-4.375C6.213,3.448,10.011,5.136,10,5.675a29.555,29.555,0,0,1-.6,3.349A1.709,1.709,0,0,1,7.814,10C6.317,10.048,5.049,8.887,5.278,8.19Z" transform="translate(4.516 3.184)" fill="#97bcce"/>
                     <path id="Path-62" data-name="Path" d="M12.861,5.728c-.173,3.135-.339,5.867-3.141,5.827-3.41-.049-4.578-2.93-4.405-6.065S7.012.224,9.132.338,13.034,2.594,12.861,5.728Z" transform="translate(4.556 0.233)" fill="#97bcce"/>
                     <path id="Path-63" data-name="Path" d="M9.126,5.653c.181-.216.072-.549-.181-1.023-.163-.4-.325-.784-.325-.784a2.03,2.03,0,0,0,.174.879c.141.427.124.628.048.765-.178.319-.638.113-.958.052a.147.147,0,0,0,.075.112C8.213,5.771,8.856,5.975,9.126,5.653Z" transform="translate(6.781 3.255)" fill="#97bcce"/>
                     <path id="Path-64" data-name="Path" d="M10.281.36c3.134.82,3.216,4.1,3.043,3.634-.484-1.308-2.618-.985-4.6-1.466-2.083-.506-2.8,3.756-2.5,6.233.044.36-.782-.945-.858-1.224-1.08-3.985-.724-5.313-.261-5.86A4.953,4.953,0,0,1,10.281.36Z" transform="translate(4.007 0.067)" fill="#97bcce"/>
                     <path id="Path-65" data-name="Path" d="M9.469,3.909a.476.476,0,0,1-.449.476.457.457,0,0,1-.352-.538.475.475,0,0,1,.449-.476A.456.456,0,0,1,9.469,3.909Z" transform="translate(7.453 2.845)" fill="#97bcce"/>
                     <path id="Path-66" data-name="Path" d="M8.16,3.935a.476.476,0,0,1-.449.476.457.457,0,0,1-.352-.538A.475.475,0,0,1,7.808,3.4.457.457,0,0,1,8.16,3.935Z" transform="translate(6.326 2.867)" fill="#97bcce"/>
                     <path id="Path-67" data-name="Path" d="M6.011,1.541c.116-.072,1.543-.922,1.735-.456S7.541,2.036,7.2,3a8.558,8.558,0,0,0-.33,2.708c.015.3-1.506-.642-1.481-1.016S5.089,2.111,6.011,1.541Z" transform="translate(4.604 0.76)" fill="#97bcce"/>
                     <path id="Path-68" data-name="Path" d="M6.732,4.29c-.045.579-.193.928-.572.9A1.285,1.285,0,0,1,5.151,4.025c.045-.579.388-1.027.768-1S6.776,3.711,6.732,4.29Z" transform="translate(4.428 2.549)" fill="#97bcce"/>
                     <path id="Path-69" data-name="Path" d="M5.507,1.12C5.466,1.049,5.7.141,7.141.045s3.758.2,4.654,1.5c.717,1.048.11,1.882.791,1.756.217-.04.64,1.5-1.757.941A17.484,17.484,0,0,1,7.576,3.218,10.381,10.381,0,0,1,5.507,1.12Z" transform="translate(4.732 -0.029)" fill="#97bcce"/>
                     <path id="Path-70" data-name="Path" d="M8.657,5.655c.779,0,1.129-.343,1.079-.406s-.572.084-1.037.07a8.183,8.183,0,0,1-1.162-.047l.044.1A1.763,1.763,0,0,0,8.657,5.655Z" transform="translate(6.482 4.452)" fill="#97bcce"/>
                     <path id="Path-71" data-name="Path" d="M8.143,2.98a4.435,4.435,0,0,0-.778.042,3.565,3.565,0,0,0-.357.061l.026.312s.118,0,.306-.009c.231-.009.494-.032.734-.023a4.918,4.918,0,0,1,.518.038l.063-.356A1.973,1.973,0,0,0,8.143,2.98Z" transform="translate(6.027 2.506)" fill="#97bcce"/>
                     <path id="Path-72" data-name="Path" d="M9.839,3.039C9.787,3.021,9.655,3.007,9.6,3a3.119,3.119,0,0,0-.615-.023,2.048,2.048,0,0,0-.471.079l.051.33a2.182,2.182,0,0,1,.468-.059,3.794,3.794,0,0,1,.515,0c.062,0,.249,0,.29.012C9.835,3.225,9.845,3.145,9.839,3.039Z" transform="translate(7.323 2.498)" fill="#97bcce"/>
                     <path id="Path-73" data-name="Path" d="M3.723,13.837a11.012,11.012,0,0,0-3.589-.646A3.17,3.17,0,0,0,.407,15.33a16.114,16.114,0,0,1,3.245-.722C3.71,14.484,3.675,14.031,3.723,13.837Z" transform="translate(0.036 11.294)" fill="#97bcce"/>
                     <path id="Path-74" data-name="Path" d="M4.654,23.09c-.042-.132.1-2.277.1-2.5a2.157,2.157,0,0,0-.195-.784c-.038-.1-.084-.218-.137-.343-.013-.036-.028-.07-.043-.107a.054.054,0,0,0,0-.013c0-.011-.093-.231-.128-.334-.007-.02-.644-1.311-.949-1.79-.2-.317-1.339-.331-1.328.532a16.934,16.934,0,0,0,.355,2.407,6.073,6.073,0,0,1,.028.7,11.716,11.716,0,0,0-.277,1.524c.051.092.326.072.313-.039s.634-1.36.676-1.517c.008-.031.024-.094.043-.175A1.543,1.543,0,0,1,3,21.23c-.025.189-.349,2.11-.291,2.215s.426.02.41-.127c-.014-.131.33-1.732.431-2.225,0,.129.03.224.025.263-.026.188-.334,2.138-.277,2.242s.389-.037.373-.183.4-2.055.445-2.288c.015-.075.048-.271.088-.506a1.919,1.919,0,0,1,.078.31,19.527,19.527,0,0,0,.073,2.114C4.431,23.128,4.7,23.224,4.654,23.09Z" transform="translate(1.7 14.586)" fill="#97bcce"/>
                     <path id="Path-75" data-name="Path" d="M5.785.91C5.688.8,7.112,2.7,7.112,2.7l.245-.175S6.135,1.3,5.785.91Z" transform="translate(4.971 0.726)" fill="#97bcce"/>
                     <path id="Path-76" data-name="Path" d="M2.727,13.483l1.417-3.015L2.993,15.362Z" transform="translate(2.344 8.951)" fill="#97bcce"/>
                     <path id="Path-77" data-name="Path" d="M6.283,5.217S6.116,6.5,6.144,6.63c.036.158,1.787,2.049,1.787,2.049s.163,1.63.231,2.106c.01.072-.151-.255-1.019-1.451l-1.162.694S4.361,6.9,4.435,6.818s.825-1.091.825-1.091S6.193,5.227,6.283,5.217Z" transform="translate(3.811 4.434)" fill="#97bcce"/>
                  </g>
                  <path id="Path-78" data-name="Path" d="M6.244,4.222c-.028.083-.394,2.054-.394,2.137s-.337,1-.2,1.277,1.237,2.636,3.374,2.747A3.054,3.054,0,0,0,12.12,8.8a25.361,25.361,0,0,0,.337-2.747,8.542,8.542,0,0,1-.778,1.84.717.717,0,0,1-.4.185s-1.49.583-2.052.083c0,0-2.587-2.581-2.7-3.885Z" transform="translate(4.832 3.541)" fill="#97bcce"/>
                  <path id="Path-79" data-name="Path" d="M7.179,6.445,8.613,5.8c-.053.067.6.321,1.012.009,0,0,.843.028.843.527l-.253.555s-.1-.555-.216-.611-.459.222-1.134.111a4.047,4.047,0,0,0-1.527.148Z" transform="translate(6.174 4.898)" fill="#97bcce"/>
                  <path id="Path-80" data-name="Path" d="M4.2,7.261s1.333,3.3,1.445,3.339,2.081.444,2.081.444l-.59.638,4.1,15.071S9.705,14.154,9.48,13.007,7.369,9.482,7.369,9.482l-1.2.727L4.688,6.97Z" transform="translate(3.608 5.905)" fill="#97bcce"/>
                  <path id="Path-81" data-name="Path" d="M8.554,25.651c0-.083.169-15.735.084-15.735a3.783,3.783,0,0,1-.59-.305l.787-.416-.056-.777-.634-.266L7.51,9.261s.906,16.172.918,16.193S8.554,25.651,8.554,25.651Z" transform="translate(6.459 6.922)" fill="#97bcce"/>
                  <g id="Group-6" data-name="Group" transform="translate(6.433 0)">
                     <path id="Path-82" data-name="Path" d="M2.576,6.606S1.094,6.6.539,5.873A1.987,1.987,0,0,1,.375,3.4a4.116,4.116,0,0,1,.931-.9c.374-.346.973-.872.973-.872s1.2-.589,1.634-.8S4.4.5,4.716.444A3.921,3.921,0,0,1,5.548.45,10.875,10.875,0,0,0,7.135.225c.3-.121.393-.243.809-.133s.539.411.926.346.656.034.937-.011.387.15.825.185a2.75,2.75,0,0,1,1.061.5l.509.879.252,1.063-.427.89a9.727,9.727,0,0,1-.662.786,11.193,11.193,0,0,1-1.276.566l-5.441.5Z" transform="translate(-0.013 -0.049)" fill="#97bcce"/>
                     <path id="Path-83" data-name="Path" d="M1.606,5.836a11.053,11.053,0,0,1-.579-1.3,6.846,6.846,0,0,1,3.2-2.256c2.067-.672,6.539-1.436,6.034.185-.025.078.6,2.33.6,2.33s-4.546-.32-5.915-.26a8,8,0,0,0-2.726.743A7.6,7.6,0,0,0,1.606,5.836Z" transform="translate(0.859 1.202)" fill="#97bcce"/>
                     <path id="path2299_2_" d="M5.449,1.915c-.049.008-.08.074-.067.148a.146.146,0,0,0,.073.112l.013.089L5.327,2.3l.012.072.141-.038.081.523c0,.011.009.051-.1-.007A.122.122,0,0,1,5.4,2.685a.428.428,0,0,1-.182-.152.615.615,0,0,0,.084.316c.007-.016.026-.037.034-.036.136.213.264.21.309.268.024-.07.148-.108.208-.353.008,0,.029.013.04.027a.609.609,0,0,0-.021-.33.419.419,0,0,1-.123.2.111.111,0,0,1-.008.167c-.083.09-.088.06-.09.05l-.1-.521.137-.006-.012-.072-.138.006-.016-.088a.146.146,0,0,0,.033-.13C5.55,1.959,5.5,1.907,5.449,1.915ZM5.464,2c.018,0,.035.017.039.043S5.5,2.093,5.48,2.1s-.035-.017-.041-.043S5.447,2,5.464,2Z" transform="translate(4.462 1.556)" fill="#97bcce"/>
                     <path id="Path-84" data-name="Path" d="M2.053,3.657a18.261,18.261,0,0,0,5.522.8,25.431,25.431,0,0,0,3.352-.018s.1-.053-.073-.209S9.742,3.165,9.742,3.165,4.411,2.5,2.053,3.657" transform="translate(1.742 2.468)" fill="#97bcce"/>
                     <path id="Path-85" data-name="Path" d="M5.376,1.777c-.021.012-.137.057-.137.057s-.084-.041-.1,0a1.768,1.768,0,0,0-.039.179c-.008.036-.035.123-.035.123s-.129.021-.146,0-.083-.118-.161-.084S4.629,2.03,4.589,2s-.082-.111-.091-.04a.272.272,0,0,0,.01.143.432.432,0,0,1,.016.135.136.136,0,0,0,.035.084.844.844,0,0,1,.052.1s-.064-.01-.121-.014-.12-.008-.084.041.1.155.1.155v.131a.419.419,0,0,0,.076.119c.033.022.139.081.139.081l.136.1s.073.1.1.122a.313.313,0,0,1,.088.1c.022.051.076-.006.036.091s-.068.176-.068.176a1.5,1.5,0,0,1,.2.112l.1.081.141,0a.412.412,0,0,0,.107.051.4.4,0,0,0,.16-.006s.353-.1.393-.12.139-.085.139-.085a.132.132,0,0,0,.123.062c.075-.012.184-.023.184-.023l.162.132a1.337,1.337,0,0,0,.242.063c.019-.01.165-.013.2-.039a1.093,1.093,0,0,0,.1-.12.52.52,0,0,0-.013-.122c-.014-.039-.044-.054-.024-.1s.054-.133.054-.133a.292.292,0,0,1-.015-.129.562.562,0,0,1,.093-.112l.01-.147-.1-.232-.034-.119L7.145,2.4l-.079-.132-.039-.111s-.117-.029-.16-.036-.1-.1-.1-.1-.089-.151-.181-.163a.139.139,0,0,0-.133.042l.055.246s.173.117.128.221-.081.144-.037.192a.494.494,0,0,1,.117.153.443.443,0,0,1,.019.155l.02.162s-.114.157-.16.212a.924.924,0,0,1-.173.132.785.785,0,0,1-.177.029C6.216,3.39,5.93,3.23,5.93,3.23l-.229-.2-.123-.27-.021-.293A1.023,1.023,0,0,1,5.5,2.246a.622.622,0,0,1,.015-.2c.007-.042-.081-.062-.039-.111s.081-.061.067-.094A.108.108,0,0,0,5.376,1.777Z" transform="translate(3.755 1.421)" fill="#97bcce"/>
                     <path id="Shape-3" data-name="Shape" d="M4.9,1.975a.463.463,0,0,1-.081-.188.251.251,0,0,1,.02-.2c.027-.053.146-.047.146-.047a.582.582,0,0,1,.011-.1c.01-.047.069-.051.143-.094s.173.034.188.041A.354.354,0,0,0,5.4,1.4L5.384,1.24l-.082,0L5.289,1.13l.094,0-.015-.087.1.01.018.109.079.013.013.11-.053.009.032.16a.7.7,0,0,1,.18-.008c.119.008.223.191.265.206s.079.068.145.137.043.225.043.225l.024.112s-.166.273-.18.3a.146.146,0,0,1-.153.057,2.632,2.632,0,0,0-.43,0,.46.46,0,0,1-.145-.026l-.272-.272S4.939,2.03,4.9,1.975Zm.171-.305c-.018,0-.085.032-.061.094s.022.108.073.14.092.039.109.053a.72.72,0,0,1,.056.089.063.063,0,0,0,.007-.094,1.208,1.208,0,0,1-.1-.11C5.126,1.793,5.068,1.67,5.068,1.67Zm.143-.144s.037.218.088.253.1.056.117.074a.314.314,0,0,1,.048.1c.011.039.033.089.054.049s.044-.061.033-.1A.713.713,0,0,0,5.5,1.785a.482.482,0,0,1-.032-.107s-.029-.093-.044-.1S5.306,1.5,5.211,1.525ZM5.64,1.6c-.042.022-.047.065-.006.1s.035.074.071.1.069.033.071.069-.013.051-.013.078-.039.033.022.05.08.018.083-.018.017-.034-.014-.078-.026-.049-.013-.082a.667.667,0,0,0,.02-.065s0-.1-.022-.13A.158.158,0,0,0,5.64,1.6Zm.385.219c-.03.011-.035.059-.008.087s.014.051.03.071a.061.061,0,0,0,.052.013L6.11,1.9S6.067,1.8,6.024,1.816Z" transform="translate(4.109 0.805)" fill="#97bcce"/>
                  </g>
                  <path id="Path-86" data-name="Path" d="M8.113,4.286,5.732,3.981l.047.164.5.094.15.245L7.8,4.732Z" transform="translate(4.929 3.334)" fill="#97bcce"/>
                  <path id="Path-87" data-name="Path" d="M8.137,4.307l.082.3h.367l.028-.32Z" transform="translate(6.998 3.595)" fill="#97bcce"/>
               </g>
               <g id="Layer_9" transform="translate(212.325 17.114)">
                  <g id="Group-7" data-name="Group" transform="translate(0 0)">
                     <path id="Path-88" data-name="Path" d="M10.884,18.741c.029.607-2.133,1.166-4.829,1.25s-4.907-.339-4.936-.946,2.133-1.166,4.829-1.25S10.854,18.134,10.884,18.741Z" transform="translate(0.934 15.253)" fill="#97bcce" opacity="0.1"/>
                     <path id="Path-89" data-name="Path" d="M4.838,4.839a10.949,10.949,0,0,1,.643,1.983c-.007.308,1.424-1.461.693-3.232C5.868,2.847,4.756,4.024,4.838,4.839Z" transform="translate(4.13 2.84)" fill="#97bcce"/>
                     <path id="Path-90" data-name="Path" d="M4.685,4.644A10.861,10.861,0,0,1,4.531,6.72C4.409,7,5.951,6.309,5.943,4.4,5.94,3.594,4.918,3.857,4.685,4.644Z" transform="translate(3.863 3.318)" fill="#97bcce"/>
                     <path id="Path-91" data-name="Path" d="M2.579,4.881a9.882,9.882,0,0,0-.189,2.084c.086.306-1.491-.716-1.153-2.6C1.379,3.572,2.459,4.055,2.579,4.881Z" transform="translate(0.995 3.362)" fill="#97bcce"/>
                     <path id="Path-92" data-name="Path" d="M.382,11.209A15.236,15.236,0,0,1,1.606,8.841c.575-.956,1.183-2.459,1.6-2.012s.645.9.288,1.37a34.936,34.936,0,0,0-2.016,3.811C1.375,12.288.3,11.709.382,11.209Z" transform="translate(0.297 5.759)" fill="#97bcce" fill-rule="evenodd"/>
                     <path id="Path-93" data-name="Path" d="M3.514,17.979s-1.8.547-1.806,1.157c0,.422.383.565,1.2.493A5.735,5.735,0,0,0,4.8,18.6c.117-.2-.12-.882-.12-.882S3.745,17.622,3.514,17.979Z" transform="translate(1.441 15.184)" fill="#97bcce" fill-rule="evenodd"/>
                     <path id="Path-94" data-name="Path" d="M2.864,21.974S2.616,18.6,2.509,16.86c-.1-1.546-.378-3.951.082-4.085.774-.224,1.3.239,1.518,2.279.188,1.774.085,6.671.091,6.859C4.212,22.3,2.964,22.451,2.864,21.974Z" transform="translate(1.98 10.9)" fill="#97bcce"/>
                     <path id="Path-95" data-name="Path" d="M2.836,18.761s-.675-5.413-.789-6.957c-.117-1.57-.057-2.015.414-2.072s2.071-.647,1.986,1.213c-.063,1.353,0,7.248-.011,7.416S2.949,19.192,2.836,18.761Z" transform="translate(1.688 8.212)" fill="#97bcce"/>
                     <path id="Path-96" data-name="Path" d="M4.4,17.892a1.21,1.21,0,0,1-1.041-.147c-.416.146-1.544.684-1.636,1.1s.311.55,1.126.477A6.039,6.039,0,0,0,4.8,18.309a1.042,1.042,0,0,0-.035-.6A1.344,1.344,0,0,1,4.4,17.892Z" transform="translate(1.44 15.192)" fill="#97bcce" fill-rule="evenodd"/>
                     <path id="Path-97" data-name="Path" d="M2.607,17.979s-.207-.484-.064-.513a2.149,2.149,0,0,1,.827.164c.085.074.049.53-.008.615S2.778,18.127,2.607,17.979Z" transform="translate(2.116 14.976)" fill="#97bcce"/>
                     <path id="Path-98" data-name="Path" d="M3,18.011a2.216,2.216,0,0,1,.657-.479c.158-.054.061.384.061.384S2.935,18.321,3,18.011Z" transform="translate(2.552 15.031)" fill="#97bcce"/>
                     <path id="Path-99" data-name="Path" d="M2.861,18.326c.036-.021.052-.057.033-.083h0a1.18,1.18,0,0,0-.206-.214h0a.547.547,0,0,0-.513-.134h0a.07.07,0,0,0-.055.078h0A.068.068,0,0,0,2.207,18h0a.415.415,0,0,1,.367.116h0a1.08,1.08,0,0,1,.188.2h0a.073.073,0,0,0,.086.017h0l.012-.007Z" transform="translate(1.794 15.33)" fill="#97bcce"/>
                     <path id="Path-100" data-name="Path" d="M3.008,18.228c.038-.017.057-.05.042-.075h0a1.109,1.109,0,0,0-.18-.212h0a.55.55,0,0,0-.5-.156h0c-.04.01-.069.04-.064.068h0c.006.029.044.043.085.034h0a.412.412,0,0,1,.352.13h0a1.023,1.023,0,0,1,.165.194h0a.077.077,0,0,0,.084.021h0l.013-.006Z" transform="translate(1.958 15.243)" fill="#97bcce"/>
                     <g id="Path-101" data-name="Path" transform="translate(5.453 18.286)">
                        <path id="Path_4" data-name="Path 4" d="M1.856,8.432S.052,8.98.05,9.589c0,.422.383.566,1.2.493A5.736,5.736,0,0,0,3.143,9.05c.117-.2-.12-.882-.12-.882S2.086,8.075,1.856,8.432Z" transform="translate(-0.048 6.916)" fill="#97bcce" fill-rule="evenodd"/>
                        <path id="Path_5" data-name="Path 5" d="M1.232,12.443S1,9.088.877,7.328C.766,5.783.42,3.342.88,3.209,1.654,2.985,2.307,3.461,2.5,5.5c.172,1.868.067,6.691.073,6.878C2.58,12.767,1.331,12.92,1.232,12.443Z" transform="translate(0.466 2.616)" fill="#97bcce"/>
                        <path id="Path_6" data-name="Path 6" d="M1.15,9.165C.524,3.546.6,3.551.39,1.731.208.166.352.239.824.184S3.026-.452,2.81,1.4c-.172,1.471,0,6.935-.013,7.1S1.262,9.6,1.15,9.165Z" transform="translate(0.179 -0.055)" fill="#97bcce"/>
                        <path id="Path_7" data-name="Path 7" d="M2.739,8.345A1.21,1.21,0,0,1,1.7,8.2C1.282,8.343.153,8.881.061,9.3s.311.55,1.126.477A6.04,6.04,0,0,0,3.139,8.762a1.042,1.042,0,0,0-.035-.6A1.36,1.36,0,0,1,2.739,8.345Z" transform="translate(-0.049 6.924)" fill="#97bcce" fill-rule="evenodd"/>
                        <path id="Path_8" data-name="Path 8" d="M.949,8.432S.742,7.948.885,7.919a2.149,2.149,0,0,1,.827.164c.085.074.049.53-.008.615S1.121,8.58.949,8.432Z" transform="translate(0.627 6.707)" fill="#97bcce"/>
                        <path id="Path_9" data-name="Path 9" d="M1.317,8.525a2.216,2.216,0,0,1,.657-.479c.158-.054.061.383.061.383S1.249,8.836,1.317,8.525Z" transform="translate(1.039 6.815)" fill="#97bcce"/>
                        <path id="Path_10" data-name="Path 10" d="M1.2,8.779c.036-.02.052-.057.033-.083h0a1.164,1.164,0,0,0-.207-.214h0a.547.547,0,0,0-.513-.134h0a.07.07,0,0,0-.055.078h0a.066.066,0,0,0,.088.03h0a.415.415,0,0,1,.367.116h0a1.08,1.08,0,0,1,.188.2h0a.073.073,0,0,0,.086.017h0A.049.049,0,0,0,1.2,8.779Z" transform="translate(0.305 7.062)" fill="#97bcce"/>
                        <path id="Path_11" data-name="Path 11" d="M1.35,8.681c.038-.017.057-.05.042-.075h0a1.108,1.108,0,0,0-.18-.212h0a.55.55,0,0,0-.5-.156h0c-.04.01-.069.041-.064.069h0c.006.029.044.043.085.034h0a.412.412,0,0,1,.352.13h0a1.036,1.036,0,0,1,.165.194h0a.077.077,0,0,0,.084.021h0l.013-.006Z" transform="translate(0.469 6.975)" fill="#97bcce"/>
                     </g>
                     <path id="Path-102" data-name="Path" d="M.836,9.7A27.2,27.2,0,0,1,2.359,6.89c.871-.637,2.3-1.171,2.607-.729S4.1,7.463,3.828,7.88,2.6,10.569,2.6,10.569.769,9.875.836,9.7Z" transform="translate(0.689 5.115)" fill="#97bcce" fill-rule="evenodd"/>
                     <path id="Path-103" data-name="Path" d="M2.362,6.468A8.939,8.939,0,0,1,4.577,5.9a6.973,6.973,0,0,1,2.446.915,16.022,16.022,0,0,1,.417,3.856c.039,1.83-.179,5.37-.177,5.4,0,.329-5.427.124-5.561-.1A60.248,60.248,0,0,1,2.362,6.468Z" transform="translate(1.416 5.026)" fill="#97bcce" fill-rule="evenodd"/>
                     <path id="Path-104" data-name="Path" d="M2.8,6.747a14.608,14.608,0,0,1-.046-1.6l1.506-.023.063,1.641A1.642,1.642,0,0,1,2.8,6.747Z" transform="translate(2.338 4.365)" fill="#97bcce" fill-rule="evenodd"/>
                     <path id="Path-105" data-name="Path" d="M1.013,5.443C1.034,7.6,2.95,9.625,4.67,9.627c2.352,0,4.261-2.359,4.291-4.514S7,1.407,4.611,1.368.988,3,1.013,5.443Z" transform="translate(0.842 1.13)" fill="#97bcce"/>
                     <path id="Path-106" data-name="Path" d="M3.025,3.255a5,5,0,0,0-.9.011,5.538,5.538,0,0,0-.7.169l.119.167a3.069,3.069,0,0,0,.547-.039,4.23,4.23,0,0,1,.884.023Z" transform="translate(1.196 2.741)" fill="#97bcce"/>
                     <path id="Path-107" data-name="Path" d="M7.285,7.19A7.485,7.485,0,0,0,5.764,4.026C4.8,2.913,4.21,2.1,4.21,2.1A7.8,7.8,0,0,1,4.285.433,3.8,3.8,0,0,1,7.168,2.822,6.314,6.314,0,0,1,7.285,7.19Z" transform="translate(3.586 0.327)" fill="#97bcce" fill-rule="evenodd"/>
                     <path id="Shape-4" data-name="Shape" d="M2.383,2.986a.473.473,0,0,0-.327.106h0l-.018.016h0c-.048.053-.121.037-.163-.036h0a.206.206,0,0,1,.013-.227h0a.635.635,0,0,1,.487-.182h0c.063,0,.117.079.119.169h0a.185.185,0,0,1-.039.123h0a.09.09,0,0,1-.073.031Z" transform="translate(1.562 2.244)" fill="#97bcce"/>
                     <path id="Path-108" data-name="Path" d="M7.075,3.771a7.946,7.946,0,0,0-.045,2.2c.149.307-2.569-1.176-2.3-3.19C4.844,1.932,6.826,2.928,7.075,3.771Z" transform="translate(4.024 2.068)" fill="#97bcce"/>
                     <path id="Path-109" data-name="Path" d="M7.872.64C6.937.162,3.288-.313,1.761,2.35.637,4.31,1.4,5.484.513,6.784A7.871,7.871,0,0,0,3,5.609a12.942,12.942,0,0,1,1.63-.917L3.031,6.066c-.1.135,2.925-.8,3.612-2.308.688-.3,1.187-.506,1.187-.506S8.278.848,7.872.64Z" transform="translate(0.413 0.185)" fill="#97bcce" fill-rule="evenodd"/>
                     <path id="Path-110" data-name="Path" d="M5.523.421A1.449,1.449,0,0,0,3.681.3L5.608.817A.526.526,0,0,0,5.523.421Z" transform="translate(3.138 -0.024)" fill="#97bcce" fill-rule="evenodd"/>
                     <path id="Path-111" data-name="Path" d="M.741,4.24c2.735-.445,8.106.744,9.926,1.992.193-1.1,1.513-4.775-3.7-5.9C1.34-.877,1,3.139.741,4.24Z" transform="translate(0.609 0.049)" fill="#97bcce" fill-rule="evenodd"/>
                     <path id="Path-112" data-name="Path" d="M1.412,3.448s-1.434-.626-1.4-1.38.687-.8.965-.913a16.68,16.68,0,0,1,4.457.123A4.047,4.047,0,0,1,8.452,3.184c.9,1.286.709,1.281.709,1.281S3.578,2.961,1.412,3.448Z" transform="translate(-0.015 0.853)" fill="#97bcce" fill-rule="evenodd"/>
                     <path id="Path-113" data-name="Path" d="M4.655,4.379c-.045.472.074.8.447.852s1.028-.269,1.072-.739-.066-.87-.439-.921A1.1,1.1,0,0,0,4.655,4.379Z" transform="translate(3.968 3.022)" fill="#97bcce"/>
                     <path id="Path-114" data-name="Path" d="M3.237,3.315a4.952,4.952,0,0,1,.9-.08,5.621,5.621,0,0,1,.718.1l-.1.178a2.984,2.984,0,0,1-.549.018,4.223,4.223,0,0,0-.877.112Z" transform="translate(2.756 2.737)" fill="#97bcce"/>
                     <path id="Path-115" data-name="Path" d="M2.972,4.089c-.039.014.078-.024.109-.006-.307.213-.6.4-.524.513.112.173.422.245.823.171a.083.083,0,0,1-.031.033c-.149.08-.82.145-.964-.092C2.221,4.436,2.985,4.086,2.972,4.089Z" transform="translate(2.003 3.463)" fill="#97bcce"/>
                     <path id="Path-116" data-name="Path" d="M1.691,4.184c.011.266.182.477.381.471s.352-.228.339-.494-.182-.477-.381-.471S1.678,3.917,1.691,4.184Z" transform="translate(1.425 3.128)" fill="#97bcce"/>
                     <path id="Path-117" data-name="Path" d="M3.416,4.15c0,.266.157.487.356.492s.362-.207.365-.474-.157-.487-.356-.492S3.42,3.884,3.416,4.15Z" transform="translate(2.91 3.117)" fill="#97bcce"/>
                     <path id="Path-118" data-name="Path" d="M.3,10.83.488,7.168c.124-.334.661-.034.75.115l.5,3.325c.046.609-.1,1.622-.686,1.535C.22,12.017.3,10.83.3,10.83Z" transform="translate(0.228 5.99)" fill="#97bcce"/>
                     <path id="Path-119" data-name="Path" d="M1.375,4.843a1.711,1.711,0,0,0,.484.093,1.707,1.707,0,0,0,.879-.186l.161.257a2.007,2.007,0,0,1-1.048.229h0a1.935,1.935,0,0,1-.536-.1A1.4,1.4,0,0,0,1.375,4.843Z" transform="translate(1.102 4.04)" fill="#97bcce"/>
                     <path id="Path-120" data-name="Path" d="M3.256,5.837c-.071.028-1.015.421-1.133.466a7.743,7.743,0,0,0-.923.531C1.116,6.912.558,7.863.417,8.116a.193.193,0,0,0,.2.262c0,.076.319.3.319.3.08-.038,1.24-.651,1.327-.7.054-.03.4-.267.665-.459a.97.97,0,0,0,.089-.288l-.393.225.4-.295a1.692,1.692,0,0,0,.007-.291.192.192,0,0,1,0-.025l-.048.028c-.06.034-.518.266-.527.268-.108.025.314-.263.478-.38l.125-.086a.4.4,0,0,0,0-.276.267.267,0,0,1-.011-.027L2.9,6.453c-.074.041-.715.339-.767.362A4.794,4.794,0,0,1,2.6,6.428c.069-.044.752-.457.757-.467S3.328,5.81,3.256,5.837Z" transform="translate(0.32 4.973)" fill="#97bcce"/>
                     <path id="Path-121" data-name="Path" d="M5.864,7.516s-.725,3.9-1.1,4.057S3.5,11.81,3.7,10.513C3.84,9.575,4.53,7.3,4.53,7.3S5.708,7.218,5.864,7.516Z" transform="translate(3.127 6.228)" fill="#97bcce"/>
                     <path id="Path-122" data-name="Path" d="M5.456,10.3l-2.1-3.485c-.265-.053-.575.4-.521.529l1.087,3.479c.244.615.9,1.654,1.438,1.284C6.121,11.588,5.456,10.3,5.456,10.3Z" transform="translate(2.401 5.816)" fill="#97bcce"/>
                     <path id="Path-123" data-name="Path" d="M5.878,10.373c.156.019.355-2.813-.108-3.334a2.282,2.282,0,0,0-1-.759C4.516,6.2,3.85,9.548,3.85,9.548A10.2,10.2,0,0,0,5.878,10.373Z" transform="translate(3.283 5.355)" fill="#97bcce" fill-rule="evenodd"/>
                     <path id="Path-124" data-name="Path" d="M4.076,5.181l-.008-.045,0,.046-.024-.3a.681.681,0,0,0-.082.014h0c-.035.007-.081.015-.137.024h0c-.115.019-.272.042-.46.056h0a4.867,4.867,0,0,1-.962-.02h0l-.036.295a5.139,5.139,0,0,0,1.022.021h0a6.066,6.066,0,0,0,.679-.1Z" transform="translate(2.01 4.157)" fill="#97bcce"/>
                     <path id="Path-125" data-name="Path" d="M1.275,9.143a.528.528,0,0,0,.5.557l1.587.226c.277,0,.652-.54.652-.852L3.833,5.106a.528.528,0,0,0-.5-.557l-1.7.071c-.357-.009-.767.24-.767.551Z" transform="translate(0.714 3.868)" fill="#97bcce"/>
                     <path id="Path-126" data-name="Path" d="M1.047,9.306a.528.528,0,0,0,.5.557l1.738-.056a.542.542,0,0,0,.5-.569L3.605,5.269a.528.528,0,0,0-.5-.557l-1.738.056a.541.541,0,0,0-.5.569Z" transform="translate(0.714 4.008)" fill="#97bcce"/>
                     <path id="Path-127" data-name="Path" d="M1.485,5.38a.26.26,0,0,0,.248.275.267.267,0,0,0,.247-.282A.261.261,0,0,0,1.732,5.1.268.268,0,0,0,1.485,5.38Z" transform="translate(1.249 4.34)" fill="#97bcce"/>
                     <path id="Path-128" data-name="Path" d="M4.343,8.1s.258-.123.318-.24a.216.216,0,0,0,.017-.207c-.011-.056-.482-.914-.531-.963-.146-.147-.6-.653-.645-.667a2.68,2.68,0,0,0,.027.625c.007.057-.615-.031-.743-.04s-.67-.2-.781-.221a2.729,2.729,0,0,0-.524-.1c-.048.021-.1.149-.061.166s.673.255.673.255.626.181.63.2-.585-.036-.638-.038-.639-.144-.679-.136-.029.112,0,.154a4.075,4.075,0,0,0,.622.218c.055.012.563.182.563.182L2,7.273c-.053,0-.429-.091-.458-.085s-.033.148,0,.165.263.1.263.1l.235.071s-.165-.038-.158,0A.567.567,0,0,0,2,7.72,5.8,5.8,0,0,0,2.6,7.9C2.666,7.916,4.026,8.093,4.343,8.1Z" transform="translate(1.157 5.136)" fill="#97bcce"/>
                  </g>
               </g>
               <g id="Båd_over" transform="translate(0 0)">
                  <path id="Path-129" data-name="Path" d="M3.913,27.422s.812,3.776,2.882,4.22,105.37,12.735,105.37,12.735,83.357,7.9,149.354,3.543l4.638-6.5-6.172-1.426-61.127,1.666L106.53,38.436,50.058,32.883l-38.184-5Z" transform="translate(3.292 23.516)" fill="#97bcce"/>
                  <path id="Path-130" data-name="Path" d="M1.887,21.528,5.581,37.076S66.173,45,75.779,46.035s70.789,6.441,98.793,6.738,81.355-1.555,93.326-2.147c0,0,17.069-31.1,18.4-33.909l-4.581.37-68.5,6.441-89.632,4s-64.064-.074-78.843-.741S1.887,21.528,1.887,21.528Z" transform="translate(1.549 14.307)" fill="#97bcce"/>
                  <path id="Path-131" data-name="Path" d="M1.41,21.244l.369,1.629S30.6,27.464,42.419,28.28c5.87.4,23.672,1.35,42.432,1.556,19.025.209,39.039-.33,48.824-.664,19.433-.665,72.784-3.181,86.085-4.217s66.208-6.661,67.686-7.031a5.783,5.783,0,0,0,.684-2.518L266.35,18.07l-50.431,4.607-30.7,1.387L120.6,26.949l-41.232.443L43.233,25.781,21.841,23.836,3.276,21.17Z" transform="translate(1.139 13.179)" fill="#97bcce"/>
                  <path id="Path-132" data-name="Path" d="M5.686,20.407l-3.048.167L1.41,21.592l6.16.981s13.162,1.916,22.085,2.915,22.694,1.8,24.274,1.943,27.848.888,31.478.944,36.438-.694,38.572-.75,35.053-1.416,35.053-1.416l40.539-2.138,33.168-1.944s36.355-3.471,38.572-3.665,16.265-1.916,16.82-2.193c0,0,.416-1.138-.776-1.249s-26.185.5-26.185.5l-8.879,1.637s-18.3,2.639-18.415,2.666-2.937.278-2.937.278l-25.188,1.471-38.516,2.388-37.27,1.61s-17.013.694-20.948.75-21.918.111-23.47.111S69,26.21,63.932,26.071,37,24.544,32.9,24.156s-21.558-2.971-21.669-2.971-5.348-.527-5.348-.527Z" transform="translate(1.139 12.837)" fill="#97bcce"/>
                  <path id="Path-133" data-name="Path" d="M2.5,23.093l.3,1.888s16.219,3.035,19.618,3.628,24.975,3.554,28.707,3.85,21.318,1.519,28.6,1.888,27.413.741,29.889.741,43.929-.555,46.959-.592,55.308-2.629,55.308-2.629l17.882-1.11,3.436-3.221s.185-.408-.739-.333-23.424,1.444-23.424,1.444l-41.121,2.147s-22.315.814-33.325,1.074-19.766.408-26.047.408-32.993-.852-34.36-.889-27.3-1.7-35.063-2.7-21.761-3-27.488-4.035-8.756-1.7-8.756-1.7Z" transform="translate(2.078 19.665)" fill="#97bcce"/>
                  <path id="Path-134" data-name="Path" d="M125.647,14.178c.074.3,1.616,9.655,2.059,9.36.2-.134,5.764-.727,11.747-1.6,7.2-1.052,15.027-2.4,15.027-2.4l-5.6-9.421-23.715,2.025Z" transform="translate(107.593 8.626)" fill="#97bcce" opacity="0.76"/>
                  <path id="Path-135" data-name="Path" d="M3.218,26.779a11.327,11.327,0,0,0,.443,1.971c.111.028,7.343.972,7.343.972l-.3-2.138L3.689,26.418Z" transform="translate(2.694 22.652)" fill="#97bcce"/>
                  <path id="Path-136" data-name="Path" d="M2.294,17.857l-.08-.147a.761.761,0,0,1,.269-.078,1.153,1.153,0,0,1,.456.063c.011.023-.063.094-.063.094Z" transform="translate(1.83 15.092)" fill="#97bcce"/>
                  <path id="Path-137" data-name="Path" d="M140.557,15.211l.388-.167" transform="translate(120.836 12.868)" fill="#97bcce"/>
                  <path id="Path-138" data-name="Path" d="M6.576,19.386c-.139.056-3.076.777-3.076.777l.028.416,24.137,3.1,5.331.6,12.262.822,14.935.805,10.835.25,10.706.2,14.316,0,16.565-.217,31.955-1.366,21.583-.894L182.172,22.8,219,20.579s13.606-.719,13.717-.746,4.072-.753,4.072-.753l9.043-1.252,13.623-2.219s.11-.333-.056-.472-10.549,1.74-10.549,1.74-16.412,2.313-16.578,2.341-3.257.2-3.257.2L196.165,20.94l-16.248.805-40.474,1.388-34.664.083-31.284-.278-25.743-.75L18.547,20.857,5.828,20.274l-.693-.222" transform="translate(2.937 12.942)" fill="#97bcce"/>
                  <path id="Path-139" data-name="Path" d="M10.61,19.1c-.006-.012-.042-.111-.042-.111a.777.777,0,0,1,.286-.059,2.246,2.246,0,0,1,.276.017l-.059.148Z" transform="translate(9.017 16.208)" fill="#97bcce"/>
                  <path id="Path-140" data-name="Path" d="M20.171,20.163l-.051-.122a.847.847,0,0,1,.369-.054,1.976,1.976,0,0,1,.412.021l-.035.119Z" transform="translate(17.233 17.118)" fill="#97bcce"/>
                  <path id="Path-141" data-name="Path" d="M31.362,20.8l-.093-.124s.046-.049.337-.063a1.673,1.673,0,0,1,.518-.006c.009.033-.06.113-.06.113Z" transform="translate(26.824 17.635)" fill="#97bcce"/>
                  <path id="Path-142" data-name="Path" d="M44.6,21.1l-.09-.125a.988.988,0,0,1,.384-.05c.338-.014.452-.039.452,0s-.062.109-.062.109Z" transform="translate(38.217 17.912)" fill="#97bcce"/>
                  <path id="Path-143" data-name="Path" d="M60.273,20.87s.074-.072.479-.084.44-.027.449.027-.113.152-.113.152l-.731.027Z" transform="translate(51.774 17.797)" fill="#97bcce"/>
                  <path id="Path-144" data-name="Path" d="M79.213,20.263s.009-.108.36-.113c.306-.006.431.021.437.062l-.389.158-.357-.062Z" transform="translate(68.066 17.259)" fill="#97bcce"/>
                  <path id="Path-145" data-name="Path" d="M100.93,19.081s-.06-.06.339-.092.587-.042.6.008a.13.13,0,0,1-.033.1l-.806.071Z" transform="translate(86.745 16.238)" fill="#97bcce"/>
                  <path id="Path-146" data-name="Path" d="M125.969,17.3s-.083-.1.16-.145,1.019-.19,1.077-.074l-.143.207-.977.118Z" transform="translate(108.275 14.586)" fill="#97bcce"/>
                  <path id="Path-147" data-name="Path" d="M1.818,8.457c-.055.083.831,18.213.831,18.213l.652-.013L2.373,8.179Z" transform="translate(1.488 6.962)" fill="#97bcce"/>
                  <path id="Path-148" data-name="Path" d="M10.025,7.791l1.108,21.739L11.6,29.5,10.662,7.6Z" transform="translate(8.549 6.462)" fill="#97bcce"/>
                  <path id="Path-149" data-name="Path" d="M19.588,7.921l1.081,23.572.693.083L20.2,7.672Z" transform="translate(16.776 6.526)" fill="#97bcce"/>
                  <path id="Path-150" data-name="Path" d="M30.507,7.591c0,.111,1.552,25.571,1.552,25.571h.748L31.283,7.313Z" transform="translate(26.168 6.218)" fill="#97bcce"/>
                  <path id="Path-151" data-name="Path" d="M45.275,34.216l-1.5-27.4.748-.111L46,34.244Z" transform="translate(37.585 5.691)" fill="#97bcce"/>
                  <path id="Path-152" data-name="Path" d="M61.022,33.833,59.554,6.874l.72-.083,1.579,27.1Z" transform="translate(51.155 5.768)" fill="#97bcce"/>
                  <path id="Path-153" data-name="Path" d="M79.863,33.209l-1.3-27.181L79.226,6l1.358,27.348Z" transform="translate(67.505 5.088)" fill="#97bcce"/>
                  <path id="Path-154" data-name="Path" d="M101.66,31.035,100.219,5.881h.859l1.386,25.293-.693.083Z" transform="translate(86.136 4.985)" fill="#97bcce"/>
                  <path id="Path-155" data-name="Path" d="M126.882,28.809l-1.8-23.933,1.136-.056,1.774,24.21a2.88,2.88,0,0,1-.776.111A.41.41,0,0,1,126.882,28.809Z" transform="translate(107.522 4.074)" fill="#97bcce"/>
                  <ellipse id="Oval" cx="0.604" cy="0.476" rx="0.604" ry="0.476" transform="translate(3.845 33.18)" fill="#97bcce"/>
                  <path id="Path-156" data-name="Path" d="M2.214,17.679l0,.793s.08.146.454.127.337-.1.337-.1l-.07-.835A.866.866,0,0,1,2.214,17.679Z" transform="translate(1.83 15.122)" fill="#97bcce"/>
                  <ellipse id="Oval-2" data-name="Oval" cx="0.604" cy="0.476" rx="0.604" ry="0.476" transform="translate(19.277 35.476)" fill="#97bcce"/>
                  <path id="Path-157" data-name="Path" d="M10.568,18.978v.77a.4.4,0,0,0,.337.084c.248-.019.276-.093.276-.093l-.051-.8A.718.718,0,0,1,10.568,18.978Z" transform="translate(9.017 16.216)" fill="#97bcce"/>
                  <ellipse id="Oval-3" data-name="Oval" cx="0.682" cy="0.476" rx="0.682" ry="0.476" transform="translate(37.095 37.658)" fill="#97bcce"/>
                  <path id="Path-158" data-name="Path" d="M20.12,20.03l.014.99a1.4,1.4,0,0,0,.46.074c.3.009.387-.127.387-.127L20.9,20A1.21,1.21,0,0,1,20.12,20.03Z" transform="translate(17.233 17.128)" fill="#97bcce"/>
                  <ellipse id="Oval-4" data-name="Oval" cx="0.74" cy="0.476" rx="0.74" ry="0.476" transform="translate(57.838 38.904)" fill="#97bcce"/>
                  <path id="Path-159" data-name="Path" d="M31.269,20.664l.037,1.032s.037.13.494.116.4-.088.4-.088l-.074-1.129A1.121,1.121,0,0,1,31.269,20.664Z" transform="translate(26.824 17.642)" fill="#97bcce"/>
                  <ellipse id="Oval-5" data-name="Oval" cx="0.74" cy="0.476" rx="0.74" ry="0.476" transform="translate(82.498 39.46)" fill="#97bcce"/>
                  <path id="Path-160" data-name="Path" d="M44.514,20.967l.042.981s.069.153.494.148.36-.115.36-.115l-.06-1.06S45.146,21.1,44.514,20.967Z" transform="translate(38.217 17.922)" fill="#97bcce"/>
                  <ellipse id="Oval-6" data-name="Oval" cx="0.79" cy="0.476" rx="0.79" ry="0.476" transform="translate(111.766 39.178)" fill="#97bcce"/>
                  <path id="Path-161" data-name="Path" d="M60.273,20.858l.051.893s.023.171.522.143.439-.107.439-.107l-.079-1S60.966,21.011,60.273,20.858Z" transform="translate(51.774 17.809)" fill="#97bcce"/>
                  <ellipse id="Oval-7" data-name="Oval" cx="0.79" cy="0.476" rx="0.79" ry="0.476" transform="translate(146.932 38.007) rotate(-2.9)" fill="#97bcce"/>
                  <path id="Path-162" data-name="Path" d="M79.213,20.224l.028.951a.905.905,0,0,0,.506.049c.385-.031.355-.117.355-.117l-.084-.932A1.574,1.574,0,0,1,79.213,20.224Z" transform="translate(68.066 17.282)" fill="#97bcce"/>
                  <ellipse id="Oval-8" data-name="Oval" cx="0.832" cy="0.476" rx="0.832" ry="0.476" transform="translate(187.334 35.782) rotate(-2.9)" fill="#97bcce"/>
                  <path id="Path-163" data-name="Path" d="M100.926,19.042l.049.857s.073.2.532.147.409-.2.409-.2l-.049-.87A1.256,1.256,0,0,1,100.926,19.042Z" transform="translate(86.744 16.254)" fill="#97bcce"/>
                  <ellipse id="Oval-9" data-name="Oval" cx="1.055" cy="0.476" rx="1.055" ry="0.476" transform="translate(233.884 32.794) rotate(-2.9)" fill="#97bcce"/>
                  <path id="Path-164" data-name="Path" d="M125.955,17.218l.073,1.31s.165.282.751.2.562-.312.562-.312l-.134-1.354A1.689,1.689,0,0,1,125.955,17.218Z" transform="translate(108.274 14.606)" fill="#97bcce"/>
                  <path id="Path-165" data-name="Path" d="M.563,13.03a2.292,2.292,0,0,1-.028,1.055c-.139.278-.61.528-.166.722a3.509,3.509,0,0,0,1.053.222s.249.833.97.777S3.5,14.7,4.165,14.751s1.247,1,1.884.972,1.441-1.277,2.134-1.249,1.3.972,1.8,1,1.579-1.29,2.272-1.264,1.428,1.124,1.912,1.083,1.413-1.277,2.2-1.222,1.454,1.153,2.2,1.083,1.192-1.4,2.161-1.264.984,1.138,1.967,1.068,1.454-1.124,2.161-1.083.955,1.055,1.926,1,1.829-1.416,2.688-1.4,1.164,1.416,2.008,1.319,1.441-1.277,2.549-1.249,1.62,1.444,2.563,1.346,1.275-1.666,2.438-1.652,1.288,1.444,2.148,1.375,1.483-1.444,2.244-1.375,1.926,1.333,3.061,1.264,1.317-1.527,2.466-1.541,1.372,1.5,2.577,1.4,1.7-1.416,2.729-1.4,1.939,1.513,2.924,1.43,1.441-1.43,2.647-1.444,1.4,1.264,2.813,1.138,1.884-1.388,2.979-1.36,1.787,1.43,2.909,1.277,2.008-1.555,3.449-1.527,1.191,1.471,2.466,1.375,2.3-1.555,3.755-1.513,1.5,1.541,3.172,1.43,2.064-1.638,3.353-1.568,2.148,1.472,3.478,1.36,1.968-1.624,3.436-1.583,2.4,1.638,3.436,1.541,2.839-1.764,4.434-1.624,2.023,1.541,3.367,1.4,2.3-1.749,3.935-1.694,2.591,1.624,4.212,1.527,2.148-1.653,4.046-1.666,2.411,1.486,3.726,1.388,2.813-1.666,4.613-1.61,2.618,1.583,4.225,1.471,2.8-1.832,4.753-1.79,3.131,1.61,4.5,1.5,2.327-1.93,4.642-1.846,3.02,1.749,4.683,1.583,3.644-1.986,4.96-1.944,3.09,1.735,4.669,1.638,3.1-1.957,4.89-1.93,3.187,1.653,5.167,1.513,3.547-1.93,5.4-1.888,3.146,1.846,5.056,1.666,3.6-1.957,5.348-1.9,3.338,1.86,5.487,1.653,3.99-2.166,5.805-2.138,3.768,1.944,5.916,1.721,3.519-2.152,5.182-2.11,4.808,1.694,6.5,1.624,3.713-2,5.639-1.944S220.508,9.8,222,9.715s4.143-2.166,5.736-2.1,3.907,1.858,5.749,1.8,6.068-2.249,7.426-2.4,2.031,1.328,6.207,1.254,4.729-2.258,7.537-2.407,4.4.7,6.465,1.258,3.621-1.407,4.508-1.851,1.4.555,2.18.741,3.215-2.776,2.993-3.924l-12.045-.777L77.208,9.124.582,12.2Z" transform="translate(0.083 1.057)" fill="#97bcce"/>
                  <path id="Path-166" data-name="Path" d="M.04,11.775c0,.222.333,2.258.333,2.258L271.15,3.26l-.037-2.7s.148-.519-.554-.519S216.1,2.187,216.1,2.187L13.414,10.664Z" transform="translate(-0.04 -0.039)" fill="#97bcce"/>
               </g>
               <g id="Båd_pynt_copy" transform="translate(245.709 39.961)">
                  <path id="Shape-5" data-name="Shape" d="M25.942,5.592c-.115.081-.218.671-.218.671a.614.614,0,0,1-.187-.51c-.008-.087-.218.109-.218.109-.636.692-1.99.626-2.728.607a13.6,13.6,0,0,0-2.265.317,1.014,1.014,0,0,1,.3-.38,7.979,7.979,0,0,1,.852-.431l.134-.259s.335-.171.407-.143.25.047.21,0,.058-.129.107-.168-.155-.161-.155-.161a1.552,1.552,0,0,0,.062-.27A7.989,7.989,0,0,1,21.9,3.72a1.385,1.385,0,0,1,.459-1.1c.3-.327.8.171.8.171a1.52,1.52,0,0,1,.606-.268c.278-.026.351.389.354.6s-.444.692-.637.868a.559.559,0,0,1-.443.13c-.044.478.49.745.49.745l.492-.732s.373.053.4,0a1.594,1.594,0,0,1,.26-.217c1.1.125.88-.892.818-1.378a.789.789,0,0,0-.374-.633s-.281-.009-.35,0,.1.307.124.393.215.437.215.437l-.358.1a1.309,1.309,0,0,1-.608-.329,2.677,2.677,0,0,1-.456-.573A1.894,1.894,0,0,0,22.575,1.2a1.7,1.7,0,0,0-.964.372l-.067.217-.041.127.192.369a1.328,1.328,0,0,1-.492-.025,1.458,1.458,0,0,0-.867.1,1.716,1.716,0,0,0-.867.661.625.625,0,0,0-.124.363s0,.352,0,.4.138-.013.209-.019.1-.379.428-.48a.677.677,0,0,1,.692.287.989.989,0,0,1,.228.753,1.467,1.467,0,0,1-.407.706c-.1.1-.644.605-.644.605s.251.627.256.679a3.588,3.588,0,0,1-.715.031c-.122.011-.322-.269-.366-.353s-.282.167-.282.167l-.244.2a3.875,3.875,0,0,1-.494.521,2.63,2.63,0,0,1-1.448.435,1.407,1.407,0,0,1-1.066-.727c-.189-.334-.01-.492-.01-.492a2.329,2.329,0,0,1-.435-.346c-.269-.257-.161-.407-.161-.407a7.6,7.6,0,0,1-.722-.425,2.046,2.046,0,0,1-.367-.37c-.084-.15.18-.333.243-.392a1.863,1.863,0,0,0,.2-.335,1.132,1.132,0,0,0-.838-.344,3.367,3.367,0,0,0-1.15.617.546.546,0,0,1,.524.373s-.172.034-.224.038-.054.18-.054.18l-.277.412a.8.8,0,0,0,.237.663,5.215,5.215,0,0,0,.341-.472c.153-.243.307-.274.625-.252s.474.4.519.69-.354.719-.354.719.083.326-.522.594A1.283,1.283,0,0,1,11.852,6.8l-.1-.149-.436.586-.09-.976a5.89,5.89,0,0,1-1.109.877,6.534,6.534,0,0,1-3,.14A25.741,25.741,0,0,0,4.2,6.587c-.49.011-1.055.7-1.055.7l-.023-.437s-1.082.418-1.85.631A1.358,1.358,0,0,1,.044,7.294l.215-.319.25-.323,0-.211,1.15-.249.167-.086.045-.268s.125.024.549.072A8.274,8.274,0,0,0,4.19,5.568l.267-.148c.15-.278.5-.8.5-.8L5.3,4.9s.413-.46.51-.54A1.044,1.044,0,0,1,6.2,4.254s1.169-.039,1.36-.057.17.124.007.263a.855.855,0,0,0-.2.458s-.327.066-.378.071a1.621,1.621,0,0,0-.591.425,1.554,1.554,0,0,0-.176.369c.2.315.938.492,1.352.612a5.878,5.878,0,0,0,2.345-.009,1.4,1.4,0,0,0,.927-1.336.873.873,0,0,0-.543-.759,4.325,4.325,0,0,1-.248.533,3.417,3.417,0,0,0-.233.32.48.48,0,0,1-.424.146.485.485,0,0,0,.041.63l-.245.374s-.136.048-.238.075c-.322.085-.325-.673-.325-.673a2.35,2.35,0,0,1-1.189.2c-.351-.02-.334-.391-.229-.576a.74.74,0,0,1,.325-.277,2.912,2.912,0,0,1,.365-.6,1.48,1.48,0,0,0,.63.187.484.484,0,0,0,.307-.274,1.493,1.493,0,0,1,1.938-.815s.193-.37.33-.594.4.332.4.332l.215.437c.947-1.5,3.117-1.312,3.117-1.312a5.749,5.749,0,0,1,.415-.62.227.227,0,0,1,.365-.034l.512.233a4.1,4.1,0,0,1,.475-.73.334.334,0,0,1,.5-.047.391.391,0,0,1,.6.067c.314.357-.216.688-.216.688s-.156.208-.247.357.3.376.3.376l.138-.206a2.347,2.347,0,0,1,.713-.243,1.451,1.451,0,0,1,.493.217l.277-.044A10.063,10.063,0,0,1,22.686.158a2.668,2.668,0,0,1,2.1.173,1.416,1.416,0,0,1,.336-.155c.221-.074.53.056.716-.015a.285.285,0,0,1,.281.009l-.228.373a.957.957,0,0,1,.354.6l-.347.032a4.331,4.331,0,0,1,.317,3.786,1.561,1.561,0,0,0,.307,1.413C26.006,6.289,25.942,5.592,25.942,5.592ZM15.094,3.037l.033.366a1.417,1.417,0,0,1,0,.421c-.037.161-.244.2-.244.2l.013.139.28.185.421.189.251.258.415.506.156-.208a.493.493,0,0,1,.734-.016c.2.263-.42.761-.42.761-.184.474.758.421.758.421.841-.184.515-1.613.433-1.939s-.727-.67-.727-.67A7.07,7.07,0,0,0,15.094,3.037Z" transform="translate(-0.044 -0.019)" fill="#97bcce"/>
               </g>
            </g>
            <g id="Svane" transform="translate(525.248 83.575)">
               <path id="Path-167" data-name="Path" d="M5.064,0A4.26,4.26,0,0,1,9.357,3.771c.388,4.458-4.11,4.128-5.6,6.764a6.335,6.335,0,0,0-.335,5.147A7.308,7.308,0,0,1,8.16,10.9c6.9-2.152,8.359,4.417,12.359,4.257a2.594,2.594,0,0,1-1.275,1.092,2.691,2.691,0,0,0,3.146-.5,2.621,2.621,0,0,1-2.383,2.2,1.986,1.986,0,0,0,2.154.315,4.219,4.219,0,0,0,1.646-1.177c.057,2.718-3.647,5.648-8.168,5.931-2.786.174-9.721.817-11.992-.5A7.77,7.77,0,0,1,0,15.464c.159-6.9,4.084-6.856,6.784-9.9C7.83,4.386,6.776,1.98,5.047,2.626a4.67,4.67,0,0,0-1.688,1.38c-1.276.8-1.9-.673-1.344-1.911A3.458,3.458,0,0,1,5.064,0Z" transform="translate(0 0)" fill="#97bcce" fill-rule="evenodd"/>
               <path id="Path-168" data-name="Path" d="M3.149,1.28a1.608,1.608,0,0,0-.242.25c-.036.721-.723.117-.573,1.25.081.243.461.453.14.635-.674.58-1.22.022-1.54-.509C.748,2.42.628,1.757,1.084,1.484c.1-.011.261.11.4.151a1.415,1.415,0,0,0,.578.165c.4-.018.1-.6.757-.392a.46.46,0,0,0,.333-.128Z" transform="translate(0.661 1.101)" fill="#97bcce" fill-rule="evenodd"/>
               <path id="Path-169" data-name="Path" d="M1.837,1.5c-.051,0-.125.157-.007.148.026,0,.047-.151.007-.148Z" transform="translate(1.52 1.287)" fill="#97bcce" fill-rule="evenodd"/>
               <path id="Path-170" data-name="Path" d="M1.7,1.817a3.57,3.57,0,0,1-.38.851C.564,3.785-.2,4,.046,4.546c.411.471,2.321-.77,2.77-1.713.05-.1.009-.054.041-.113.014-.289-.3-.13-.563-.214-.2-.063-.483-.865-.591-.689Z" transform="translate(0 1.541)" fill="#97bcce" fill-rule="evenodd"/>
            </g>
            <g id="graes" transform="translate(557.627 94.561) rotate(-3)">
               <path id="Path-171" data-name="Path" d="M2.293,17.141S2.533,5.056,0,1.95c0,0,2.526,1.946,3.161,6.785,0,0-.952-5.5,2.6-8.735,0,0-3.239,4.6-.445,11.028,0,0-1.016-3.566.445-5.667,0,0-.635,4.075,1.016,5.539,0,0,1.009-5.638-.29-7.977A12.651,12.651,0,0,1,8.3,9.945s-.127-3.323,1.08-3.922c0,0-1.016,1.311,0,4.367,0,0-.164-6.113,2.553-6.559a6.541,6.541,0,0,0-.9,6.559s2.44-6.336.9-10.235a14.559,14.559,0,0,1,1.574,9.281s.7-5.348,2.413-7c0,0-1.715,4.266-1.016,6.941,0,0,2.985-5.412,1.842-8.914,0,0,2.046,6.559.26,11.079,0,0,2.533-3.5,1.581-6.75a9.878,9.878,0,0,1,.214,6.368s.676-3.106,1.755-2.865a2,2,0,0,0,.267,2.993s1.474-3.566,0-5.985a5.75,5.75,0,0,1,1.384,5.667s2.09-4.931.251-8.2a10.066,10.066,0,0,1,1.147,7.623s1.08-5.276,2.731-6.235c0,0-1.969,2.988-.826,5.79,0,0,.952-.517.826-2.392a5.338,5.338,0,0,1,.313,3.793s1.849-3.63.768-5.858c0,0,1.65,3.057.824,5.412,0,0,2.032-5.8-.571-9.554a12.761,12.761,0,0,1,2.1,9.172s.318-4.087,1.461-4.5c0,0-.952,3.794,0,4.75,0,0,2.4-4.33,1.334-8.6,0,0,1.337,2.993.382,8.086,0,0,.228-4.139,2.336-4.712a4.208,4.208,0,0,0-.686,5.03s3.3-4.655.7-9.236a12.185,12.185,0,0,1,1.4,9.618s3.049-4.139,1.842-6.877a10.182,10.182,0,0,1,.534,6.622S39.74,7.4,40.883,6.635a4.38,4.38,0,0,0,.7,4.457,3.694,3.694,0,0,0,.4-3.056,3.658,3.658,0,0,1,.682,3.566s1.749-5.667-1.475-9.615c0,0,3.825,3.056,2.555,9.233,0,0,.826-5.667,3.873-3.948,0,0-2.921-.892-2.159,4.139,0,0,1.727-1.026,1.073-2.674a1.667,1.667,0,0,1,.8,2.547s2.572-4.055-.349-7.726c0,0,2.857,2.186,1.715,7.089,0,0,.889-3.948,2.477-4.33,0,0-1.207,1.019-.826,3.566A5.167,5.167,0,0,0,51.488,4.47s1.578,2.1.345,6.3c0,0,1.18-4.712,3.4-4.33,0,0-2.587,2.127-2.766,10.7H2.293Z" fill="#97bcce"/>
               <path id="Path-172" data-name="Path" d="M40.474,0a11.315,11.315,0,0,1-2.054,1.812c-.1.272-.17.5-.218.669.058-.214.11-.422.154-.626C30.439,7.345,12.053,8.745,0,9.047H38.765C38.865,4.247,39.737,1.49,40.474,0Z" transform="translate(13.809 8.095)" fill="#97bcce"/>
            </g>
            <g id="graes-copy-3" transform="translate(589.643 94.652) rotate(-3)">
               <path id="Path-173" data-name="Path" d="M2.293,17.141S2.533,5.056,0,1.95c0,0,2.526,1.946,3.161,6.785,0,0-.952-5.5,2.6-8.735,0,0-3.239,4.6-.445,11.028,0,0-1.016-3.566.445-5.667,0,0-.635,4.075,1.016,5.539,0,0,1.009-5.638-.29-7.977A12.651,12.651,0,0,1,8.3,9.945s-.127-3.323,1.08-3.922c0,0-1.016,1.311,0,4.367,0,0-.164-6.113,2.553-6.559a6.541,6.541,0,0,0-.9,6.559s2.44-6.336.9-10.235a14.559,14.559,0,0,1,1.574,9.281s.7-5.348,2.413-7c0,0-1.715,4.266-1.016,6.941,0,0,2.985-5.412,1.842-8.914,0,0,2.046,6.559.26,11.079,0,0,2.533-3.5,1.581-6.75a9.878,9.878,0,0,1,.214,6.368s.676-3.106,1.755-2.865a2,2,0,0,0,.267,2.993s1.474-3.566,0-5.985a5.75,5.75,0,0,1,1.384,5.667s2.09-4.931.251-8.2a10.066,10.066,0,0,1,1.147,7.623s1.08-5.276,2.731-6.235c0,0-1.969,2.988-.826,5.79,0,0,.952-.517.826-2.392a5.338,5.338,0,0,1,.313,3.793s1.849-3.63.768-5.858c0,0,1.65,3.057.824,5.412,0,0,2.032-5.8-.571-9.554a12.761,12.761,0,0,1,2.1,9.172s.318-4.087,1.461-4.5c0,0-.952,3.794,0,4.75,0,0,2.4-4.33,1.334-8.6,0,0,1.337,2.993.382,8.086,0,0,.228-4.139,2.336-4.712a4.208,4.208,0,0,0-.686,5.03s3.3-4.655.7-9.236a12.185,12.185,0,0,1,1.4,9.618s3.049-4.139,1.842-6.877a10.182,10.182,0,0,1,.534,6.622S39.74,7.4,40.883,6.635a4.38,4.38,0,0,0,.7,4.457,3.694,3.694,0,0,0,.4-3.056,3.658,3.658,0,0,1,.682,3.566s1.749-5.667-1.475-9.615c0,0,3.825,3.056,2.555,9.233,0,0,.826-5.667,3.873-3.948,0,0-2.921-.892-2.159,4.139,0,0,1.727-1.026,1.073-2.674a1.667,1.667,0,0,1,.8,2.547s2.572-4.055-.349-7.726c0,0,2.857,2.186,1.715,7.089,0,0,.889-3.948,2.477-4.33,0,0-1.207,1.019-.826,3.566A5.167,5.167,0,0,0,51.488,4.47s1.578,2.1.345,6.3c0,0,1.18-4.712,3.4-4.33,0,0-2.587,2.127-2.766,10.7H2.293Z" fill="#97bcce"/>
               <path id="Path-174" data-name="Path" d="M40.474,0a11.315,11.315,0,0,1-2.054,1.812c-.1.272-.17.5-.218.669.058-.214.11-.422.154-.626C30.439,7.345,12.053,8.745,0,9.047H38.765C38.865,4.247,39.737,1.49,40.474,0Z" transform="translate(13.809 8.095)" fill="#97bcce"/>
            </g>
            <g id="graes-copy-4" transform="translate(642.087 94.619) rotate(5)">
               <path id="Path-175" data-name="Path" d="M2.293,17.141S2.533,5.056,0,1.95c0,0,2.526,1.946,3.161,6.785,0,0-.952-5.5,2.6-8.735,0,0-3.239,4.6-.445,11.028,0,0-1.016-3.566.445-5.667,0,0-.635,4.075,1.016,5.539,0,0,1.009-5.638-.29-7.977A12.651,12.651,0,0,1,8.3,9.945s-.127-3.323,1.08-3.922c0,0-1.016,1.311,0,4.367,0,0-.164-6.113,2.553-6.559a6.541,6.541,0,0,0-.9,6.559s2.44-6.336.9-10.235a14.559,14.559,0,0,1,1.574,9.28s.7-5.348,2.413-7c0,0-1.715,4.266-1.016,6.941,0,0,2.985-5.412,1.842-8.914,0,0,2.046,6.559.26,11.079,0,0,2.533-3.5,1.581-6.75a9.878,9.878,0,0,1,.214,6.368s.676-3.106,1.755-2.865a2,2,0,0,0,.267,2.993s1.474-3.566,0-5.985a5.75,5.75,0,0,1,1.384,5.667s2.09-4.931.251-8.2a10.066,10.066,0,0,1,1.147,7.623s1.08-5.276,2.731-6.235c0,0-1.969,2.988-.826,5.79,0,0,.952-.517.826-2.392a5.338,5.338,0,0,1,.313,3.793s1.849-3.63.768-5.858c0,0,1.65,3.057.824,5.412,0,0,2.032-5.8-.571-9.554a12.761,12.761,0,0,1,2.1,9.172s.318-4.087,1.461-4.5c0,0-.952,3.794,0,4.75,0,0,2.4-4.33,1.334-8.6,0,0,1.337,2.993.382,8.086,0,0,.228-4.139,2.336-4.712a4.208,4.208,0,0,0-.686,5.03s3.3-4.655.7-9.236a12.185,12.185,0,0,1,1.4,9.618s3.049-4.139,1.842-6.877a10.182,10.182,0,0,1,.534,6.622S39.74,7.4,40.882,6.635a4.38,4.38,0,0,0,.7,4.457,3.694,3.694,0,0,0,.4-3.056,3.658,3.658,0,0,1,.682,3.566s1.749-5.667-1.475-9.615c0,0,3.825,3.056,2.555,9.233,0,0,.826-5.667,3.873-3.948,0,0-2.921-.892-2.159,4.139,0,0,1.727-1.026,1.073-2.674a1.667,1.667,0,0,1,.8,2.547s2.572-4.055-.349-7.726c0,0,2.857,2.186,1.715,7.089,0,0,.889-3.948,2.477-4.33,0,0-1.207,1.019-.826,3.566A5.167,5.167,0,0,0,51.488,4.47s1.578,2.1.345,6.3c0,0,1.18-4.712,3.4-4.33,0,0-2.587,2.127-2.766,10.7H2.293Z" fill="#97bcce"/>
               <path id="Path-176" data-name="Path" d="M40.474,0A11.315,11.315,0,0,1,38.42,1.812c-.1.272-.17.5-.218.669.058-.214.11-.422.154-.626C30.439,7.345,12.053,8.745,0,9.047H38.765C38.865,4.247,39.736,1.49,40.474,0Z" transform="translate(13.809 8.095)" fill="#97bcce"/>
            </g>
            <g id="trae1" transform="translate(556.776 0)">
               <g id="Group-8" data-name="Group" transform="translate(0)">
                  <path id="Path-177" data-name="Path" d="M36.314,71.846S29.426,76.8,24.852,70.134c0,0-7.625,1.905-9.343-5.14,0,0-9.152-.76-8.772-7.806,0,0-11.056-5.33-3.81-15.421,0,0-7.056-6.283.951-13.326,0,0-6.1-9.138,4.577-11.8,0,0,.954-10.854,11.63-8.378,0,0,2.86-9.138,13.155-5.711,0,0,9.249-6.868,14.49,2.285,0,0,10.107-1.333,12.011,7.045,0,0,9.724,1.333,8.771,11.043,0,0,7.465,6.853,2.7,15.04,0,0,4.754,13.634-5.557,14.85a9.358,9.358,0,0,1-5.773,8.7s-1.09,7.289-7.572,6.146c0,0-4.959,5.523-8.579,2.476Z" transform="translate(-0.054 -0.074)" fill="#97bcce"/>
                  <path id="Path-178" data-name="Path" d="M65.425,17.462c.954-9.71-8.771-11.043-8.771-11.043C61.5,27.352,49.671,54.138,31.3,56.523S3.653,51.729,3.653,51.729c-.381,7.046,8.772,7.806,8.772,7.806,1.716,7.043,9.343,5.14,9.343,5.14,4.574,6.663,11.462,1.712,11.462,1.712l7.412-1.712c3.622,3.047,8.579-2.477,8.579-2.477,6.48,1.145,7.572-6.146,7.572-6.146a9.356,9.356,0,0,0,5.773-8.7c10.311-1.217,5.557-14.85,5.557-14.85C72.89,24.316,65.425,17.462,65.425,17.462Z" transform="translate(3.031 5.383)" fill="#97bcce"/>
               </g>
               <path id="Path-179" data-name="Path" d="M13.311,30.338s10.862,1.107,11.64,6.643-1.164,50.186-1.164,50.186h11.64s-5.046-50.187-3.3-53.824S39.5,27.648,39.5,27.648s-6.4-.158-8.535,1.74a9.013,9.013,0,0,1-7.761,1.9C20.294,30.814,17.384,30.023,13.311,30.338Z" transform="translate(11.349 23.642)" fill="#97bcce"/>
            </g>
            <g id="trae1-copy-2" transform="translate(656.841 42.321)">
               <g id="Group-9" data-name="Group" transform="translate(0 0)">
                  <path id="Path-180" data-name="Path" d="M21.124,41.717s-4.007,2.875-6.668-.994c0,0-4.436,1.106-5.435-2.984,0,0-5.323-.441-5.1-4.533,0,0-6.431-3.095-2.217-8.954,0,0-4.1-3.648.553-7.738,0,0-3.549-5.306,2.663-6.853,0,0,.555-6.3,6.765-4.865,0,0,1.663-5.306,7.652-3.316,0,0,5.38-3.988,8.429,1.327,0,0,5.879-.774,6.987,4.09,0,0,5.657.774,5.1,6.412,0,0,4.342,3.979,1.569,8.733,0,0,2.765,7.917-3.233,8.622a5.431,5.431,0,0,1-3.358,5.054s-.634,4.232-4.4,3.569c0,0-2.884,3.207-4.99,1.438Z" transform="translate(-0.032 -0.043)" fill="#97bcce"/>
                  <path id="Path-181" data-name="Path" d="M38.058,10.139c.555-5.638-5.1-6.412-5.1-6.412,2.816,12.155-4.062,27.708-14.75,29.093S2.125,30.036,2.125,30.036c-.222,4.091,5.1,4.533,5.1,4.533,1,4.09,5.435,2.984,5.435,2.984,2.661,3.869,6.668.994,6.668.994l4.312-.994c2.107,1.769,4.99-1.438,4.99-1.438,3.77.665,4.4-3.569,4.4-3.569a5.431,5.431,0,0,0,3.358-5.054c6-.707,3.233-8.622,3.233-8.622C42.4,14.119,38.058,10.139,38.058,10.139Z" transform="translate(1.763 3.126)" fill="#97bcce"/>
               </g>
               <path id="Path-182" data-name="Path" d="M7.679,17.677s6.32.637,6.772,3.826-.677,28.907-.677,28.907h6.772s-2.936-28.908-1.919-31,4.289-3.279,4.289-3.279-3.726-.091-4.966,1a5.283,5.283,0,0,1-4.515,1.093A21.542,21.542,0,0,0,7.679,17.677Z" transform="translate(6.547 13.792)" fill="#97bcce"/>
            </g>
            <g id="trae2" transform="translate(609.631 11.334)">
               <g id="Group-10" data-name="Group" transform="translate(0 0)">
                  <path id="Path-183" data-name="Path" d="M58.818,23.36c-2.549-9.052-10.972-13.269-18.618-13.3C37.127,2.19,26.925-2.092,18.65,1.074c-9.6,3.673-12.2,14.359-9.759,21.872,0,0,0,0,0,0a15.732,15.732,0,0,0-7.341,6.768c-4.317,7.5,1.25,17.508,9.622,19.348,7.648,1.682,13.926-3.384,16.3-9.11A20.317,20.317,0,0,0,42.284,46.47C53.683,46.813,61.865,34.176,58.818,23.36Z" transform="translate(-0.054 -0.024)" fill="#97bcce"/>
                  <path id="Path-184" data-name="Path" d="M39.2,32.476a15.4,15.4,0,0,1-11.278-3.032s-4.888,5.273-14.656,6.009C4.221,36.133.6,30.41.115,29.555c-.66,6.535,4.279,13.381,11.059,14.87,7.648,1.682,13.926-3.385,16.3-9.111a20.317,20.317,0,0,0,14.809,6.514c11.4.343,19.58-12.293,16.533-23.111C56.267,9.665,47.844,5.449,40.2,5.421,53.973,15.343,46.338,31.794,39.2,32.476Z" transform="translate(-0.053 4.619)" fill="#97bcce"/>
               </g>
               <path id="Path-185" data-name="Path" d="M15.417,88.187s1.4-48.473,1-50.144-5.412-9.314-5.412-9.314,6.416,6.924,7.016,4.06,1.8-24.6,1.8-24.6.4,21.971,2.005,21.732,8.22-8.837,8.22-8.837-7.62,11.463-7.62,15.761.6,51.338.6,51.338h-7.62Z" transform="translate(9.367 7.001)" fill="#97bcce"/>
            </g>
            <g id="trae2-copy" transform="translate(583.918 11.334)">
               <g id="Group-11" data-name="Group" transform="translate(0 0)">
                  <path id="Path-186" data-name="Path" d="M58.818,23.36c-2.549-9.052-10.972-13.269-18.618-13.3C37.127,2.19,26.925-2.092,18.65,1.074c-9.6,3.673-12.2,14.359-9.759,21.872,0,0,0,0,0,0a15.732,15.732,0,0,0-7.341,6.768c-4.317,7.5,1.25,17.508,9.622,19.348,7.648,1.682,13.926-3.384,16.3-9.11A20.317,20.317,0,0,0,42.284,46.47C53.683,46.813,61.865,34.176,58.818,23.36Z" transform="translate(-0.054 -0.024)" fill="#97bcce"/>
                  <path id="Path-187" data-name="Path" d="M39.2,32.476a15.4,15.4,0,0,1-11.278-3.032s-4.888,5.273-14.656,6.009C4.221,36.133.6,30.41.115,29.555c-.66,6.535,4.279,13.381,11.059,14.87,7.648,1.682,13.926-3.385,16.3-9.111a20.317,20.317,0,0,0,14.809,6.514c11.4.343,19.58-12.293,16.533-23.111C56.267,9.665,47.844,5.449,40.2,5.421,53.973,15.343,46.338,31.794,39.2,32.476Z" transform="translate(-0.053 4.619)" fill="#97bcce"/>
               </g>
               <path id="Path-188" data-name="Path" d="M15.417,88.187s1.4-48.473,1-50.144-5.412-9.314-5.412-9.314,6.416,6.924,7.016,4.06,1.8-24.6,1.8-24.6.4,21.971,2.005,21.732,8.22-8.837,8.22-8.837-7.62,11.463-7.62,15.761.6,51.338.6,51.338h-7.62Z" transform="translate(9.367 7.001)" fill="#97bcce"/>
            </g>
            <g id="Group-82" transform="translate(397.635 69.905)">
               <path id="Fill-1" d="M87.354,11.6c2.428,6.766-6.741,20.764-13.821,20.764H17.74c-7.08,0-14.313-14-11.885-20.764l5.094-4.949A12,12,0,0,0,22.834,18.768H70.375A12,12,0,0,0,82.26,6.655Z" transform="translate(4.624 5.586)" fill="#97bcce" fill-rule="evenodd"/>
               <path id="Fill-3" d="M95.6,11.462a13.964,13.964,0,0,1,.011,19.529,13.488,13.488,0,0,1-9.629,4.05H14.618A13.7,13.7,0,0,1,1.024,21.232,13.7,13.7,0,0,1,14.618,7.423L12.8,12.515a10.4,10.4,0,0,0,6.1,13.272,10.052,10.052,0,0,0,3.485.623H78.221a10.277,10.277,0,0,0,10.2-10.355,10.5,10.5,0,0,0-.614-3.54L85.986,7.423A13.511,13.511,0,0,1,95.6,11.462" transform="translate(0.881 6.247)" fill="#97bcce" fill-rule="evenodd"/>
               <path id="Fill-5" d="M22.526,23.7a4.067,4.067,0,0,1,6.19,0" transform="translate(19.377 19.018)" fill="#97bcce" fill-rule="evenodd"/>
               <path id="Fill-7" d="M86.615,34.167H54.807L59.9,29.009H78.86A11.963,11.963,0,0,0,90.748,16.972a12.169,12.169,0,0,0-.716-4.114l-.893-2.485a12.051,12.051,0,0,1-2.524,23.794ZM34.2,29.009H55.1L50,34.167H29.1ZM3.4,22.131a12.019,12.019,0,0,1,9.365-11.758l-.893,2.485a12.078,12.078,0,0,0,7.108,15.426,11.755,11.755,0,0,0,4.064.725H29.4L24.3,34.167H15.285A11.979,11.979,0,0,1,3.4,22.131Zm23.777,0H36.19l-3.4,3.439H23.04a8.531,8.531,0,0,1-8.483-8.579,8.682,8.682,0,0,1,.4-2.622,13.573,13.573,0,0,0,12.213,7.762Zm34.719,0L58.5,25.57H37.6l3.4-3.439Zm12.834,0a13.573,13.573,0,0,0,12.213-7.762,8.606,8.606,0,0,1-5.49,10.792,8.374,8.374,0,0,1-2.589.409H63.3l3.4-3.439Zm-9.438-3.439h0Zm-25.7,0H27.173A10.266,10.266,0,0,1,16.983,8.375a1.709,1.709,0,0,0-1.7-1.719,15.477,15.477,0,0,0,0,30.951ZM25.7,37.606h0Zm25.7,0H86.615a15.477,15.477,0,0,0,0-30.951,1.709,1.709,0,0,0-1.7,1.719,10.266,10.266,0,0,1-10.19,10.317H70.092Z" transform="translate(0 5.586)" fill="#97bcce" fill-rule="evenodd"/>
               <path id="Fill-9" d="M30.382,14.164c2.261-4.045,1.149-4.479,1.643-5.042.535-.609,0-1.954,0-1.954-1.432.13-2.547-.358-3.014,1.121,0,0-.819,6.61-.819,6.705s-2.6,4.031-2.6,4.031,1.2-.638,1.416,1l2.822-3.148Z" transform="translate(22.019 6.027)" fill="#97bcce" fill-rule="evenodd"/>
               <path id="Fill-11" d="M32.523,6.963c.025,0,1.609.276,1.936.782.227.352,1.568,9.609,1.568,9.609l-.769,1.462-1.82-.553s-.776-7.83-1.369-8.5c-.421-.473-.589-3.263.454-2.8" transform="translate(27.304 5.806)" fill="#97bcce" fill-rule="evenodd"/>
               <path id="Fill-13" d="M35.11,18.392c.275-1.706,1.52-10.87,1.346-11.006a14.174,14.174,0,0,0-4.545-.723A14.784,14.784,0,0,0,27.9,7.936c.174,1.017,1.01,8.66,1.219,10.352,1.819,1.636,3.91,1.593,5.99.1" transform="translate(24.001 5.586)" fill="#97bcce" fill-rule="evenodd"/>
               <path id="Fill-15" d="M30.681,6.919s-.191,4.756-.032,6c.342,2.684-.629,8.777-.427,9.5s-2.354-.6-2.826-1.044c-.107-.1,1.043-4.686,1.144-5.084,0,0-.745-3.056-.728-3.245.109-1.178.117-5.132.117-5.132.5-.241,2.941-1.091,2.751-.991" transform="translate(23.561 5.806)" fill="#97bcce" fill-rule="evenodd"/>
               <path id="Fill-17" d="M30.472,6.655a5.708,5.708,0,0,0-1.31.388,6.081,6.081,0,0,0-.592,1.465,8.9,8.9,0,0,0,1.136.444s-1.422.64-1.544,1.079,1.931,6.146,1.931,6.146a74.914,74.914,0,0,0,.379-9.523" transform="translate(24.221 5.586)" fill="#97bcce" fill-rule="evenodd"/>
               <path id="Fill-19" d="M28.673,6.75a12.549,12.549,0,0,1,2.419-.339,15.668,15.668,0,0,1,2.807.178A22.389,22.389,0,0,1,31.242,8.3s-2.308-1.37-2.569-1.554" transform="translate(24.662 5.366)" fill="#97bcce" fill-rule="evenodd"/>
               <path id="Fill-21" d="M29.239,6.792l-.058,1.732,1.439-.4.942.361-1.35-1.594.311-.18-.044-.563s-1.21.359-1.239.649" transform="translate(25.102 5.146)" fill="#97bcce" fill-rule="evenodd"/>
               <path id="Fill-23" d="M29.7,8.7a2.672,2.672,0,0,0,1.734.032c.178-.045.415-.092.639-.161L31.909,4.1l-2.162.213-.054,4.343s.006.044.008.045" transform="translate(25.542 3.384)" fill="#97bcce" fill-rule="evenodd"/>
               <path id="Fill-25" d="M27.657,5.727C27.8,8.5,29.842,11.766,32,11.719c2.72-.059,4.346-3.629,4.206-6.4A4.758,4.758,0,0,0,31.193.771C28.6.865,27.517,2.956,27.657,5.727" transform="translate(23.781 0.522)" fill="#97bcce" fill-rule="evenodd"/>
               <path id="Fill-27" d="M29.546,4.1c-.038.02.071-.006.1.028-.3.325-.6.815-.534,1.01.093.3.383.231.767.146a.13.13,0,0,1-.031.052c-.147.119-.787.379-.9-.026-.137-.469.618-1.216.6-1.21" transform="translate(24.882 3.384)" fill="#97bcce" fill-rule="evenodd"/>
               <path id="Fill-29" d="M31.154,4.287a.446.446,0,0,1-.418.5.507.507,0,0,1-.528-.447.445.445,0,0,1,.418-.5.508.508,0,0,1,.528.447" transform="translate(25.983 3.164)" fill="#97bcce" fill-rule="evenodd"/>
               <path id="Fill-31" d="M29.357,4.529a.428.428,0,0,1-.383.517.53.53,0,0,1-.554-.432A.429.429,0,0,1,28.8,4.1a.529.529,0,0,1,.553.432" transform="translate(24.441 3.384)" fill="#97bcce" fill-rule="evenodd"/>
               <path id="Fill-33" d="M29.949,3.132A3.789,3.789,0,0,1,31,2.821a3.861,3.861,0,0,1,.858.072l-.095.374a2.153,2.153,0,0,1-.644.127,3.339,3.339,0,0,0-1.021.374Z" transform="translate(25.763 2.283)" fill="#97bcce" fill-rule="evenodd"/>
               <path id="Fill-35" d="M29.806,3.329a6.524,6.524,0,0,0-1.081.067,6.671,6.671,0,0,0-.824.229l.161.179a3.838,3.838,0,0,0,.654-.075A5.532,5.532,0,0,1,29.783,3.7Z" transform="translate(24.001 2.724)" fill="#97bcce" fill-rule="evenodd"/>
               <path id="Fill-37" d="M31.96,1.9l-.044,0c-.026.029-.051.058-.081.087Z" transform="translate(27.385 1.492)" fill="#97bcce" fill-rule="evenodd"/>
               <path id="Fill-39" d="M32.217,1.814l-.476.395a2.208,2.208,0,0,0,.476-.395" transform="translate(27.304 1.421)" fill="#97bcce" fill-rule="evenodd"/>
               <path id="Fill-41" d="M31.567,4.109c-.163.666-.1,1.16.329,1.308a1.262,1.262,0,0,0,1.439-.845c.163-.666-.05-1.325-.479-1.474s-1.125.345-1.289,1.011" transform="translate(27.084 2.503)" fill="#97bcce" fill-rule="evenodd"/>
               <path id="Fill-43" d="M31.385,5.375a2.523,2.523,0,0,1-1.159.429,3.271,3.271,0,0,1-1.011-.016c0,.109-.019.2-.023.306,0,.093-.007.053-.01.146A2.827,2.827,0,0,0,30.23,6.3l.111-.014a2.639,2.639,0,0,0,1.221-.5Z" transform="translate(25.102 4.485)" fill="#97bcce" fill-rule="evenodd"/>
               <path id="Fill-45" d="M33.987,3.889s.189,1.638-.085,1.8a2.22,2.22,0,0,0-.647.8,8.71,8.71,0,0,0-1.573-2.935c-.92-.877-.568-.584-.807-.93a2.411,2.411,0,0,1-.042-1.6c.126-.227,1.1-.57,2.17.37a3.925,3.925,0,0,1,.984,2.5" transform="translate(26.423 0.522)" fill="#97bcce" fill-rule="evenodd"/>
               <g id="Group-49" transform="translate(50.116 0)">
                  <path id="Fill-47" d="M6.595,3A7.886,7.886,0,0,0,2.437,4.835,6.664,6.664,0,0,0,.895,6.887,4.069,4.069,0,0,1,.2,3.664C.835,2.2,1.311.916,3.027.412,4.827-.116,6.517-.051,7.4.8c.152.146-.741,2.05-.8,2.207" transform="translate(-0.064 -0.075)" fill="#97bcce" fill-rule="evenodd"/>
               </g>
               <path id="Fill-50" d="M31.413.768l-.487,1.9-.466-.082Z" transform="translate(26.203 0.522)" fill="#97bcce" fill-rule="evenodd"/>
               <path id="Fill-52" d="M29.437,18.282a4.185,4.185,0,0,0,1.051,1.624,63.185,63.185,0,0,0,5.976-4.974,5.165,5.165,0,0,0,1.068-2.644l-1.574.556s-1.453.971-2.828,1.94c-.233.164-.793.829-3.693,3.5" transform="translate(25.322 10.43)" fill="#97bcce" fill-rule="evenodd"/>
               <path id="Fill-54" d="M32.376,2.56S31.727,8,30.717,9.226a1.151,1.151,0,0,0,.649-.324A33.625,33.625,0,0,0,33.1,2.657Z" transform="translate(26.423 2.063)" fill="#97bcce" fill-rule="evenodd"/>
               <path id="Fill-56" d="M22.41,14.183c2.859,1.215,3.328.3.39-.944s-3.9-5.018-8.151-6.823L7.979,3.583a1.887,1.887,0,0,0-2.425.45A8.6,8.6,0,0,0,3.843,8.177a1.819,1.819,0,0,0,1.386,2.069S7.5,11.3,11.86,13.062s7.692-.093,10.55,1.121" transform="translate(3.303 2.724)" fill="#97bcce" fill-rule="evenodd"/>
               <path id="Fill-58" d="M22.248,13.717c2.8,1.176,3.245.326.369-.883S18.758,8.07,14.6,6.323L8.071,3.58a1.863,1.863,0,0,0-2.357.394A7.724,7.724,0,0,0,4.1,7.85c-.03,1.131.377,1.542,1.374,1.961,0,0,2.223,1.021,6.49,2.727s7.488,0,10.287,1.179" transform="translate(3.523 2.724)" fill="#97bcce" fill-rule="evenodd"/>
               <path id="Fill-60" d="M18.788,10.185A13.135,13.135,0,0,0,13.974,6.3l-6-2.491a1.725,1.725,0,0,0-2.159.345A6.815,6.815,0,0,0,4.353,7.637C4.329,8.654,4.7,9.025,5.619,9.405c0,0,2.042.926,5.96,2.476a13.786,13.786,0,0,0,6.073.7,1.5,1.5,0,0,0,1.136-2.4" transform="translate(3.743 2.944)" fill="#97bcce" fill-rule="evenodd"/>
               <path id="Fill-62" d="M18.379,10.4c-1.278-1.314-2.6-3-5.03-4.011L7.742,4.056a1.611,1.611,0,0,0-2.019.322,6.4,6.4,0,0,0-1.37,3.258c-.021.953.329,1.3,1.186,1.658,0,0,1.91.869,5.574,2.323a15.639,15.639,0,0,0,6.462.771,1.253,1.253,0,0,0,.805-1.983" transform="translate(3.743 3.164)" fill="#97bcce" fill-rule="evenodd"/>
               <path id="Fill-64" d="M4.949,5.14a.146.146,0,0,1-.075-.189.138.138,0,0,1,.183-.077L17.634,10.3a.144.144,0,0,1,.074.188.137.137,0,0,1-.182.077Z" transform="translate(4.184 4.045)" fill="#97bcce" fill-rule="evenodd"/>
               <path id="Fill-66" d="M4.936,5.891a.127.127,0,0,1-.06-.172.135.135,0,0,1,.169-.079l11.174,4.494a.126.126,0,0,1,.06.171.135.135,0,0,1-.169.08Z" transform="translate(4.184 4.705)" fill="#97bcce" fill-rule="evenodd"/>
               <path id="Fill-68" d="M5.162,6.428c-.045-.02-.056-.1-.026-.176s.091-.124.136-.1l7.9,3.52c.044.02.056.1.025.176s-.091.124-.136.1Z" transform="translate(4.404 5.146)" fill="#97bcce" fill-rule="evenodd"/>
               <path id="Fill-70" d="M5.191,4.867A.126.126,0,0,1,5.132,4.7a.135.135,0,0,1,.169-.08L16.476,9.11a.126.126,0,0,1,.059.171.135.135,0,0,1-.169.08Z" transform="translate(4.404 3.825)" fill="#97bcce" fill-rule="evenodd"/>
               <path id="Fill-72" d="M6.186,4.38c-.045-.02-.056-.1-.025-.176s.091-.124.135-.1l7.9,3.52c.045.02.056.1.026.176s-.091.124-.136.1Z" transform="translate(5.285 3.384)" fill="#97bcce" fill-rule="evenodd"/>
               <path id="Fill-74" d="M12.294,8.316c.167-.5,2.832.651,2.832.651l25.254,10.7-.373.9L14.8,9.89s-2.677-1.075-2.509-1.574" transform="translate(10.569 6.907)" fill="#97bcce" fill-rule="evenodd"/>
               <path id="Fill-76" d="M26.959,17.08c-.382-.183-.151-1.759-1.106-2.216.037-.148.927.1.983-.047s-.72-.723-.648-.866c.955.457,1.77-.8,2.147-.623.448.214.5,1.227.122,2.263s-1.051,1.7-1.5,1.488" transform="translate(22.24 11.311)" fill="#97bcce" fill-rule="evenodd"/>
               <path id="Fill-78" d="M28.01,13.683c.4.194.466,1.072.175,2.008.024-.058.047-.116.068-.176.358-1,.307-1.981-.115-2.188-.356-.174-1.123,1.043-2.023.6-.037.074.159.265.339.45.694-.043,1.265-.839,1.557-.7" transform="translate(22.46 11.311)" fill="#97bcce" fill-rule="evenodd"/>
               <path id="Fill-80" d="M28.649,14.881c.022-.057.041-.115.061-.172-.416.972-1.086,1.578-1.54,1.369-.342-.157-.227-1.315-.773-1.969-.259-.027-.523-.059-.543.02,1.024.473.776,2.1,1.187,2.289.48.221,1.2-.467,1.609-1.537" transform="translate(22.24 11.972)" fill="#97bcce" fill-rule="evenodd"/>
            </g>
         </g>
      </g>
   </g>
</svg>