<svg id="Layer_1" data-name="Layer 1" xmlns="http://www.w3.org/2000/svg" viewBox="0 0 300 300"><defs><style>.cls-1{fill:#fff;}.cls-2{fill:#444;}.cls-3{fill:#fc3339;}.cls-4{fill:#2b6d84;}.cls-5{fill:none;stroke:#444;stroke-linecap:round;stroke-miterlimit:10;stroke-width:5px;}</style></defs><path class="cls-1" d="M300.01181,150.01181a151.46083,151.46083,0,0,1-2.24,26,149.98151,149.98151,0,0,1-137.58008,123.66c-3.35986.23005-6.76.34-10.17993.34s-6.82007-.11-10.17993-.34a150.0028,150.0028,0,1,1,160.17993-149.66Z"/><g id="Mask_Group_10" data-name="Mask Group 10"><g id="Info3_2" data-name="Info3 2"><g id="Layer_16" data-name="Layer 16"><rect id="Rectangle_260" data-name="Rectangle 260" class="cls-2" x="42.62331" y="159.24666" width="23.296" height="38.048" rx="10.565"/><circle id="Ellipse_92" data-name="Ellipse 92" class="cls-2" cx="54.26631" cy="149.99766" r="9.257"/><rect id="Rectangle_261" data-name="Rectangle 261" class="cls-2" x="234.05032" y="159.25466" width="23.296" height="38.048" rx="10.565"/><circle id="Ellipse_93" data-name="Ellipse 93" class="cls-2" cx="245.69432" cy="149.99766" r="9.257"/><path id="Path_219" data-name="Path 219" class="cls-3" d="M35.56531,187.30667h76.86a6.217,6.217,0,0,1,6.217,6.217h0a30.124,30.124,0,0,1-30.124,30.124h-29.08a30.124,30.124,0,0,1-30.124-30.124v-.002h0a6.217,6.217,0,0,1,6.217-6.217Z"/><path id="Path_220" data-name="Path 220" class="cls-3" d="M240.4713,223.64865h-29.045a30.124,30.124,0,0,1-30.124-30.124v0h0a6.217,6.217,0,0,1,6.217-6.217h76.859a6.217,6.217,0,0,1,6.217,6.217h0a30.124,30.124,0,0,1-30.124,30.124h0Z"/><path id="Path_221" data-name="Path 221" class="cls-2" d="M154.93231,200.46266a2.548,2.548,0,0,1-2.548,2.548h-12.468l2.59,3.694a1.783,1.783,0,0,1-2.089,2.7l-.2-.1-6.203-3.583-6.217-3.584a1.953,1.953,0,0,1,0-3.4l6.217-3.584,6.208-3.584a1.07748,1.07748,0,0,1,.2-.1,1.775,1.775,0,0,1,2.089,2.692l-2.59,3.694h12.442a2.548,2.548,0,0,1,2.57355,2.52219q.00044.04242-.00055.08481Z"/><path id="Path_222" data-name="Path 222" class="cls-2" d="M146.43931,200.46266a2.548,2.548,0,0,0,2.548,2.548h12.442l-2.59,3.694a1.783,1.783,0,0,0,2.089,2.7l.2-.1,6.212-3.583,6.208-3.584a1.953,1.953,0,0,0,0-3.4l-6.191-3.584-6.208-3.584-.2-.1a1.775,1.775,0,0,0-2.089,2.692l2.59,3.694h-12.446a2.548,2.548,0,0,0-2.56563,2.53026Q146.43841,200.42429,146.43931,200.46266Z"/></g><g id="Layer_17" data-name="Layer 17"><path class="cls-4" d="M284.02182,217.47177a150.04938,150.04938,0,0,1-123.83008,82.2H139.83188a150.05769,150.05769,0,0,1-123.82007-82.19,13.96408,13.96408,0,0,0,2.71.25c8.27,0,9.22-5.94,15.71-7.39a13.94361,13.94361,0,0,1,3.04-.31c9.41,0,9.35,7.7,18.76,7.7,9.4,0,9.33-7.7,18.74-7.7s9.34,7.7,18.75,7.7,9.34-7.7,18.75-7.7c.42,0,.82.02,1.21.05,8.21.63,8.56,7.65,17.55,7.65,9.41,0,9.3501-7.7,18.75-7.7,9.4,0,9.33008,7.7,18.74,7.7,8.99,0,9.34009-7.02,17.54-7.65.39-.03.79-.05,1.21-.05,9.41,0,9.34009,7.7,18.75,7.7,9.41,0,9.34009-7.7,18.75-7.7,9.41,0,9.34009,7.7,18.75,7.7,9.41,0,9.34009-7.7,18.75-7.7a13.49776,13.49776,0,0,1,3,.31c6.53,1.42,7.48,7.39,15.76,7.39A13.86146,13.86146,0,0,0,284.02182,217.47177Z"/></g></g></g><g id="Group_76" data-name="Group 76"><path id="Path_183" data-name="Path 183" class="cls-5" d="M122.74331,58.41966s14.329-14.289,28.855,0"/><path id="Path_184" data-name="Path 184" class="cls-5" d="M93.58531,58.41966s14.329-14.289,28.855,0"/></g><g id="Group_77" data-name="Group 77"><path id="Path_284" data-name="Path 284" class="cls-5" d="M215.74331,101.41966s14.329-14.289,28.855,0"/><path id="Path_285" data-name="Path 285" class="cls-5" d="M186.58531,101.41966s14.329-14.289,28.855,0"/></g></svg>