<svg id="Layer_1" data-name="Layer 1" xmlns="http://www.w3.org/2000/svg" viewBox="0 0 300 300"><defs><style>.cls-1{fill:#93bd59;}.cls-2{fill:#fff;}.cls-3,.cls-7{fill:none;stroke-miterlimit:10;}.cls-3{stroke:#93bd59;stroke-width:7.33px;}.cls-4{fill:#444;}.cls-5{fill:#2f6e83;}.cls-6{fill:#67a0b8;}.cls-7{stroke:#444;stroke-linecap:round;stroke-width:21.989px;}</style></defs><path class="cls-1" d="M267.69174,243.01181a150.29206,150.29206,0,0,1-43.40991,37.34c-1.06006.61-2.13,1.2-3.2,1.78-1.09009.59-2.19006,1.17-3.3,1.73a149.92778,149.92778,0,0,1-174.75-28.72,146.75659,146.75659,0,0,1-10.7-12.13Z"/><path class="cls-2" d="M289.6019,205.01181a149.42918,149.42918,0,0,1-21.91016,38,150.29206,150.29206,0,0,1-43.40991,37.34c-1.06006.61-2.13,1.2-3.2,1.78-1.09009.59-2.19006,1.17-3.3,1.73a149.92778,149.92778,0,0,1-174.75-28.72,146.75659,146.75659,0,0,1-10.7-12.13,149.32256,149.32256,0,0,1-21.91016-38Z"/><path class="cls-2" d="M300.01181,150.01181a149.49835,149.49835,0,0,1-10.40991,55,149.42918,149.42918,0,0,1-21.91016,38,150.29206,150.29206,0,0,1-43.40991,37.34c-1.06006.61-2.13,1.2-3.2,1.78-1.09009.59-2.19006,1.17-3.3,1.73a149.92778,149.92778,0,0,1-174.75-28.72,146.75659,146.75659,0,0,1-10.7-12.13,149.99663,149.99663,0,1,1,267.67993-93Z"/><g id="Mask_Group_11" data-name="Mask Group 11"><g id="Layer_16" data-name="Layer 16"><path id="Path_224" data-name="Path 224" class="cls-3" d="M138.82982,138.43181c0-32.819-31.051-47.91-57.035-48.065-26.827-.165-50.393,6.844-57.585,16.62a6.30007,6.30007,0,0,0-1.292,3.766"/><path class="cls-4" d="M280.77182,188.48178v35.07a150.91039,150.91039,0,0,1-56.49,56.8c-1.06006.61-2.13,1.2-3.2,1.78-1.09009.59-2.19006,1.17-3.3,1.73a149.2862,149.2862,0,0,1-22.12,9.08v-104.69a11.40641,11.40641,0,0,1,11.4-11.17H269.3718A11.395,11.395,0,0,1,280.77182,188.48178Z"/><circle id="Ellipse_95" data-name="Ellipse 95" class="cls-4" cx="238.21281" cy="143.27881" r="33.8"/><path class="cls-5" d="M119.73178,131.32181v165.63a149.61866,149.61866,0,0,1-76.69995-41.81v-172.48l6.54,4.15,8.45,5.37h.01l55.13989,34.98,1.63013,1.03Z"/><ellipse id="Ellipse_96" data-name="Ellipse 96" class="cls-5" cx="81.34927" cy="105.3961" rx="31.115" ry="57.512" transform="translate(-39.70811 49.97813) rotate(-27.74)"/><ellipse id="Ellipse_97" data-name="Ellipse 97" class="cls-6" cx="81.34846" cy="105.39578" rx="25.792" ry="47.671" transform="translate(-39.70806 49.97771) rotate(-27.74)"/><line id="Line_129" data-name="Line 129" class="cls-7" x1="214.73881" y1="196.91481" x2="138.83881" y2="162.45581"/><path class="cls-1" d="M224.28183,280.35178c-1.06006.61-2.13,1.2-3.2,1.78-1.09009.59-2.19006,1.17-3.3,1.73-6.02-7.7-13.83008-15.05-22.12-22.78-.24012-.22-.49012-.45-.73011-.68l-1.76989-1.65c-4.89-4.57-10.4701-9.77-16.16-15.74-9.40991-9.86-19.14-21.79-26.61-36.33-.28992-.55-.57-1.11-.84-1.67a135.01821,135.01821,0,0,1-12.63013-41.25,175.10375,175.10375,0,0,1-1.75-24.46c-1.08984-.63995-4.55993-1.92-15.43994-3.2l-.24-.03h-.02l-.16992-.02c-2.07007-.24-4.36011-.48-6.82007-.71-.11-.01-.22-.02-.34-.03-5.11-.48-10.69007-.92-16.58-1.39-9.19006-.73-18.66-1.48-27.8-2.48-1.17993-.13-2.36-.26-3.53-.4-1.34-.16-2.66992-.33-3.98-.5-1.08008-.15-2.14-.29-3.18994-.44-5.34009-.77-9.95007-1.6-14.03-2.52-.28-.06-.56006-.13-.84009-.19-9.83984-2.32-22.92993-6.57-22.92993-16.64a3.67026,3.67026,0,0,1,3.66992-3.66,3.93708,3.93708,0,0,1,1.09009.16,3.67409,3.67409,0,0,1,2.57007,3.5c0,3.36,5.98,6.73,16.43994,9.29.28.08.56006.14.84.21,3.28.77,7.07995,1.49,11.30993,2.15.95008.15,1.93006.3,2.92017.44,1.2699.18,2.55994.36,3.86987.53,1.03.14,2.08008.27,3.13013.39,10.05994,1.2,20.73,2.04,31.03992,2.85,6.0299.48,11.73.93,17,1.43005h.03991q.82507.075,1.62012.15c1.74.18,3.3999.36,4.92993.53.07007.00995.13.00995.2.02l.2201.03c8.47.98,14.67,2.08,18.36,4.02,2.63,1.37,3.99,3.16,3.99,5.63995a167.69969,167.69969,0,0,0,1.67993,24.27q.16517,1.17.36011,2.34a126.91285,126.91285,0,0,0,12.37,38.29993c.28991.56006.57995,1.12.88,1.67,8,15.02,18.1,26.7,29.52,38,2.71,2.69,5.5,5.36,8.35,8.04.82995.78,1.66,1.56,2.5,2.34l1.76989,1.65c8.96009,8.36005,17.43006,16.27,24.05005,24.85A3.28788,3.28788,0,0,1,224.28183,280.35178Z"/></g></g></svg>