<svg id="Layer_1" data-name="Layer 1" xmlns="http://www.w3.org/2000/svg" viewBox="0 0 300 300"><defs><style>.cls-1{fill:#fff;}.cls-2{fill:#888;}.cls-3{fill:#444;}.cls-4{fill:#f1f1f1;}.cls-5,.cls-6,.cls-8{fill:none;stroke-linecap:round;}.cls-5,.cls-8{stroke:#444;}.cls-5{stroke-linejoin:round;stroke-width:3px;}.cls-6{stroke:#93bd59;stroke-width:12.002px;}.cls-6,.cls-8{stroke-miterlimit:10;}.cls-7{fill:#93bd59;}.cls-8{stroke-width:9.751px;}</style></defs><path class="cls-1" d="M300.01181,150.01181a149.9133,149.9133,0,0,1-68.81,126.15c-1.58,1.01-3.17,2-4.78,2.95q-2.36993,1.41-4.78,2.72a150.18615,150.18615,0,0,1-143.27-.01c-1.61-.87-3.2-1.78-4.78-2.71q-2.41508-1.43994-4.77-2.95a150.00788,150.00788,0,1,1,231.19-126.15Z"/><g id="Mask_Group_6" data-name="Mask Group 6"><g id="Info1_2" data-name="Info1 2"><g id="Layer_16" data-name="Layer 16"><path class="cls-2" d="M226.42178,81.14182v197.97q-2.36993,1.41-4.78,2.72a150.18615,150.18615,0,0,1-143.27-.01c-1.61-.87-3.2-1.78-4.78-2.71v-197.97a13.21088,13.21088,0,0,1,13.21-13.21h126.42A13.20234,13.20234,0,0,1,226.42178,81.14182Z"/><path id="Path_195" data-name="Path 195" class="cls-3" d="M215.2518,63.16184h-130.49a15.94435,15.94435,0,0,0-15.94,15.94V276.16177q2.355,1.515,4.77,2.95c1.57995.93,3.17,1.84,4.78,2.71v-202.72a6.38883,6.38883,0,0,1,6.39-6.39h130.49a6.38884,6.38884,0,0,1,6.39,6.39v202.73q2.415-1.305,4.78-2.72c1.61005-.95,3.2-1.94,4.78-2.95V79.10184A15.94653,15.94653,0,0,0,215.2518,63.16184Z"/></g><g id="Layer_21" data-name="Layer 21"><rect id="Rectangle_251" data-name="Rectangle 251" class="cls-4" x="78.37281" y="150.09081" width="143.276" height="65.39"/><path id="Path_196" data-name="Path 196" class="cls-5" d="M91.92981,160.53181c3.629,0,3.629,5.075,7.257,5.075s3.629-5.075,7.257-5.075,3.629,5.075,7.257,5.075,3.629-5.075,7.263-5.075,3.629,5.075,7.257,5.075,3.635-5.075,7.263-5.075,3.629,5.075,7.263,5.075,3.629-5.075,7.263-5.075,3.629,5.075,7.257,5.075,3.635-5.075,7.263-5.075,3.629,5.075,7.257,5.075,3.629-5.075,7.257-5.075,3.629,5.075,7.263,5.075,3.629-5.075,7.257-5.075,3.635,5.075,7.263,5.075,3.635-5.075,7.263-5.075"/><path id="Path_197" data-name="Path 197" class="cls-5" d="M91.92981,173.21982c3.629,0,3.629,5.075,7.257,5.075s3.629-5.075,7.257-5.075,3.629,5.075,7.257,5.075,3.629-5.075,7.263-5.075,3.629,5.075,7.257,5.075,3.635-5.075,7.263-5.075,3.629,5.075,7.263,5.075,3.629-5.075,7.263-5.075,3.629,5.075,7.257,5.075,3.635-5.075,7.263-5.075,3.629,5.075,7.257,5.075,3.629-5.075,7.257-5.075,3.629,5.075,7.263,5.075,3.629-5.075,7.257-5.075,3.635,5.075,7.263,5.075,3.635-5.075,7.263-5.075"/><circle id="Ellipse_85" data-name="Ellipse 85" class="cls-1" cx="150.01081" cy="109.83481" r="29.942"/><path id="Path_198" data-name="Path 198" class="cls-6" d="M133.3458,112.75181l12,10.423,20.813-24.74"/><rect id="Rectangle_252" data-name="Rectangle 252" class="cls-7" x="162.90181" y="192.26981" width="45.198" height="13.417" rx="5.536"/></g><g id="Layer_22" data-name="Layer 22"><path id="Path_199" data-name="Path 199" class="cls-3" d="M159.6348,209.37781l-12.085-2.112c-2.779-.482-3.318-4.409-.691-5.43l.343-.108,11.1-2.975,11.108-2.975a3.127,3.127,0,0,1,3.806,3.806l-2.975,11.1-2.975,11.108a2.99542,2.99542,0,0,1-.114.336c-1.021,2.626-4.942,2.087-5.43-.685Z"/><line id="Line_127" data-name="Line 127" class="cls-8" x1="119.47381" y1="249.54681" x2="159.63481" y2="209.37881"/></g></g></g></svg>