<svg id="Layer_1" data-name="Layer 1" xmlns="http://www.w3.org/2000/svg" viewBox="0 0 300 300"><defs><style>.cls-1{fill:#fff;}.cls-2{fill:#2f6e84;}.cls-3{fill:#3e5768;}.cls-4{fill:#444;}.cls-5{fill:#a0a0a0;}.cls-6{fill:#eaa89b;}.cls-7{fill:#fca;}.cls-8{fill:#e0e0e0;}.cls-9{fill:#fcb03b;}</style></defs><path class="cls-1" d="M272.2,237a150.17854,150.17854,0,0,1-101.09,61.52c-.33.05-.65.1-.98.13a150.784,150.784,0,0,1-40.19.01c-.31-.03-.61-.07-.92-.12a.10849.10849,0,0,1-.05-.01A150.15675,150.15675,0,0,1,27.8,237Z"/><path class="cls-1" d="M300,150A150.04638,150.04638,0,0,1,171.11,298.52c-.33.05-.65.1-.98.13a150.784,150.784,0,0,1-40.19.01c-.31-.03-.61-.07-.92-.12a.10849.10849,0,0,1-.05-.01A150.00534,150.00534,0,1,1,300,150Z"/><g id="Group_63" data-name="Group 63"><g id="Mask_Group_4" data-name="Mask Group 4"><g id="Layer_13" data-name="Layer 13"><path id="Path_120" data-name="Path 120" class="cls-2" d="M188.96,210.37l-.5,2.48L183.57,237l-12.46,61.52A149.268,149.268,0,0,0,247,264.41a100.35584,100.35584,0,0,0-22.47-41.71q-1.75506-1.95007-3.63-3.81-2.88-2.88006-5.93-5.48a99.47472,99.47472,0,0,0-17.7-12.07c-1.99-1.07-4.01-2.07-6.06-2.98-2.57-1.17-5.18-2.21-7.82-3.14-1.18-.42-2.36-.81-3.55-1.17a100.60113,100.60113,0,0,0-59.6-.03h-.01a98.89092,98.89092,0,0,0-17.42,7.27,100.43925,100.43925,0,0,0-49.8,63.13,149.24848,149.24848,0,0,0,75.96,34.11.10849.10849,0,0,0,.05.01L116.52,237l-4.9-24.16-1.03-5.07h36.92l2.56-12.79.04-.2,2.6,12.99h36.78l-.53,2.59Z"/><path id="Path_121" data-name="Path 121" class="cls-3" d="M150.026,194.779l2.52,12.989h-5.04Z"/><path class="cls-1" d="M147.51,207.77l-.58,3.01-3.4,17.57L141.86,237l-10.67,55.2-1.25,6.46c-.31-.03-.61-.07-.92-.12a.10849.10849,0,0,1-.05-.01L116.49,237l-4.9-24.19-1.02-5.04Z"/><path class="cls-1" d="M189.49,207.77l-.53,2.59v.01l-.5,2.48L183.57,237l-12.46,61.52c-.33.05-.65.1-.98.13l-1.27-6.45L158.2,237l-1.67-8.63-3.4-17.59-.58-3.01Z"/><path class="cls-4" d="M170.13,298.65a150.784,150.784,0,0,1-40.19.01l1.25-6.46L141.86,237l1.67-8.65,3.4-17.57.58-3.01h5.04l.58,3.01,3.4,17.59L158.2,237l10.66,55.2Z"/><path id="Path_125" data-name="Path 125" class="cls-1" d="M152.546,207.768h-5.04l2.52-12.989Z"/><path id="Path_126" data-name="Path 126" class="cls-5" d="M196.606,137.287H103.498c-19.042,0-32.4-17.12-29.953-37.046l1.454-12.054a38.662,38.662,0,0,1,1.117-5.533A19.588,19.588,0,0,0,94.847,96.449H205.309a19.614,19.614,0,0,0,18.73-13.743,34.73032,34.73032,0,0,1,1.117,5.482l1.455,12.054C228.975,120.167,215.7,137.287,196.606,137.287Z"/><rect id="Rectangle_237" data-name="Rectangle 237" class="cls-6" x="74.817" y="115.985" width="150.39101" height="43.93" rx="15"/><path id="Path_127" data-name="Path 127" class="cls-7" d="M204.422,62.443V173.736a18.523,18.523,0,0,0-18.523-18.523h-71.7a18.523,18.523,0,0,0-18.523,18.523h0V62.443Z"/><path id="Path_128" data-name="Path 128" class="cls-5" d="M204.422,173.736v.572a52.51225,52.51225,0,0,1-.26,5.378,54.374,54.374,0,0,1-108.227,0,52.49789,52.49789,0,0,1-.26-5.378v-.572a18.523,18.523,0,0,1,18.523-18.523h71.703A18.523,18.523,0,0,1,204.422,173.736Z"/><path id="Path_129" data-name="Path 129" class="cls-5" d="M95.678,174.308a52.498,52.498,0,0,0,.26,5.378,16.18414,16.18414,0,0,1-.26-2.988Z"/><path id="Path_130" data-name="Path 130" class="cls-5" d="M204.423,174.308v2.39a16.18587,16.18587,0,0,1-.26,2.988A52.5094,52.5094,0,0,0,204.423,174.308Z"/><path id="Path_131" data-name="Path 131" class="cls-1" d="M125.502,173.113h49.074a8.157,8.157,0,0,1,8.157,8.157h0a29.486,29.486,0,0,1-29.382,29.512H146.83a29.486,29.486,0,0,1-29.485-29.486h0a8.157,8.157,0,0,1,8.131-8.183Z"/><circle id="Ellipse_56" data-name="Ellipse 56" class="cls-7" cx="150.026" cy="155.213" r="11.509"/><path id="Path_132" data-name="Path 132" class="cls-4" d="M225.235,78.134l-1.039,3.845a5.944,5.944,0,0,1-.234.727,19.614,19.614,0,0,1-18.653,13.743H94.849A19.588,19.588,0,0,1,76.117,82.656a5.2,5.2,0,0,1-.208-.675l-1.065-3.845Z"/><path id="Path_133" data-name="Path 133" class="cls-8" d="M227.989,68.055l-2.754,10.08H74.844L72.09,68.081A25.979,25.979,0,0,1,97.056,35.425H203.023a25.979,25.979,0,0,1,24.966,32.629Z"/><circle id="Ellipse_57" data-name="Ellipse 57" class="cls-9" cx="150.026" cy="56.727" r="14.288"/><circle id="Ellipse_58" data-name="Ellipse 58" class="cls-4" cx="121.242" cy="115.985" r="8.911"/><circle id="Ellipse_59" data-name="Ellipse 59" class="cls-4" cx="178.837" cy="115.985" r="8.911"/><path id="Path_134" data-name="Path 134" class="cls-4" d="M178.316,183.919a6.77993,6.77993,0,0,1,3.533.987,10.67708,10.67708,0,0,1,2.442,2.026,26.13371,26.13371,0,0,1,3.2,4.364c1.767,3.04,3.221,6.053,4.7,9.041a73.77907,73.77907,0,0,0,9.482,16.159,8.417,8.417,0,0,0,5.2,3.325,12.02819,12.02819,0,0,0,2.91-.468,9.54241,9.54241,0,0,0,1.377-.572c.364-.312.831-.416,1.117-.779a9.482,9.482,0,0,0,2.832-5.2,18.31361,18.31361,0,0,0,.494-3.637v-1.917a10.1297,10.1297,0,0,0-.156-1.611,7.85808,7.85808,0,1,1,14.938-4.884,8.02711,8.02711,0,0,1,.39,2.91v1.663a25.72228,25.72228,0,0,1-.416,3.325c-.182,1.013-.416,2-.675,2.988a37.12884,37.12884,0,0,1-2.078,5.9,22.65312,22.65312,0,0,1-8.989,10.392,20.78649,20.78649,0,0,1-3.3,1.455,24.45178,24.45178,0,0,1-3.377.753,23.20039,23.20039,0,0,1-3.273.156,14.23634,14.23634,0,0,1-3.637-.39,14.75606,14.75606,0,0,1-6.339-3.3,23.61374,23.61374,0,0,1-4.053-4.624,50.81312,50.81312,0,0,1-4.91-9.638c-1.273-3.2-2.39-6.339-3.481-9.456s-2.156-6.183-3.455-9.015a22.261,22.261,0,0,0-2.182-3.819,4.1,4.1,0,0,0-2.312-1.819h-.364a2.13,2.13,0,0,1-1.76744-2.43926l.00044-.00274a2.156,2.156,0,0,1,2.156-1.87Z"/></g></g></g></svg>