<svg id="Layer_1" data-name="Layer 1" xmlns="http://www.w3.org/2000/svg" xmlns:xlink="http://www.w3.org/1999/xlink" viewBox="0 0 300 300"><defs><style>.cls-1,.cls-10,.cls-5,.cls-8{fill:none;}.cls-2{fill:#fff;}.cls-3{fill:#67a0b8;}.cls-4{clip-path:url(#clip-path);}.cls-5,.cls-8{stroke:#93bd59;}.cls-10,.cls-5,.cls-8{stroke-miterlimit:10;stroke-width:5.139px;}.cls-6{fill:#396eb5;}.cls-7{fill:#2f6e83;}.cls-8{stroke-linecap:round;}.cls-9{fill:#444;}.cls-10{stroke:#444;}.cls-11{fill:#2f6e84;}</style><clipPath id="clip-path"><circle class="cls-1" cx="150.01181" cy="150.01181" r="150"/></clipPath></defs><circle id="Ellipse_17-2" data-name="Ellipse 17-2" class="cls-2" cx="150" cy="150" r="150"/><ellipse id="Ellipse_106" data-name="Ellipse 106" class="cls-3" cx="139.54131" cy="96.99682" rx="52.52742" ry="34.01776" transform="translate(-5.83116 185.01389) rotate(-65.99681)"/><g class="cls-4"><g id="Mask_Group_16" data-name="Mask Group 16"><g id="Layer_16" data-name="Layer 16"><path id="Path_257" data-name="Path 257" class="cls-5" d="M210.04081,266.70782c0-32.875-31.1-47.967-57.128-48.147-26.874-.158-50.537,6.852-57.689,16.651a6.3091,6.3091,0,0,0-1.285,3.773"/><path id="Path_258" data-name="Path 258" class="cls-6" d="M167.47881,263.13982a3.35051,3.35051,0,0,1-.034.582l.034.03Z"/><path id="Path_259" data-name="Path 259" class="cls-6" d="M87.41281,262.42181v1.328c.03,0,.03-.03.064,0A9.161,9.161,0,0,1,87.41281,262.42181Z"/><path id="Path_260" data-name="Path 260" class="cls-6" d="M167.47881,262.42181v.715a4.99909,4.99909,0,0,0,.034-.715Z"/><path id="Path_261" data-name="Path 261" class="cls-7" d="M165.65881,42.13182c-15.846-8.343-41.23,8.673-56.652,38-7.813,14.858-11.564,30.028-11.324,42.465v190.253a9.19232,9.19232,0,0,0,.064,1.328c1,14.394,18.506,25.834,40,25.834s38.966-11.474,39.966-25.864a3.37625,3.37625,0,0,0,.034-.587V71.51582C178.29681,57.68681,174.25381,46.65082,165.65881,42.13182Zm5.229,33.731c-.428,9.632-3.542,20.859-9.341,31.894-12.784,24.313-33.808,38.417-46.96,31.5-6.484-3.426-9.85-11.294-10.052-21.324-.214-10.309,2.9-22.891,9.384-35.217,12.784-24.313,33.808-38.416,46.969-31.5,7.178,3.773,10.527,13.041,10,24.643Z"/><path id="Path_262" data-name="Path 262" class="cls-8" d="M93.93481,238.98482c0,23.44,116.106,16.176,116.106,27.722"/><rect id="Rectangle_275" data-name="Rectangle 275" class="cls-9" x="120.15881" y="165.22282" width="35.153" height="15.174" rx="2.283"/><path id="Path_263" data-name="Path 263" class="cls-10" d="M137.78181,229.20382c0,33.221,72.259,4.347,72.259,37.5v24.069"/><rect id="Rectangle_276" data-name="Rectangle 276" class="cls-11" x="123.94881" y="168.88482" width="27.568" height="7.85" rx="1.079"/><path id="Path_264" data-name="Path 264" class="cls-9" d="M149.87681,206.68482v14.613a7.987,7.987,0,0,1-7.983,7.983h-8.318a7.983,7.983,0,0,1-7.979-7.983v-14.613a1.075,1.075,0,0,1,1.071-1.079l.004,0h22.125a1.079,1.079,0,0,1,1.079,1.079h.001Z"/><rect id="Rectangle_277" data-name="Rectangle 277" class="cls-11" x="127.75181" y="208.56082" width="19.962" height="9.212" rx="0.424"/></g></g></g></svg>