<svg id="Layer_1" data-name="Layer 1" xmlns="http://www.w3.org/2000/svg" viewBox="0 0 300 300"><defs><style>.cls-1{fill:#fff;}.cls-2{fill:#ff3030;}.cls-3,.cls-4{isolation:isolate;}.cls-4{font-size:16px;font-family:MuseoSansRounded-500, Museo Sans Rounded;font-weight:500;}.cls-4,.cls-7{fill:#444;}.cls-5{letter-spacing:-0.008em;}.cls-6{letter-spacing:-0.00299em;}.cls-8{fill:none;stroke:#fff;}</style></defs><circle id="Ellipse_17-2" data-name="Ellipse 17-2" class="cls-1" cx="150" cy="150" r="150"/><g id="Group_83" data-name="Group 83"><circle id="Ellipse_118" data-name="Ellipse 118" class="cls-2" cx="150" cy="55" r="40"/><circle id="Ellipse_119" data-name="Ellipse 119" class="cls-1" cx="150" cy="55" r="34"/><g id="Max_4_Pers." data-name="Max 4 Pers." class="cls-3"><text class="cls-4" transform="translate(134.78406 50)">Max</text><text class="cls-4" transform="translate(125.18408 69)">4 <tspan class="cls-5" x="13.55176" y="0">P</tspan><tspan x="22.95996" y="0">e</tspan><tspan class="cls-6" x="31.67969" y="0">r</tspan><tspan x="37.32764" y="0">s.</tspan></text></g></g><g id="Group_84" data-name="Group 84"><circle id="Ellipse_111" data-name="Ellipse 111" class="cls-2" cx="150" cy="150" r="40"/><circle id="Ellipse_114" data-name="Ellipse 114" class="cls-1" cx="150" cy="150" r="34"/><g id="Group_79" data-name="Group 79"><path id="Rectangle_283" data-name="Rectangle 283" class="cls-7" d="M145,145h10a5,5,0,0,1,5,5v23a2,2,0,0,1-2,2H142a2,2,0,0,1-2-2V150A5,5,0,0,1,145,145Z"/><path id="Path_286" data-name="Path 286" class="cls-7" d="M146.82123,127h6.359l1.06,30h-8.479Z"/></g><rect id="Rectangle_282" data-name="Rectangle 282" class="cls-2" x="112.00017" y="146.00029" width="76" height="6" transform="translate(-61.42508 149.70731) rotate(-45)"/></g><g id="Group_85" data-name="Group 85"><circle id="Ellipse_112" data-name="Ellipse 112" class="cls-2" cx="150" cy="245" r="40"/><circle id="Ellipse_115" data-name="Ellipse 115" class="cls-1" cx="150" cy="245" r="34"/><g id="Group_78" data-name="Group 78"><rect id="Rectangle_285" data-name="Rectangle 285" class="cls-7" x="126" y="233" width="50" height="30" rx="3"/><rect id="Rectangle_286" data-name="Rectangle 286" class="cls-7" x="131" y="225" width="40" height="30" rx="3"/><path id="Rectangle_287" data-name="Rectangle 287" class="cls-1" d="M135,228h32a1,1,0,0,1,1,1v4H134v-4A1,1,0,0,1,135,228Z"/><g id="Ellipse_120" data-name="Ellipse 120"><circle class="cls-7" cx="139" cy="248" r="10"/><circle class="cls-8" cx="139" cy="248" r="9.5"/></g><g id="Ellipse_121" data-name="Ellipse 121"><circle class="cls-7" cx="163" cy="248" r="10"/><circle class="cls-8" cx="163" cy="248" r="9.5"/></g><circle id="Ellipse_122" data-name="Ellipse 122" class="cls-1" cx="139" cy="248" r="3"/><circle id="Ellipse_123" data-name="Ellipse 123" class="cls-1" cx="163" cy="248" r="3"/></g><rect id="Rectangle_284" data-name="Rectangle 284" class="cls-2" x="112.00017" y="242.00029" width="76" height="6" transform="translate(-129.30733 177.82506) rotate(-45)"/></g></svg>