<svg id="Layer_1" data-name="Layer 1" xmlns="http://www.w3.org/2000/svg" xmlns:xlink="http://www.w3.org/1999/xlink" viewBox="0 0 300 300"><defs><style>.cls-1,.cls-12,.cls-4,.cls-7{fill:none;}.cls-2{fill:#fff;}.cls-3{clip-path:url(#clip-path);}.cls-11,.cls-12,.cls-4,.cls-7{stroke:#444;}.cls-11,.cls-12,.cls-4{stroke-linecap:round;}.cls-12,.cls-4,.cls-7{stroke-miterlimit:10;}.cls-11,.cls-4,.cls-7{stroke-width:2.177px;}.cls-5{fill:#fc3339;}.cls-11,.cls-6{fill:#888;}.cls-8{fill:#444;}.cls-9{fill:#2f6e83;}.cls-10{fill:#67a0b8;}.cls-11{stroke-linejoin:round;}.cls-12{stroke-width:10.451px;}</style><clipPath id="clip-path"><circle class="cls-1" cx="150.01181" cy="150.01181" r="150"/></clipPath></defs><circle id="Ellipse_17-2" data-name="Ellipse 17-2" class="cls-2" cx="150.01181" cy="150.01181" r="150"/><g class="cls-3"><g id="Mask_Group_18" data-name="Mask Group 18"><g id="Layer_24" data-name="Layer 24"><path id="Path_274" data-name="Path 274" class="cls-4" d="M186.45881,207.30681c0,24.169,52.978-5.312,52.978,16.818"/><path id="Path_275" data-name="Path 275" class="cls-5" d="M222.81681,222.27681h121.546a11.938,11.938,0,0,1,11.938,11.938h0a47.252,47.252,0,0,1-47.247,47.257h-50.924a47.251,47.251,0,0,1-47.251-47.251v-.006h0A11.938,11.938,0,0,1,222.81681,222.27681Z"/><path id="Path_276" data-name="Path 276" class="cls-6" d="M-46.27819,101.92981l348.988,200.165h-348.988Z"/><path id="Path_277" data-name="Path 277" class="cls-7" d="M186.45881,207.30681c0-12-11.354-17.531-20.861-17.577-9.805-.058-18.448,2.5-21.037,6.077a2.285,2.285,0,0,0-.467,1.379"/><rect id="Rectangle_281" data-name="Rectangle 281" class="cls-8" x="60.59481" y="145.14881" width="48.309" height="105.201" rx="5.417"/><circle id="Ellipse_108" data-name="Ellipse 108" class="cls-8" cx="84.74581" cy="125.96381" r="19.184"/><path id="Path_278" data-name="Path 278" class="cls-9" d="M175.23281,113.16081c-6.942-3.653-18.039,3.792-24.788,16.625-3.389,6.428-5.031,13.022-4.95,18.436h0v103.834a3.8411,3.8411,0,0,0,0,.584c.444,6.3,8.1,11.3,17.531,11.3s17.063-5.02,17.484-11.313a1.27012,1.27012,0,0,0,0-.257v-126.353C180.77281,119.96281,179.00581,115.13581,175.23281,113.16081Zm-1.8,28.709c-5.592,10.638-14.79,16.812-20.546,13.785-2.834-1.5-4.307-4.944-4.394-9.35a32.952,32.952,0,0,1,4.09-15.4c5.592-10.641,14.8-16.812,20.546-13.785,3.144,1.654,4.611,5.709,4.377,10.787a33.735,33.735,0,0,1-4.067,13.96Z"/><path id="Path_279" data-name="Path 279" class="cls-9" d="M177.52382,127.93381a33.97509,33.97509,0,0,1-4.09,13.949c-5.592,10.641-14.79,16.812-20.546,13.785-2.834-1.5-4.307-4.944-4.394-9.35Z"/><path id="Path_280" data-name="Path 280" class="cls-9" d="M177.52381,127.93281a33.97506,33.97506,0,0,1-4.09,13.949c-5.592,10.641-14.79,16.812-20.546,13.785-2.834-1.5-4.307-4.944-4.394-9.35a32.952,32.952,0,0,1,4.09-15.4c5.588-10.639,14.796-16.809,20.546-13.782C176.29081,118.78781,177.75781,122.84381,177.52381,127.93281Z"/><path id="Path_281" data-name="Path 281" class="cls-10" d="M177.52381,127.93281a33.97506,33.97506,0,0,1-4.09,13.949c-5.592,10.641-14.79,16.812-20.546,13.785-2.834-1.5-4.307-4.944-4.394-9.35a32.952,32.952,0,0,1,4.09-15.4c5.588-10.639,14.796-16.809,20.546-13.782C176.29081,118.78781,177.75781,122.84381,177.52381,127.93281Z"/><path id="Path_282" data-name="Path 282" class="cls-11" d="M142.81881,144.78681l5.108-24.479h13.691l-5.1,24.479Z"/><line id="Line_135" data-name="Line 135" class="cls-12" x1="100.99681" y1="153.48681" x2="144.08081" y2="133.92881"/><path id="Path_283" data-name="Path 283" class="cls-4" d="M144.06981,197.18581c0,8.555,42.389,5.9,42.389,10.121"/></g></g></g></svg>