<svg id="Layer_1" data-name="Layer 1" xmlns="http://www.w3.org/2000/svg" viewBox="0 0 300 300"><defs><style>.cls-1{fill:#fff;}.cls-2{fill:#444;}.cls-3{fill:#fc3339;}.cls-4{fill:#2b6d84;}.cls-5{fill:none;stroke:#444;stroke-linecap:round;stroke-miterlimit:10;stroke-width:5px;}</style></defs><path class="cls-1" d="M300.01181,150.01181a151.03393,151.03393,0,0,1-2.61,28,149.96295,149.96295,0,0,1-134.71009,121.47q-6.2699.52506-12.67993.53-6.405,0-12.67993-.53a150.00329,150.00329,0,1,1,162.67993-149.47Z"/><g id="Mask_Group_9" data-name="Mask Group 9"><g id="Layer_17" data-name="Layer 17"><rect id="Rectangle_259" data-name="Rectangle 259" class="cls-2" x="42.65481" y="159.04981" width="23.296" height="38.048" rx="10.565"/><circle id="Ellipse_90" data-name="Ellipse 90" class="cls-2" cx="54.29781" cy="149.80081" r="9.257"/><path id="Path_217" data-name="Path 217" class="cls-3" d="M35.59681,187.10982h76.86a6.217,6.217,0,0,1,6.217,6.217h0a30.124,30.124,0,0,1-30.124,30.124h-29.08a30.124,30.124,0,0,1-30.124-30.124v-.002h0a6.217,6.217,0,0,1,6.217-6.217Z"/><path class="cls-4" d="M284.13181,217.2518a150.07029,150.07029,0,0,1-121.44007,82.23H137.33188a150.07017,150.07017,0,0,1-121.44006-82.23,13.72377,13.72377,0,0,0,2.86.28c8.27,0,9.22-5.94,15.72-7.38995a13.93832,13.93832,0,0,1,3.04-.31c9.41,0,9.35,7.7,18.75,7.7s9.33-7.7,18.74-7.7c9.41,0,9.34,7.7,18.75,7.7,9.41,0,9.35-7.7,18.76-7.7.42,0,.82.02,1.2.05,8.21991.62,8.56,7.65,17.55,7.65,9.40991,0,9.35-7.7,18.75-7.7s9.33008,7.7,18.74,7.7c9.41,0,9.3501-7.7,18.76-7.7,9.4,0,9.33008,7.7,18.74,7.7,9.41,0,9.34009-7.7,18.75-7.7,9.41,0,9.34009,7.7,18.75,7.7,9.41,0,9.3501-7.7,18.76-7.7s9.34009,7.7,18.75,7.7A13.82349,13.82349,0,0,0,284.13181,217.2518Z"/></g></g><g id="Group_74" data-name="Group 74"><path id="Path_183" data-name="Path 183" class="cls-5" d="M122.77481,58.22281s14.329-14.289,28.855,0"/><path id="Path_184" data-name="Path 184" class="cls-5" d="M93.61681,58.22281s14.329-14.289,28.855,0"/></g><g id="Group_75" data-name="Group 75"><path id="Path_284" data-name="Path 284" class="cls-5" d="M215.77481,101.22281s14.329-14.289,28.855,0"/><path id="Path_285" data-name="Path 285" class="cls-5" d="M186.61681,101.22281s14.329-14.289,28.855,0"/></g></svg>