<svg id="Layer_1" data-name="Layer 1" xmlns="http://www.w3.org/2000/svg" xmlns:xlink="http://www.w3.org/1999/xlink" viewBox="0 0 300 300"><defs><style>.cls-1,.cls-12,.cls-5,.cls-8{fill:none;}.cls-2{fill:#fff;}.cls-3{fill:#67a0b8;}.cls-4{clip-path:url(#clip-path);}.cls-12,.cls-5,.cls-8{stroke:#444;stroke-miterlimit:10;}.cls-5,.cls-8{stroke-width:5.139px;}.cls-6{fill:#396eb5;}.cls-7{fill:#2f6e83;}.cls-12,.cls-8{stroke-linecap:round;}.cls-9{fill:#93bd59;}.cls-10{fill:#2f6e84;}.cls-11{fill:#444;}.cls-12{stroke-width:5.568px;}</style><clipPath id="clip-path"><circle class="cls-1" cx="150.01181" cy="150.01181" r="150"/></clipPath></defs><circle id="Ellipse_17-2" data-name="Ellipse 17-2" class="cls-2" cx="150.01181" cy="150.01181" r="150"/><ellipse id="Ellipse_106" data-name="Ellipse 106" class="cls-3" cx="139.54131" cy="96.99682" rx="52.52742" ry="34.01776" transform="translate(-5.83116 185.01389) rotate(-65.99681)"/><g class="cls-4"><g id="Mask_Group_17" data-name="Mask Group 17"><g id="Layer_16" data-name="Layer 16"><path id="Path_265" data-name="Path 265" class="cls-5" d="M210.03981,266.70981c0-32.874-31.1-47.966-57.127-48.146-26.874-.158-50.536,6.852-57.688,16.651a6.30807,6.30807,0,0,0-1.285,3.773"/><path id="Path_266" data-name="Path 266" class="cls-6" d="M167.47781,263.14181a3.35052,3.35052,0,0,1-.034.582l.034.03Z"/><path id="Path_267" data-name="Path 267" class="cls-6" d="M87.41281,262.42481v1.328c.03,0,.03-.03.064,0A9.161,9.161,0,0,1,87.41281,262.42481Z"/><path id="Path_268" data-name="Path 268" class="cls-6" d="M167.47781,262.42481v.715a5.0008,5.0008,0,0,0,.035-.715Z"/><path id="Path_269" data-name="Path 269" class="cls-7" d="M165.65781,42.13181c-15.867-8.338-41.23,8.664-56.652,38-7.812,14.862-11.563,30.031-11.324,42.468v190.252a9.19225,9.19225,0,0,0,.064,1.328c1,14.39,18.506,25.833,40,25.833s38.967-11.474,39.967-25.868a3.32314,3.32314,0,0,0,.034-.582V71.51581C178.29581,57.68681,174.25281,46.65081,165.65781,42.13181Zm5.229,33.731c-.428,9.632-3.538,20.865-9.341,31.9-12.784,24.309-33.808,38.412-46.96,31.5-6.484-3.426-9.85-11.3-10.052-21.328-.214-10.313,2.908-22.891,9.383-35.213,12.784-24.313,33.808-38.416,46.969-31.5C168.06481,54.99281,171.41281,64.26481,170.8868,75.86281Z"/><path id="Path_270" data-name="Path 270" class="cls-8" d="M93.93481,238.98781c0,23.439,116.1,16.176,116.1,27.722"/><rect id="Rectangle_278" data-name="Rectangle 278" class="cls-9" x="120.15781" y="165.22581" width="35.153" height="15.174" rx="2.283"/><path id="Path_271" data-name="Path 271" class="cls-5" d="M137.78081,229.20581c0,33.221,72.258,4.347,72.258,37.5v24.069"/><rect id="Rectangle_279" data-name="Rectangle 279" class="cls-10" x="123.94781" y="168.88781" width="27.568" height="7.85" rx="1.079"/><path id="Path_272" data-name="Path 272" class="cls-9" d="M149.87581,206.68681v14.613a7.987,7.987,0,0,1-7.983,7.983h-8.317a7.983,7.983,0,0,1-7.979-7.983v-14.613a1.075,1.075,0,0,1,1.071-1.079l.004,0h22.125a1.079,1.079,0,0,1,1.079,1.079Z"/><path id="Path_273" data-name="Path 273" class="cls-11" d="M137.72981,184.65281l6.783,4.758a1.927,1.927,0,0,0,2.921-2.261c-.03-.073-.069-.141-.107-.214l-3.884-6.72-3.88-6.724a2.111,2.111,0,0,0-3.657,0l-3.88,6.724-3.88,6.72a1.66821,1.66821,0,0,0-.107.214,1.926,1.926,0,0,0,2.917,2.261Z"/><line id="Line_134" data-name="Line 134" class="cls-12" x1="137.72981" y1="184.65281" x2="137.72981" y2="200.07481"/><rect id="Rectangle_280" data-name="Rectangle 280" class="cls-10" x="127.75081" y="208.56281" width="19.962" height="9.212" rx="0.424"/></g></g></g></svg>