<svg id="Layer_1" data-name="Layer 1" xmlns="http://www.w3.org/2000/svg" xmlns:xlink="http://www.w3.org/1999/xlink" viewBox="0 0 300 300"><defs><style>.cls-1,.cls-12,.cls-5,.cls-8{fill:none;}.cls-2{fill:#fff;}.cls-3{fill:#67a0b8;}.cls-4{clip-path:url(#clip-path);}.cls-12,.cls-5,.cls-8{stroke:#444;stroke-miterlimit:10;}.cls-5,.cls-8{stroke-width:5.139px;}.cls-6{fill:#396eb5;}.cls-7{fill:#2f6e83;}.cls-12,.cls-8{stroke-linecap:round;}.cls-9{fill:#93bd59;}.cls-10{fill:#2f6e84;}.cls-11{fill:#444;}.cls-12{stroke-width:5.567px;}</style><clipPath id="clip-path"><circle class="cls-1" cx="150.01181" cy="150.01181" r="150"/></clipPath></defs><circle id="Ellipse_17-2" data-name="Ellipse 17-2" class="cls-2" cx="150.01181" cy="150.01181" r="150"/><ellipse id="Ellipse_106" data-name="Ellipse 106" class="cls-3" cx="139.54131" cy="96.99682" rx="52.52742" ry="34.01776" transform="translate(-5.83116 185.01389) rotate(-65.99681)"/><g class="cls-4"><g id="Mask_Group_15" data-name="Mask Group 15"><g id="Layer_16" data-name="Layer 16"><path id="Path_248" data-name="Path 248" class="cls-5" d="M210.03881,266.70181c0-32.873-31.1-47.965-57.126-48.145-26.874-.158-50.535,6.852-57.687,16.651a6.308,6.308,0,0,0-1.285,3.773"/><path id="Path_249" data-name="Path 249" class="cls-6" d="M167.47781,263.1348a3.34971,3.34971,0,0,1-.034.582l.034.03Z"/><path id="Path_250" data-name="Path 250" class="cls-6" d="M87.41481,262.4198v1.328c.03,0,.03-.03.064,0A9.1609,9.1609,0,0,1,87.41481,262.4198Z"/><path id="Path_251" data-name="Path 251" class="cls-6" d="M167.47781,262.4198v.715a5.00022,5.00022,0,0,0,.037-.715Z"/><path id="Path_252" data-name="Path 252" class="cls-7" d="M165.65781,42.13381c-15.863-8.343-41.225,8.659-56.646,38-7.747,14.732-11.507,29.76-11.328,42.141v190.577a9.18939,9.18939,0,0,0,.064,1.328c1.006,14.394,18.51,25.833,40,25.833s38.993-11.474,39.967-25.863a3.37642,3.37642,0,0,0,.034-.587V71.51981C178.29981,57.68781,174.25281,46.6518,165.65781,42.13381Zm5.233,33.73c-.428,9.632-3.542,20.861-9.34,31.893-12.784,24.312-33.807,38.415-46.959,31.498-6.484-3.426-9.85-11.289-10.056-21.323-.21-10.312,2.908-22.89,9.388-35.212,12.783-24.316,33.807-38.419,46.963-31.5,7.182,3.773,10.531,13.041,10,24.642Z"/><path id="Path_253" data-name="Path 253" class="cls-8" d="M93.93681,238.98081c0,23.439,116.1,16.175,116.1,27.721"/><rect id="Rectangle_272" data-name="Rectangle 272" class="cls-9" x="120.15881" y="165.2208" width="35.152" height="15.173" rx="2.283"/><path id="Path_254" data-name="Path 254" class="cls-5" d="M137.78181,229.1988c0,33.22,72.257,4.347,72.257,37.5v24.068"/><rect id="Rectangle_273" data-name="Rectangle 273" class="cls-10" x="123.94881" y="168.8828" width="27.567" height="7.85" rx="1.079"/><path id="Path_255" data-name="Path 255" class="cls-9" d="M149.87681,206.6808v14.612a7.987,7.987,0,0,1-7.983,7.983h-8.317a7.983,7.983,0,0,1-7.979-7.983v-14.612a1.075,1.075,0,0,1,1.071-1.079l.004,0h22.124a1.079,1.079,0,0,1,1.079,1.079h.001Z"/><path id="Path_256" data-name="Path 256" class="cls-11" d="M137.73081,190.4068l6.784-4.758a1.927,1.927,0,0,1,2.921,2.261,2.0013,2.0013,0,0,1-.107.214l-3.884,6.724-3.88,6.719a2.111,2.111,0,0,1-3.657,0l-3.88-6.707-3.88-6.724a1.42573,1.42573,0,0,1-.107-.214,1.926,1.926,0,0,1,2.916-2.261Z"/><line id="Line_133" data-name="Line 133" class="cls-12" x1="137.73081" y1="190.4198" x2="137.73081" y2="174.9978"/><rect id="Rectangle_274" data-name="Rectangle 274" class="cls-10" x="127.75181" y="208.55681" width="19.961" height="9.212" rx="0.424"/></g></g></g></svg>