<svg id="Layer_1" data-name="Layer 1" xmlns="http://www.w3.org/2000/svg" viewBox="0 0 300 300"><defs><style>.cls-1{fill:#fff;}.cls-2{fill:#ff3030;}.cls-3{isolation:isolate;}.cls-4{fill:#444;}.cls-5{fill:none;stroke:#fff;}</style></defs><circle id="Ellipse_17-2" data-name="Ellipse 17-2" class="cls-1" cx="150" cy="150" r="150"/><g id="Group_83" data-name="Group 83"><circle id="Ellipse_118" data-name="Ellipse 118" class="cls-2" cx="150" cy="55" r="40"/><circle id="Ellipse_119" data-name="Ellipse 119" class="cls-1" cx="150" cy="55" r="34"/><g id="Max_4_Pers." data-name="Max 4 Pers." class="cls-3"><g class="cls-3"><path class="cls-4" d="M136.67188,39.2002a.48871.48871,0,0,1,.54394-.4961h.71973a.57377.57377,0,0,1,.59277.416l2.44727,5.69629c.06445.15918.12793.32714.19238.5039.06445.17578.12207.33887.17578.48731.06445.18164.12793.35742.19238.52832h.03223q.07909-.25635.17578-.52832c.05274-.14844.11133-.31153.17578-.48731.06446-.17676.12793-.34472.19238-.5039l2.44727-5.69629a.57378.57378,0,0,1,.59277-.416h.71973a.4892.4892,0,0,1,.54395.4961l.832,10.25585a.45121.45121,0,0,1-.51172.544h-.5127a.49574.49574,0,0,1-.54394-.51172l-.51172-6.6084a5.44285,5.44285,0,0,1-.04-.54394c-.00586-.19239-.00781-.373-.00781-.544,0-.19238.00488-.38379.01562-.57617h-.03222q-.11133.3047-.208.5918-.09522.25635-.19922.55273-.10547.29591-.2002.51953L142.416,47.55176a.59975.59975,0,0,1-.6084.416h-.52735a.59974.59974,0,0,1-.60839-.416l-2.08008-4.67188c-.06348-.14941-.13086-.32031-.2002-.51172q-.104-.28857-.19922-.56054-.11279-.30323-.208-.624h-.03223v1.14454a4.4167,4.4167,0,0,1-.03223.55175l-.51172,6.6084A.48823.48823,0,0,1,136.87988,50h-.52832a.45121.45121,0,0,1-.51172-.544Z"/><path class="cls-4" d="M148.76758,47.792a2.28653,2.28653,0,0,1,.24023-1.08008,2.25543,2.25543,0,0,1,.63965-.75976,3.5894,3.5894,0,0,1,.9043-.4961,5.76391,5.76391,0,0,1,1.04785-.28808,9.38023,9.38023,0,0,1,1.06348-.12793q.52-.03224.93652-.03223h.416v-.208a2.31012,2.31012,0,0,0-.13575-.83984,1.39859,1.39859,0,0,0-.376-.55176,1.42117,1.42117,0,0,0-.56055-.2959,2.58935,2.58935,0,0,0-.6875-.08789,3.07784,3.07784,0,0,0-1.08008.17579,4.80839,4.80839,0,0,0-.74414.33593.49654.49654,0,0,1-.71973-.19238l-.1289-.22363a.469.469,0,0,1,.17676-.71973,7.0477,7.0477,0,0,1,1.03125-.44824,4.69763,4.69763,0,0,1,1.59277-.24024,3.23905,3.23905,0,0,1,2.35156.80762,3.14476,3.14476,0,0,1,.832,2.36035v4.5918A.46671.46671,0,0,1,155.03906,50h-.39941a.46671.46671,0,0,1-.52832-.52832v-.6875a.66658.66658,0,0,1,.0166-.16016c.00977-.043.02051-.085.03125-.12793h-.03125a3.23607,3.23607,0,0,1-.6084.84766,3.3957,3.3957,0,0,1-.8164.584,2.56041,2.56041,0,0,1-1.21583.26465,3.31752,3.31752,0,0,1-1.02343-.16015,2.58722,2.58722,0,0,1-.87207-.47266,2.34637,2.34637,0,0,1-.60059-.752A2.20651,2.20651,0,0,1,148.76758,47.792Zm1.56836-.12793a1.28341,1.28341,0,0,0,.376.8877,1.45636,1.45636,0,0,0,1.12793.4082,1.82446,1.82446,0,0,0,.91993-.23242,2.20406,2.20406,0,0,0,.6875-.60742,2.95869,2.95869,0,0,0,.43261-.832,2.86527,2.86527,0,0,0,.15137-.9043v-.35156h-.416c-.28808,0-.61816.01367-.99218.04a4.64053,4.64053,0,0,0-1.07129.20019,2.20559,2.20559,0,0,0-.86426.48731A1.177,1.177,0,0,0,150.33594,47.66406Z"/><path class="cls-4" d="M159.4873,45.83984l-2.208-3.29589a.43194.43194,0,0,1-.07227-.45606.44648.44648,0,0,1,.42481-.18359h.60742a.63949.63949,0,0,1,.6084.36816l1.31152,2.0957a.81344.81344,0,0,0,.08789.16016.74225.74225,0,0,1,.08789.16016l.08008.15918h.03223c.03222-.05274.06445-.10645.0957-.15918a1.16615,1.16615,0,0,1,.08008-.16016c.03222-.05371.06445-.10644.09668-.16016l1.2959-2.0957a.67251.67251,0,0,1,.624-.36816h.5918a.4457.4457,0,0,1,.42382.18359.42991.42991,0,0,1-.07226.45606l-2.19141,3.29589,2.35156,3.52051a.43176.43176,0,0,1,.07227.45606A.44572.44572,0,0,1,163.3916,50h-.57617a.67252.67252,0,0,1-.624-.36816l-1.48828-2.33594a1.46444,1.46444,0,0,0-.09571-.14356.626.626,0,0,1-.08008-.14453.54532.54532,0,0,1-.08007-.16015H160.415a.54532.54532,0,0,1-.08008.16015.94763.94763,0,0,1-.07129.14453c-.02734.042-.05664.09082-.08789.14356l-1.48828,2.33594a.67252.67252,0,0,1-.624.36816h-.57618a.4457.4457,0,0,1-.42382-.18359.42975.42975,0,0,1,.07226-.45606Z"/></g><g class="cls-3"><path class="cls-4" d="M126.08008,65.97559a.46612.46612,0,0,1-.52735-.52735v-.09668A1.14769,1.14769,0,0,1,125.59961,65a1.25753,1.25753,0,0,1,.16016-.30371L130.56055,58.04a.70887.70887,0,0,1,.623-.33594h.88086a.46641.46641,0,0,1,.52735.52832v6.39942h1.00781a.46671.46671,0,0,1,.52832.52832v.28808q0,.52734-.44824.52735H132.5918v2.49609A.46641.46641,0,0,1,132.06445,69h-.51172a.4674.4674,0,0,1-.52929-.52832V65.97559Zm4.94336-1.34375V60.51953c0-.12793.00293-.25781.00879-.3916.00488-.13281.01269-.25293.02441-.36035.00977-.11719.02539-.23926.04688-.36719h-.03125q-.09669.15967-.17579.31934-.08056.1289-.17578.2959a2.71875,2.71875,0,0,1-.209.3125l-3.19922,4.27148v.03223Z"/><path class="cls-4" d="M140.17578,58.23242a.46641.46641,0,0,1,.52735-.52832h3.60058a4.00355,4.00355,0,0,1,1.42481.24805,3.11151,3.11151,0,0,1,1.11914.71191,3.30458,3.30458,0,0,1,.72851,1.12012,3.87282,3.87282,0,0,1,.26367,1.456,3.93215,3.93215,0,0,1-.26367,1.46387,3.37307,3.37307,0,0,1-.72851,1.13574,3.16162,3.16162,0,0,1-1.11914.72852,3.901,3.901,0,0,1-1.42481.25586h-2.55957v3.64746A.46671.46671,0,0,1,141.21582,69h-.51269a.46641.46641,0,0,1-.52735-.52832Zm3.87207,5.21582a2.15966,2.15966,0,0,0,1.6084-.59179,2.20384,2.20384,0,0,0,.584-1.61622,2.11925,2.11925,0,0,0-.584-1.59179,2.18692,2.18692,0,0,0-1.5918-.56836h-2.32031v4.36816Z"/><path class="cls-4" d="M148.752,64.95215a4.657,4.657,0,0,1,.3125-1.74414,4.01716,4.01716,0,0,1,.84766-1.33594,3.7264,3.7264,0,0,1,1.2793-.85644,4.22512,4.22512,0,0,1,1.60839-.30372A3.66208,3.66208,0,0,1,154.28809,61a3.05733,3.05733,0,0,1,1.09668.7998,3.56792,3.56792,0,0,1,.67187,1.21583,4.95289,4.95289,0,0,1,.23145,1.55273.53944.53944,0,0,1-.15137.38379.51885.51885,0,0,1-.39258.16015h-5.4082a3.10108,3.10108,0,0,0,.27148,1.168,2.73063,2.73063,0,0,0,.625.86328,2.55116,2.55116,0,0,0,.8711.52833,3.02979,3.02979,0,0,0,1.0332.17578,2.90588,2.90588,0,0,0,1.168-.21582,3.76256,3.76256,0,0,0,.76758-.42383.46833.46833,0,0,1,.71972.17578l.14356.24023a.51967.51967,0,0,1,.08789.39161.49382.49382,0,0,1-.24805.3125,4.57362,4.57362,0,0,1-.44726.28027,4.3757,4.3757,0,0,1-.61622.2793,5.20071,5.20071,0,0,1-.76855.21582,4.44234,4.44234,0,0,1-.90332.08886,4.49452,4.49452,0,0,1-1.74414-.32812,4.16341,4.16341,0,0,1-1.35254-.89649,3.9565,3.9565,0,0,1-.87891-1.34375A4.42025,4.42025,0,0,1,148.752,64.95215Zm5.98438-.86426a2.2396,2.2396,0,0,0-.59961-1.61621,1.91155,1.91155,0,0,0-1.36914-.544,2.25977,2.25977,0,0,0-1.543.56836,2.62379,2.62379,0,0,0-.82422,1.5918Z"/><path class="cls-4" d="M157.98438,61.43164a.46611.46611,0,0,1,.52734-.52734H158.96a.46641.46641,0,0,1,.52832.52734v.92871c0,.085-.0039.165-.00781.23926a1.44854,1.44854,0,0,1-.02539.19238,1.19246,1.19246,0,0,0-.01563.17578h.03223a3.71239,3.71239,0,0,1,.36035-.78418,3.08663,3.08663,0,0,1,.55176-.67968,2.77283,2.77283,0,0,1,.71191-.4795,1.98531,1.98531,0,0,1,.85547-.18457.46007.46007,0,0,1,.5127.52832v.44825q0,.52734-.57617.52734a1.80541,1.80541,0,0,0-1.03223.2959,2.583,2.583,0,0,0-.73633.76074,3.46467,3.46467,0,0,0-.43945,1.06348,5.11612,5.11612,0,0,0-.14453,1.19238v2.81543A.46641.46641,0,0,1,159.00781,69h-.49609a.46641.46641,0,0,1-.52734-.52832Z"/><path class="cls-4" d="M163.31152,68.31152a.41152.41152,0,0,1-.22363-.31933.65866.65866,0,0,1,.11133-.40039l.16016-.22364a.50164.50164,0,0,1,.32812-.22461.76292.76292,0,0,1,.4082.11231,7.587,7.587,0,0,0,.76758.416,2.77776,2.77776,0,0,0,1.2168.24023,1.64605,1.64605,0,0,0,.99219-.28027.92117.92117,0,0,0,.38281-.792.766.766,0,0,0-.31153-.63964,3.63409,3.63409,0,0,0-.77636-.44043q-.4629-.19923-1-.38379a4.649,4.649,0,0,1-1-.4795,2.8186,2.8186,0,0,1-.77539-.72851,1.86793,1.86793,0,0,1-.3125-1.12012,2.14894,2.14894,0,0,1,.23242-1.01562,2.076,2.076,0,0,1,.63183-.72852,2.99438,2.99438,0,0,1,.93653-.43945,4.10039,4.10039,0,0,1,1.12695-.15235,3.76842,3.76842,0,0,1,1.40039.22364,6.14564,6.14564,0,0,1,.83985.40039.44475.44475,0,0,1,.26464.2959.5741.5741,0,0,1-.08886.4082l-.14356.24023q-.22411.39992-.7041.17578a5.35878,5.35878,0,0,0-.66406-.30371,2.69791,2.69791,0,0,0-.9834-.16015,1.73,1.73,0,0,0-.96777.25586.8559.8559,0,0,0-.39258.76758.78557.78557,0,0,0,.3125.64843,3.21928,3.21928,0,0,0,.77539.43946q.46436.19335,1,.38476a5.53286,5.53286,0,0,1,1,.47168,2.56707,2.56707,0,0,1,.77637.71973,1.90733,1.90733,0,0,1,.31152,1.12793,2.179,2.179,0,0,1-.79981,1.71191,2.75386,2.75386,0,0,1-.91992.4961,3.81244,3.81244,0,0,1-1.19238.17675,4.62008,4.62008,0,0,1-.93555-.08886,4.38047,4.38047,0,0,1-.75976-.22364,4.78141,4.78141,0,0,1-.59961-.28808A3.23259,3.23259,0,0,1,163.31152,68.31152Z"/><path class="cls-4" d="M170.52734,67.84766a.46642.46642,0,0,1,.52832-.52735h.6084a.46611.46611,0,0,1,.52735.52735v.624A.46641.46641,0,0,1,171.66406,69h-.6084a.46672.46672,0,0,1-.52832-.52832Z"/></g></g></g><g id="Group_84" data-name="Group 84"><circle id="Ellipse_111" data-name="Ellipse 111" class="cls-2" cx="150" cy="150" r="40"/><circle id="Ellipse_114" data-name="Ellipse 114" class="cls-1" cx="150" cy="150" r="34"/><g id="Group_79" data-name="Group 79"><path id="Rectangle_283" data-name="Rectangle 283" class="cls-4" d="M145,145h10a5,5,0,0,1,5,5v23a2,2,0,0,1-2,2H142a2,2,0,0,1-2-2V150A5,5,0,0,1,145,145Z"/><path id="Path_286" data-name="Path 286" class="cls-4" d="M146.82123,127h6.359l1.06,30h-8.479Z"/></g><rect id="Rectangle_282" data-name="Rectangle 282" class="cls-2" x="112.00017" y="146.00029" width="76" height="6" transform="translate(-61.42508 149.70731) rotate(-45)"/></g><g id="Group_85" data-name="Group 85"><circle id="Ellipse_112" data-name="Ellipse 112" class="cls-2" cx="150" cy="245" r="40"/><circle id="Ellipse_115" data-name="Ellipse 115" class="cls-1" cx="150" cy="245" r="34"/><g id="Group_78" data-name="Group 78"><rect id="Rectangle_285" data-name="Rectangle 285" class="cls-4" x="126" y="233" width="50" height="30" rx="3"/><rect id="Rectangle_286" data-name="Rectangle 286" class="cls-4" x="131" y="225" width="40" height="30" rx="3"/><path id="Rectangle_287" data-name="Rectangle 287" class="cls-1" d="M135,228h32a1,1,0,0,1,1,1v4H134v-4A1,1,0,0,1,135,228Z"/><g id="Ellipse_120" data-name="Ellipse 120"><circle class="cls-4" cx="139" cy="248" r="10"/><circle class="cls-5" cx="139" cy="248" r="9.5"/></g><g id="Ellipse_121" data-name="Ellipse 121"><circle class="cls-4" cx="163" cy="248" r="10"/><circle class="cls-5" cx="163" cy="248" r="9.5"/></g><circle id="Ellipse_122" data-name="Ellipse 122" class="cls-1" cx="139" cy="248" r="3"/><circle id="Ellipse_123" data-name="Ellipse 123" class="cls-1" cx="163" cy="248" r="3"/></g><rect id="Rectangle_284" data-name="Rectangle 284" class="cls-2" x="112.00017" y="242.00029" width="76" height="6" transform="translate(-129.30733 177.82506) rotate(-45)"/></g></svg>